<?xml version="1.0" encoding="UTF-8"?>
<!DOCTYPE svg PUBLIC "-//W3C//DTD SVG 1.1//EN" "http://www.w3.org/Graphics/SVG/1.1/DTD/svg11.dtd">
<!-- Creator: CorelDRAW 2021 (64 Bit) -->
<svg xmlns="http://www.w3.org/2000/svg" xml:space="preserve" width="156.402mm" height="179.877mm" version="1.1" style="shape-rendering:geometricPrecision; text-rendering:geometricPrecision; image-rendering:optimizeQuality; fill-rule:evenodd; clip-rule:evenodd"
viewBox="0 0 7695.34 8850.39"
 xmlns:xlink="http://www.w3.org/1999/xlink"
 xmlns:xodm="http://www.corel.com/coreldraw/odm/2003">
 <defs>
  <style type="text/css">
   <![CDATA[
    .fil0 {fill:#09060C}
    .fil5 {fill:#26242B}
    .fil4 {fill:#464248}
    .fil8 {fill:#747076}
    .fil3 {fill:#8CB581}
    .fil11 {fill:#BAC3C4}
    .fil6 {fill:#C1DD9D}
    .fil9 {fill:#DAE7EF}
    .fil10 {fill:#E33350}
    .fil7 {fill:#ECAE91}
    .fil1 {fill:#FDDDBE}
    .fil2 {fill:#FDFDFD}
   ]]>
  </style>
 </defs>
 <g id="Camada_x0020_1">
  <metadata id="CorelCorpID_0Corel-Layer"/>
  <g id="_2233853020368">
   <path class="fil0" d="M2324 8624.48l-150.22 -47.5 27.76 -932.99c49.06,12.8 113.52,58.36 154.83,91.75l-32.37 888.75zm3282.92 -1037.28c128.09,-21.95 331.94,-128.72 411.83,-209.46 65.2,-65.89 26.88,-53.49 142.25,-80.08 38.83,60.15 89.85,61.44 153.62,153.16 104.72,150.61 330.19,534.24 188.22,708.55 -30.06,36.9 -745.01,384.66 -868.96,396.29 16.06,-290.5 -15.49,-667.81 -26.98,-968.45zm-225.04 127.41l141.79 -97.17 43.66 975.38 -146.77 35.37 -38.69 -913.58zm-2266.86 178.19c489.09,100.45 986.78,128.73 1491.53,0.19l-299.78 916.51 -777.44 3.22c-120.28,-3.14 -115.27,-34.56 -146.46,-130.15 -87.99,-269.65 -180.66,-532.87 -267.85,-789.77zm-1027.39 660.8l-703.87 -318.48c-89.47,-43.01 -146.52,-92.5 -212.56,-127.16 -66.88,-413.71 333.21,-778.07 347.5,-816.73 98.08,17.43 32.34,-11.92 157.51,95.28 45.86,39.27 95.71,67.89 147.12,96.65 359.58,201.15 304.96,-44.54 290.94,617.34 -2.95,139.48 -1.3,320.36 -26.63,453.12zm-1268.73 -662.8c-211.02,-73.22 -274.9,-306.28 -273.07,-520 1.03,-120.92 46.52,-222.32 97.43,-302.96 46.41,-73.52 132.04,-142.92 192.99,-191.89 -44.72,89.02 -121.61,375.04 -134.92,494.75 -25.26,227.2 55.62,348.37 117.57,520.1zm6282.46 -822.15c39.83,68.31 79.4,104.68 107.23,211.85 49.04,104.24 -4.01,287.34 -45.21,392.46 -38.08,97.15 -141.35,206.89 -228.63,235.79 113.51,-129.51 129.95,-268 153.29,-486.25l-78.16 -295c-61.35,-54.16 -41.79,-93.98 -99.73,-153.25 -67.36,-68.9 -62.14,-32.01 -115.12,-124.85 63.88,7.83 191.67,93.89 243.54,134.58 62.67,49.16 41.18,7.1 62.79,84.67zm-4287.64 -59.31l-77.25 -203.73 168.99 -95.34 87.66 -70.79c95.18,101.27 141.28,134.76 316.8,100.37 62.39,180.72 210.18,165.32 364.62,93.99 53.77,52.09 61.09,98.67 182.37,92.91 95.25,-4.51 148.18,-42.68 171.85,-112.65 151.1,102.44 229.3,110.26 353.18,-32.21 2.37,-2.72 5.74,-6.85 8.04,-9.47 21.29,-24.22 9.55,-11.98 25.6,-27.67 186.85,50.76 242.98,-23.34 312.25,-112.08 29.65,17.73 77.79,60.39 101.38,78 49.11,27.36 84.16,36.64 116.78,77.66 69.69,-11.5 24.39,-12.59 40.27,16.04 -53.79,86.15 -152.8,439.89 -196.86,558.53 -35.69,96.08 -64.75,188.55 -97.34,284.03 -55,161.13 -17.76,174.36 -190.72,210.87 -237.87,50.22 -459.49,66.62 -710.25,63.23 -164.59,-2.22 -575.02,-32.09 -693.89,-96.8l-283.48 -814.89zm894.49 -246.2c-30.05,-236.03 258.05,-255.81 288.22,-83.15 39.92,228.41 -268.58,237.42 -288.22,83.15zm618.07 0c-107.17,153.21 -357.9,25.64 -242.6,-158.38 90.76,-144.85 357.84,-6.36 242.6,158.38zm-966.47 -52.1c-12.62,-81.39 55.1,-161.24 122.23,-169.88 92.05,-11.84 156.98,47.89 167.22,121.6 28.65,206.05 -264.93,206.48 -289.45,48.28zm1024.55 -138.94c-16.65,-201.5 268.41,-186.88 291.76,-30.9 26.76,178.84 -273.97,246.22 -291.76,30.9zm-1061.23 34.73c-74.23,187.28 -318.08,60.46 -268.66,-94.37 53.94,-168.98 347.68,-104.98 268.66,94.37zm-123.5 -382.25c-39.48,96.71 -12.96,66.39 -82.74,124.95 -55.77,46.8 -72.81,57.46 -113.88,110.14 -119.08,152.79 -64.56,95.95 -242.2,200.71l-81.57 1.96c-22.6,-29.58 -40.14,-68.88 -77.8,-92.1 -20.75,293.18 159.11,543.11 207.07,802.38 84.6,176.03 456.98,1332.98 460.91,1418.24l-116.84 -11.61c-121.75,-10.51 -631.85,-105.28 -713.03,-157.1 -74.27,-117.61 -3.96,-644.14 -11.73,-823.19 58.44,19.29 121.01,71.45 160.89,127.81 83.35,1.72 61.08,71.64 169.19,150 57.17,41.44 138.44,125.36 148.47,180.07 37.07,26.19 6.23,1.21 34.63,32.48 1.06,1.17 26.34,32.51 26.78,33 35.36,39.43 25.1,59.94 41.53,13.58 -17.07,-53.09 -15.09,-71.55 -51.56,-109.28 -51.69,-66.6 -86.41,-126.61 -130.44,-186.72 -58.91,-80.42 -239.81,-238.74 -322.27,-300.72 -208.72,-156.9 -376.38,-245.15 -616.11,-354.83 -202.12,-92.47 -313.97,-187.79 -205.2,-351.98 55.02,-83.05 71.31,-56.84 167.59,-145.27l38.72 -30.53c90.08,-64.19 35.33,-42.39 126.57,-115.45 182.2,-145.91 261.91,-317.73 473.39,-482.78 47.38,-36.98 135.97,-93.18 207.16,-124.42 157.3,-69.04 365.88,-106.04 542.45,-105.95l-39.98 196.59zm1631.63 1909.58c-61.79,20 -104.36,183.34 -117.03,246.43 106.94,-48.07 67.52,-101.38 168.3,-167.38 44.74,-91.1 296.74,-348.53 351.08,-388.71 55.51,-41.04 52.33,-31.65 76.49,-31.27l25.47 844.45 -665.34 122.66 -196.55 28.74 115.48 -451.31c19.88,-127.07 90.11,-293.12 130.49,-415.18 50.63,-153.07 89.08,-286.94 139.7,-433.96 85.49,-248.3 266.71,-635.47 260.04,-899.17 -26.54,-22.13 -0.56,-10.67 -46.13,-15.07l-47.63 99.37c-231.5,-34.53 -301.32,-219.37 -387.03,-289.79 -54.67,-44.91 -75.7,-44.31 -98.61,-130.51 -39.18,-68.47 -54.37,-129.75 -50.24,-215.14 323.35,-57.29 751.31,214.83 868.6,353.75l338.44 356.91c27.07,23.82 23.97,24.71 41.72,43.25 196.66,205.51 564.81,298.41 176.6,535.77 -183.87,112.42 -452.76,199.25 -692.69,400.59 -39.37,33.03 -40.97,42.31 -80.79,73.52 -84.82,66.48 -253.23,234.35 -310.38,332.04zm-4405.53 -1232.08c-153.14,-112.33 -173.24,-414.19 -74.77,-648 17.76,-42.18 31.26,-66.52 53.73,-102.51l73.08 -100.51c-5.92,71.27 -27.85,136.74 -40.02,215.38 -62.59,404.39 82.5,378.9 4.46,581.47 -13.8,35.81 -6.02,9.2 -16.48,54.17zm6800.1 -920.49c175.96,117.97 300.2,686.35 52.04,868.39 -37.26,-77.74 -36.39,-95.7 -14,-186.84 35.73,-145.41 22.94,-321.14 -0.5,-458.62 -14.88,-87.24 -37.54,-133.11 -37.54,-222.93zm0 0zm-3833.64 -430.84l3833.64 430.84zm-3833.64 -430.84c142.38,48.42 238.6,122.67 417.59,150.18 178.53,27.44 314.41,-53.29 457.69,-111.23l109.81 -52.39c19.81,403.5 -83.24,413.11 109.4,830.97 -83.76,26.36 -134.33,60.19 -150.78,157.38 -68.86,-30.54 -96.11,-59.06 -186.91,-30.1 -63.1,20.12 -96.31,67.74 -136.55,103.33 -49.09,-89 -148.65,-119.57 -243.88,-68.6l-88.73 59.94c-72.47,-121.05 -145.84,-122.71 -288.28,-69.3 -35.36,-108.4 -62.07,-110.06 -131.11,-172.1 113.05,-186.66 116.12,-569.77 89.71,-821.9l42.05 23.81zm-1895.2 700.73c-63.27,44.38 -105.18,105.24 -174.49,158.88 -32.6,25.23 -64.24,50.45 -97.29,75.74 -37.94,29.03 -60.44,51.2 -105.38,80.07 -16.5,55.31 -132.53,103.09 -188.23,132.84 -99.1,52.92 -124.12,98.22 -220.59,119.05 -129.84,95.59 -181.96,154.22 -240.09,379.26 3.33,1.36 9.64,-1.18 10.49,2.48 17.18,74.2 14.19,2.26 15.61,2.16 0.43,-0.03 4.08,-0.91 4.43,-0.97l2.64 -3.66c-65.38,211.21 -47.05,259.28 0.86,478.09 -41.21,-103.26 -100.72,-146.4 -106.73,-304.91 -4.87,-128.34 14.73,-262.94 64.77,-376.78 73.08,-166.24 266.3,-527.6 361.77,-629.86 31.56,-33.81 20.95,-14.22 51.42,-51.81 137.77,-169.96 148.95,-155.59 215.26,-236.54l276.97 -278.22c55.77,-67.65 -9.85,-19.56 100.78,-124.41 14.07,-13.34 3.47,-0.37 25.17,-27.44l109.95 -189.99c-9.75,-43.81 41.14,-158.95 48.36,-222.04 12.83,-112.11 1.79,-219.32 11.4,-325.01 39.99,117.57 143.58,179.89 188.44,287.31 143.77,344.26 -48.76,819.94 -355.51,1055.75zm4585.1 -716.48c20.2,44.08 104.12,154.07 144.81,195.92 59.8,61.51 136.6,105.84 189.14,158.88 157,83.46 261.28,243.19 369.79,359.2 143.1,152.99 379.16,534.97 466.3,747.34 63.67,155.17 143.07,366.72 43.1,548.82 -0.58,-202.67 23.03,-303.14 -79.38,-477.14 -62.15,-105.6 -182.74,-242.53 -269.5,-298.53l-15.42 30.88c-80.69,-30.92 -294.66,-175.41 -381.29,-245.55l-87.72 -68.77c-15.79,-17.32 -21.75,-30.94 -31.59,-44.53 -187.7,-124.72 -513.51,-495.47 -551.36,-706.53 -147.26,-92.12 -146.05,-506.57 -110.73,-676.29 30.86,-148.36 72.1,-182.38 109.05,-306.62 34.1,-114.67 52.24,-259.19 116.89,-319.01 34.11,51.19 15.99,128.79 16.3,194.47 0.41,87.66 20.57,111.64 26.52,189.96 38.63,507.91 -24.18,456.29 316.38,982.96 -147.28,-32.93 -156.61,-207.32 -241.91,-264.12 -38.89,-25.9 5.42,-36.78 -29.38,-1.35zm-713.19 759.57c-153.04,-56.62 -251.74,-323.31 -302.86,-549.69 -58.66,-259.73 26.45,-614.4 161.61,-665.64 7.68,229.48 -26.43,417.69 12.81,653.32 30.79,184.89 109.23,383.38 128.43,562zm-2896.2 -1251.5c53.29,16.35 11.94,-26.76 55.96,48.57 100.38,171.78 155.96,700.19 55.08,964.54 -49.81,130.5 -28.82,55.04 -161.72,153.92 -38.1,28.35 -36.66,29.72 -69.79,47.45 6.36,-107.55 145.55,-338.11 124.13,-901.49 -5.69,-149.78 -42.76,-262.5 -3.66,-312.99zm3401.35 970.36c22.14,67.26 112.44,201.53 151.38,249.81 47.93,59.43 162.08,171.05 181.6,210.41l136.64 94.21c83.51,61.64 49.82,4.17 80.14,84.77 52.93,38.84 131.34,113.03 180.1,177.38 47.37,62.51 111.5,170.47 146.8,236.98 144.69,272.64 109.49,300.75 110.99,595.7 -33.4,204.59 -65.57,303.82 -205.64,390.07 23.66,-239.54 -29.72,-394.6 -110.78,-589.86l-273.56 -427.37c-45.13,-38.77 -63.48,-74.15 -103.47,-116.82 -23.54,-25.11 -30.12,-25.63 -53.15,-50.68 -24.06,-26.17 -29.84,-41.68 -49.24,-70.56 -106.23,-102.96 -120.7,-145.55 -203.64,-267.52 -116.29,-171.03 -136.43,-258.08 -210.82,-446.76 -6.04,-15.31 -18.02,-62.21 -19.43,-65.49l-49.58 -69.01c4.84,328.44 128.42,468.71 159.09,618.31 -296.13,-113.87 -477.85,-1134.94 -385.49,-1541.77 90.19,36.91 220.51,28.93 317.73,10.13 -11.56,47.36 -21.01,30.34 -30.43,110.38 -51.57,438.4 187.53,649.31 230.77,867.71zm827.92 -544.87c26.71,54.95 57.36,88.16 90.51,148.03 32.63,58.95 55.54,103.45 93.07,166.99 58.39,40.13 158.44,240.56 183.7,304.67 50.04,127.01 72.47,257 94.87,392.46l6.94 121.58c-5.69,-3.14 -12.72,-14.42 -15.35,-10.72 -15.67,22.05 -72.39,-95.37 -102.76,-142.14 -80.64,-124.2 -156.14,-274.69 -264.61,-376.9 -51.56,-48.59 -39.65,-26.99 -65.48,-91.91 -9.04,-21.54 -3.97,-11.56 -16.77,-44.07l-14.34 1.81c-141.7,-51.81 -259.28,-143.8 -334.37,-269.72 -71.77,-120.35 -136.91,-259.33 -182.14,-408.24 -90.81,-299 -93.21,-786.93 9.77,-1048.61 40.16,42.2 106.08,237.74 132.45,299.35 45.69,106.72 86.04,215.72 126.96,326.73l257.55 630.69zm-4993.95 1255.7l-161.9 222.88c-28.22,45.23 -63.56,77.34 -102.06,105.79 -74.8,55.3 -46.5,48.43 -101.2,103.06 -58.41,129.99 -395.16,462.89 -273.17,853.99 -103.45,-64.98 -137.31,-39.52 -187.53,-229.09 -33.8,-127.55 -33.14,-305.67 28.61,-400.01 66.27,-259.44 229.53,-602.84 379.24,-704.1 20.04,-75.37 -14.6,8.33 17.17,-37.54 2.69,-3.88 32.66,-34.66 34.45,-36.16 25.33,-21.25 43.67,-30.24 72.1,-50.14 98.77,-69.11 34.53,-78.72 136.63,-127.06 57.57,-33.46 140.06,-161 186.59,-224.3 55.63,-75.69 112.1,-198.47 160.85,-281.16 5.44,-60.7 67.54,-146.96 99.64,-292.64 28.71,-130.27 32.73,-235.54 37,-374.27l228.26 109.26c-20.89,-75.02 -57.35,-94.31 -94.62,-153.41 -72.56,-115.09 -177.91,-440.32 -160.49,-574.95 189.71,165.02 184.34,127.66 303.62,433.36 150.68,386.18 64.29,878.41 -113.51,1245.95l-164.25 217.47c-46.94,51.88 -131.83,149.38 -202.99,181.39 82.99,-166.64 149.37,-163.43 151.72,-411.64 -33.61,58.11 -93.34,113.91 -134.45,199.43 -25.05,52.11 -28,59.64 -59.44,114.57l-48.2 76.98c-14.02,16.58 -18.25,18.89 -32.08,32.37zm5188.22 -2097.37c101.8,68.25 260.21,373.5 260.21,521.03 0,88.05 -17.35,94.63 -17.35,191.04 -46.43,-34.06 -161.24,-209.53 -184.44,-284.27 -26.09,-84.02 -16.58,-120.01 -28.29,-214.83 -7.5,-60.72 -30.13,-135.12 -30.13,-212.98zm-6123.56 208.41c0,315.75 84.5,193.94 -89.33,431.6 -30.29,41.41 -44.88,78 -84.15,106.8 -5.6,-67.37 -17.73,-60.27 -33.66,-122.61 -61.4,-240.21 37.89,-439.1 185.51,-628.5 39.75,-50.99 1.04,-27.78 56.32,-47.81 -21.63,45.13 -34.69,187.97 -34.69,260.52zm1231.28 -377.83l18.08 -44.32c-10.39,-116.91 67.3,-381.1 121.43,-466.65l216.24 682.05c-78.23,13.11 -123.91,29.6 -212.42,11.6l-131.16 -63.77c-3.07,-2.49 -8.13,-7.27 -10.61,-9.36 -2.52,-2.12 -7.14,-6.38 -10.68,-9.61l9.12 -99.95zm-1191.15 1001.73c-16.75,32.49 -7.22,30.64 -45.33,53.54 -32.82,77.62 -179,252.84 -237.44,312.63 -50.06,51.2 -73.01,102.95 -118.51,159.95 -140.25,175.69 -230.98,364.33 -208.41,620.38 22.64,256.94 153.47,296.6 165.71,377.2 -49.54,-8.82 -28.63,-4.78 -64.76,-28.32 -65.53,-42.7 -122.43,-99.86 -156.89,-170.16 -132.16,-269.6 -7.25,-633.03 136.35,-838.88l102.84 -128.97c126.86,-157.37 242.35,-346.4 357.21,-506.76 64.01,-89.36 125.65,-164.08 182.67,-251.01 60.75,-92.59 129.25,-182.18 188.47,-265.38 6.39,-46.39 197.22,-384.55 271.09,-594.12 5.23,-14.83 13.98,-42.06 18.6,-52.66 0.98,-2.26 12.11,-24.88 12.54,-25.7l14.9 -25.16c47.14,94.24 111.4,515.74 133.72,657.51 32.7,207.73 14.56,299.49 -36.77,489.98 -6.92,25.69 -13.34,55.47 -23.03,79.95 -1.02,2.57 -15.72,33.7 -18.17,37.89 -12.38,21.18 -15.87,24.74 -26.26,36.84l-66.03 142.29c1.77,1.53 6.36,-1.6 6.96,0.79 21.08,84.01 2.46,-0.05 14.23,1.27 48.74,5.48 -19.3,-40.31 30.6,5.08 -68.08,145.98 -166.55,189.51 -226.93,257.54 -114.67,129.2 19.01,16.35 -162.49,142.01 -16.71,36.82 -4.27,17.52 -31.21,45.42 -10.32,10.69 -35.19,27.31 -49.99,37.1 -135.68,89.66 -17.38,44.43 -155.72,157.39 -54.33,44.37 -44.21,42.37 -78.32,94.94 -71.89,110.77 -188.15,275.41 -220.77,421.95 -23.12,-77.79 -24.55,-280.3 15.52,-337.77 -7.22,-159.85 142.18,-440.7 228.18,-563.79 19.1,-27.34 44.39,-53.74 57.72,-68.52 63.77,-94.19 169.44,-216.78 219.4,-333.15 13.25,-63.93 288.85,-601.89 371.45,-825.91 -87.43,89.04 -311.53,529.83 -415.5,676.28 -57.99,81.68 -103.08,173.93 -185.65,208.33zm43.52 -465.27c36.71,-152.7 7.93,-284.87 37.91,-433.15 29.77,-147.28 72.04,-284.2 170.74,-342.92 -12.28,150.52 -31.2,295.39 -55.3,435.64 -27.01,157.2 -64.36,241.09 -153.35,340.43zm1514.62 -677.46c92.14,71.84 159.74,213.65 432.4,257.45 394.37,63.36 732.1,-194.11 803.7,-617.65 20.14,-119.11 47.34,-147.78 174.71,-172.92 99.72,-19.68 228.5,-3.39 304.22,39.66 33.84,51.41 20.47,45.67 30.39,114.78 102.13,711.64 875.91,822.43 1229.68,386.44 23.79,-29.32 31.5,-50.06 67.32,-76.31 -200.36,462.11 -160.69,501.66 -544.82,867.81 -166.06,158.29 -628.05,462.52 -938.29,487.97 -448.12,36.76 -1475.39,-602.22 -1559.31,-1287.25zm3053.1 180.83c11.87,-52.99 167.78,-536.81 190.29,-562.61 7.6,-410.2 416.72,-518.29 508.65,-201.43 95.55,329.37 -117.7,640.26 -371.27,696.29 42.36,103.63 76.21,131.55 57.89,273.93 -57.88,449.69 -580.93,273.84 -449.95,-34.51 148.72,11.33 122.09,76.79 162.88,164.73 76.07,-8.5 42.38,7.35 80.94,-42.27 5.56,-7.17 41.99,-74.76 47.19,-90.89 22,-68.29 26.63,-192.33 4.91,-250.35 -68.28,3.28 -51.62,-44.07 -96.12,124.76l-155.68 -34.76 20.26 -42.89zm-695.61 -893.89c175.3,-27.96 217.29,171.79 11.1,153.67 -62.42,-81.95 -55.83,-77.46 -11.1,-153.67zm-1556.91 152.7l-95.37 6.11c-27.06,-56.07 -39.94,-75.68 -19.88,-147.53 99.23,-33.44 138.76,-3.12 158.37,92.76l-43.12 48.67zm-1628.3 466.73c-69.08,-210.99 -115.05,-623.98 119,-677.48 -11.05,141.4 -65.57,570.23 -119,677.48zm1704.07 -283.12c-19.31,104.5 -122.66,187.08 -263.98,160.26 -61.15,-11.61 -116.59,-61.34 -139.4,-88.47 -40.14,-47.76 -43.23,-90.04 -60.41,-154.18 0.23,-78.13 1.09,-77.85 30.35,-142.12 21.02,-46.19 26.52,-71.57 42.99,-108.21l161.32 -4.47c-35.31,124.93 10.48,125.65 50.49,195.52 58.75,2.41 54.01,8.99 109.87,-10.02 57.31,-19.5 -0.05,-40.28 59.17,-29.55 29.58,36.44 56.13,131.58 9.59,181.23zm1679.54 -22.4c-18.68,118.01 -114.44,203.72 -265.05,186.54 -70.43,-8.03 -109.01,-50.5 -139.69,-87.68 -52.08,-63.1 -41.98,-86.25 -51.98,-173.72 -6.82,-174.52 67.61,-165.21 104.9,-218.81 2.55,-3.67 11.34,-24.76 14.04,-29.88l124 -17.76c-98.94,7.69 -85.86,235.09 84.26,222.12 66.82,-5.1 84.5,-48.14 121.33,-78.1 12.4,43.9 57.76,167.53 8.19,197.3zm1224.51 -752.3c68.56,102.89 101.95,387.98 158.52,539.97l553.99 1357.23c76.72,113.64 54.98,107.09 177.56,273.46l380.99 555.65c138.19,265.82 321.1,582.77 97.24,906.5 -54.28,78.5 -128.77,115.73 -164.18,164.42 2.28,-46.95 54.75,-145.8 78.65,-199.82 32,-72.33 53.74,-147.04 62.76,-232.34 34.17,-323.16 -149.59,-501.89 -208.94,-656.94 -33.39,-87.24 -69.61,-100.24 -127.22,-173.92l-196.57 -255.66c-7.88,-11.9 -22.85,-37.4 -26.42,-42.31l-52.65 -56.69c19.67,90.97 120.49,206.02 172.01,285.7 75.91,117.4 96.88,192.28 103.65,357.87l-393.46 -624.96c-150.78,-228.99 -488.55,-1004.95 -492.49,-1218.98 25.45,69.65 22.54,96.31 62.91,155.07 -73.22,-509.37 -190.68,-702.17 -186.34,-1134.26zm-1191.59 467.86c149.24,62.31 207.81,179.37 271.13,175.75 79.83,-27.31 113.9,-93.86 209.07,-103.15 34.14,943.13 -960.05,1029.57 -1211.78,412.92 -150.14,-367.78 53.81,-700.73 316.92,-803.79 335.45,-131.39 753.04,16.05 844.27,293.74 -198.65,29.72 -135.58,-16.99 -268.01,-104.92 -82.73,-54.93 -200.45,-95.5 -324.88,-83.21 -591.39,58.38 -487.24,877.55 -4.1,732.66 197.04,-59.09 277.71,-292.4 167.4,-519.99zm-2627.48 -29.89c165.73,-409.93 890.87,-496.23 1150.37,-3.18 79.35,150.78 77.6,334.74 23.32,497.86 -219.9,660.95 -1275.8,533.17 -1222.36,-389.59 106.14,14.92 102.39,79.73 223.77,101.12 85.78,-51.29 144.16,-148.43 260.12,-188.23 -34.13,107.26 -95.61,176.8 -35.16,329.94 177.17,448.86 796.12,149.61 561.22,-302.73l-67.18 -88.82c-206.55,-202.53 -524.31,-172.81 -694.62,-1.38 -26,26.18 -18.94,32.42 -49.95,53.96 -45.28,31.46 -93.28,13.45 -149.54,-8.94zm2221.99 -653.8c70.1,5.81 152.35,-7.01 244.64,2.38 139.55,14.19 175.15,14.37 198.72,103.34l-530.02 18.15c-23.94,-24.78 -17.28,-30.75 -17.43,7.99 52.82,16.77 467.54,-1.98 618.26,24.04 29.54,52.56 70.89,108.46 92.3,168.02 -215.92,-104.49 -442.23,-107.91 -667.48,-8.58 -263.67,116.27 -311.97,351.44 -373,437.37 -190.09,-88.33 -338.76,-42.89 -520,4.76 -121.82,-255.66 -140.18,-327.49 -386.8,-446.45 -237.55,-114.58 -449.75,-73.84 -673.15,15.95 44.59,-130.35 70.17,-155.42 128.54,-171.02 257.42,-68.83 821.22,69.22 594.34,-130.89l24.73 85.82c-17.39,7.2 2.7,5.63 -50.77,12.04 -66.26,7.94 -316.43,-30.12 -540.94,-8.85 39.22,-62.35 104.94,-92.65 201.32,-105.43l-52.39 -8.16c-78.9,-0.92 -108.27,15.53 -165.83,58.45 20.34,-99.85 79,-185.95 105.55,-287.05 35.79,-59.08 81.98,-167.14 124.68,-243.83 22.81,-40.97 47.35,-80.1 72.54,-118.42 30.07,-45.73 31.59,-68.26 85.17,-86.13 92.3,-182.2 569.31,-435.64 788.64,-183.13 104.6,-53.06 136.7,-111.78 316.12,-101.8 74.59,4.15 179.18,32.12 241.64,69.93l62.02 52.91c66.04,9.04 66.93,22.68 106.69,73.55 33.86,43.32 54.73,50.69 93.13,98.68 53.05,66.3 117.57,154.91 138.48,245.95 60.14,71.06 178.11,360.26 211.52,472.53 -134.7,-74.51 -323.92,-98.01 -471.23,-52.13zm1178.27 -580.13c105.46,-124.61 153.91,-271.36 162.13,-436.39 171.46,258.17 57.59,763.54 39.22,989.42l-201.35 -553.04zm-3793.98 111.22c-8.97,57.75 -111.06,349.88 -142.42,391.4 -36.71,-54.59 -65.83,-183.82 -69.45,-258.14 -9.76,-203.16 -49.36,-187.07 -5.81,-425.96 20.97,-114.98 48.8,-242.96 85.08,-334.88 15.8,121.19 28.38,232.14 74.5,346.16 106.14,262.45 90.15,50.99 58.1,281.41zm4282.94 -215.42l227.63 866.44 292.3 804.44c29.01,66.81 61.44,105.82 93.36,164.82l62.82 111.09c175.5,283.06 477.95,691.99 458.02,1023.7 -1.7,28.24 -13.72,103.93 -23.98,128.1 -21.16,49.84 -5.06,15.15 -13.07,2.34 -1.68,-2.68 -7.53,-17.84 -9.29,-21.86 -1.56,-3.59 -4.41,-11.1 -5.76,-14.37 -1.45,-3.49 -3.21,-10.68 -6.13,-15.35 -11.23,63.48 -30.28,78 -39.78,122.78 -20.85,98.35 21.64,-14.29 3.27,94.61 -71.59,-56.8 -75.03,-53.21 -51.23,-170.88 58.62,-289.9 -31.32,-508.91 -207.32,-720.26l-116.49 -160.18c-267.16,-290.75 -457.47,-885.24 -518.3,-1264.37 -43.46,-270.85 -137.24,-694.94 -146.05,-951.06zm-5703.04 3239.65c-80.38,-149.27 -138.32,-181.27 -121.4,-422.9 16.24,-231.86 253.88,-642.86 397.36,-848.61 22.59,-32.39 36.46,-42.91 58.59,-79.63 173.8,-288.43 313.63,-672.36 420.83,-1002.92 94.39,-291.04 149.1,-641.56 238.85,-896.56 -77.91,588.05 -94.59,1303.77 -426.44,1783.34l-342.68 490.83c-124.14,160.9 -271.87,315.43 -270.39,569.72 1.29,221.33 110.74,271.85 70.38,364.17 -11.4,26.07 -4,-8.68 -25.1,42.56zm5177.15 -3198.57c-101.15,-255.3 -175.86,-182.42 -86.28,-337.56 30.45,-52.74 68.34,-115.54 89.45,-171.07 21.49,-56.52 29.09,-132.14 71.03,-177.17 74.08,154.96 93.03,166.45 57.57,370.18 -20.27,116.51 -51.88,239.8 -131.78,315.62zm-3700.88 20.33c-12.16,-60.03 -227.7,-514.82 -67.96,-716.94 103.74,-131.27 -104.96,72.76 42.14,-39.1 16.94,236.04 177.83,371.98 186.92,387.94 38.52,67.59 -103.06,306.67 -161.1,368.09zm1106.63 -355.13c-82.65,66.33 -335.89,511.43 -386.19,679.7 -69.7,157.36 -113.24,273.89 -184.56,419.52 -28.17,57.54 -63.54,136.86 -99.93,195.02 -58.34,93.26 -69.25,87.72 -143.32,153.21 -42.28,53.8 -6.96,26.52 -56.94,63.04 -1.8,1.31 -72.75,43.8 -78.16,46.3 -53.83,24.92 -92.08,18.22 -159.25,33.09l-6.07 -0.87 31.18 62.82 135.52 8.09c-19.67,152.25 -167.35,447.2 -206.76,590.22l-68.02 245.88c-5.4,49.21 -4.06,101.48 -33.56,141.4 25.34,100.11 34.94,205.97 64.46,305.27 30.66,103.11 77.4,164.94 102.83,272.74 -268.16,-94.63 -463.14,-577.95 -399.32,-820.2 8.19,-93.42 -21.17,74.64 18.01,-41.85 23.99,-71.31 6.9,-140.41 40.83,-266.3 46.28,-171.67 267.26,-736.46 335.35,-902.5 29.54,-24.1 47.72,-112.27 65.9,-163.38 110.94,-311.85 292.64,-926.58 518.98,-1131.43 38.07,-101.28 149.83,-184.1 246.71,-255.88 333.98,-247.45 802.08,-221.9 1016.53,142.81 128.4,-106.5 51.68,-145.2 261.34,-251.93 315.52,-160.61 781.74,58.59 903.79,215.08 23.3,29.87 29.92,42.52 52.64,70.2 30.56,37.24 27.57,8.08 41.28,78.03 130.79,128.75 258.23,414.84 346.07,635.23 77.11,118.18 139.36,344.82 188.49,500.28 52.79,167.05 122.66,337.33 169.58,510.18l-48.32 20.26c-10.83,12.59 -107.67,45.43 -155.55,40.53 -61.17,-6.26 -95.6,-44.08 -127.42,-86.26 -71.62,-22.86 -183.55,-135.28 -225.04,-205.29 -81.54,-137.59 -177.95,-320.65 -218.35,-481.78 -70.57,-148.38 -142.22,-310.9 -221.05,-470.6 -38.73,-78.46 -80.41,-155.96 -124.57,-221.22 -49.68,-73.41 -110.87,-120.36 -144.3,-199.91 -82,-17.19 -46.25,-47.97 -160.67,-115.6 -129.64,-76.62 -301.41,-115.26 -410.98,-5.07 -18.13,18.24 -5.62,8.85 -33.32,35.11l-89.09 102.3c-2.24,-3.31 -7.58,9.66 -12.16,13.69 -39.71,-125.65 -200.19,-267.48 -396.28,-214.65 -177.24,47.76 -274.23,177.09 -350.33,254.72zm-1794.59 27.83c-26.71,-5.68 -96.68,-29.75 -118.69,-44.67 -91.13,-61.8 -153.63,-185.51 -197.16,-275.53 105.91,113.28 161.99,208.49 315.84,320.2zm5400.62 -269.94c22.61,-31.22 45.51,-66.18 66.02,-92.84 -16.85,68.41 -81.56,170.26 -120.39,211.93 -67.39,72.33 -109.58,118.81 -184.55,140.07l238.92 -259.16zm-1385.46 47.13c-40.8,-46.9 -93.14,-110.11 -165.42,-132.62 49.82,63.29 114.22,111.57 178.84,187.22 56.9,66.62 91.29,131.65 141.03,208.6 53.48,82.75 212.56,394.6 219.42,494.9 93.67,68.43 259.23,792.48 279.68,946.26 -147.28,-32.76 -136.04,-95.17 -178.2,-238.68 -57.75,-196.6 -216.12,-678.59 -298.3,-820.75 -16.1,-142.21 -182.71,-412.59 -274.5,-533.14l-64.16 -91.46c-154.46,-186.01 -300.79,-324.74 -552.19,-400.21 -144.29,-31.13 -267.64,-58.22 -414.72,-15.68 -101.51,29.35 -241.58,106.2 -274.33,181.92 -14.93,-530.76 945.15,-791.14 1517.02,-359.75 68.48,28.85 20.97,-3.76 67.65,54.78 -17.95,12.12 9.73,0.19 -25.88,2.92l-79.64 12.53c425.29,49.9 284.06,559.7 92.86,686.09l-169.16 -182.91zm-2165 -383.73c-229.82,43.94 -338.08,158.41 -464.41,258.58 -130.05,103.12 -326.28,394.47 -389.56,526.51 -101.16,225.63 -209.3,479.66 -288.47,756.06 -39.15,136.67 -223.89,679.05 -287.45,743.8 1.53,-193.88 120.78,-950.62 245.35,-1061.43 22.46,-188.27 241.36,-579.61 368.4,-742.44 37.91,-48.59 31.76,-60.77 85.69,-105.87 42.89,-35.87 56.74,-38.29 86.91,-89.07 -95.51,10.11 -255.03,142.74 -282.89,241.52 -133.02,-97.85 -335.33,-561.7 45.39,-629.04l103.9 -31.25c2.98,-7.05 10.19,-5.23 14.56,-8.85 -63.45,-17.61 -46.37,-54.04 -125.15,-17.75 263.9,-349.9 1452.75,-429.13 1575.26,371.5 -212.53,-199.91 -276.55,-270.75 -687.5,-212.26zm-1290.67 -274.41c22.06,-20.62 31.04,-34.15 60.45,-58.87 40.45,-33.99 23.21,-13.01 62.99,-57.86 182.95,-206.27 371.11,-212.31 426.44,-39.01 -71.55,54.84 -410.34,336.54 -476.68,361.72 14.85,-36.4 18.05,-68.5 72.43,-90.27 -48.25,17.35 -64.74,24.29 -121.24,33.59 3.12,-140.61 -15.26,-108 -24.37,-149.3zm3876.39 -129.54c259.37,318.71 75.96,266.2 193.68,418.9l-63.6 17.69c-99.68,-160.71 -483.49,-331.18 -570.62,-532.26 150.57,-124.62 369.2,8.01 440.54,95.67zm-1926.97 -149.05c58.05,3.77 37.28,2.96 89.93,-19.27 281,-86.12 527.41,-106.47 822.53,-18.74 35.26,10.48 81.28,28.1 116.42,42.85 72.9,30.59 76.03,35.91 105.73,72.98 -401.09,-5.5 -457.16,22.17 -797.84,144.75 -51.79,106.83 -141.96,24.13 -273.11,318.08 -85.57,-42.46 -66.01,-88.02 -117.12,-145.27 -50.87,-56.99 -94.76,-60.44 -121.53,-137.82 -138.56,-46.73 -256.05,-133.09 -430.81,-157.57 -181.67,-25.44 -350.41,-30.59 -531.33,-10.34 78.3,-72.39 407.11,-160.34 533.8,-169.9 286.77,-21.63 343.63,-24.06 603.33,80.25zm2712.13 -241.49c67.69,67.53 62.39,151.01 45.57,268.72 -27.22,190.51 -78.87,290.64 -194.14,428.22 -42.86,51.14 -112.85,100.44 -211.6,98.06l-224.65 -336.52c-86.82,-61.85 -162.55,-165.11 -253.31,-222.47 -114.42,-72.3 -263.88,-98.86 -384.14,-33.91 86.92,-201.86 294.53,-433.74 536.06,-501.61 246.7,-69.32 533,26.3 615.47,130.95 18.65,23.68 62.92,127 70.75,168.56zm-4740.96 450.37l-285.61 352.88c-152.35,45.74 -446.96,-506.17 -306.09,-701.16 7.55,-141.13 82.68,-256.39 197.55,-333.31 116.76,-78.2 278.12,-115.06 449.89,-80.78 292.44,58.37 456.19,238.87 575.96,484.82 -478.72,-15.67 -349.19,60.85 -631.69,277.55zm4987.35 401.21c-37.1,226.32 -383.39,591.39 -553.96,507.52 -55.51,-27.3 -134.38,-192.98 -140.51,-213.21l189.79 -123.9c195.75,-138.89 198.82,-215.75 270.13,-257.4 56.36,-110.9 110.38,-233.13 122.77,-391.25 19.26,-245.7 -1.96,-228.63 -61.77,-428.88 94.47,83.91 149.8,224.95 188.69,389.75 56.04,237.47 8.23,305.85 -15.14,517.37zm-5620.77 -157.44c66.17,57.48 54.31,98.87 149.7,216.09 22.25,27.34 26.98,39.08 53.97,67.69 109.82,116.41 241.34,144.21 287.13,185.34 -30.28,69.87 -97.35,159.15 -139.15,221.75 -166.72,-11.8 -415.97,-220.49 -488.5,-364.09 -45.24,-89.57 -49.16,-101.86 -73.09,-200.66 -5.69,-386.88 -90.26,-566.42 210.72,-907.47 3.39,-3.84 13.85,-14.5 17.18,-18 13.81,-14.51 24.22,-24.34 34.27,-35.05 -142.03,290.36 -201.01,477.38 -52.23,834.41zm4180.03 -682.97c-29.87,65.71 -30.62,40.44 -65.65,94.93 -23.45,36.48 -20.81,49.19 -54.28,85.92 -0.06,-0.08 -29.17,-3.74 -31.29,-106.66 -2.38,-115.49 32.01,-98.83 37.89,-104.85 40.09,-330.14 493.61,-663.43 992.49,-412.75 94.47,47.47 86.12,41.2 137.82,104.45 -244.25,-59.11 -359.6,-105.43 -621.74,10.95 -124.53,55.29 -334.74,217.74 -395.25,328zm-4000.26 -308.91c226.29,-284.36 686.68,-288.53 962.83,-83.46 56.37,41.87 20.56,21.17 67.37,73.05 86.93,96.33 224.4,235.36 128.82,410.83 -152.46,-173.17 -215.91,-305.74 -456.15,-411.37 -239.98,-105.52 -502.31,-95.21 -702.87,10.95zm3795.67 260.37l-20.37 178.25c-85.41,6.93 -23.15,4.49 -51.29,14.62 -70.81,25.49 48.55,-7.9 -33.92,15.12 -30.65,-44.3 -37.31,-71.83 -87.31,-99.14 -73.3,37.75 -33.94,55.71 -66.92,49.7 -24.7,-56.02 -17.94,-131.76 6.43,-162.85 82.28,-228.72 70.67,-187.28 213.02,-311.58 114.23,-99.75 276.85,-126.03 460.33,-161.88 -18.79,23.2 -0.98,21.83 -78.68,61.93 -60.78,31.37 -3.74,-4.02 -66.49,36.16 -38.83,24.87 4.47,0.62 -42.19,26.67 -17.8,9.94 -18.64,8.18 -35.13,17.72 -81.31,47.05 -188.65,224.02 -197.5,335.26zm-2303.68 -47.54c38.17,55.86 38.49,132.14 30.52,212.53l-161.71 -75.87c12.37,39.51 13.89,45.31 38.56,70.53 25.49,26.07 7.19,9.34 46.61,29.06 -49.72,12.32 -48.9,22.68 -98.34,34.44 -35.55,-86.13 -65.3,-163.53 -81.73,-272.04 -16.89,-85.27 -109.81,-192.84 -156.87,-248.6 -36.34,-43.06 -58.6,-60.71 -113.99,-92.69l-101.86 -61.85c-3.23,-2.36 -10.27,-2.94 -12.63,-10.11 -2.41,-7.33 -8.65,-6.85 -12.84,-10.45 252.97,38.61 460.06,116.38 583.54,337.09 11.53,20.61 31.42,65.34 40.72,87.96zm-2035.2 657.67c0,258.6 24.04,499.72 186.4,699.13 143.13,175.79 221.91,214.95 472.79,273.46 -232.08,997.37 -300.47,1390.23 -818.71,2219.67 -196.91,315.16 -308.85,455.34 -308.85,837.05 0,163.12 82.62,275.83 138.78,382.09 -146.5,219.04 -359.28,467.59 -430.76,732.37 -61.02,226.05 -34.12,489.74 139.33,653.58 54.37,51.36 121.18,72.63 187.35,107.68 -69.96,145.98 -53.98,342.21 -6.98,493.28 74.37,239.03 344.06,330.43 506.87,430.39 153.92,94.49 623.21,339.26 815.8,416.34 145.46,58.22 278.62,109.59 442.91,164.43 1251.33,417.74 2736.2,335.66 3923.85,-139.82 441.98,-176.95 643.27,-335.72 1025.22,-536.66 49.71,-26.16 147.43,-93.05 183.27,-129.13 124.4,-125.26 186.71,-288.13 186.71,-473.05 0,-105.85 -32.43,-158.88 -52.05,-243.15 393.67,-263.93 372.86,-700.96 176.19,-1079.52 -36.69,-70.61 -75.58,-123.91 -118.47,-194 -192.37,-314.36 -142.8,-87.55 -50.29,-351.61 183,-522.33 -347.51,-1013.84 -631.47,-1657.82 -110.62,-250.86 -188.73,-501.02 -270.51,-788.61l-215.66 -843.51c648.46,-14.46 884.95,-982.05 485.89,-1545.9 -203.27,-287.21 -523.16,-590.33 -902.22,-590.33 -299.41,0 -575.04,3.63 -808.52,180.49 -164.69,124.75 -267.01,266.73 -267.01,548.96 -197.13,-16.42 -391.38,-122.15 -729.34,-35.5 -268.63,68.87 -138.52,108.62 -298.31,40.59 -379.81,-161.69 -705.15,-7.84 -828.5,-5.09 0,-170.81 -27.91,-334.59 -148.69,-459 -4.02,-4.15 -40.71,-53.77 -118.56,-107.08 -250.57,-171.61 -742.52,-210.08 -1019.18,-131.38 -426.77,121.4 -847.27,707.96 -847.27,1131.65z"/>
   <path class="fil1" d="M4179.76 4750.4c-41.09,90.32 -171.52,150.12 -319.68,143.69 -140.37,-6.1 -263.26,-49.96 -319.36,-173.74 105.89,28.78 134.29,107.43 339.19,108.94 270.62,1.99 194.5,-119.52 299.85,-78.9zm-303.18 -305.09c-102.62,-10.99 -62.38,-180.67 -33.45,-241 58.3,42.65 67.87,150.59 60.05,191.74 -7.35,38.6 -5.97,25.34 -26.59,49.26zm-1505.63 -128.82c83.92,685.03 1111.19,1324.01 1559.31,1287.25 310.24,-25.45 772.23,-329.69 938.29,-487.97 384.13,-366.15 344.46,-405.7 544.82,-867.81 -35.81,26.25 -43.53,46.99 -67.32,76.31 -353.76,435.99 -1127.55,325.19 -1229.68,-386.44 -9.92,-69.1 3.44,-63.37 -30.39,-114.78 -75.72,-43.05 -204.5,-59.34 -304.22,-39.66 -127.37,25.14 -154.57,53.81 -174.71,172.92 -71.6,423.54 -409.33,681 -803.7,617.65 -272.66,-43.8 -340.26,-185.61 -432.4,-257.45z"/>
   <path class="fil1" d="M3067.27 2272.74c105.78,-6.77 79.53,-55.55 151.17,-110.57 297.71,-228.6 485.13,-106.88 539.49,-113.61 -195.29,-0.36 -236.3,-13.87 -398.69,78.81 -154.5,88.17 -254.16,238.17 -350.27,379.61l-170.12 318.29c-21.52,54.26 -13.21,46.95 -44.62,72.63l-44.08 27.94c9.1,-46.98 19.98,-51.41 37.45,-91.71 47.25,-108.95 10.54,-102.89 -2.74,-113.02 -26.55,101.1 -85.21,187.2 -105.55,287.05 57.56,-42.92 86.94,-59.37 165.83,-58.45 63.49,-48.57 352.41,-23.12 418.05,24.57 226.88,200.11 -336.93,62.06 -594.34,130.89 -58.37,15.61 -83.94,40.68 -128.54,171.02 223.4,-89.79 435.6,-130.53 673.15,-15.95 246.62,118.96 264.97,190.79 386.8,446.45 181.25,-47.65 329.92,-93.09 520,-4.76 61.04,-85.94 109.34,-321.1 373,-437.37 225.25,-99.33 451.55,-95.91 667.48,8.58 -21.42,-59.55 -62.76,-115.45 -92.3,-168.02 -150.72,-26.02 -565.43,-7.27 -618.26,-24.04 -28.68,-25.15 -66.97,-39.66 -9.88,-94.01 27.06,-25.76 78.2,-32.88 113.97,-37.85 147.3,-45.88 336.52,-22.37 471.23,52.13 -33.41,-112.27 -151.37,-401.47 -211.52,-472.53 -15.63,80.41 80.66,199.31 123.33,352.32 -126.47,-113.95 -112.45,-200.22 -252.49,-416.91l-118.18 -158.55c-16.87,-15.92 -10.32,-10.76 -27.21,-26.05l-28.74 -24.58c-202.39,-177.24 -220.28,-157.67 -467.11,-217.09 271.82,-43.26 266.01,50.89 432.09,72.67l-62.02 -52.91c-62.46,-37.81 -167.06,-65.78 -241.64,-69.93 -179.42,-9.98 -211.51,48.73 -316.12,101.8 -219.33,-252.52 -696.34,0.93 -788.64,183.13z"/>
   <path class="fil1" d="M3782.47 6968.8c446,-51.18 403.24,300.03 162.84,417.02 -260.16,126.63 -551.7,-372.41 -162.84,-417.02zm-877.01 -258.53c36.77,35.59 0.84,25.57 60.76,10.97 32.95,-8.02 23.95,-15.8 21.03,-20.79 50.06,53.73 -74.3,101.09 -113.49,127.66 1,164.02 160.82,180.41 286.99,221.55 110.51,36.04 267.26,92.85 387.5,102.01l23.41 89.6c-134.83,-42.45 -292.6,-34.67 -445.88,-91.91 -134.33,-50.15 -177.66,-115.06 -246.21,-139.95l-55.48 -3.33c-1.24,-3.47 -7.34,1.26 -10.38,3.24l283.48 814.89c118.86,64.71 529.3,94.58 693.89,96.8 250.76,3.39 472.38,-13.01 710.25,-63.23 172.97,-36.51 135.72,-49.74 190.72,-210.87 32.59,-95.48 61.65,-187.95 97.34,-284.03 44.07,-118.64 143.07,-472.39 196.86,-558.53 -15.87,-28.63 29.42,-27.54 -40.27,-16.04 -32.16,35.6 -4.23,2.39 -22.33,67.77 -29.5,106.54 -106.47,227.33 -104.92,281.2l-17.05 -130.34 -308.79 127.9c-138.54,49.34 -173.8,74.51 -341.27,77.95l20.35 -85.33c98.69,10.74 550.95,-102.06 653.08,-277.48 -19.04,-65.95 -35.37,-71.74 -73.1,-121.57l25.69 -4.19c2.88,-0.54 9,-1.46 11.97,-2.06 79.32,-16.09 -20.85,38.42 39.61,-11.49 -23.59,-17.61 -71.72,-60.27 -101.38,-78 -69.27,88.74 -125.4,162.84 -312.25,112.08 -16.05,15.69 -4.31,3.45 -25.6,27.67 -2.3,2.62 -5.67,6.75 -8.04,9.47 -123.88,142.47 -202.08,134.65 -353.18,32.21 -23.67,69.98 -76.6,108.14 -171.85,112.65 -121.27,5.75 -128.6,-40.83 -182.37,-92.91 -154.44,71.34 -302.23,86.73 -364.62,-93.99 -175.52,34.39 -221.62,0.9 -316.8,-100.37l-87.66 70.79z"/>
   <path class="fil2" d="M4474.97 8180.15c-96.72,12.27 -189.34,41.77 -290.35,53.07 -106.93,11.97 -218.28,14.76 -324.26,23.34 -127.07,10.29 -547.01,-45.41 -599.47,-69.28 -23.95,-45.07 -53.96,-90.01 -53.77,-152.59 179.14,116.03 811.76,147.94 1077.67,60.09 234.39,-77.44 121.25,18.19 165.49,-123.18l101.09 -7.29c-29.06,80.66 -40.11,129.64 -76.41,215.83zm-1359.95 -287.36c87.19,256.9 179.86,520.12 267.85,789.77 31.19,95.59 26.18,127.01 146.46,130.15l777.44 -3.22 299.78 -916.51c-504.75,128.54 -1002.44,100.26 -1491.53,-0.19z"/>
   <path class="fil3" d="M2087.63 8553.59c25.33,-132.76 23.68,-313.64 26.63,-453.12 14.01,-661.88 68.63,-416.18 -290.94,-617.34 -51.41,-28.76 -101.26,-57.38 -147.12,-96.65 -125.17,-107.2 -59.42,-77.84 -157.51,-95.28 -14.28,38.67 -414.37,403.02 -347.5,816.73 66.03,34.67 123.08,84.16 212.56,127.16l703.87 318.48z"/>
   <path class="fil4" d="M2592.38 1860.93c20.86,142.33 76.04,158.24 244.2,154.98 132.49,-2.57 73.74,-1.82 151.84,-52.5 37.63,-24.41 74.8,-17.69 112.95,7.75 76.09,-77.62 173.09,-206.95 350.33,-254.72 196.09,-52.84 356.56,89 396.28,214.65 4.59,-4.03 9.92,-17 12.16,-13.69l89.09 -102.3c27.7,-26.25 15.19,-16.87 33.32,-35.11 109.57,-110.19 281.33,-71.55 410.98,5.07 114.42,67.62 78.67,98.4 160.67,115.6 125.22,4.79 195.2,258.74 562.03,42.62l-1.56 -84.04c-13.7,-69.95 -10.72,-40.79 -41.28,-78.03 -22.72,-27.68 -29.34,-40.33 -52.64,-70.2 -122.05,-156.5 -588.27,-375.69 -903.79,-215.08 -209.66,106.72 -132.94,145.42 -261.34,251.93 -214.45,-364.71 -682.55,-390.26 -1016.53,-142.81 -96.87,71.78 -208.64,154.6 -246.71,255.88z"/>
   <path class="fil3" d="M5606.93 7587.2c11.48,300.64 43.04,677.96 26.98,968.45 123.95,-11.63 838.9,-359.39 868.96,-396.29 141.97,-174.31 -83.51,-557.94 -188.22,-708.55 -63.78,-91.72 -114.79,-93 -153.62,-153.16 -115.37,26.59 -77.05,14.19 -142.25,80.08 -79.89,80.74 -283.74,187.51 -411.83,209.46z"/>
   <path class="fil4" d="M2513.4 1678.59c35.07,-23.69 56.03,-25.87 76.9,-41.98l17.93 -16.75c117.57,-110.86 441.18,-252.65 548.72,-227.4 410.95,-58.49 474.97,12.35 687.5,212.26 -122.5,-800.64 -1311.36,-721.4 -1575.26,-371.5 78.78,-36.29 61.7,0.14 125.15,17.75 -4.37,3.63 -11.58,1.8 -14.56,8.85l-103.9 31.25c-380.72,67.33 -178.41,531.19 -45.39,629.04 27.87,-98.78 187.39,-231.42 282.89,-241.52z"/>
   <path class="fil1" d="M4866.83 4435.96c-1.77,-4.01 -85.74,-98.97 9.42,-215.16 60.95,-74.41 126.35,-79.13 231.02,-58.5 30.76,71.43 28.95,98.09 21.36,191.33 -63.13,45.63 -164.76,86.52 -261.8,82.33zm92.94 -803.05c110.32,227.59 29.64,460.9 -167.4,519.99 -483.13,144.89 -587.29,-674.27 4.1,-732.66 124.43,-12.29 242.15,28.28 324.88,83.21 132.43,87.92 69.36,134.64 268.01,104.92 -91.23,-277.69 -508.82,-425.14 -844.27,-293.74 -263.1,103.06 -467.06,436.01 -316.92,803.79 251.74,616.66 1245.93,530.22 1211.78,-412.92 -95.17,9.29 -129.24,75.84 -209.07,103.15 -63.32,3.62 -121.89,-113.44 -271.13,-175.75z"/>
   <path class="fil5" d="M1897.8 5920.41c4.01,49.7 37.47,3.14 -3.36,61.17 7.81,5.38 9.23,-20.26 31.72,-40.17 49.36,-43.7 12.5,-28.16 88.44,-39.01 77.77,155.28 26.81,292.65 -91.59,380.02 -51.76,38.2 -118.45,76.63 -175.32,103.11 -36.82,17.15 -123.57,59.86 -165.12,55.81l-32.2 -15.47c-102.11,48.34 -37.87,57.95 -136.63,127.06 -28.43,19.89 -46.77,28.89 -72.1,50.14 -1.79,1.5 -31.77,32.29 -34.45,36.16 -31.77,45.87 2.87,-37.83 -17.17,37.54 0.83,140.5 -141.12,261.23 -157.43,450.72 116.55,-14.46 73.01,-49.3 154.75,-109.07 183.78,-134.4 278.95,-281.81 348.65,-308.08 62.69,-23.62 53.92,-8.47 72.04,13.92 13.83,-13.48 18.06,-15.78 32.08,-32.37l48.2 -76.98c31.44,-54.93 34.39,-62.46 59.44,-114.57 41.11,-85.51 100.84,-141.31 134.45,-199.43 -2.34,248.21 -68.72,245 -151.72,411.64 71.16,-32.01 156.05,-129.51 202.99,-181.39l164.25 -217.47c177.8,-367.53 264.2,-859.76 113.51,-1245.95 -119.28,-305.7 -113.91,-268.33 -303.62,-433.36 -17.42,134.63 87.93,459.86 160.49,574.95 37.27,59.11 73.72,78.39 94.62,153.41l-228.26 -109.26c-4.26,138.73 -8.29,244 -37,374.27 -32.11,145.68 -94.21,231.94 -99.64,292.64z"/>
   <path class="fil1" d="M2597.08 4279.55c-78.65,-207.6 308.06,-185.49 312.99,52.51 2.85,137.57 -52.89,137.02 -156.44,110.68 -114.47,-29.12 -122.77,-74.03 -156.55,-163.19zm-264.79 -676.53c56.26,22.38 104.25,40.39 149.54,8.94 31.01,-21.54 23.95,-27.78 49.95,-53.96 170.3,-171.43 488.07,-201.15 694.62,1.38l67.18 88.82c234.91,452.35 -384.05,751.59 -561.22,302.73 -60.45,-153.14 1.02,-222.68 35.16,-329.94 -115.96,39.8 -174.34,136.94 -260.12,188.23 -121.37,-21.39 -117.63,-86.2 -223.77,-101.12 -53.44,922.76 1002.45,1050.54 1222.36,389.59 54.28,-163.12 56.03,-347.08 -23.32,-497.86 -259.5,-493.05 -984.64,-406.75 -1150.37,3.18z"/>
   <path class="fil6" d="M2957.75 8226.64c36.48,37.72 34.5,56.18 51.56,109.28 78.75,98.11 95.95,282.62 143.27,443.34l116.84 11.61c-3.93,-85.26 -376.31,-1242.21 -460.91,-1418.24 -15.39,80.9 13.89,100.72 27.42,183.85 -58.92,-103.86 -258.24,-659.84 -293.76,-797.19 -38.87,-150.34 -7.42,-197.63 47.78,-308.76 -96.34,-68.77 -146.26,61.42 -233.63,161.87 -34.01,39.1 -45.23,36.77 -82.94,89.39 -132.97,185.54 89.33,311.62 128.91,463.22 -35.44,-32.72 -167.37,-113.13 -229.2,-137.54 -56.1,-22.14 -103.69,-27.81 -162.86,-15.92 -34.92,7.03 -36.27,5.42 -63.01,24.88 -48.55,35.34 -26.42,-10.26 -36.65,61.65 -4.48,31.51 17.58,112.75 28.03,129.63 23.76,38.37 370.07,242.16 451.95,294.64l110.78 80.31c2.71,2.29 6.48,5.75 9.24,7.98 2.78,2.25 6.77,5.46 9.63,7.65l41.64 28.33c205.65,151.55 111.83,2.5 308.16,350.8 42.86,76.02 105.41,120.6 134.85,243.69 -34.7,-59.24 14.7,-18.01 -47.09,-14.46z"/>
   <path class="fil6" d="M4589.17 8337.78l-115.48 451.31 196.55 -28.74c7.96,-54.81 74.85,-243.22 94.02,-293.22 39.57,-103.2 72.84,-176.86 118.28,-253.91 -100.78,66 -61.36,119.31 -168.3,167.38 12.67,-63.1 55.24,-226.44 117.03,-246.43 -65.8,-22.4 -37.79,-29.09 -66.52,21.86 46.62,-133.27 137.07,-220.46 217.08,-357.26l550.95 -437.94c104.98,-63.56 288.32,-132.63 231.12,-301.02 -68.75,-123.6 -280.18,-34.4 -367.36,42.26 -65.42,57.53 -26.2,50.62 -113.5,78.8 169.38,-242.31 327.33,-355.62 54.86,-613.75 -126.89,-120.21 -81.13,-136.99 -199.85,-137.63 34.82,141.13 82.16,158.88 34.07,325.18 -32.52,112.47 -54.7,193.84 -86.2,295.01 -61.38,197.21 -130.82,338.15 -207.2,544.2 -70.57,190.37 -123.09,374.89 -184.8,560.51 -35.7,107.39 -56.23,173.4 -85.77,279.9 -17.09,61.61 -42.33,273.34 -71.13,310.47 -29.45,-40.29 6.07,-112.7 29.78,-199.92 25.7,-94.52 56.86,-160.17 22.36,-207.04z"/>
   <path class="fil3" d="M4539.99 6253.46c18.65,-25.83 9.87,6.12 8.63,-39.16l-31.9 -146.52c80.78,14.82 146.03,19.95 220.06,36.68 60.72,13.72 120.32,39.41 179.61,47.99 -100.37,-5.68 -159.25,-72.34 -244.15,-36.33 19.83,63.17 50.84,77.54 129.21,122.99 55.66,32.28 101.34,52.93 151.59,91.67 57.54,44.35 159.76,127.2 138.01,192.68 -24.08,72.47 -39.3,0.9 -17.79,50.95 45.58,4.4 19.59,-7.07 46.13,15.07 6.67,263.7 -174.55,650.87 -260.04,899.17 -50.62,147.02 -89.06,280.89 -139.7,433.96 -40.38,122.07 -110.61,288.11 -130.49,415.18 34.5,46.87 3.34,112.53 -22.36,207.04 -23.72,87.23 -59.23,159.64 -29.78,199.92 28.8,-37.13 54.04,-248.87 71.13,-310.47 29.54,-106.5 50.07,-172.51 85.77,-279.9 61.71,-185.62 114.23,-370.13 184.8,-560.51 76.38,-206.04 145.82,-346.98 207.2,-544.2 31.49,-101.17 53.67,-182.54 86.2,-295.01 48.09,-166.3 0.75,-184.06 -34.07,-325.18 118.72,0.63 72.96,17.42 199.85,137.63 272.47,258.13 114.52,371.45 -54.86,613.75 87.3,-28.18 48.08,-21.27 113.5,-78.8 87.18,-76.66 298.61,-165.86 367.36,-42.26 57.2,168.39 -126.14,237.46 -231.12,301.02l-550.95 437.94c-80.01,136.8 -170.46,223.99 -217.08,357.26 28.73,-50.94 0.71,-44.26 66.52,-21.86 57.15,-97.69 225.56,-265.55 310.38,-332.04 39.81,-31.2 41.42,-40.49 80.79,-73.52 239.93,-201.34 508.82,-288.17 692.69,-400.59 388.21,-237.36 20.06,-330.26 -176.6,-535.77 -17.75,-18.54 -14.65,-19.43 -41.72,-43.25l-338.44 -356.91c-117.29,-138.92 -545.26,-411.04 -868.6,-353.75 -4.13,85.4 11.06,146.67 50.24,215.14z"/>
   <path class="fil4" d="M7496.88 6530.12c-9.02,85.31 -30.76,160.02 -62.76,232.34 -23.9,54.02 -76.37,152.86 -78.65,199.82 35.41,-48.69 109.9,-85.92 164.18,-164.42 223.86,-323.74 40.96,-640.69 -97.24,-906.5l-380.99 -555.65c-122.57,-166.37 -100.84,-159.82 -177.56,-273.46l-553.99 -1357.23c-56.57,-151.99 -89.96,-437.07 -158.52,-539.97 -4.34,432.09 113.12,624.88 186.34,1134.26 -40.37,-58.75 -37.45,-85.42 -62.91,-155.07 3.94,214.03 341.72,989.99 492.49,1218.98l393.46 624.96c-6.77,-165.59 -27.74,-240.47 -103.65,-357.87 -51.51,-79.67 -152.34,-194.73 -172.01,-285.7l52.65 56.69c3.57,4.91 18.54,30.41 26.42,42.31l196.57 255.66c57.62,73.68 93.83,86.68 127.22,173.92 59.34,155.05 243.11,333.78 208.94,656.94z"/>
   <path class="fil3" d="M2957.75 8226.64c61.79,-3.55 12.39,-44.78 47.09,14.46 -29.44,-123.08 -91.99,-167.67 -134.85,-243.69 -196.34,-348.29 -102.51,-199.25 -308.16,-350.8l-41.64 -28.33c-2.86,-2.19 -6.84,-5.4 -9.63,-7.65 -2.77,-2.23 -6.53,-5.69 -9.24,-7.98l-110.78 -80.31c-81.88,-52.48 -428.19,-256.27 -451.95,-294.64 -10.45,-16.88 -32.51,-98.12 -28.03,-129.63 10.22,-71.91 -11.91,-26.31 36.65,-61.65 26.74,-19.46 28.09,-17.85 63.01,-24.88 59.17,-11.9 106.76,-6.22 162.86,15.92 61.83,24.4 193.76,104.82 229.2,137.54 -39.58,-151.6 -261.88,-277.68 -128.91,-463.22 37.71,-52.62 48.93,-50.29 82.94,-89.39 87.37,-100.45 137.29,-230.64 233.63,-161.87 -55.21,111.13 -86.65,158.43 -47.78,308.76 35.51,137.35 234.83,693.33 293.76,797.19 -13.53,-83.13 -42.81,-102.95 -27.42,-183.85 -47.96,-259.28 -227.82,-509.2 -207.07,-802.38 37.66,23.22 55.2,62.52 77.8,92.1l81.57 -1.96 -113.21 -88.28c6,-23.42 53.46,-132.07 69.8,-154.93 134.15,-187.64 320.17,-140.36 333.09,-296.64l-27.32 -13.18c-95.61,-30.88 64.06,9.58 -26.09,-6.86 -11.92,-2.17 -29.75,1.75 -34.69,3.71l229.24 -35.93c13.19,96.95 -23.13,111.16 8,156.31l39.98 -196.59c-176.57,-0.09 -385.15,36.91 -542.45,105.95 -71.19,31.24 -159.77,87.44 -207.16,124.42 -211.48,165.05 -291.19,336.87 -473.39,482.78 -91.24,73.07 -36.49,51.26 -126.57,115.45l-38.72 30.53c-96.28,88.43 -112.57,62.23 -167.59,145.27 -108.77,164.19 3.08,259.51 205.2,351.98 239.73,109.68 407.39,197.93 616.11,354.83 82.46,61.98 263.36,220.3 322.27,300.72 44.02,60.11 78.75,120.12 130.44,186.72z"/>
   <path class="fil5" d="M6065.85 6797.46l22.5 -19.26c1.3,-1.3 5.06,-5.18 6.43,-6.59l14.54 -15.94c1.4,-1.52 5.03,-6.07 7.86,-8.8 51,47.51 421.39,289.33 536.57,326.39 -6.89,-87.77 -91.02,-124.19 -129.92,-214.37 -35.66,-82.67 8.95,-38.68 -27.49,-112.32 -20.28,-40.97 -46.97,-56.15 -72.52,-93.94 -30.32,-80.59 3.38,-23.13 -80.14,-84.77l-136.64 -94.21 -189.01 -97.88c-55.26,-23.38 -56.34,-39.21 -108.96,-66.75 -36.91,-19.31 -75.43,-23.54 -109.93,-45.44 -96.09,-61.01 -142.38,-398.39 -103.4,-487.26 44.06,82.53 107.24,169.74 144.28,276l34.04 -38.9c-43.23,-218.4 -282.34,-429.31 -230.77,-867.71 9.42,-80.04 18.87,-63.02 30.43,-110.38 -97.21,18.8 -227.54,26.78 -317.73,-10.13 -92.36,406.84 89.35,1427.91 385.49,1541.77 -30.66,-149.6 -154.25,-289.87 -159.09,-618.31l49.58 69.01c1.41,3.28 13.39,50.19 19.43,65.49 74.38,188.68 94.53,275.73 210.82,446.76 82.94,121.97 97.42,164.57 203.64,267.52z"/>
   <path class="fil4" d="M2007.5 3155.74c-68.09,166.04 -289.07,730.83 -335.35,902.5 -33.93,125.88 -16.85,194.98 -40.83,266.3 -39.18,116.5 -9.82,-51.56 -18.01,41.85 -63.83,242.25 131.16,725.57 399.32,820.2 -25.44,-107.8 -72.17,-169.63 -102.83,-272.74 -29.52,-99.31 -39.12,-205.16 -64.46,-305.27 -27.63,-177.9 -46.36,-351.8 8.72,-547.35 47.97,-170.3 99.76,-339.76 132.92,-501.06l6.07 0.87c23.99,-195.34 73.76,-454.03 226.88,-576.82 49.9,-40.01 96.88,-83.85 175.4,-84.74 60.93,192.7 -103.14,492.35 -107.93,519.12 74.07,-65.49 84.97,-59.95 143.32,-153.21 36.39,-58.16 71.76,-137.48 99.93,-195.02 71.31,-145.63 114.86,-262.15 184.56,-419.52 -15.11,11.98 -9.74,51.19 -50.71,-19.83 -31.93,-55.35 -6.72,-137.78 -137.17,-197.15 -240.11,-109.28 -347.25,265.19 -396.58,412.94l-78.76 251.45c-33.66,81.05 -7.42,50.68 -44.47,57.47z"/>
   <path class="fil4" d="M4608.16 1396.3c115.65,-40.8 275.98,74.67 427.52,163.03 134.57,78.46 37.92,72.58 120.86,84.23 72.27,22.51 124.62,85.72 165.42,132.62 26.24,-30.05 11.26,-3.38 20.88,-51.79l36.48 -191.33c40.89,-406.82 -185.64,-145.33 -650.7,-190 97.17,-43.83 247.74,-32.11 365.45,-65.85 89.04,-25.52 161.28,-62.07 261.69,-69.32l80.37 -5.11c-571.87,-431.39 -1531.95,-171 -1517.02,359.75 32.75,-75.72 172.82,-152.57 274.33,-181.92 147.09,-42.54 270.44,-15.45 414.72,15.68z"/>
   <path class="fil4" d="M5878.63 713.15c-9.13,-95.58 58.65,-126.41 146.55,-154.15 82.12,-25.91 172.74,-51.17 246.55,4.78 24.77,212.28 -262.97,222.72 -393.11,149.36zm64.37 343.29c150.16,-71.93 375.4,53.3 507.49,-296.74 15.56,-41.22 25.18,-71.85 36.27,-101.83 23.61,-63.84 8.63,-40.05 41.07,-59.91 -7.84,-41.56 -52.1,-144.88 -70.75,-168.56 -82.47,-104.65 -368.78,-200.27 -615.47,-130.95 -241.53,67.87 -449.14,299.75 -536.06,501.61 120.27,-64.95 269.73,-38.4 384.14,33.91 90.76,57.36 166.49,160.62 253.31,222.47z"/>
   <path class="fil4" d="M1114.74 4793.43c34.09,121.06 -72.33,235.58 -134.34,302.21 -245.4,263.7 -129.12,214.97 -114.15,251.57l-53.44 112c82.56,-34.4 127.66,-126.65 185.65,-208.33 103.97,-146.45 328.07,-587.23 415.5,-676.28 -82.6,224.01 -358.2,761.97 -371.45,825.91 7.1,53.3 -2.91,38.65 -16,102.67 86.8,34.52 58.9,39.84 136.17,148.75 2.1,2.97 5.71,8.32 8.99,12.13 191.55,-85.44 178.91,-72.77 274.54,-244.01 17.5,-31.33 6.43,-56.53 15.15,-22.09 10.39,-12.09 13.88,-15.66 26.26,-36.84 2.45,-4.19 17.15,-35.32 18.17,-37.89 9.69,-24.49 16.1,-54.26 23.03,-79.95 51.33,-190.49 69.48,-282.25 36.77,-489.98 -22.32,-141.77 -86.58,-563.27 -133.72,-657.51l-14.9 25.16c-0.42,0.82 -11.55,23.44 -12.54,25.7 -4.62,10.59 -13.37,37.83 -18.6,52.66 -73.87,209.57 -264.7,547.73 -271.09,594.12z"/>
   <path class="fil4" d="M1856.08 606.31l-0.6 121c-96.2,21.15 -243.03,53.69 -345,-15.9 -73.88,-50.42 -134.73,-199.09 120.81,-178.03 97.84,8.06 146.81,49.58 224.78,72.93zm-660.92 93.75l42.57 -109.74c54.38,80.42 -15.03,173.18 167.07,329.67 119.73,102.89 228.47,93.33 382.07,128.34 282.5,-216.7 152.97,-293.22 631.69,-277.55 -119.77,-245.94 -283.52,-426.45 -575.96,-484.82 -171.77,-34.28 -333.12,2.58 -449.89,80.78 -114.86,76.92 -190,192.18 -197.55,333.31z"/>
   <path class="fil1" d="M4267.48 5589.7c53.7,19.69 57.63,7.73 72.13,9.7l-20.74 389.35c-26.19,52.79 -89.72,51.02 -214.35,116.73 -292.61,154.26 -405.85,36.41 -716.2,-87.05l3.88 -467.68 -42.05 -23.81c26.42,252.13 23.35,635.23 -89.71,821.9 69.04,62.05 95.75,63.71 131.11,172.1 142.44,-53.41 215.82,-51.75 288.28,69.3l88.73 -59.94c95.23,-50.96 194.79,-20.39 243.88,68.6 40.24,-35.59 73.45,-83.21 136.55,-103.33 90.8,-28.96 118.05,-0.44 186.91,30.1 16.45,-97.19 67.02,-131.02 150.78,-157.38 -192.63,-417.87 -89.58,-427.47 -109.4,-830.97l-109.81 52.39z"/>
   <path class="fil4" d="M6691.75 5938.36c-32.19,-89.29 -139.06,-155.41 -211.09,-214.04 5.79,-79.83 2.25,-20.2 14.21,-60.15 53.54,-178.73 33.34,-213.02 150.37,-191.97 56.89,10.23 -3.29,67.23 56.73,-3.64l-257.55 -630.69c-40.92,-111.02 -81.27,-220.01 -126.96,-326.73 -26.37,-61.61 -92.28,-257.15 -132.45,-299.35 -102.98,261.68 -100.58,749.61 -9.77,1048.61 45.23,148.91 110.37,287.89 182.14,408.24 75.09,125.91 192.67,217.9 334.37,269.72z"/>
   <path class="fil7" d="M4267.48 5589.7c-143.28,57.94 -279.16,138.67 -457.69,111.23 -178.99,-27.51 -275.22,-101.76 -417.59,-150.18l-3.88 467.68c310.35,123.47 423.59,241.32 716.2,87.05 124.64,-65.71 188.17,-63.94 214.35,-116.73l20.74 -389.35c-14.5,-1.97 -18.42,9.99 -72.13,-9.7z"/>
   <path class="fil4" d="M1604.3 5455.47l-109.95 189.99c-21.7,27.06 -11.1,14.1 -25.17,27.44 -110.63,104.85 -45.02,56.76 -100.78,124.41l-276.97 278.22c-66.31,80.95 -77.48,66.57 -215.26,236.54 -30.47,37.59 -19.86,18 -51.42,51.81 -95.47,102.27 -288.69,463.62 -361.77,629.86 -50.05,113.84 -69.65,248.44 -64.77,376.78 6.01,158.52 65.52,201.66 106.73,304.91 -47.91,-218.81 -66.24,-266.88 -0.86,-478.09l-2.64 3.66c-0.35,0.06 -4.01,0.94 -4.43,0.97 -1.43,0.1 1.56,72.04 -15.61,-2.16 -0.85,-3.66 -7.16,-1.12 -10.49,-2.48 58.13,-225.04 110.25,-283.67 240.09,-379.26 102.27,-106.63 46.99,-66.13 54.21,-211.25 8.39,-37.89 13.9,10.83 68.06,-112.64 22.15,-50.49 45.63,-77.41 75.67,-115.11 98.9,-124.09 270.06,-270.19 420.55,-342.74 85.1,-41.02 160.28,-76.23 226.73,-142.96 -7.72,53.58 -6.27,48.48 -23.4,84.96 -57.4,122.22 -189.51,302.55 -274.19,419.82 -18.36,25.42 -49.49,61.77 -63.49,74.05 -10.67,9.36 -38.45,26.98 -41.03,29.5 -45.4,44.3 -31.14,-9.74 -34.27,64.47 44.95,-28.87 67.44,-51.04 105.38,-80.07 33.05,-25.29 64.69,-50.51 97.29,-75.74 69.31,-53.64 111.22,-114.51 174.49,-158.88 20.1,-75.4 -14.02,-60.23 40.13,-128.4 36.52,-45.96 43.84,-49.51 75.15,-99.79 115.56,-185.6 252.21,-578.51 178.92,-787.51l-29.72 -50.83c-3.17,3.73 -132.25,300.91 -148.65,262.62 -1.17,-2.72 -5.73,5.21 -8.52,7.89z"/>
   <path class="fil4" d="M6834.81 4100.6c-31.92,-59 -64.35,-98.01 -93.36,-164.82l-292.3 -804.44 -227.63 -866.44c8.81,256.12 102.59,680.21 146.05,951.06 60.83,379.13 251.13,973.63 518.3,1264.37l116.49 160.18c176.01,211.35 265.95,430.36 207.32,720.26 -23.79,117.67 -20.36,114.08 51.23,170.88 18.38,-108.9 -24.11,3.74 -3.27,-94.61 9.49,-44.78 28.55,-59.3 39.78,-122.78 2.92,4.67 4.68,11.86 6.13,15.35 1.35,3.26 4.2,10.78 5.76,14.37 1.76,4.02 7.61,19.18 9.29,21.86 8.01,12.81 -8.09,47.5 13.07,-2.34 10.26,-24.17 22.28,-99.86 23.98,-128.1 19.93,-331.72 -282.51,-740.64 -458.02,-1023.7l-62.82 -111.09z"/>
   <path class="fil1" d="M5614.35 3934.71c54.58,40.19 0.37,37.3 35.73,-54.44 21.33,-55.34 139.86,-155.09 143.61,-156.6 182.4,-73.31 275.41,134.82 165.8,239.41 -11.79,-23.42 -23.44,-67.8 -39.11,-97.05l-103.97 29.42c-1.92,103.92 55.21,215.09 -4.19,307.36 -46.49,72.23 -190,126.13 -207.34,137.69 2.38,100.69 72.19,-9.13 -10.09,91.39 -30.17,36.86 -43.48,45.03 -69.63,99.44l-101.1 -34.01 -20.26 42.89 155.68 34.76c44.5,-168.83 27.84,-121.48 96.12,-124.76 21.72,58.02 17.09,182.06 -4.91,250.35 -5.2,16.13 -41.63,83.72 -47.19,90.89 -38.55,49.63 -4.87,33.78 -80.94,42.27 -40.79,-87.94 -14.16,-153.4 -162.88,-164.73 -130.98,308.35 392.07,484.21 449.95,34.51 18.32,-142.39 -15.53,-170.31 -57.89,-273.93 253.56,-56.04 466.82,-366.93 371.27,-696.29 -91.92,-316.85 -501.05,-208.77 -508.65,201.43z"/>
   <path class="fil3" d="M4882.53 8213.21c-45.43,77.05 -78.71,150.71 -118.28,253.91 -19.17,50 -86.06,238.41 -94.02,293.22l665.34 -122.66 -25.47 -844.45c-24.16,-0.38 -20.97,-9.78 -76.49,31.27 -54.34,40.17 -306.34,297.61 -351.08,388.71z"/>
   <path class="fil4" d="M5044.11 2792.39c40.4,161.13 136.81,344.19 218.35,481.78 41.49,70.01 153.42,182.43 225.04,205.29 25.36,-44.92 -155.4,-318.96 -168.92,-585.73 255.64,33.35 282.42,189.7 377.56,437.49 41.34,107.67 77.76,56.71 74.33,193.98l48.32 -20.26c-46.92,-172.85 -116.78,-343.13 -169.58,-510.18 -49.13,-155.45 -111.37,-382.1 -188.49,-500.28 -34.42,37.99 42,52.75 -69.19,-5.06 -30.91,-16.08 -43.99,-30.06 -64.77,-44.04 -57.44,-38.62 -107.26,-41.32 -183.47,-35.92 -52.79,62.77 -119.45,80.58 -132.65,173.05 -13.48,94.44 42.16,179.99 33.47,209.88z"/>
   <path class="fil4" d="M518.48 5504.54c21.1,-51.24 13.7,-16.5 25.1,-42.56 40.36,-92.32 -69.08,-142.84 -70.38,-364.17 -1.48,-254.29 146.25,-408.82 270.39,-569.72l342.68 -490.83c331.85,-479.57 348.52,-1195.29 426.44,-1783.34 -89.75,255 -144.46,605.52 -238.85,896.56 -107.2,330.56 -247.03,714.49 -420.83,1002.92 -22.12,36.72 -35.99,47.23 -58.59,79.63 -143.48,205.74 -381.13,616.75 -397.36,848.61 -16.92,241.63 41.02,273.62 121.4,422.9z"/>
   <path class="fil4" d="M5878.98 5735c37.85,211.06 363.66,581.81 551.36,706.53 36.98,-61.85 -246.91,-208.73 -287.57,-557.51 118.17,36.91 54.83,41.61 142.8,83.51 69.91,33.3 91.6,28.54 157.51,70.04 -59.55,13.39 11.26,0.38 -33.59,-6.37l-40.57 -2.13c-1.8,0.08 -7.28,0.13 -10.49,1.62 125.01,72.08 220.28,179.5 269.43,219.92 41.79,34.37 51.6,25.06 99.43,73.88 55.07,56.2 236.65,280.99 270.25,386.54l-88.91 21c70.02,29.23 12.31,-0.97 37.71,37.45 86.76,56 207.35,192.93 269.5,298.53 102.41,174 78.8,274.47 79.38,477.14 99.97,-182.1 20.57,-393.65 -43.1,-548.82 -87.14,-212.37 -323.21,-594.35 -466.3,-747.34 -108.51,-116 -212.79,-275.73 -369.79,-359.2l-60.56 -11.55c30.71,67.71 46.08,45.59 66.89,97.45 -56.2,-19.38 -117.11,-65.12 -181.47,-85.25 -147.65,-46.19 -47.5,29.58 -178.65,-81.22 -101.51,-85.76 -103.4,-135.89 -144.04,-359.16 69.24,12.6 24.21,30.29 97.34,2.32 -147.32,-285.04 -112.53,-409.23 -177.48,-481.98 -2.79,4.04 -5.5,9.66 -6.83,13.05 -1.34,3.41 -4.78,9.11 -6.25,13.47l-8.04 186.41c0.93,89.26 -17.16,108.05 -14.9,190.51 2.96,107.89 40.53,257.89 76.94,361.14z"/>
   <path class="fil3" d="M3152.59 8779.26c-47.31,-160.72 -64.52,-345.23 -143.27,-443.34 -16.43,46.36 -6.17,25.85 -41.53,-13.58 -0.44,-0.49 -25.72,-31.84 -26.78,-33 -28.39,-31.28 2.44,-6.3 -34.63,-32.48l-51.66 138.88c41.83,28.17 73.08,71.13 87.61,135.63 -82.45,-129.91 -92.96,-144.81 -206.66,-243.36 -77.54,-67.2 -123.88,-178.3 -256.11,-194.84l-6.94 -222.83c16.86,62.63 55.54,62.53 116.1,56.45 -39.88,-56.37 -102.45,-108.52 -160.89,-127.81 7.77,179.05 -62.54,705.59 11.73,823.19 81.18,51.82 591.28,146.59 713.03,157.1z"/>
   <path class="fil8" d="M2007.5 3155.74c37.05,-6.79 10.8,23.58 44.47,-57.47l78.76 -251.45c49.33,-147.74 156.47,-522.21 396.58,-412.94 130.46,59.37 105.24,141.81 137.17,197.15 40.97,71.02 35.6,31.81 50.71,19.83 50.3,-168.27 303.54,-613.37 386.19,-679.7 -38.16,-25.44 -75.32,-32.16 -112.95,-7.75 -78.1,50.68 -19.36,49.93 -151.84,52.5 -168.16,3.26 -223.34,-12.65 -244.2,-154.98 -226.34,204.85 -408.04,819.58 -518.98,1131.43 -18.18,51.1 -36.36,139.28 -65.9,163.38z"/>
   <path class="fil8" d="M4554.2 1900.67c33.42,79.55 94.62,126.5 144.3,199.91 44.16,65.26 85.84,142.76 124.57,221.22 78.83,159.7 150.48,322.22 221.05,470.6 8.68,-29.89 -46.95,-115.44 -33.47,-209.88 13.21,-92.47 79.86,-110.28 132.65,-173.05 76.21,-5.4 126.03,-2.71 183.47,35.92 20.79,13.98 33.86,27.96 64.77,44.04 111.19,57.81 34.78,43.05 69.19,5.06 -87.84,-220.38 -215.28,-506.48 -346.07,-635.23l1.56 84.04c-366.83,216.11 -436.81,-37.84 -562.03,-42.62z"/>
   <path class="fil5" d="M6430.34 6441.52c9.84,13.58 15.79,27.2 31.59,44.53l87.72 68.77c86.63,70.14 300.6,214.63 381.29,245.55l15.42 -30.88c-25.41,-38.42 32.31,-8.22 -37.71,-37.45l88.91 -21c-33.61,-105.55 -215.19,-330.34 -270.25,-386.54 -47.83,-48.82 -57.65,-39.51 -99.43,-73.88 -49.15,-40.42 -144.42,-147.84 -269.43,-219.92 3.21,-1.5 8.69,-1.54 10.49,-1.62l40.57 2.13c44.85,6.75 -25.96,19.75 33.59,6.37 -65.91,-41.5 -87.6,-36.74 -157.51,-70.04 -87.97,-41.9 -24.63,-46.59 -142.8,-83.51 40.66,348.79 324.55,495.66 287.57,557.51z"/>
   <path class="fil5" d="M6539.67 1362.56c-71.31,41.64 -74.38,118.5 -270.13,257.4l-189.79 123.9c6.14,20.23 85,185.92 140.51,213.21 170.56,83.87 516.86,-281.2 553.96,-507.52l-69.96 -103.55c-13.39,-17.45 -24.79,-37.27 -35.63,-49.88 -32.08,-37.32 -2.09,-24.74 -55.08,-45.02 -18.67,46.93 -34.71,80.69 -73.89,111.46z"/>
   <path class="fil5" d="M943.51 1418.21c23.94,98.8 27.86,111.09 73.09,200.66 72.53,143.61 321.78,352.29 488.5,364.09 41.8,-62.59 108.87,-151.88 139.15,-221.75 -45.79,-41.13 -177.3,-68.93 -287.13,-185.34 -26.99,-28.62 -31.72,-40.36 -53.97,-67.69 -95.39,-117.21 -83.53,-158.61 -149.7,-216.09 -4.04,2.43 8.83,76.15 -48.56,-30 -0.11,14.41 0.66,32.96 -2.29,46.59 -8.5,39.12 -2.67,14.33 -19.21,36.48 -53.14,-55.4 -15.73,-31.04 -50.5,-84.91 -48.13,42.99 -15.2,8.52 -67.49,33.37l-9.41 97.57c-0.98,3.64 -5.11,16.09 -5.92,13.68 -0.81,-2.4 -3.72,9.26 -6.55,13.32z"/>
   <path class="fil5" d="M711 6818.07c96.47,-20.83 121.49,-66.13 220.59,-119.05 55.71,-29.75 171.73,-77.52 188.23,-132.84 3.14,-74.21 -11.12,-20.17 34.27,-64.47 2.58,-2.52 30.36,-20.14 41.03,-29.5 14,-12.28 45.13,-48.64 63.49,-74.05 84.68,-117.27 216.79,-297.6 274.19,-419.82 17.13,-36.47 15.67,-31.38 23.4,-84.96 -66.45,66.73 -141.63,101.95 -226.73,142.96 -150.49,72.55 -321.65,218.65 -420.55,342.74 -30.04,37.7 -53.52,64.62 -75.67,115.11 -54.16,123.47 -59.67,74.75 -68.06,112.64 -7.22,145.11 48.06,104.62 -54.21,211.25z"/>
   <path class="fil5" d="M5878.98 5735c-36.4,-103.25 -73.98,-253.25 -76.94,-361.14 -2.26,-82.46 15.83,-101.25 14.9,-190.51l8.04 -186.41c1.47,-4.35 4.91,-10.05 6.25,-13.47 1.33,-3.39 4.04,-9.01 6.83,-13.05 64.96,72.75 30.17,196.94 177.48,481.98 27.09,66.48 12.93,47.91 66.55,82.61 34.8,-35.44 -9.52,-24.55 29.38,1.35 85.3,56.8 94.63,231.19 241.91,264.12 -340.56,-526.68 -277.75,-475.05 -316.38,-982.96 -5.95,-78.32 -26.11,-102.29 -26.52,-189.96 -0.31,-65.69 17.82,-143.28 -16.3,-194.47 -64.65,59.82 -82.79,204.34 -116.89,319.01 -36.95,124.25 -78.19,158.26 -109.05,306.62 -35.31,169.71 -36.52,584.17 110.73,676.29z"/>
   <path class="fil5" d="M5943 1056.44l224.65 336.52c98.76,2.38 168.75,-46.92 211.6,-98.06 115.28,-137.58 166.92,-237.71 194.14,-428.22 16.82,-117.71 22.12,-201.19 -45.57,-268.72 -32.44,19.86 -17.46,-3.93 -41.07,59.91 -11.09,29.98 -20.71,60.61 -36.27,101.83 -132.09,350.04 -357.33,224.81 -507.49,296.74z"/>
   <path class="fil5" d="M1195.16 700.06c-140.87,194.99 153.74,746.9 306.09,701.16l285.61 -352.88c-153.6,-35.02 -262.34,-25.46 -382.07,-128.34 -182.1,-156.49 -112.69,-249.25 -167.07,-329.67l-42.57 109.74z"/>
   <path class="fil5" d="M5321.96 1776.18l169.16 182.91c191.2,-126.39 332.43,-636.19 -92.86,-686.09l79.64 -12.53c35.6,-2.73 7.93,9.2 25.88,-2.92 -46.68,-58.54 0.83,-25.92 -67.65,-54.78l-80.37 5.11c-100.41,7.25 -172.65,43.8 -261.69,69.32 -117.71,33.74 -268.28,22.02 -365.45,65.85 465.06,44.68 691.59,-216.82 650.7,190l-36.48 191.33c-9.62,48.41 5.36,21.74 -20.88,51.79z"/>
   <path class="fil4" d="M1333.23 300.22c200.56,-106.16 462.89,-116.47 702.87,-10.95 240.24,105.63 303.69,238.2 456.15,411.37 95.58,-175.47 -41.89,-314.5 -128.82,-410.83 -46.81,-51.87 -11,-31.18 -67.37,-73.05 -276.15,-205.08 -736.54,-200.9 -962.83,83.46z"/>
   <path class="fil5" d="M6271.71 7035.53l273.56 427.37c81.06,195.25 134.44,350.32 110.78,589.86 140.07,-86.25 172.24,-185.48 205.64,-390.07l-113.74 -263.7c-32.49,-77.13 -69.6,-126.84 -122.57,-174.05l-336.3 -235.5 -17.38 46.1z"/>
   <path class="fil7" d="M5614.35 3934.71c-22.51,25.81 -178.42,509.62 -190.29,562.61l101.1 34.01c26.16,-54.4 39.46,-62.58 69.63,-99.44 82.29,-100.52 12.47,9.29 10.09,-91.39 17.34,-11.57 160.85,-65.46 207.34,-137.69 59.39,-92.27 2.27,-203.44 4.19,-307.36l103.97 -29.42c15.68,29.26 27.32,73.64 39.11,97.05 109.61,-104.59 16.61,-312.72 -165.8,-239.41 -3.75,1.51 -122.27,101.25 -143.61,156.6 -35.36,91.74 18.85,94.64 -35.73,54.44z"/>
   <path class="fil4" d="M5220.16 578.48c73.97,56.16 23.31,-17.89 113.33,30.65 60.51,-110.27 270.72,-272.71 395.25,-328 262.15,-116.38 377.49,-70.06 621.74,-10.95 -51.7,-63.24 -43.35,-56.98 -137.82,-104.45 -498.89,-250.69 -952.4,82.61 -992.49,412.75z"/>
   <path class="fil4" d="M3640.71 1097l10.17 -19.93c0.5,-1.22 3.01,-5.96 3.47,-7.36 0.48,-1.44 2.59,-6.28 2.93,-7.84l2.42 -16.74c-8.85,-83.81 -1.32,32.03 -40.18,-63.74 30.52,-26.52 51.92,-47.46 96.71,-71.24l124.15 -20.61c-72.44,-136.65 35.39,37.75 -24.67,-50.09 -259.69,-104.32 -316.56,-101.89 -603.33,-80.25 -126.69,9.56 -455.5,97.5 -533.8,169.9 180.91,-20.25 349.66,-15.1 531.33,10.34 174.75,24.47 292.25,110.83 430.81,157.57z"/>
   <path class="fil4" d="M3905.64 820.18l-29.55 34.38c79.62,34.72 37.33,33.7 83.7,90.43 63.06,4.31 64.86,-6.71 80.31,-6.37 37.35,0.82 35.74,2.64 60,26.59 49.22,48.59 52.34,96.74 52.37,96.8 340.68,-122.58 396.75,-150.25 797.84,-144.75 -29.7,-37.07 -32.83,-42.39 -105.73,-72.98 -35.14,-14.75 -81.16,-32.37 -116.42,-42.85 -295.12,-87.73 -541.53,-67.38 -822.53,18.74z"/>
   <path class="fil5" d="M5368.9 6294.57c-19.2,-178.62 -97.65,-377.11 -128.43,-562 -39.24,-235.63 -5.14,-423.84 -12.81,-653.32 -135.16,51.24 -220.27,405.91 -161.61,665.64 51.12,226.37 149.82,493.07 302.86,549.69z"/>
   <path class="fil4" d="M6065.85 6797.46c19.4,28.88 25.18,44.4 49.24,70.56 23.04,25.05 29.61,25.57 53.15,50.68 40,42.67 58.34,78.05 103.47,116.82l17.38 -46.1 336.3 235.5c52.97,47.21 90.08,96.92 122.57,174.05l113.74 263.7c-1.5,-294.94 33.7,-323.05 -110.99,-595.7 -35.3,-66.51 -99.43,-174.47 -146.8,-236.98 -48.76,-64.35 -127.17,-138.54 -180.1,-177.38 25.55,37.79 52.25,52.98 72.52,93.94 36.45,73.64 -8.16,29.65 27.49,112.32 38.89,90.18 123.03,126.6 129.92,214.37 -115.18,-37.06 -485.57,-278.88 -536.57,-326.39 -2.83,2.73 -6.46,7.28 -7.86,8.8l-14.54 15.94c-1.37,1.42 -5.12,5.29 -6.43,6.59l-22.5 19.26z"/>
   <path class="fil5" d="M2422.02 6210.11c132.9,-98.88 111.91,-23.42 161.72,-153.92 100.88,-264.35 45.3,-792.76 -55.08,-964.54 -44.02,-75.33 -2.67,-32.22 -55.96,-48.57 -39.1,50.49 -2.03,163.21 3.66,312.99 21.42,563.38 -117.77,793.94 -124.13,901.49 33.13,-17.73 31.69,-19.1 69.79,-47.45z"/>
   <path class="fil5" d="M910.77 7380.89c-61.74,94.34 -62.4,272.46 -28.61,400.01 50.22,189.57 84.08,164.11 187.53,229.09 -121.99,-391.1 214.76,-724 273.17,-853.99 -12.17,-22.05 8.3,-39.06 39.76,-103.8l-272.2 188.66c-65.61,56.98 -70.17,96.63 -139.86,116.13 -1.04,0.29 -5.41,0.3 -6.35,0.6l-15.56 7.77c-44.1,29.4 10.39,54.54 -37.88,15.53z"/>
   <path class="fil4" d="M1972.41 2615.97c-124.57,110.81 -243.82,867.56 -245.35,1061.43 63.56,-64.75 248.31,-607.13 287.45,-743.8 79.17,-276.4 187.31,-530.43 288.47,-756.06 -79.34,50.44 -110.04,193.73 -154.75,250.93 -51.3,65.63 -60.81,22.79 -111.92,92.45 -36.12,49.24 -48.62,124.72 -63.91,95.05z"/>
   <path class="fil4" d="M386.39 5816.58l-102.84 128.97c-143.61,205.85 -268.52,569.28 -136.35,838.88 34.46,70.3 91.35,127.46 156.89,170.16 36.12,23.54 15.21,19.5 64.76,28.32 -12.24,-80.6 -143.07,-120.26 -165.71,-377.2 -22.57,-256.04 68.16,-444.69 208.41,-620.38 45.5,-57 68.46,-108.75 118.51,-159.95 58.44,-59.79 204.62,-235.01 237.44,-312.63 -82.79,39.28 -152.18,124.43 -194.38,202.06l-41.03 -62.96c-32.25,56.52 -87.47,151.06 -145.68,164.72z"/>
   <path class="fil8" d="M4539.99 6253.46c22.91,86.2 43.93,85.6 98.61,130.51 85.72,70.42 155.53,255.26 387.03,289.79l47.63 -99.37c-21.51,-50.05 -6.29,21.52 17.79,-50.95 21.75,-65.47 -80.48,-148.33 -138.01,-192.68 -50.26,-38.74 -95.93,-59.39 -151.59,-91.67 -78.37,-45.45 -109.38,-59.82 -129.21,-122.99 84.9,-36.01 143.78,30.65 244.15,36.33 -59.28,-8.58 -118.89,-34.27 -179.61,-47.99 -74.03,-16.73 -139.29,-21.86 -220.06,-36.68l31.9 146.52c1.25,45.28 10.03,13.33 -8.63,39.16z"/>
   <path class="fil5" d="M1993.03 3561.04c67.17,-14.87 105.42,-8.18 159.25,-33.09 5.41,-2.5 76.36,-44.99 78.16,-46.3 49.98,-36.51 14.66,-9.24 56.94,-63.04 4.79,-26.78 168.86,-326.43 107.93,-519.12 -78.52,0.89 -125.5,44.73 -175.4,84.74 -153.12,122.79 -202.9,381.48 -226.88,576.82z"/>
   <path class="fil5" d="M5487.51 3479.47c31.82,42.18 66.25,80 127.42,86.26 47.88,4.9 144.72,-27.94 155.55,-40.53 3.44,-137.27 -32.99,-86.31 -74.33,-193.98 -95.14,-247.79 -121.92,-404.14 -377.56,-437.49 13.52,266.77 194.28,540.82 168.92,585.73z"/>
   <path class="fil9" d="M4474.97 8180.15c36.3,-86.19 47.35,-135.17 76.41,-215.83l-101.09 7.29c-44.24,141.37 68.89,45.74 -165.49,123.18 -265.9,87.85 -898.53,55.94 -1077.67,-60.09 -0.19,62.58 29.82,107.52 53.77,152.59 52.46,23.86 472.39,79.57 599.47,69.28 105.99,-8.58 217.34,-11.38 324.26,-23.34 101.01,-11.3 193.63,-40.8 290.35,-53.07z"/>
   <path class="fil5" d="M3815.7 839.45c60.06,87.85 -47.77,-86.56 24.67,50.09l-124.15 20.61c-44.79,23.78 -66.19,44.72 -96.71,71.24 38.86,95.77 31.34,-20.06 40.18,63.74l-2.42 16.74c-0.34,1.56 -2.45,6.4 -2.93,7.84 -0.47,1.4 -2.97,6.15 -3.47,7.36l-10.17 19.93c26.77,77.39 70.66,80.83 121.53,137.82 51.11,57.26 31.55,102.81 117.12,145.27 131.14,-293.95 221.32,-211.25 273.11,-318.08 -0.03,-0.06 -3.15,-48.21 -52.37,-96.8 -24.26,-23.95 -22.65,-25.77 -60,-26.59 -15.44,-0.34 -17.25,10.68 -80.31,6.37 -46.37,-56.73 -4.08,-55.71 -83.7,-90.43l29.55 -34.38c-52.65,22.23 -31.88,23.05 -89.93,19.27z"/>
   <path class="fil8" d="M2513.4 1678.59c-30.17,50.77 -44.02,53.2 -86.91,89.07 -53.94,45.1 -47.79,57.28 -85.69,105.87 -127.04,162.84 -345.94,554.18 -368.4,742.44 15.29,29.67 27.79,-45.81 63.91,-95.05 51.11,-69.66 60.62,-26.82 111.92,-92.45 44.71,-57.19 75.41,-200.49 154.75,-250.93 63.28,-132.04 259.52,-423.39 389.56,-526.51 126.32,-100.17 234.59,-214.64 464.41,-258.58 -107.54,-25.26 -431.16,116.54 -548.72,227.4l-17.93 16.75c-20.87,16.11 -41.84,18.29 -76.9,41.98z"/>
   <path class="fil5" d="M5302.13 892.84c87.13,201.08 470.94,371.55 570.62,532.26l63.6 -17.69c-117.72,-152.7 65.69,-100.2 -193.68,-418.9 -71.34,-87.66 -289.97,-220.29 -440.54,-95.67z"/>
   <path class="fil8" d="M5499.01 2421.11c46.81,-28.5 48.07,30.65 39.4,-31.39 40.61,72.35 48.44,18.61 82.48,60.92 0.67,0.83 22.54,47.78 26.21,53.3 49.36,74.35 31.99,38.24 48.73,30.35 -6.86,-100.29 -165.93,-412.15 -219.42,-494.9 -49.73,-76.95 -84.13,-141.98 -141.03,-208.6 -64.62,-75.65 -129.02,-123.93 -178.84,-187.22 -82.94,-11.66 13.71,-5.77 -120.86,-84.23 -151.54,-88.36 -311.87,-203.84 -427.52,-163.03 251.4,75.47 397.73,214.2 552.19,400.21l64.16 91.46c91.79,120.55 258.4,390.92 274.5,533.14z"/>
   <path class="fil4" d="M5499.01 2421.11c82.18,142.17 240.55,624.15 298.3,820.75 42.16,143.51 30.92,205.92 178.2,238.68 -20.45,-153.78 -186.01,-877.83 -279.68,-946.26 -16.75,7.88 0.63,44 -48.73,-30.35 -3.66,-5.52 -25.54,-52.46 -26.21,-53.3 -34.04,-42.3 -41.88,11.43 -82.48,-60.92 8.67,62.04 7.41,2.89 -39.4,31.39z"/>
   <path class="fil4" d="M910.77 7380.89c48.27,39.01 -6.22,13.87 37.88,-15.53l15.56 -7.77c0.94,-0.3 5.31,-0.31 6.35,-0.6 69.7,-19.5 74.25,-59.16 139.86,-116.13l272.2 -188.66c-31.46,64.74 -51.93,81.75 -39.76,103.8 54.7,-54.62 26.4,-47.76 101.2,-103.06 38.5,-28.45 73.83,-60.56 102.06,-105.79l161.9 -222.88c-18.12,-22.39 -9.35,-37.54 -72.04,-13.92 -69.7,26.26 -164.87,173.68 -348.65,308.08 -81.74,59.78 -38.2,94.61 -154.75,109.07 16.31,-189.48 158.26,-310.22 157.43,-450.72 -149.71,101.27 -312.97,444.67 -379.24,704.1z"/>
   <path class="fil5" d="M1604.3 5455.47c2.79,-2.68 7.36,-10.61 8.52,-7.89 16.4,38.29 145.48,-258.89 148.65,-262.62l29.72 50.83c73.29,209 -63.36,601.91 -178.92,787.51 -31.31,50.28 -38.62,53.83 -75.15,99.79 -54.16,68.16 -20.03,53 -40.13,128.4 306.74,-235.81 499.28,-711.5 355.51,-1055.75 -44.86,-107.42 -148.45,-169.74 -188.44,-287.31 -9.61,105.69 1.43,212.9 -11.4,325.01 -7.22,63.09 -58.11,178.23 -48.36,222.04z"/>
   <path class="fil9" d="M2356.37 7735.73c-41.32,-33.38 -105.78,-78.95 -154.83,-91.75l-27.76 932.99 150.22 47.5 32.37 -888.75z"/>
   <path class="fil4" d="M1395.32 5540.26c-106.64,76.11 -0.1,49.62 -139.42,138.15 -11.67,7.41 -3.66,1.52 -22.72,17.63l-245.5 191.24c-50.32,-216.53 -144.66,-123.25 -154.57,-150.47 -1.37,-3.76 -7.06,-1.26 -10.01,-3.14 -13.33,14.78 -38.62,41.18 -57.72,68.52 -86,123.09 -235.4,403.95 -228.18,563.79 72.37,26.98 82.33,-156.31 201.25,-262.17 171.46,-152.63 205.34,-144.4 294.43,-210.66 31.94,33.49 11.13,-42.24 24.82,53.8 181.49,-125.66 47.81,-12.81 162.49,-142.01 60.38,-68.03 158.85,-111.57 226.93,-257.54 -49.9,-45.38 18.14,0.4 -30.6,-5.08 -11.77,-1.32 6.85,82.74 -14.23,-1.27 -0.6,-2.39 -5.19,0.74 -6.96,-0.79z"/>
   <path class="fil8" d="M2760.81 6660.38c177.64,-104.76 123.11,-47.92 242.2,-200.71 41.07,-52.69 58.12,-63.35 113.88,-110.14 69.78,-58.56 43.26,-28.24 82.74,-124.95 -31.14,-45.15 5.19,-59.36 -8,-156.31l-229.24 35.93c4.94,-1.96 22.77,-5.88 34.69,-3.71 90.15,16.45 -69.52,-24.02 26.09,6.86l27.32 13.18c-12.93,156.27 -198.94,109 -333.09,296.64 -16.34,22.85 -63.81,131.51 -69.8,154.93l113.21 88.28z"/>
   <polygon class="fil9" points="5420.57,8628.19 5567.34,8592.82 5523.67,7617.44 5381.88,7714.61 "/>
   <path class="fil5" d="M1866.29 1118.04c9.12,41.31 27.49,8.7 24.37,149.3 56.51,-9.3 73,-16.24 121.24,-33.59 -54.38,21.76 -57.58,53.86 -72.43,90.27 66.34,-25.18 405.14,-306.88 476.68,-361.72 -55.33,-173.3 -243.49,-167.25 -426.44,39.01 -39.78,44.85 -22.54,23.87 -62.99,57.86 -29.41,24.71 -38.39,38.25 -60.45,58.87z"/>
   <path class="fil4" d="M5732.55 2369.09l201.35 553.04c18.37,-225.89 132.23,-731.25 -39.22,-989.42 -8.22,165.03 -56.67,311.78 -162.13,436.39z"/>
   <path class="fil5" d="M1845.33 4608.58c29.49,-39.92 28.15,-92.2 33.56,-141.4l68.02 -245.88c39.41,-143.02 187.09,-437.97 206.76,-590.22l-135.52 -8.09 -31.18 -62.82c-33.15,161.3 -84.94,330.76 -132.92,501.06 -55.08,195.54 -36.35,369.45 -8.72,547.35z"/>
   <path class="fil4" d="M818.9 7890.79c-61.95,-171.73 -142.83,-292.9 -117.57,-520.1 13.31,-119.71 90.2,-405.74 134.92,-494.75 -60.95,48.97 -146.58,118.37 -192.99,191.89 -50.91,80.65 -96.4,182.04 -97.43,302.96 -1.83,213.72 62.05,446.78 273.07,520z"/>
   <path class="fil5" d="M1994.75 2326.3c58.03,-61.42 199.62,-300.5 161.1,-368.09 -9.1,-15.96 -169.98,-151.9 -186.92,-387.94 -147.1,111.86 61.61,-92.17 -42.14,39.1 -159.74,202.12 55.8,656.91 67.96,716.94z"/>
   <path class="fil4" d="M1897.8 5920.41c-48.74,82.69 -105.21,205.47 -160.85,281.16 -46.53,63.3 -129.02,190.85 -186.59,224.3l32.2 15.47c41.55,4.05 128.3,-38.66 165.12,-55.81 56.87,-26.49 123.57,-64.92 175.32,-103.11 118.4,-87.38 169.36,-224.74 91.59,-380.02 -75.94,10.85 -39.08,-4.68 -88.44,39.01 -22.49,19.91 -23.9,45.55 -31.72,40.17 40.83,-58.03 7.37,-11.47 3.36,-61.17z"/>
   <path class="fil3" d="M3663.34 7068.61c-57.73,388.01 446.83,357 387.87,9.36 -155.16,-102.33 -251.56,-69.46 -387.87,-9.36z"/>
   <path class="fil4" d="M4875.52 556.31c108.15,12.6 -32.2,9.83 67.95,23.79 27.09,3.77 55.16,36.41 146.38,-107.49l39.04 87.99c8.85,-111.24 116.19,-288.21 197.5,-335.26 16.49,-9.54 17.32,-7.78 35.13,-17.72 46.65,-26.06 3.36,-1.8 42.19,-26.67 62.75,-40.19 5.71,-4.79 66.49,-36.16 77.71,-40.1 59.9,-38.73 78.68,-61.93 -183.49,35.85 -346.1,62.13 -460.33,161.88 -142.35,124.3 -130.74,82.86 -213.02,311.58z"/>
   <path class="fil5" d="M5695.63 2305.97c79.9,-75.82 111.51,-199.11 131.78,-315.62 35.46,-203.73 16.51,-215.22 -57.57,-370.18 -41.94,45.03 -49.55,120.65 -71.03,177.17 -21.12,55.53 -59,118.32 -89.45,171.07 -89.58,155.14 -14.86,82.26 86.28,337.56z"/>
   <path class="fil4" d="M943.51 1418.21c2.83,-4.06 5.74,-15.72 6.55,-13.32 0.81,2.41 4.94,-10.05 5.92,-13.68l9.41 -97.57c52.29,-24.86 19.36,9.62 67.49,-33.37 34.78,53.87 -2.64,29.51 50.5,84.91 16.55,-22.15 10.72,2.64 19.21,-36.48 2.96,-13.63 2.18,-32.18 2.29,-46.59 57.39,106.15 44.52,32.42 48.56,30 -148.78,-357.03 -89.8,-544.05 52.23,-834.41 -10.05,10.72 -20.46,20.54 -34.27,35.05 -3.33,3.5 -13.8,14.16 -17.18,18 -300.98,341.05 -216.41,520.6 -210.72,907.47z"/>
   <path class="fil4" d="M6539.67 1362.56c39.17,-30.77 55.21,-64.53 73.89,-111.46 52.99,20.28 23,7.7 55.08,45.02 10.84,12.61 22.23,32.43 35.63,49.88l69.96 103.55c23.37,-211.52 71.18,-279.9 15.14,-517.37 -38.89,-164.8 -94.22,-305.83 -188.69,-389.75 59.82,200.24 81.04,183.18 61.77,428.88 -12.39,158.13 -66.42,280.35 -122.77,391.25z"/>
   <path class="fil7" d="M2905.46 6710.27l-168.99 95.34 77.25 203.73c3.04,-1.98 9.14,-6.71 10.38,-3.24l55.48 3.33c68.55,24.89 111.89,89.79 246.21,139.95 153.28,57.23 311.04,49.45 445.88,91.91l-23.41 -89.6c-120.24,-9.16 -276.98,-65.97 -387.5,-102.01 -126.17,-41.14 -285.99,-57.53 -286.99,-221.55 39.18,-26.57 163.54,-73.93 113.49,-127.66 2.92,4.99 11.92,12.76 -21.03,20.79 -59.92,14.59 -23.99,24.62 -60.76,-10.97z"/>
   <path class="fil8" d="M6691.75 5938.36l14.34 -1.81c23.13,-38.05 -65.17,-272.83 167.54,-159.42 2.79,1.36 7.7,4.84 11.92,6.46 -37.53,-63.54 -60.44,-108.04 -93.07,-166.99 -33.14,-59.87 -63.8,-93.08 -90.51,-148.03 -60.02,70.86 0.16,13.87 -56.73,3.64 -117.03,-21.05 -96.84,13.24 -150.37,191.97 -11.96,39.95 -8.42,-19.68 -14.21,60.15 72.04,58.62 178.9,124.74 211.09,214.04z"/>
   <path class="fil4" d="M6207.03 6473.66c-19.52,-39.36 -133.67,-150.99 -181.6,-210.41 -38.94,-48.28 -129.24,-182.55 -151.38,-249.81l-34.04 38.9c-37.03,-106.25 -100.22,-193.46 -144.28,-276 -38.98,88.86 7.31,426.25 103.4,487.26 34.5,21.9 73.02,26.13 109.93,45.44 52.62,27.54 53.7,43.37 108.96,66.75l189.01 97.88z"/>
   <path class="fil5" d="M2783.53 3857.36c21.28,60.9 12.97,24.34 36.12,49.37 58.2,-13.94 306.92,-41.93 343.97,-5.98 29.72,28.84 13.91,72.92 43.49,108.81l40.2 -69.82c46.55,-49.65 19.99,-144.79 -9.59,-181.23 -59.22,-10.73 -1.86,10.05 -59.17,29.55 -55.86,19.02 -51.13,12.43 -109.87,10.02 -40.01,-69.87 -85.8,-70.59 -50.49,-195.52l-161.32 4.47c-16.48,36.64 -21.97,62.02 -42.99,108.21 -29.26,64.26 -30.12,63.98 -30.35,142.12z"/>
   <path class="fil8" d="M386.39 5816.58c58.21,-13.67 113.44,-108.2 145.68,-164.72l41.03 62.96c42.2,-77.63 111.59,-162.78 194.38,-202.06 38.1,-22.9 28.58,-21.04 45.33,-53.54l53.44 -112c-14.97,-36.6 -131.25,12.14 114.15,-251.57 62,-66.63 168.43,-181.15 134.34,-302.21 -59.22,83.2 -127.73,172.79 -188.47,265.38 -57.03,86.92 -118.66,161.64 -182.67,251.01 -114.86,160.37 -230.35,349.4 -357.21,506.76z"/>
   <path class="fil8" d="M2906.38 8256.85c-10.03,-54.71 -91.3,-138.63 -148.47,-180.07 -108.11,-78.36 -85.84,-148.28 -169.19,-150 -60.56,6.08 -99.24,6.17 -116.1,-56.45l6.94 222.83c132.24,16.54 178.57,127.64 256.11,194.84 113.71,98.55 124.22,113.45 206.66,243.36 -14.53,-64.5 -45.78,-107.45 -87.61,-135.63l51.66 -138.88z"/>
   <path class="fil8" d="M6416.04 5889.8c-52.54,-53.05 -129.34,-97.38 -189.14,-158.88 -40.69,-41.85 -124.61,-151.84 -144.81,-195.92 -53.63,-34.7 -39.47,-16.13 -66.55,-82.61 -73.13,27.97 -28.1,10.28 -97.34,-2.32 40.64,223.27 42.53,273.39 144.04,359.16 131.15,110.8 31,35.04 178.65,81.22 64.36,20.13 125.26,65.87 181.47,85.25 -20.81,-51.86 -36.17,-29.73 -66.89,-97.45l60.56 11.55z"/>
   <path class="fil7" d="M3067.27 2272.74c-53.58,17.87 -55.1,40.4 -85.17,86.13 -25.19,38.32 -49.74,77.45 -72.54,118.42 -42.7,76.69 -88.89,184.75 -124.68,243.83 13.28,10.13 49.99,4.06 2.74,113.02 -17.47,40.3 -28.35,44.73 -37.45,91.71l44.08 -27.94c31.41,-25.68 23.1,-18.37 44.62,-72.63l170.12 -318.29c96.1,-141.44 195.77,-291.44 350.27,-379.61 162.39,-92.68 203.39,-79.17 398.69,-78.81 -54.36,6.73 -241.79,-114.99 -539.49,113.61 -71.64,55.01 -45.39,103.8 -151.17,110.57z"/>
   <path class="fil5" d="M537.21 6365.98c-40.07,57.48 -38.64,259.99 -15.52,337.77 32.62,-146.54 148.87,-311.18 220.77,-421.95 34.11,-52.56 23.99,-50.57 78.32,-94.94 138.34,-112.96 20.04,-67.73 155.72,-157.39 14.8,-9.79 39.67,-26.41 49.99,-37.1 26.94,-27.9 14.5,-8.61 31.21,-45.42 -13.68,-96.04 7.12,-20.31 -24.82,-53.8 -89.09,66.26 -122.97,58.03 -294.43,210.66 -118.92,105.86 -128.88,289.15 -201.25,262.17z"/>
   <path class="fil4" d="M1726.71 2613.58l59.3 -133.13c2.41,-2.65 6.27,-6.03 8.73,-8.66 42.71,-45.55 59.93,-96.54 112.11,-42.34l31.72 50.87c32.05,-230.41 48.05,-18.96 -58.1,-281.41 -46.12,-114.03 -58.7,-224.97 -74.5,-346.16 -36.28,91.91 -64.12,219.9 -85.08,334.88 -43.55,238.89 -3.95,222.8 5.81,425.96z"/>
   <path class="fil7" d="M4946 6788.32c-32.63,-41.02 -67.67,-50.3 -116.78,-77.66 -60.45,49.91 39.71,-4.6 -39.61,11.49 -2.97,0.6 -9.08,1.53 -11.97,2.06l-25.69 4.19c37.74,49.84 54.06,55.63 73.1,121.57 -102.13,175.42 -554.38,288.21 -653.08,277.48l-20.35 85.33c167.47,-3.43 202.73,-28.61 341.27,-77.95l308.79 -127.9 17.05 130.34c-1.54,-53.86 75.42,-174.66 104.92,-281.2 18.11,-65.38 -9.83,-32.17 22.33,-67.77z"/>
   <path class="fil7" d="M4813.99 2528.83c-20.92,-91.04 -85.43,-179.65 -138.48,-245.95 -38.4,-47.99 -59.27,-55.36 -93.13,-98.68 -39.77,-50.87 -40.65,-64.51 -106.69,-73.55 -166.08,-21.78 -160.28,-115.93 -432.09,-72.67 246.83,59.41 264.71,39.85 467.11,217.09l28.74 24.58c16.89,15.29 10.34,10.13 27.21,26.05l118.18 158.55c140.04,216.69 126.02,302.95 252.49,416.91 -42.67,-153.01 -138.96,-271.92 -123.33,-352.32z"/>
   <path class="fil1" d="M2022.04 4413.16l7.12 51.52c22.58,-153.71 68.91,-291.75 104.65,-434.08 63.69,179.28 105.94,384.96 187.38,558.68l-72.44 23.88c6.1,-105.61 -19.73,-26.12 -36.97,-149.16 -4.58,-32.71 -1.89,-65.37 -7.34,-97.29 -13,-76.21 -26.69,-72.73 -53.7,-96.1l-63.22 230.39c-22.44,87.23 9.42,33.35 -34.66,69.15 -22.72,-32.68 -16.25,-66.04 -48.91,-112.66l-9.12 99.95c3.54,3.23 8.16,7.49 10.68,9.61 2.48,2.09 7.54,6.87 10.61,9.36l131.16 63.77c88.51,18 134.19,1.51 212.42,-11.6l-216.24 -682.05c-54.13,85.55 -131.82,349.74 -121.43,466.65z"/>
   <path class="fil8" d="M1042.5 5400.51c-49.96,116.38 -155.64,238.97 -219.4,333.15 2.95,1.88 8.64,-0.62 10.01,3.14 9.91,27.22 104.25,-66.06 154.57,150.47l245.5 -191.24c19.06,-16.11 11.05,-10.21 22.72,-17.63 139.32,-88.53 32.79,-62.03 139.42,-138.15l66.03 -142.29c-8.72,-34.44 2.34,-9.25 -15.15,22.09 -95.63,171.24 -82.99,158.57 -274.54,244.01 -3.28,-3.81 -6.89,-9.16 -8.99,-12.13 -77.27,-108.91 -49.37,-114.23 -136.17,-148.75 13.09,-64.02 23.1,-49.37 16,-102.67z"/>
   <path class="fil4" d="M2599.13 511.7c55.64,-30.39 21.69,-37.12 42.28,-86.8 26.38,50.59 63.66,100.86 91.77,155.23 64.83,-53.54 47.81,78.01 51.5,-87.21 -12.16,22.77 -5,3.41 4.14,69.84 74.99,-50.84 13.57,25.08 36.39,-49.71 -9.31,-22.62 -29.2,-67.35 -40.72,-87.96 -123.48,-220.71 -330.57,-298.48 -583.54,-337.09 4.18,3.6 10.43,3.12 12.84,10.45 2.35,7.16 9.4,7.75 12.63,10.11l101.86 61.85c55.39,31.99 77.65,49.63 113.99,92.69 47.06,55.76 139.98,163.34 156.87,248.6z"/>
   <path class="fil4" d="M6706.09 5936.55c12.8,32.51 7.73,22.53 16.77,44.07l73.65 4.12 2.58 -69.46c212.04,262.37 163.42,41.55 347.66,530.06l11.15 24.14c1.16,2.56 3.44,7.98 6.21,11.24 -22.4,-135.46 -44.83,-265.45 -94.87,-392.46 -25.26,-64.11 -125.3,-264.54 -183.7,-304.67 -4.22,-1.62 -9.13,-5.09 -11.92,-6.46 -232.72,-113.42 -144.42,121.36 -167.54,159.42z"/>
   <path class="fil5" d="M4470.12 3842.49l-0.21 37.52c90.15,-1.42 143.79,9.88 221.7,13.25 80.45,3.48 145.91,-5.25 227.04,-0.69l8.19 24.79c49.57,-29.76 4.21,-153.39 -8.19,-197.3 -36.84,29.96 -54.51,73.01 -121.33,78.1 -170.13,12.97 -183.2,-214.43 -84.26,-222.12l-124 17.76c-2.7,5.12 -11.49,26.22 -14.04,29.88 -37.29,53.6 -111.72,44.29 -104.9,218.81z"/>
   <path class="fil7" d="M2597.08 4279.55c33.78,89.16 42.07,134.07 156.55,163.19 103.55,26.34 159.29,26.9 156.44,-110.68 -4.93,-238.01 -391.64,-260.12 -312.99,-52.51z"/>
   <path class="fil5" d="M6722.85 5980.62c25.83,64.93 13.92,43.32 65.48,91.91 108.47,102.21 183.97,252.7 264.61,376.9 30.37,46.77 87.09,164.19 102.76,142.14 2.63,-3.7 9.66,7.58 15.35,10.72l-6.94 -121.58c-2.78,-3.26 -5.05,-8.68 -6.21,-11.24l-11.15 -24.14c-184.24,-488.52 -135.62,-267.7 -347.66,-530.06l-2.58 69.46 -73.65 -4.12z"/>
   <path class="fil4" d="M4926.85 3917.35l-8.19 -24.79c-81.13,-4.57 -146.59,4.17 -227.04,0.69 -77.91,-3.37 -131.55,-14.67 -221.7,-13.25l0.21 -37.52c10,87.48 -0.09,110.63 51.98,173.72 30.68,37.18 69.26,79.64 139.69,87.68 150.61,17.18 246.37,-68.53 265.05,-186.54z"/>
   <path class="fil0" d="M3663.34 7068.61c136.32,-60.11 232.71,-92.97 387.87,9.36 58.95,347.64 -445.6,378.66 -387.87,-9.36zm119.13 -99.82c-388.85,44.62 -97.31,543.65 162.84,417.02 240.39,-117 283.16,-468.2 -162.84,-417.02z"/>
   <path class="fil8" d="M1856.08 606.31c-77.97,-23.35 -126.94,-64.87 -224.78,-72.93 -255.54,-21.06 -194.69,127.61 -120.81,178.03 101.97,69.59 248.8,37.04 345,15.9l0.6 -121z"/>
   <path class="fil5" d="M856.33 4993.94c88.99,-99.34 126.34,-183.23 153.35,-340.43 24.09,-140.25 43.02,-285.12 55.3,-435.64 -98.7,58.72 -140.97,195.64 -170.74,342.92 -29.97,148.28 -1.19,280.45 -37.91,433.15z"/>
   <path class="fil2" d="M3708.21 6763.14c19.64,154.26 328.14,145.26 288.22,-83.15 -30.17,-172.66 -318.27,-152.88 -288.22,83.15z"/>
   <path class="fil4" d="M3247.31 3939.75l-40.2 69.82c-29.58,-35.89 -13.77,-79.97 -43.49,-108.81 -37.05,-35.95 -285.77,-7.97 -343.97,5.98 -23.15,-25.03 -14.84,11.52 -36.12,-49.37 17.17,64.15 20.27,106.42 60.41,154.18 22.81,27.13 78.25,76.86 139.4,88.47 141.31,26.82 244.66,-55.76 263.98,-160.26z"/>
   <path class="fil7" d="M4866.83 4435.96c97.04,4.19 198.67,-36.7 261.8,-82.33 7.59,-93.24 9.4,-119.91 -21.36,-191.33 -104.67,-20.63 -170.07,-15.91 -231.02,58.5 -95.16,116.19 -11.19,211.15 -9.42,215.16z"/>
   <path class="fil1" d="M1543.24 4222.87c53.42,-107.25 107.94,-536.07 119,-677.48 -234.05,53.5 -188.08,466.48 -119,677.48z"/>
   <path class="fil2" d="M4326.28 6763.14c115.24,-164.74 -151.84,-303.23 -242.6,-158.38 -115.3,184.02 135.43,311.59 242.6,158.38z"/>
   <path class="fil8" d="M5878.63 713.15c130.14,73.36 417.88,62.92 393.11,-149.36 -73.81,-55.95 -164.43,-30.69 -246.55,-4.78 -87.9,27.74 -155.68,58.57 -146.55,154.15z"/>
   <path class="fil9" d="M4384.37 6572.09c17.79,215.32 318.52,147.93 291.76,-30.9 -23.35,-155.98 -308.4,-170.59 -291.76,30.9z"/>
   <path class="fil2" d="M3359.82 6711.04c24.52,158.21 318.1,157.77 289.45,-48.28 -10.24,-73.71 -75.17,-133.44 -167.22,-121.6 -67.13,8.64 -134.85,88.49 -122.23,169.88z"/>
   <path class="fil2" d="M3323.14 6606.82c79.02,-199.36 -214.72,-263.35 -268.66,-94.37 -49.42,154.84 194.43,281.65 268.66,94.37z"/>
   <path class="fil5" d="M3263.21 2974.28c-65.64,-47.69 -354.56,-73.14 -418.05,-24.57l52.39 8.16c-96.38,12.77 -162.1,43.07 -201.32,105.43 224.51,-21.28 474.68,16.79 540.94,8.85 53.46,-6.41 33.37,-4.84 50.77,-12.04l-24.73 -85.82z"/>
   <path class="fil5" d="M4450.2 3081.08c0.15,-38.73 -6.51,-32.76 17.43,-7.99l530.02 -18.15c-23.58,-88.98 -59.17,-89.15 -198.72,-103.34 -92.3,-9.39 -174.54,3.43 -244.64,-2.38 -35.77,4.97 -86.91,12.09 -113.97,37.85 -57.09,54.34 -18.8,68.85 9.88,94.01z"/>
   <path class="fil4" d="M7088.04 7422.49c-23.34,218.26 -39.78,356.74 -153.29,486.25 87.28,-28.9 190.55,-138.64 228.63,-235.79 41.2,-105.13 94.25,-288.22 45.21,-392.46l-18.42 20.92c-44.35,57.88 -29.56,76.16 -102.13,121.08z"/>
   <path class="fil5" d="M1726.71 2613.58c3.63,74.31 32.74,203.54 69.45,258.14 31.36,-41.52 133.45,-333.65 142.42,-391.4l-31.72 -50.87c-52.18,-54.2 -69.4,-3.21 -112.11,42.34 -2.47,2.63 -6.33,6.01 -8.73,8.66l-59.3 133.13z"/>
   <path class="fil7" d="M2022.04 4413.16l-18.08 44.32c32.67,46.62 26.19,79.98 48.91,112.66 44.08,-35.8 12.22,18.08 34.66,-69.15l63.22 -230.39c27.02,23.37 40.7,19.89 53.7,96.1 5.45,31.93 2.76,64.58 7.34,97.29 17.24,123.05 43.06,43.55 36.97,149.16l72.44 -23.88c-81.44,-173.72 -123.69,-379.4 -187.38,-558.68 -35.75,142.34 -82.07,280.37 -104.65,434.08l-7.12 -51.52z"/>
   <path class="fil5" d="M2599.13 511.7c16.44,108.52 46.18,185.91 81.73,272.04 49.43,-11.76 48.62,-22.12 98.34,-34.44 -39.43,-19.73 -21.12,-3 -46.61,-29.06 -24.67,-25.22 -26.19,-31.02 -38.56,-70.53l161.71 75.87c7.97,-80.39 7.65,-156.67 -30.52,-212.53 -22.82,74.79 38.59,-1.13 -36.39,49.71 -9.14,-66.43 -16.3,-47.07 -4.14,-69.84 -3.69,165.22 13.33,33.67 -51.5,87.21 -28.11,-54.37 -65.39,-104.64 -91.77,-155.23 -20.59,49.68 13.36,56.41 -42.28,86.8z"/>
   <path class="fil5" d="M4875.52 556.31c-24.37,31.09 -31.14,106.83 -6.43,162.85 32.98,6 -6.38,-11.95 66.92,-49.7 50.01,27.31 56.67,54.84 87.31,99.14 82.46,-23.03 -36.9,10.37 33.92,-15.12 28.14,-10.13 -34.12,-7.69 51.29,-14.62l20.37 -178.25 -39.04 -87.99c-91.22,143.91 -119.29,111.27 -146.38,107.49 -100.15,-13.96 40.2,-11.19 -67.95,-23.79z"/>
   <path class="fil10" d="M4179.76 4750.4c-105.35,-40.62 -29.23,80.89 -299.85,78.9 -204.9,-1.51 -233.3,-80.17 -339.19,-108.94 56.1,123.77 178.99,167.64 319.36,173.74 148.15,6.43 278.59,-53.37 319.68,-143.69z"/>
   <path class="fil8" d="M7009.88 7127.49l78.16 295c72.57,-44.92 57.78,-63.2 102.13,-121.08l18.42 -20.92c-27.83,-107.16 -67.4,-143.53 -107.23,-211.85 -15.75,31.47 -9,25.51 -35.46,41.17 -24.7,14.62 -29.04,6.03 -56.02,17.68z"/>
   <path class="fil5" d="M7009.88 7127.49c26.98,-11.65 31.32,-3.06 56.02,-17.68 26.46,-15.66 19.71,-9.69 35.46,-41.17 -21.61,-77.57 -0.12,-35.51 -62.79,-84.67 -51.87,-40.69 -179.66,-126.75 -243.54,-134.58 52.98,92.84 47.76,55.94 115.12,124.85 57.95,59.27 38.38,99.09 99.73,153.25z"/>
   <path class="fil2" d="M4728.45 3603.43c-44.73,76.21 -51.31,71.72 11.1,153.67 206.18,18.12 164.2,-181.63 -11.1,-153.67z"/>
   <path class="fil2" d="M3214.65 3707.47c-19.61,-95.88 -59.14,-126.2 -158.37,-92.76 -20.06,71.86 -7.18,91.46 19.88,147.53l95.37 -6.11 43.12 -48.67z"/>
   <path class="fil5" d="M5333.49 609.13c-90.02,-48.55 -39.36,25.51 -113.33,-30.65 -5.87,6.01 -40.27,-10.64 -37.89,104.85 2.12,102.91 31.23,106.57 31.29,106.66 33.47,-36.73 30.83,-49.43 54.28,-85.92 35.02,-54.49 35.78,-29.22 65.65,-94.93z"/>
   <path class="fil7" d="M3876.58 4445.3c20.63,-23.91 19.25,-10.65 26.59,-49.26 7.83,-41.15 -1.74,-149.09 -60.05,-191.74 -28.93,60.33 -69.17,230.01 33.45,241z"/>
   <path class="fil9" d="M6468.5 1988.22c74.97,-21.26 117.16,-67.74 184.55,-140.07 38.83,-41.67 103.54,-143.53 120.39,-211.93 -20.51,26.66 -43.41,61.62 -66.02,92.84l-238.92 259.16z"/>
   <path class="fil11" d="M1306.79 1999c-153.86,-111.71 -209.93,-206.92 -315.84,-320.2 43.52,90.02 106.03,213.73 197.16,275.53 22,14.92 91.97,38.99 118.69,44.67z"/>
  </g>
 </g>
</svg>
