<?xml version="1.0" encoding="UTF-8"?>
<!DOCTYPE svg PUBLIC "-//W3C//DTD SVG 1.1//EN" "http://www.w3.org/Graphics/SVG/1.1/DTD/svg11.dtd">
<!-- Creator: CorelDRAW 2021 (64 Bit) -->
<svg xmlns="http://www.w3.org/2000/svg" xml:space="preserve" width="115.659mm" height="168.629mm" version="1.1" style="shape-rendering:geometricPrecision; text-rendering:geometricPrecision; image-rendering:optimizeQuality; fill-rule:evenodd; clip-rule:evenodd"
viewBox="-904.76 -1319.13 6979.62 10176.20"
 xmlns:xlink="http://www.w3.org/1999/xlink"
 xmlns:xodm="http://www.corel.com/coreldraw/odm/2003">
 <defs>
  <style type="text/css">
   <![CDATA[
    .fil8 {fill:#11B3FD}
    .fil0 {fill:#161521}
    .fil15 {fill:#18326E}
    .fil10 {fill:#1A44A6}
    .fil4 {fill:#34344B}
    .fil3 {fill:#458AEC}
    .fil7 {fill:#4A5398}
    .fil6 {fill:#4A5DC6}
    .fil9 {fill:#515469}
    .fil16 {fill:#6AB8F4}
    .fil13 {fill:#7589C4}
    .fil12 {fill:#8EE8FD}
    .fil17 {fill:#A2AED4}
    .fil11 {fill:#D0D5EB}
    .fil14 {fill:#D13D4A}
    .fil5 {fill:#F8BA93}
    .fil2 {fill:#FBFAFD}
    .fil1 {fill:#FDDBBA}
   ]]>
  </style>
 </defs>
 <g id="Camada_x0020_1">
  <metadata id="CorelCorpID_0Corel-Layer"/>
  <g id="_2233443907136">
   <path class="fil0" d="M3040.24 5434.76c40,100.4 23.61,69.62 87.81,145.52l181.24 99.48c-16.84,33.54 8.08,11.88 -34.5,43.24 -40.58,82.97 -159.91,156.52 -280.02,206.07 -128.31,52.94 -251.2,82.58 -402.54,89.04 -278.97,11.9 -597.4,-104.56 -723.12,-255.17 -24.93,-22.65 -48.79,-42.81 -61.2,-78.37 160.53,-135.15 306.07,-20.14 290.71,-588.29 167.56,44.42 269.97,107.11 467.07,105.16 152.99,-1.51 393.27,-91.51 451.62,-88.63l22.92 321.94zm993.43 -1170.94c41.31,18.44 35.73,26.66 77.32,47.16 69.09,34.07 46.98,-10.35 92.84,52.26 -87.47,17.54 -158.89,-0.97 -170.17,-99.42zm241.92 -116.54c12.33,21.29 59.03,50.42 49.81,142.82 -4.55,45.59 -16.28,43.82 -28.24,55.52 -18.83,147.37 -314.77,131.43 -317.72,-46.06 39.79,48.17 68.72,109.2 151.42,116.55 94.39,8.39 144.93,-52.05 154.55,-129.83l-20.79 -83c-19.26,30.13 -9.94,8.15 -11.4,88.22l-73.01 -10.67 55.98 -155.76c80.86,-4.55 6.98,-4.81 39.4,22.2zm-157.77 48l-43.95 -15.56c-9.46,-49.73 24.73,-148.62 57.1,-174.46 82.49,43.2 37.18,130.4 -13.15,190.02zm937.19 -419.88c-8.53,65.14 -32.73,155.01 -56.54,212.44 -30.57,73.72 -51.99,134.1 -128.5,151.02 24.13,-91.17 80.95,-217.2 22.82,-290.42 -13.44,79.96 -32.06,152 -52.7,231.38 -33.79,129.94 -46.61,83.47 -157.6,135.75 -49.26,28.05 -27.08,10.62 -107.29,21.17 22.99,-201.68 104.46,-431.46 122.67,-637.15l47.66 -530.94c2.76,-51.75 -0.12,-133.33 29.95,-174.74 101.32,-7.39 13.93,-4.71 52.55,16.38 43.97,34.01 111.51,52.14 138.32,98.43l89.51 27.55 28.2 143.85c-1.65,102.52 18.34,197.76 12.63,309.37 -5.45,106.55 -26.76,187.59 -41.68,285.92zm-4902 -736.61c21.23,-23.83 -6.99,4.16 18.6,-17.38 2.05,-1.73 5.97,-4.83 8.12,-6.61 2.7,-2.24 15.27,-11.74 18.47,-14.74l148.03 -73.22c26.1,-24.69 -3.37,-15.8 49.18,-16.64 11.09,62.88 31.21,514.18 56.2,697.86 17.09,125.65 22.06,212.38 51.35,327.15 27.61,108.15 58.18,215.06 74.03,327.63 -60.53,-8.72 -28.17,1.95 -64.48,-18.68l-174.53 -67.11 -63.38 -292.96 -18.31 -119.23 -2.5 -26.06c-2.27,2.81 -4.72,4.04 -5.47,9.35 -4.49,32.11 -36.24,0.63 -5.38,187.39 13.73,83.09 28.08,135.08 44.5,205.56 -76.65,-13.96 -54.67,-5.29 -125.57,-156.04 -28.12,-59.78 -51,-133.83 -63.33,-200.77 -0.58,-136.36 -81.13,-329.65 6.9,-678.71 14.5,-57.5 9.75,-52.17 47.57,-66.8zm887.55 1017.83l37.81 117.86c21.31,31.95 17.47,16.01 9.86,58.19l-21.1 4.09c-27.22,-6.73 -6.66,4.94 -26.89,-11.45 -8.41,-6.81 -23.39,-35.46 -25.61,-39.29l-36.49 -86.89c-39.67,-145.55 -119.1,-627.12 -114.73,-734.53 42.68,47.42 38.9,103.41 52.17,172.66 20.93,109.29 91.24,456.01 124.98,519.35zm3154.03 -67.29c-5.03,3.34 21.81,34.52 -30.25,-1.63 -61,-32.02 26.66,-278.6 42.18,-343.73 26.21,-110.03 51.25,-254.03 78.73,-350.31 1.77,121.62 -49.1,622.5 -90.67,695.68zm-3365.92 -247.71c25.62,62.31 41.04,199.17 56.7,271.5 17.48,80.74 65.25,194.68 75.97,258.48l18.08 57.73 -63.21 13.67c-128.81,3.16 -116.34,4.38 -216.11,-42.07l-47.21 -12.43 -110.84 -524.77c-61.74,-316.89 -73.63,-589.84 -75.07,-916.23 62.03,-48.75 196.98,-97.24 293.24,-64.76 21.26,140.4 3.08,342.39 18.35,496.75 13.7,138.48 45.53,329.15 50.1,462.13zm3784.68 30.72c-19.74,105.39 -73.85,424.74 -113.63,492.62 -17.08,28.23 9.7,2.57 -18.43,21.84 -0.33,0.23 -33.34,15.06 -35.95,16.02 -28.63,10.43 -50.56,15.87 -81.07,22.51l2.8 -50.61c-1.18,-119.99 -35.82,-133.92 -119.1,-180.63l63.28 -334.08c34.47,-170.3 100.58,-633.19 87.47,-791.68 -17.26,-97.23 -22.41,-223.35 100.56,-212.46 43.66,3.86 166.18,48.79 207.58,78.68l-11.01 154.02c13.88,247.03 -76.59,542.78 -82.5,783.79zm348.95 -899.36l-177.75 -116.14c-73.47,-43.15 -124.7,-54.67 -203.5,-82.07 48.01,-125.29 117.68,-105.24 234.48,-39.87 95.45,53.42 184.6,91.82 146.77,238.09zm-4670.9 -55.97c-15.88,31 -12.95,29.82 -45.09,33.96 -2.92,-59.4 -11.85,-99.74 19.31,-135.02 27.57,-31.2 75.81,-50.42 115.43,-61.81 30.3,-38 11.89,-19.1 57.45,-42.01 20.04,-10.08 49.41,-23.62 75.7,-23.76 56.39,-0.29 88.56,41.21 107.35,89.09 -140.24,25.23 -219.98,101.94 -330.16,139.55zm3783.77 608.39c29.64,121.98 -105.78,636.12 -167.06,724.79 -30.79,225.32 -336.05,498.64 -506.97,608.01 -179.47,114.85 -547.33,295.43 -809.56,305.91 -279.87,11.19 -824.79,-250.87 -986.69,-404.33 -139.24,-131.98 -295.81,-258.4 -366.93,-490.69 -119.58,-298.99 -174.08,-591.13 -178.04,-936.91l1.18 -58.24c2.76,-1.58 7.83,-5.61 8.95,-2.83 1.07,2.65 7.02,-2.22 8.44,-2.6 44.2,-11.85 -8.42,24.72 31.49,-7.7 3.43,-89.77 -11.77,-209.39 22.74,-281.56l-4.86 -40.49c8.77,-40.21 9.26,-60.25 30.45,-89.07 121.64,154.28 179.3,166.42 222.45,217.82 -24.97,17.59 -43.66,27.68 -72.54,48.8 -26.33,39.06 -39.87,35.95 -78.53,106.18 161.41,-53.16 200.7,-85.61 402.15,-85.18 107.77,0.23 367.19,67.32 427.77,11.64 40.13,-92.09 -21.82,-128.91 -98.63,-150.33 -104.86,-30.61 -197.35,-34.5 -307.33,-27.73l-94.48 8.91c-17.82,-71.62 -21.13,-141.11 -7.92,-211.73 11.04,-81.28 5.26,-116.36 79.82,-127.59 59.28,-8.93 121.24,-11.28 181.98,-20.55 -17.82,46.83 -103.93,117.64 -151.13,200.21 512.58,37.92 586.31,-57.02 954.86,-239.84 -23.45,39.44 -45.27,78.1 -70.69,108.77 -38.44,46.36 -54.05,64.8 -90.38,114.19 289.11,28.28 490.59,-17.18 706.51,-142.46 251.22,-145.76 290.77,-310.89 395.97,-484.2 123.06,192.68 102.79,530.43 41.16,757.36 76.96,-18.07 140.84,-54.43 190.53,-92.69 131.71,-101.39 77.36,-76.56 143.82,-141.27 93.68,90.8 211.01,684.37 141.51,825.39zm-731.42 -1196c-26.77,47.42 -80.26,124.69 -124.56,152.58l-87.82 54.99c-43.83,82.89 -343.3,174.13 -485.31,182.4 18.24,-28.8 47.34,-69.38 80.99,-89.57 24.21,-55.47 52.55,-93.77 86.35,-153.33l37.43 -101.18 110.42 -389.52 -15.29 -5.45c-7.26,33.53 -1.88,23.9 -20.88,62.33 -18.38,37.17 -11.45,26.89 -36.43,49.26 -7.9,68.31 -108.7,177.18 -151.26,222.88 -47.52,51.03 -143.84,153.46 -224.23,181.99 -50.95,63.4 -259.37,153.88 -363.82,189.5 -104.59,24.98 -175.74,48.45 -293.39,48.64 19.29,-24.72 74.7,-92.09 103.85,-116.11 30.47,-76.22 9.48,-69.3 94.63,-104.65 50.23,-20.85 95.4,-54.42 142.86,-62.04 35.27,-51.13 95.6,-74.46 144.12,-111.9 46.89,-36.19 87.99,-77.29 127.54,-117.75 17.86,-30.1 29.11,-41.43 57.21,-66.55 34.42,-30.77 30.79,-32.1 55.06,-56.52 58.53,-146.4 297.14,-365.65 442.58,-417.24 394.31,-139.84 539.8,160.82 458.99,289.48 1.2,97 -76.14,309.31 -139.04,357.75zm-2999.3 352.98c-34.46,4.71 -6.3,5.61 -63.86,27.02 -1.28,-198.46 55.64,-422.23 124.14,-608.59 22.78,-61.99 62.63,-122.12 74.47,-173.23 1.1,-3.2 3.36,-11.27 4.1,-9.27 0.74,1.98 3.24,-7.25 4.29,-9.13 39.77,-70.9 25.78,-12.92 39.4,-81.07 60.34,20.46 68.84,35.59 109.64,58.29 -29.15,179.05 -142.24,177.79 -178.15,742.05l-114.04 53.93zm4343.47 -838.59c27.86,76.26 113.24,166.27 168.05,377.82 50.76,195.91 53.08,300.9 77.39,493.34 -31.31,-10.05 -34.06,-14.95 -53.87,-19.42l-117.15 -63.05c-24.61,-74.82 -33.08,-322.43 -55.6,-420.88 -19.89,-87 -112.73,-280.58 -113.48,-355.23 118.08,-65.58 84.7,-31.25 94.67,-12.58zm-3636.64 325.7l-23.56 132.74c10.9,128.53 -2.36,174.06 35.75,304.58 25.67,87.91 8.65,75.76 -24.77,190.49l-23.59 62.68c-1.24,2.55 -3.43,6.88 -5.61,10.03l-3.15 187.7c-52.67,-100.81 -78.97,-130.48 -117.1,-263.55 -36.17,-126.22 -38.31,-225.35 -35.62,-358.1l13.74 -130.46c16.71,-109.41 63.49,-192.56 92.26,-275.32 23.46,-80.23 102.24,-178.79 144.34,-217.31 127.46,-116.64 116.26,-88.14 221.93,-108.83 -38.93,58.81 -71.29,53.7 -163.66,208.07 -41.42,69.22 -70.1,203.27 -110.95,257.29zm-216.24 -148.38c-5.78,54.33 -44.48,115.87 -64.62,181.79 -18.73,61.29 -23.93,149.43 -45.21,204.71 -31.55,-150.82 -15.87,-448.38 81.62,-553.33 49.58,-172.22 139.74,-209.1 299.54,-144.52 -45.32,52.75 -88.92,85.73 -140.9,149.19 -50.76,61.99 -95.29,138.64 -130.43,162.17zm-234.8 -264.37c40.8,-52.37 91.46,-100.98 125.01,-148.87l85.58 27.37c-42.83,53.55 -93.37,121.3 -127.92,189.83l-82.67 -68.33zm3619.1 -119.13c66.06,25.99 167.06,140.33 205.54,220.74 58.39,97.77 116.01,380.06 74.38,505.05 -15.1,-37.37 -23.86,-99.3 -38.43,-142.28 -17.09,-50.38 -43.06,-90.26 -46.02,-136.44 -25.64,-20.66 -52.16,-67.07 -67.98,-90.98 -37.62,-56.85 -21.73,-39.17 -66.93,-81.21 8.17,80.65 53.64,122.01 56.18,216.9 67.93,77.14 59.63,430.75 36.58,546.08 -22.6,113.13 -77.5,294.64 -147.8,389.3l-45.61 43.75c-31.94,-444.51 -187.42,-452.53 -171.59,-610.01 9.41,-93.6 6.12,-164.48 12.52,-252.74 3.04,-28.22 2.46,-47.79 -5.72,-75.08l-35 -61.84c-1.74,48.28 10.72,127.76 -12.38,158.83 3.92,50.61 0.2,73.94 -9.45,122 -2.98,14.81 -7.73,38.74 -13.3,52.01 -18.93,45.13 -7.8,22.18 -29.54,42.6 -2.01,93.34 -127.61,225.49 -166.85,261.23l3.15 -86.22c10.11,-113.22 9.31,-196.87 -10.27,-308.83 -9.09,-52.01 -16.78,-90.89 -28.93,-128.16 -13.03,-39.97 -30.72,-75.08 -43.4,-114.45l-14.55 -16.98 -15.12 -17.82c-92.02,-129.96 -92.87,-681.42 314.31,-382.4 60.08,44.13 97.21,119.72 151.54,172.6 2.4,-7.01 3.96,3.46 0.59,-19.08 -22.61,-151.42 -168.43,-210.52 -201.22,-284.09 94.05,-14.46 264.03,-12.7 315.3,77.52zm406.18 114.18l-86.79 46.94c-189.97,-283.87 -92.97,-121.32 -244.7,-272.16l34.25 -34.8c106,50.15 229.71,172.8 297.24,260.02zm-1678.28 -187.59c-64.31,62.95 -164,60.02 -424.31,404.92 -49.46,65.53 -77.71,109.35 -131.64,145.9 -52.7,91.7 -277.8,248.16 -423.54,311.47 -181.45,78.83 -393.84,111.92 -602.38,136.87l81.17 40.23c-29.86,146.16 -34.8,199.61 -5.55,354.87 -74.36,-27.58 -166.7,-114.41 -189.02,-194.05 -34.11,-30.93 -18.65,-15 -39.77,-57.45 -18.5,-37.18 -21.57,-33.81 -24.91,-76.21 -43.97,-51.02 -51.11,-198.18 -47.71,-283.7 4.34,-109.11 52.89,-206.25 61.78,-288.72 14.3,-97.83 159.61,-277.03 202.14,-313.48 60.86,-52.15 262.47,-149.01 352.32,-164.4 -13.59,43.49 -85.83,185.81 -112.87,219.85 -12.78,65.13 -30.72,166.49 -67.47,210.79 -4.14,166.7 -84.57,325.46 -144.59,451.63 37.4,-22.33 79.12,-59.74 107.89,-96.68 29.7,-38.13 40.32,-82.8 70.53,-117.44l39.62 -131.96c287.19,-1295.41 1868.84,-1164.24 1891.15,-431 -144.58,-122.72 -180.07,-173.05 -435.71,-156.47l-157.16 35.02zm1069.9 -97.71c26.32,-88.26 134.92,-175.86 154.29,-202.86 82.46,-114.96 48.5,-144.12 91.08,-255.29 74.09,70.61 72.08,250.19 26.29,345.79 -17.46,36.46 -71.96,98.33 -96.56,115.69 -46.89,33.07 -100.42,0.11 -175.1,-3.33zm-2289.18 27.66c-94.63,13.88 -208.72,83.72 -353.01,98.64 -234.75,32.98 -416.91,1.51 -600.06,-100.64 -51.42,-35.51 -150.39,-110.57 -178.93,-174.44 203.11,59.73 381.96,29.1 578.21,-25.6 42.51,-11.85 93.1,-32.1 145.99,-52.05 360.9,-136.12 332.9,-115.1 685.1,-142.93 69.11,5.84 162.77,23.71 204.49,62.86 -181.25,100.09 -306.09,274.27 -481.79,334.17zm2034.99 -114.81c0.67,-69.44 12.35,-131.61 6.07,-202.56 -5.81,-65.64 -33.5,-122.98 -33.88,-176.95 -1.41,-201.04 24.08,-152.96 -34.78,-353.99 159.91,88.45 353.14,409.04 283.48,668.23 -34.52,128.46 -93.09,147.71 -184.93,148.58 22.88,-117.76 102.81,-102.01 64.4,-369.88 -43.86,108.33 -6.72,199.3 -100.35,286.57zm-1801.81 -977.74c395.51,209.02 633.9,77.86 1028.92,192.33 25.73,-18.34 55.98,14.51 -15.74,-39.34 -18.87,-14.17 -25.64,-17.99 -47.76,-33.74 -13.32,-9.49 -39.28,-25.5 -54.87,-36.16 -8.37,-5.73 -16.61,-11.29 -24.32,-17.96 -20.31,-17.55 -7.23,-5.42 -23.32,-25.28 98.05,10.23 140.25,31.97 221.71,59.58 195.35,34.63 293.89,138.03 419.26,257.51 307.18,292.72 247.16,732.82 126.65,797.68 -26.36,-45.63 -45.8,-123.54 -71.3,-168.91 -74.64,-132.81 -227.75,-249.23 -379.1,-305.75 -363.18,-135.64 -623.1,2.89 -812.3,0.51 -111.26,-1.4 -249.75,-70.47 -394.39,-75.85 -388.39,-14.44 -516.88,195 -769.59,65.67 -89.4,-45.75 -173.25,-129.53 -187.38,-251.13 22.63,6.58 110.26,45.92 128.95,63.3 119.95,17.36 203.02,31.97 331.01,3.08 82.64,-18.65 238.55,-70.23 315.45,-58.15 -23.62,-44.32 7.47,-10.88 -39.85,-43.64 -0.59,-0.41 -29.96,-14.3 -35.77,-17.15 -29.15,-14.35 -42,-17.43 -60.95,-43.18 400.16,-29.27 441.22,139.51 701.03,140.24l308.83 -1.54c83.75,-5.87 58.54,2.6 75.3,-39.26 -74.61,-30.19 -238.75,-8.35 -331.56,-27.41 -291.04,-59.77 -515.84,-182.79 -523.27,-518.89 23.2,21.15 28.89,35.13 52.57,59.1 13.95,14.12 21.14,18.2 34.44,31.77l27.33 32.57zm-1958.07 2929.67c13.79,154.8 -33.97,311.33 37.29,574.7 31.41,116.1 98.29,380.04 206.2,424.94 130.15,54.15 327.88,87.86 459.35,157.53 226.02,119.78 312.57,32.57 452.38,-52.9 136.24,152.46 67.11,230.14 543.91,555.64 74.41,50.8 177.49,85.67 243.25,136.18 -37.63,19.15 -290.62,56.53 -367.87,76.85 -306.23,80.55 -714.36,261.31 -822.44,557.36 -41.67,146.74 13.33,49.09 -234.34,214.45 -115.43,77.06 -147.79,140.5 -101.36,330.32 -149.36,55.91 -351.17,313.15 -404.38,530.11l75.76 52.63c32.07,-18.4 7.58,25.13 33.99,-48.1 44.92,-124.56 111.38,-295.33 230.65,-361.28 36.43,-34.89 67.31,-74.88 118.63,-99.97 33.96,16.99 102.04,86.37 242.9,161 91.84,48.67 201.75,85.04 290.69,129.03l4.23 705.31 73.36 17.82 9.33 -35.38 -0.88 -652.39 102.08 37.4 3.28 685.3c27.58,26.53 25.94,20.88 74.05,35.56 32.99,-193.24 -28.58,-475.89 4.2,-662.65 131,39.37 373.89,290.09 418.89,414.18 14.27,13.08 22.71,19.23 40.83,34.03 18.85,-12.92 14.43,-3.05 30.42,-23.68l-62.79 -154.44c-34.65,-26.41 -86.51,-115.19 -123.37,-157.39 -45.34,-51.92 -91.31,-94.3 -150.4,-139.58 -103.82,-79.57 -239.79,-142.7 -377.56,-195.93 -132.08,-46.36 -236,-102.29 -354.52,-162.99 -87.63,-44.89 -211.13,-137.09 -195.25,-245.65 7.54,-51.52 15.67,-43.25 20.32,-50.45 79.85,-72.71 109.65,-114.52 244.29,-149.1 23.04,64.63 47.92,93.78 83.08,141.63 24.47,-12.12 22.43,18.56 13.86,-47.79 -6.84,-53 -11.31,2.54 -16.09,-69.4 -11.97,-201.24 3.71,-210.59 107.74,-345.26 20.08,-25.99 30.92,-39.35 57.76,-60.36 14.09,-11.03 17.14,-11.67 31.24,-22.31 265.44,-200.41 569.81,-297.33 931.09,-334.93l0.84 79.05c9.6,300.18 -38.03,264.76 -246,377.07 -78.54,42.42 -123.37,68.89 -187.5,114.4 -84.53,59.98 -96.21,99.18 -85.5,243.67 60,189.39 121.34,371.5 194.88,558.58 55.65,141.59 168.61,453.43 184.19,597.51 26.87,52.68 77.42,301.59 81.69,372.12 35.82,52.61 35.89,32.4 116.09,43.45l-5.64 -53.46c-98.94,-618.13 -457.44,-1440.1 -462.96,-1582.88 -3.58,-92.73 78.57,-123.34 143.79,-159.46 120.79,112.19 138.28,174.64 338.89,268.83 309.76,145.43 698.81,148.28 1009.41,3.76 167.06,-77.73 241.31,-168.14 337.96,-276.96 57.55,31.88 110.65,70.21 145.95,125.35 -1.27,183.78 -188.84,608.12 -253.41,789.66 -83.12,233.71 -182.88,574.05 -214.14,833.11l-5.74 52.34c63.7,-10.74 81.56,1.88 113.87,-36.51l82.58 -381.69c20.63,-165.3 120.52,-413.38 180.86,-573.81 63.31,-168.34 156.74,-384.86 195.35,-562.85 4.7,-109.42 9.48,-190.34 -57.39,-244.91 -52.36,-42.73 -119.65,-82.38 -192.82,-122.47 -225.6,-123.62 -236.38,-77.02 -249.81,-385.34l-2.52 -80.86c313.22,45.05 606.47,129.49 833.03,277.29 65.64,28.62 158.89,127.51 204.3,179.91 290.53,335.25 -178.73,576.12 -282.4,691.51l207.08 -126.93c105.78,-71.86 169.86,-149.43 242.11,-277.65 99.05,25.84 206.69,85.41 229.19,159.06 114.8,81.28 -106.44,244.22 -143.54,266.29 -80.96,48.15 -218.53,120.31 -316.06,150.73 -408.79,188.34 -441.29,170.13 -683.32,493.4l-39.12 45.39 -50.41 133.41 6.34 27.37 1.78 1.38c66.64,-51.83 95.75,-122.77 143.04,-174.11 39.4,-30.25 34.19,-45.39 65.14,-77.36 26.8,-27.68 57.08,-41.98 87.46,-70.68 57.14,-53.97 97.49,-91.1 178.34,-126.5 15.06,169.35 -6.17,410.62 -3.27,574.2 1.56,88.21 11.07,69.82 33.76,85.7l49.53 -27.69 6.56 -693.29 98.14 -37.25 -5.95 700.94 85.08 -31.71 5.2 -706.41c181.01,-85.03 226.95,-74.09 410.67,-194.8 43.73,-28.73 71.66,-63.4 115.15,-89.17 38.39,20.64 99.5,50.33 108.01,85.29 120.69,78.92 222.01,230.9 263.88,433.11 36.88,-18.6 66.34,-44.45 95.42,-69.29 -61.81,-195.43 -171.51,-352.35 -323.98,-479.49 -45.06,-37.58 -35.47,-4.05 -59.56,-63.48 -17.93,-13.9 -13.13,22.17 -4.21,-40.28 24.25,-169.85 -35.38,-244.75 -233.57,-348.92 -163.99,-86.19 -75,-142.56 -214.63,-298.41 -139.14,-155.31 -300.09,-243.08 -521.61,-332.04 -72.6,-29.15 -184.01,-64.04 -262.82,-79.68 -47.23,-9.37 -92.69,-18.76 -139.94,-28.52l-146.62 -38.77c148.17,-38.67 334.3,-181.12 441.31,-255.74 136.45,-95.16 228.71,-236.36 327.51,-367.1 38.77,25.47 190.44,212.32 375,17.65 54.32,-57.29 71.38,-23.33 146.81,-50.89 68.15,-24.9 51.36,-27.74 138.95,-44.97 64.45,-12.69 90.11,-23.85 151.38,-45.68 130.01,-46.31 170.45,-37.07 238.08,-143.44 98.99,-155.69 154.96,-379.59 169.84,-589 7.29,-102.57 8.93,-496.15 -72.94,-581.18l-60.06 -50.11c1.01,-40.15 6.65,-93.13 3.51,-131.51 -4.89,-59.86 -18.51,-46.15 -21.32,-117.51 -10.06,-254.59 -46.26,-484.3 -137.47,-720.99 -122.8,-318.68 -285.93,-467.11 -510.04,-633.64l27.01 -107.52c7.54,-132.11 -8.16,-230.94 -64.94,-341.84 -54.24,-105.94 -94.1,-149.11 -243.43,-156.73 20.29,40.88 3.32,5.26 28.27,43.78 16.56,25.57 9.79,9.39 23.54,41.8 44.22,104.14 28.66,253.06 -46.65,313.93 -5.63,-189.65 -88.22,-353.43 -197.52,-490.49 -53.44,-67.01 -101.3,-110.27 -176.16,-165.88 -64.53,-47.93 -154.28,-80.25 -245.28,-103.15 33.25,63.03 81.75,90.57 117.31,165.69 38.36,81.05 57.82,119.7 60.9,217.74 -55.09,-71.71 -99.44,-146.62 -171.68,-199.13 -346.45,-251.8 -471.13,-251.98 -910,-277.24 43.52,53.42 128.66,59.31 173.65,108.91 -182.45,16.36 -620.2,-17.06 -776.96,-173.32l-150.62 -183.98 -29.61 55.05c-46.36,149.37 -11.32,327.58 53.15,462.9 -175.89,12.73 -257.87,8.69 -421.87,76.3l-49.29 29.64 143.97 39.22c-89.64,87.25 -357.5,58.97 -501.47,-23.33 -48.05,-27.47 -87.28,-65.69 -129.84,-79.06 -30.25,150.63 41.94,350.95 147.07,443.03 16.61,14.55 36.46,29.42 58.91,45.67l63.49 53.32c-125.23,19.02 -180.23,58 -333.88,56.72 -140.75,-1.17 -224.88,-27.28 -353.72,-47.32 19.35,81.45 46.49,137.09 84.32,188.8 32.9,44.97 111.9,131.89 132.41,170.63l-123.02 114.86c-35.56,47.62 -68.41,100.01 -100.91,148.74 -129,193.35 -216.6,495.8 -245.46,728.02 -17.88,143.82 -39.07,300.51 -44.61,444.07 -56.5,54.86 -90.33,26.64 -117.33,116.12 -20.56,68.14 -23.85,148.57 -45.22,207.87z"/>
   <path class="fil1" d="M2296.33 4324.49c59.03,-21.42 191.83,67.97 295.85,61.18 121.1,-7.9 201.38,-101.04 259.35,-55 -17.52,94.17 -198.31,128.02 -285.25,127.12 -77.41,-0.8 -175.37,-28.45 -239.45,-72.93 -34,-23.6 -36.3,-11.59 -30.5,-60.38zm194.26 -269.86c-9.18,-46.18 17.57,-69.45 61.61,-75.02 52.08,-6.58 103.55,7.12 100.13,59.6 -5.32,81.64 -147.96,84.75 -161.74,15.42zm1393.01 -696.66c-75.69,147.27 -160.88,76.83 -287.87,31.97 196.45,557.78 -500.34,624.75 -543.94,217.56 -32.39,-302.52 294.68,-532.56 713.53,-304.84 35.74,19.43 82.45,34.62 118.28,55.31zm-2623.31 0c39.05,-21.78 43.99,-8.18 118.83,-55.45 357.91,-226.02 748.25,-19.83 714.59,305.15 -18.06,174.43 -199.13,325.03 -399,239.78 -168.81,-72 -229.99,-268.66 -136.9,-462.04 -126.53,28.51 -194.35,146.53 -297.52,-27.45zm700.66 -459.35c76.81,21.42 138.77,58.24 98.63,150.33 -60.57,55.68 -320,-11.4 -427.77,-11.64 -201.45,-0.43 -240.73,32.02 -402.15,85.18 38.65,-70.23 52.19,-67.12 78.53,-106.18 -93.52,-31.27 -139.91,-131.28 -180.36,-177.56l4.86 40.49c-4.02,58.67 -9.76,35.67 22.9,74.47 80.45,95.55 9.58,244 -13.91,365.89 -18.49,95.96 -37.8,52.02 -49.24,84.95 -0.78,-26.59 -0.69,-60.41 -3.01,-86.11 -4.42,-49.07 -8.23,-62.26 -29.54,-86.25 3.96,345.79 58.46,637.93 178.04,936.91 35.58,-25.85 22.75,32.38 18.85,-67.95 13.74,43.8 23.89,37.22 48.87,80.09 131.2,225.2 238.78,364.35 475.24,500.95 62.58,36.15 118.95,66.32 179.64,97.49 132.84,68.22 17.81,33.55 200.31,77.46 167.91,40.4 256.91,93.68 471.15,85.63 296.84,-11.16 811.28,-255.71 970.44,-417.52 97.2,-98.83 94.35,-72.54 120.93,-159.98 40.59,-133.51 171.98,-191.67 192.83,-367.15 8.59,71.09 -35.98,79.51 -8.1,152.06 61.28,-88.67 196.69,-602.82 167.06,-724.79 -38.62,-163.07 -77.57,-489.69 -180.96,-608.91 -37.35,18.89 -70.57,44.92 -105.84,68.58 -17.18,11.52 -88.46,47.78 -91.53,51.16 30.61,37.94 151.03,85.91 203.84,185.99 -139.15,-43.45 -218.24,-82.29 -387.86,-85.05 -99.65,-1.62 -349.5,52.02 -411.36,24.45 -83.75,-82.38 24.46,-150.98 102.15,-169.99 108.96,-26.66 257.18,-5.99 314.51,-21.76 44.26,-36.66 2.11,18.96 0.08,-12.13 -0.08,-1.22 -0.68,-5.08 -0.77,-6.57 -0.12,-1.83 -0.84,-5.94 -0.94,-8.08l7.69 -181.73c0.15,-73.94 4.43,-170.27 -24.56,-224.15 -146.92,139.91 -232.5,243.22 -462.66,339.19 -167.79,69.95 -335.28,97.23 -522.88,77.08 -93.56,-10.04 -80.56,-12.05 -119.34,-73.66 -71.13,20.69 -129.24,53.73 -203.22,73.23 -88.39,23.3 -203.11,23.24 -230.54,45.58z"/>
   <path class="fil2" d="M3430.2 5990.83c-200.65,251.46 -543.65,358.07 -877.64,357.41 -283.1,-0.57 -775.07,-144.98 -866.57,-359 59.81,33.39 104.94,71.36 178.08,107.03 229.05,111.71 436.4,161.97 701.65,163.19 301.49,1.38 636.43,-94.71 864.48,-268.63zm-1400.29 1472.83l22.82 49.6c166.7,5.1 321.1,23.04 499.83,24.58 173.67,1.5 329.45,-15.83 501.8,-25.3l21.05 -47.45c31.26,-259.07 131.02,-599.4 214.14,-833.11 64.57,-181.54 252.14,-605.88 253.41,-789.66 -35.3,-55.14 -88.41,-93.47 -145.95,-125.35 -96.65,108.82 -170.91,199.24 -337.96,276.96 -310.6,144.51 -699.65,141.66 -1009.41,-3.76 -200.61,-94.19 -218.1,-156.65 -338.89,-268.83 -65.22,36.11 -147.38,66.73 -143.79,159.46 5.52,142.78 364.02,964.75 462.96,1582.88z"/>
   <path class="fil3" d="M849.04 5894.12c26.93,17.04 8.42,-1.54 31.76,27.76 82.75,103.89 68.87,139.6 250.12,276.56 56.35,42.59 73.5,48.19 97.11,93.34 -57.83,-18.17 -252.01,-151.21 -297.45,-194.79 -42.35,-40.61 -53.95,-33.78 -79.3,-85.68 -35.16,-47.84 -60.04,-76.99 -83.08,-141.63 -134.64,34.58 -164.44,76.39 -244.29,149.1 6.63,170.32 349.28,336.09 514.52,401.52 143.06,47.05 284.84,127.38 401.18,205.65 87.23,58.67 259.3,247.84 265.08,344.83l62.79 154.44 70.3 -23.67c-15.58,-144.08 -128.54,-455.93 -184.19,-597.51 -73.54,-187.08 -134.88,-369.19 -194.88,-558.58 -41.49,-44.8 -39.24,-69.04 -60.6,-133.96 -13.41,-40.77 -30.04,-105.24 -36.28,-147.19 -16.06,-107.86 13.37,-219.25 77.2,-264.55 109.25,-77.55 364.83,-186.16 538.68,-189.44l-0.84 -79.05c-361.27,37.6 -665.65,134.51 -931.09,334.93 -14.1,10.64 -17.15,11.28 -31.24,22.31 -26.84,21.01 -37.69,34.37 -57.76,60.36 -104.03,134.67 -119.71,144.02 -107.74,345.26z"/>
   <path class="fil3" d="M3142.31 5209.83c160.49,10.65 450.43,122.78 537.48,202.62 111.66,102.43 60.96,444.1 -37.46,550.1 -38.61,177.99 -132.04,394.51 -195.35,562.85 -60.34,160.43 -160.24,408.52 -180.86,573.81l74.52 22.17 50.41 -133.41c14.81,-146.01 200.58,-287.25 280.36,-356.25 88.33,-76.4 292.04,-182.55 422.83,-226.14 139.18,-61.84 486.01,-237.82 478.86,-373.42 -22.5,-73.64 -130.14,-133.22 -229.19,-159.06 -72.25,128.22 -136.33,205.79 -242.11,277.65 -21.11,57.7 -154.59,129.63 -209.4,159.67 -74.62,40.9 -133.46,100.31 -226.15,115.96 145.5,-216.12 684.75,-627.61 274.21,-952.13 3.25,-7.53 8.18,-22.08 13.52,-33.42l13.7 -25.9c0.72,-4.73 3.42,-5.8 5.15,-8.69 -226.56,-147.79 -519.82,-232.23 -833.03,-277.29l2.52 80.86z"/>
   <path class="fil4" d="M2317.51 765.25c73.19,51.11 337.47,-13.7 408.81,29.53 -124.9,74.4 -563.38,58.11 -713.14,-0.91 -90.5,8.12 -163.59,4.21 -258.38,17.7 -80.4,11.45 -148.87,26.95 -226.54,37.98 -238.81,33.91 -464.64,-46.26 -421.68,-65.49 -18.69,-17.38 -106.32,-56.72 -128.95,-63.3 14.13,121.61 97.98,205.38 187.38,251.13 252.71,129.32 381.2,-80.11 769.59,-65.67 144.64,5.38 283.13,74.45 394.39,75.85 189.19,2.38 449.11,-136.15 812.3,-0.51 151.35,56.52 304.46,172.94 379.1,305.75 25.5,45.37 44.94,123.28 71.3,168.91 120.51,-64.86 180.53,-504.97 -126.65,-797.68 -125.37,-119.47 -223.91,-222.88 -419.26,-257.51 1.99,3.09 4.54,7.06 5.82,9.38l27.92 61.15c110.31,43.9 255.49,177.33 329.75,268.99 114.32,141.12 173.58,247.6 180.21,419.69 -28.61,-30.43 -105.34,-155.77 -125.11,-190.42l-26.28 -19.78c-2.39,-2.04 -5.26,-4.67 -7.62,-6.8 -12.63,-11.45 -7.18,-7.35 -20.15,-20.5 -16.86,-17.11 -28.96,-29.83 -45.83,-46.4 -119.22,-117.11 -351.22,-180.03 -351.56,-180.25 -32.48,-43.49 25.42,9.16 -18.18,-39.96l-48.13 -32.09c10.71,-12.76 3.73,-15.9 13.44,-32.01 -115.56,5.1 -482.06,-39.22 -598.76,-67.45 -102.98,-24.92 -421.35,-159 -400.16,-222.97l-27.33 -32.57c-13.29,-13.57 -20.49,-17.65 -34.44,-31.77 -23.68,-23.97 -29.37,-37.95 -52.57,-59.1 7.43,336.1 232.23,459.12 523.27,518.89 92.81,19.06 256.95,-2.78 331.56,27.41 -16.77,41.86 8.45,33.39 -75.3,39.26l-308.83 1.54z"/>
   <path class="fil3" d="M1648.95 2016.64l-39.62 131.96c53.44,-10.51 -1.87,-9.91 26.61,12.15 29.08,22.52 -54.16,5.11 131.34,46.12 128.37,28.38 20.29,29.22 98.29,25.29 20.26,-1.02 175.93,-56.73 199.22,-72.41 30.59,-20.61 44.62,-40.3 72.44,-59.26l175.62 -102.58c28.35,-16.25 56.36,-46.73 78.45,17.1 53.92,-36.55 82.18,-80.37 131.64,-145.9 260.3,-344.91 360,-341.97 424.31,-404.92 -234.19,-124.67 -536.69,-9.52 -746.08,123.46 -15.3,9.71 -73.93,49.11 -74.83,49.98 48.55,-178.6 289.27,-369.81 462.75,-422.16l212.16 -51.15c-303.98,-19.12 -554.67,126.2 -729.41,267.8 -299.47,242.66 -296.55,434.84 -422.87,584.53z"/>
   <path class="fil5" d="M1551.23 2668.08l14.21 112.15 247.16 71.29c-72.91,-0.37 -95.91,-10.08 -158.96,19.37 109.98,-6.78 202.47,-2.88 307.33,27.73 27.43,-22.34 142.15,-22.28 230.54,-45.58 73.98,-19.5 132.09,-52.54 203.22,-73.23 38.78,61.62 25.79,63.62 119.34,73.66 187.6,20.14 355.1,-7.13 522.88,-77.08 230.15,-95.96 315.73,-199.28 462.66,-339.19 28.99,53.88 24.72,150.22 24.56,224.15l-7.69 181.73c0.1,2.14 0.82,6.25 0.94,8.08 0.09,1.49 0.69,5.35 0.77,6.57 2.03,31.09 44.19,-24.54 -0.08,12.13l178.72 66.36c3.07,-3.39 74.35,-39.64 91.53,-51.16 35.27,-23.65 68.49,-49.69 105.84,-68.58 103.4,119.22 142.34,445.84 180.96,608.91 69.5,-141.02 -47.82,-734.59 -141.51,-825.39 -66.45,64.71 -12.11,39.88 -143.82,141.27 -49.7,38.26 -113.57,74.62 -190.53,92.69 61.63,-226.93 81.9,-564.68 -41.16,-757.36 -105.2,173.31 -144.75,338.44 -395.97,484.2 -215.92,125.28 -417.39,170.74 -706.51,142.46 36.33,-49.39 51.94,-67.84 90.38,-114.19 25.43,-30.66 47.24,-69.33 70.69,-108.77 -368.55,182.83 -442.27,277.76 -954.86,239.84 47.2,-82.57 133.31,-153.38 151.13,-200.21 -60.74,9.27 -122.7,11.62 -181.98,20.55 -74.56,11.23 -68.78,46.31 -79.82,127.59z"/>
   <path class="fil1" d="M1869.12 5762.94c125.71,150.61 444.15,267.07 723.12,255.17 151.34,-6.46 274.23,-36.1 402.54,-89.04 120.11,-49.55 239.44,-123.11 280.02,-206.07l-38.26 13.68c-57.8,-44.03 -113.77,-85.06 -172.61,-116.94 2.62,-2.3 6.66,-4.74 8.58,-5.99l55.55 -33.48c-64.2,-75.89 -47.81,-45.12 -87.81,-145.52 -8.89,54.83 -22.76,50.76 -72.68,75.67 -39.31,19.61 -69.49,29.31 -115.38,43.34 -345.76,105.67 -435.7,49.28 -748.93,-53.57 32.79,78.51 -133.66,189.04 -197.06,235.52l-37.07 27.21z"/>
   <path class="fil6" d="M4086.61 7272.41c60.4,-11.47 277.02,-96.86 311.74,-117.11 32.36,-60.6 209.97,-138.5 295.15,-292.6 78.28,-141.61 123.11,-325.37 32.16,-495.38 -8.51,-34.96 -69.62,-64.65 -108.01,-85.29 -43.5,25.77 -71.42,60.44 -115.15,89.17 -183.73,120.72 -229.67,109.77 -410.67,194.8l-5.2 706.41z"/>
   <path class="fil6" d="M355.46 6379.67c-78.85,290.37 4.91,458.35 183.87,633.89l154.16 139.74 318.42 121.74 -4.23 -705.31c-88.94,-43.99 -198.84,-80.36 -290.69,-129.03 -140.86,-74.64 -208.94,-144.02 -242.9,-161 -51.32,25.09 -82.21,65.08 -118.63,99.97z"/>
   <path class="fil5" d="M1869.12 5762.94l37.07 -27.21c63.4,-46.48 229.85,-157.01 197.06,-235.52 313.23,102.85 403.17,159.23 748.93,53.57 45.89,-14.03 76.07,-23.72 115.38,-43.34 49.92,-24.91 63.79,-20.84 72.68,-75.67l-22.92 -321.94c-58.35,-2.88 -298.63,87.12 -451.62,88.63 -197.1,1.94 -299.51,-60.74 -467.07,-105.16 15.36,568.15 -130.18,453.14 -290.71,588.29 12.42,35.55 36.28,55.72 61.2,78.37z"/>
   <path class="fil7" d="M1648.95 2016.64c126.32,-149.69 123.4,-341.86 422.87,-584.53 174.74,-141.6 425.43,-286.92 729.41,-267.8l-212.16 51.15c20.66,49.48 -18.52,13.77 43.29,42.47 2.08,0.97 53.75,10.68 55.59,10.84 72.03,6.03 57.65,-13.93 114.23,-9.66 72.97,5.51 7.09,22.63 92.69,38.12 86.64,15.67 34.05,-10.58 104.91,28.05 7.85,27.04 20.13,-28.62 -7.14,6.12 -12.54,15.97 -9.22,-1.53 -18.77,28.19 52.48,25.33 55.01,-15.59 130.52,69.58 255.64,-16.58 291.13,33.75 435.71,156.47 -22.31,-733.24 -1603.95,-864.4 -1891.15,431z"/>
   <path class="fil0" d="M3361.17 3445.72c-21.08,-103.15 37.4,-105.47 114.65,-77.36 31.53,102.18 -40.22,140.08 -114.65,77.36zm522.43 -87.75c-35.83,-20.69 -82.54,-35.88 -118.28,-55.31 -418.85,-227.72 -745.92,2.32 -713.53,304.84 43.6,407.19 740.39,340.23 543.94,-217.56 126.99,44.85 212.18,115.3 287.87,-31.97z"/>
   <path class="fil0" d="M1820.07 3448.33c-11.64,-61.02 18.55,-121.52 89.4,-91.74 62.49,26.27 42.51,72.27 0.49,116.85 -63.22,5.33 -52.9,4.72 -89.89,-25.11zm-559.77 -90.35c103.17,173.97 171,55.96 297.52,27.45 -93.09,193.37 -31.91,390.04 136.9,462.04 199.88,85.25 380.94,-65.35 399,-239.78 33.66,-324.98 -356.68,-531.18 -714.59,-305.15 -74.84,47.27 -79.78,33.67 -118.83,55.45z"/>
   <path class="fil8" d="M1230.53 2516.01c14.26,17.47 6.63,-7.69 21.73,38.14 5.56,16.88 4.56,15.51 5.1,30.08 1.01,27.49 -7.59,31.76 -5.39,80.16 22.32,79.64 114.66,166.47 189.02,194.05 -29.26,-155.27 -24.31,-208.71 5.55,-354.87l-81.17 -40.23c208.54,-24.95 420.93,-58.04 602.38,-136.87 145.74,-63.31 370.85,-219.77 423.54,-311.47 -22.08,-63.83 -50.1,-33.35 -78.45,-17.1l-175.62 102.58c-27.82,18.96 -41.84,38.65 -72.44,59.26 -23.29,15.69 -178.96,71.39 -199.22,72.41 -77.99,3.93 30.08,3.09 -98.29,-25.29 -185.51,-41.01 -102.26,-23.6 -131.34,-46.12 -28.48,-22.06 26.84,-22.66 -26.61,-12.15 -30.22,34.64 -40.83,79.31 -70.53,117.44 -28.77,36.94 -70.49,74.35 -107.89,96.68 60.02,-126.17 140.45,-284.93 144.59,-451.63 -96.55,-31.15 -220.92,140.52 -255.95,200.75 -97.27,167.24 -58.88,214.77 -89.01,404.17z"/>
   <path class="fil9" d="M542.06 3763.72c70.74,72.07 189.35,51.82 274.26,18.72l12.36 -40.83c-4.56,-132.98 -36.4,-323.66 -50.1,-462.13 -15.27,-154.36 2.92,-356.34 -18.35,-496.75 -96.26,-32.48 -231.22,16.01 -293.24,64.76 1.44,326.39 13.33,599.34 75.07,916.23z"/>
   <path class="fil5" d="M1237.96 4169.09c71.13,232.29 227.69,358.71 366.93,490.69 161.9,153.46 706.82,415.52 986.69,404.33 262.23,-10.48 630.09,-191.07 809.56,-305.91 170.91,-109.37 476.18,-382.7 506.97,-608.01 -27.88,-72.56 16.69,-80.98 8.1,-152.06 -20.85,175.48 -152.24,233.64 -192.83,367.15 -26.58,87.44 -23.73,61.15 -120.93,159.98 -159.16,161.81 -673.59,406.36 -970.44,417.52 -214.24,8.05 -303.24,-45.23 -471.15,-85.63 -182.5,-43.91 -67.46,-9.24 -200.31,-77.46 -60.69,-31.17 -117.05,-61.34 -179.64,-97.49 -236.46,-136.6 -344.04,-275.76 -475.24,-500.95 -24.98,-42.87 -35.14,-36.29 -48.87,-80.09 3.9,100.33 16.73,42.1 -18.85,67.95z"/>
   <path class="fil7" d="M774.88 1392.13c1.03,-2.06 -14.32,-30.98 81.12,-25.86 52.44,2.81 130.53,41.72 226.59,59.72 60.1,11.26 119.01,2.12 175.11,12.36 52.23,9.53 101.21,20.57 117.24,54.42 144.29,-14.92 258.39,-84.76 353.01,-98.64 -27.08,-69.79 -4.86,-28.12 -41.53,-51.46 -173.66,-110.55 -303.06,-10.07 -435.1,-25.18 68.08,-23.03 137.72,-34 209.36,-61.01l370.51 -156.8c113.58,-52.09 147,-39.17 174.06,-102.59 -352.2,27.83 -324.2,6.81 -685.1,142.93 -52.89,19.95 -103.48,40.2 -145.99,52.05 -196.25,54.7 -375.11,85.33 -578.21,25.6 28.54,63.87 127.51,138.93 178.93,174.44z"/>
   <path class="fil9" d="M4398.72 2968.31c13.11,158.49 -53,621.39 -87.47,791.68 62.39,8.11 78.23,27.8 148.22,32.42 77.76,5.13 95.31,-11.33 153.89,-20.08 5.91,-241 96.38,-536.75 82.5,-783.79l-12.44 -47.14c-55.2,-16.75 -78.14,-43.08 -158.54,-41.17 -82.93,1.98 -80.94,34.63 -126.15,68.07z"/>
   <path class="fil6" d="M1273.13 7363.35c112.6,39.05 351.75,100.95 511.01,117.34 -41.26,-70.27 -45.3,-237.09 -105.87,-337.06 8.1,-12.33 4.59,-15.25 17.96,-28.75 -45.01,-124.09 -287.9,-374.81 -418.89,-414.18 -32.78,186.76 28.79,469.41 -4.2,662.65z"/>
   <path class="fil6" d="M3491.8 6976.02c-11.85,51.48 -31.54,69.46 -49.79,112.5 -16.55,39.04 -28.39,75.28 -42.06,117.52 -26.74,82.65 -50.19,171.14 -55.17,268.78 118.76,0.34 405.08,-72.96 508.46,-113.42 -22.69,-15.88 -32.2,2.51 -33.76,-85.7 -2.91,-163.59 18.32,-404.86 3.27,-574.2 -80.85,35.4 -121.21,72.53 -178.34,126.5 -30.38,28.7 -60.66,43 -87.46,70.68 -30.95,31.97 -25.74,47.11 -65.14,77.36z"/>
   <path class="fil4" d="M3653.94 1990.87c-10.53,-95.5 -25.1,-92 5.53,-194.16 59.66,14.38 121.86,113.03 138.26,198.24l11.29 77.52c24.37,14.13 6.36,0.22 31.79,24.02l26.87 29.71c13.18,-251.08 -95.16,-396.89 -114.24,-499.85 160.24,3.49 350.17,214.37 393.09,351.38 24.09,18.91 50.89,80.2 55.1,122.19 17.58,-9.67 39.51,21.16 17.77,-133.77 -25.11,-178.95 -79.59,-213.74 -114.73,-314.91 72.51,11.13 225.58,131.2 275.65,169.14 -15.11,-119.51 -106.83,-219.7 -178.91,-276.35l17.93 -6.42c-51.28,-90.22 -221.25,-91.98 -315.3,-77.52 32.79,73.56 178.61,132.67 201.22,284.09 3.37,22.55 1.81,12.07 -0.59,19.08 -54.33,-52.87 -91.45,-128.47 -151.54,-172.6 -407.18,-299.03 -406.32,252.44 -314.31,382.4l15.12 17.82z"/>
   <path class="fil10" d="M1458.7 5945.46c-10.71,-144.5 0.97,-183.69 85.5,-243.67 64.13,-45.51 108.96,-71.98 187.5,-114.4 207.97,-112.31 255.6,-76.89 246,-377.07 -173.85,3.28 -429.43,111.89 -538.68,189.44 -63.83,45.3 -93.26,156.69 -77.2,264.55 6.24,41.94 22.87,106.42 36.28,147.19 21.36,64.93 19.11,89.17 60.6,133.96z"/>
   <path class="fil10" d="M3642.33 5962.55c98.43,-106 149.13,-447.67 37.46,-550.1 -87.05,-79.85 -376.99,-191.97 -537.48,-202.62 13.43,308.31 24.21,261.72 249.81,385.34 73.17,40.1 140.46,79.74 192.82,122.47 66.86,54.57 62.09,135.48 57.39,244.91z"/>
   <path class="fil7" d="M2960.06 592c110.26,6.85 255.95,71.82 333.19,119.07 32.23,19.72 107.85,72.27 128.48,96.62 32.23,38.02 65.53,114.38 42.63,162.11 19.77,34.65 96.5,159.99 125.11,190.42 -6.63,-172.09 -65.89,-278.56 -180.21,-419.69 -74.26,-91.67 -219.43,-225.1 -329.75,-268.99l-53.43 47.13c-68.79,-15.99 -12.38,-0 -36.02,-24.76 -395.02,-114.48 -633.42,16.69 -1028.92,-192.33 -21.19,63.97 297.18,198.05 400.16,222.97 116.7,28.23 483.2,72.55 598.76,67.45z"/>
   <path class="fil6" d="M4101.81 6150.75l-207.08 126.93c103.67,-115.4 572.93,-356.27 282.4,-691.51 -45.41,-52.4 -138.66,-151.29 -204.3,-179.91 -1.73,2.89 -4.43,3.96 -5.15,8.69l-13.7 25.9c-5.33,11.34 -10.27,25.89 -13.52,33.42 410.53,324.51 -128.72,736.01 -274.21,952.13 92.69,-15.65 151.53,-75.06 226.15,-115.96 54.81,-30.04 188.29,-101.97 209.4,-159.67z"/>
   <path class="fil4" d="M4329.33 2108.47c20.88,85.46 14.26,434.9 -40.52,515.46 -76.42,-118.55 -220.12,-375.71 -228.91,-517.97l-39.72 39.82c-6.41,88.26 -3.11,159.14 -12.52,252.74 -15.83,157.48 139.66,165.5 171.59,610.01l45.61 -43.75c70.3,-94.66 125.2,-276.18 147.8,-389.3 23.04,-115.33 31.34,-468.94 -36.58,-546.08l-6.75 79.09z"/>
   <path class="fil4" d="M542.06 3763.72l110.84 524.77 47.21 12.43c1.44,-29.6 -0.55,-61.86 29.27,-53.01 4.05,1.2 22.52,17.8 28.6,21.88 31.66,21.27 9.26,8.74 31.39,14.77 71.99,3.22 111.17,-21.51 171.97,-12.97 -10.72,-63.79 -58.5,-177.74 -75.97,-258.48 -15.66,-72.33 -31.08,-209.19 -56.7,-271.5l-12.36 40.83c-84.91,33.1 -203.52,53.35 -274.26,-18.72z"/>
   <path class="fil6" d="M1201.37 1958.33c-8.89,82.47 -57.44,179.6 -61.78,288.72 -3.4,85.52 3.74,232.68 47.71,283.7 36.22,-29.33 -0.07,-4.82 20.13,-10.39 14.89,-4.1 10.08,2.39 23.1,-4.34 30.14,-189.39 -8.26,-236.93 89.01,-404.17 35.03,-60.23 159.4,-231.9 255.95,-200.75 36.74,-44.3 54.69,-145.66 67.47,-210.79 -77.17,-36.48 -216.03,41.19 -260.86,80.75 -41.33,36.46 -56.73,57.41 -93,90.73 -35.93,33 -51.12,64.1 -87.74,86.55z"/>
   <path class="fil6" d="M2947.23 1464.19l157.16 -35.02c-75.5,-85.17 -78.03,-44.25 -130.52,-69.58 9.54,-29.72 6.22,-12.22 18.77,-28.19 27.28,-34.74 14.99,20.92 7.14,-6.12 -70.86,-38.62 -18.27,-12.37 -104.91,-28.05 -85.61,-15.48 -19.72,-32.61 -92.69,-38.12 -56.58,-4.28 -42.2,15.69 -114.23,9.66 -1.83,-0.15 -53.5,-9.87 -55.59,-10.84 -61.81,-28.69 -22.63,7.01 -43.29,-42.47 -173.49,52.35 -414.2,243.56 -462.75,422.16 0.91,-0.87 59.53,-40.27 74.83,-49.98 209.39,-132.98 511.89,-248.13 746.08,-123.46z"/>
   <path class="fil4" d="M3762.95 1279.32c93.62,-87.27 56.48,-178.24 100.35,-286.57 38.42,267.87 -41.52,252.13 -64.4,369.88 91.84,-0.87 150.41,-20.12 184.93,-148.58 69.67,-259.19 -123.57,-579.78 -283.48,-668.23 58.85,201.03 33.36,152.95 34.78,353.99 0.38,53.96 28.08,111.31 33.88,176.95 6.28,70.95 -5.4,133.12 -6.07,202.56z"/>
   <path class="fil6" d="M2607.78 2028.04c-30.29,37.39 -81.1,82.87 -138.83,94.44 -39.55,40.46 -80.65,81.56 -127.54,117.75 -48.52,37.44 -108.85,60.76 -144.12,111.9 3.02,24.66 -4.47,7.72 7.06,38.32l269.29 -140.85c17.18,20.06 -17.59,48.98 -42.59,154.26l82.12 -7.08c80.39,-28.53 176.71,-130.97 224.23,-181.99 42.57,-45.71 143.36,-154.57 151.26,-222.88 -14.96,-8.47 -34.24,-3.55 -83.33,-13.97 -48.25,-10.24 -51.84,-18.47 -87.65,-48.97l-109.9 99.07z"/>
   <path class="fil11" d="M3430.2 5990.83c-228.05,173.92 -562.99,270.01 -864.48,268.63 -265.25,-1.21 -472.6,-51.47 -701.65,-163.19 -73.14,-35.67 -118.27,-73.65 -178.08,-107.03 91.5,214.01 583.47,358.43 866.57,359 333.99,0.67 676.99,-105.95 877.64,-357.41z"/>
   <path class="fil4" d="M4367.07 4274.7l20.63 -28.91c1.17,-1.52 4.25,-5.17 6.34,-7.78l102.17 -4.38 3.52 31.32c39.78,-67.88 93.89,-387.23 113.63,-492.62 -58.58,8.75 -76.13,25.21 -153.89,20.08 -69.99,-4.62 -85.83,-24.3 -148.22,-32.42l-63.28 334.08c83.28,46.71 117.93,60.64 119.1,180.63z"/>
   <path class="fil4" d="M2581.22 1999.41l26.57 28.63 109.9 -99.07 37.03 -38.78c0.3,-0.25 33.74,-24.61 37.89,-27.58 26.79,-19.2 56.89,-41.61 92.58,-56.61 34.38,-27.29 56.3,-36.12 99.68,-51.81 45.26,-16.38 63.46,-32.8 108.74,-50.22 72.04,-27.71 179.69,-32.19 245.39,-2.22 73.66,33.99 133.31,79.13 143.8,169.9 80.81,-128.66 -64.68,-429.32 -458.99,-289.48 -145.44,51.59 -384.05,270.84 -442.58,417.24z"/>
   <path class="fil8" d="M4682.49 4215.56c110.99,-52.28 123.8,-5.81 157.6,-135.75 20.64,-79.38 39.26,-151.42 52.7,-231.38l4.37 -40.25 -105.06 -6.55c-10.42,-95.43 -14.27,-246.42 8.93,-337.24 14.66,-57.4 9,-149.33 15.33,-242.03l5.64 -94.49c63.58,7.79 76.56,30.08 138.5,43.25l5.86 -162.42c-26.81,-46.28 -94.35,-64.42 -138.32,-98.43 -33.2,32.32 -23.61,74.8 -27.26,158.45 -2.64,60.3 -3.75,121.11 -9.32,180.06 -29.68,314 -65.29,640.95 -150.83,950.45 22.72,34.09 -10.73,9.11 41.87,16.33z"/>
   <path class="fil4" d="M1727.95 1394.14c175.7,-59.9 300.54,-234.07 481.79,-334.17 -41.72,-39.15 -135.38,-57.02 -204.49,-62.86 -27.07,63.42 -60.48,50.5 -174.06,102.59l-370.51 156.8c-71.64,27.01 -141.27,37.97 -209.36,61.01 132.03,15.1 261.44,-85.37 435.1,25.18 36.67,23.34 14.44,-18.33 41.53,51.46z"/>
   <path class="fil0" d="M3696.84 2936.23l-178.72 -66.36c-57.33,15.77 -205.55,-4.9 -314.51,21.76 -77.68,19.01 -185.89,87.61 -102.15,169.99 61.86,27.58 311.71,-26.07 411.36,-24.45 169.62,2.75 248.71,41.6 387.86,85.05 -52.81,-100.08 -173.23,-148.05 -203.84,-185.99z"/>
   <path class="fil7" d="M4398.35 7155.29c99.05,-32.76 428.87,-221.85 534.22,-301.22l56.96 -53.65c-41.86,-202.21 -143.19,-354.19 -263.88,-433.11 90.95,170.01 46.12,353.77 -32.16,495.38 -85.18,154.1 -262.78,232 -295.15,292.6z"/>
   <path class="fil7" d="M90.82 6789.05c2.37,2.33 5.61,5.51 7.14,6.97 1.52,1.45 5.23,5.14 7.1,6.89l274.59 186.35c79.25,50.87 224.46,136.8 313.84,164.04l-154.16 -139.74c-178.96,-175.54 -262.72,-343.52 -183.87,-633.89 -119.27,65.95 -185.73,236.72 -230.65,361.28 -26.41,73.23 -1.92,29.7 -33.99,48.1z"/>
   <path class="fil6" d="M4059.9 2105.96c8.79,142.26 152.49,399.42 228.91,517.97 54.78,-80.56 61.4,-430 40.52,-515.46 -12.46,-15.35 -10.16,-11.24 -22.33,-36.18 -8.39,-17.2 -22.71,-47.92 -8.06,-70.87l-9.64 39.64c-58.39,140.18 -5.82,5.39 -40.02,133.83 -50.16,-28.77 -48.24,-22.8 -47.65,-74.99 -4.22,-41.99 -31.01,-103.27 -55.1,-122.19 -84.34,-19.28 -18.01,-28.51 -121.83,-29.19 22.17,34.61 37,115.08 35.2,157.42z"/>
   <path class="fil7" d="M2961.26 1885.77l-110.42 389.52c76.77,21.65 119.25,-19.64 180.13,13.24l55.47 -41.96c21.69,-57.29 6.42,-25.2 48.68,-67.99 17.81,-18.03 28.93,-33.11 46.69,-57.93 34.49,-48.17 61.65,-87.88 81.5,-151.73 -39.94,-15.37 -33.11,-6.05 -79.68,-10 -49.49,-4.18 -32.63,8.59 -57.75,-15.11 -67.62,-25.81 6.88,30.92 -18.82,-16.75 -0.57,-1.06 -2.15,-4.95 -2.76,-6.05 -0.63,-1.14 -2.84,-4.8 -3.48,-5.9 -0.61,-1.05 -3.26,-4.31 -3.83,-5.29 -12.49,-21.49 -9.05,-4.62 -6.04,-15.28l11.39 -17.1c0.53,-3.88 4.3,-4.6 5.34,-7.49 -73.75,-0.93 -88.3,8.24 -114.74,-17.15 -2.5,3.5 -6.95,7.53 -8.78,9.48 -1.72,1.82 -6.62,6.98 -8.32,8.78l-14.57 14.7z"/>
   <path class="fil7" d="M3809.01 2072.46c10.15,76.35 40.23,107.39 45.34,201.75 41.51,-79.91 35.56,-222.45 31.49,-305.32l74.87 -6.24 6.37 205.03c23.1,-31.06 10.64,-110.55 12.38,-158.83l35 61.84c8.18,27.29 8.75,46.86 5.72,75.08l39.72 -39.82c1.8,-42.35 -13.03,-122.82 -35.2,-157.42 103.82,0.68 37.5,9.91 121.83,29.19 -42.92,-137.01 -232.85,-347.9 -393.09,-351.38 19.07,102.96 127.42,248.78 114.24,499.85l-26.87 -29.71c-25.43,-23.8 -7.42,-9.89 -31.79,-24.02z"/>
   <path class="fil12" d="M197.4 3196.72c16.24,199.58 25.89,336.85 56.39,542.07l2.5 26.06c62.71,7.33 34.33,16.93 99.66,22.44 15.99,-27.13 24.15,-56.31 36.11,-94.18 19.83,-81.96 -32.98,-341.92 -36.18,-454.62l-8.68 -26.95 -13.84 -11.39c-61.4,-48.24 -47.04,5.12 -135.97,-3.44z"/>
   <path class="fil4" d="M4960.5 3171.12l2.79 21.62c-8.94,112.82 -10.69,209.61 -23.04,321.08 -10.9,98.43 -32.35,197.03 -43.1,294.35l-4.37 40.25c58.13,73.22 1.31,199.26 -22.82,290.42 76.51,-16.92 97.93,-77.31 128.5,-151.02 23.81,-57.43 48.01,-147.3 56.54,-212.44l-92.19 13.89 54.45 -557.62c2.86,-0.04 6.91,1.92 8.2,2.53l30.38 24.31c0.32,-68.52 12.19,-62.38 28.22,-78.4l-28.2 -143.85 -89.51 -27.55 -5.86 162.42z"/>
   <path class="fil12" d="M4816.36 3222.37c-6.33,92.7 -0.67,184.62 -15.33,242.03 -23.2,90.82 -19.35,241.81 -8.93,337.24l105.06 6.55c10.75,-97.32 32.19,-195.93 43.1,-294.35 12.36,-111.48 14.1,-208.26 23.04,-321.08l-118.13 -27.45c-4.74,10.47 -5.42,14.89 -10.91,26.14 -12.21,25.04 -8.81,16.42 -17.89,30.94z"/>
   <path class="fil3" d="M2197.29 2352.12c-47.45,7.61 -92.63,41.18 -142.86,62.04 -85.16,35.35 -64.16,28.43 -94.63,104.65 82.46,14.2 80.58,16.27 106.08,54.89 7.65,-0.52 39,-7.61 42.01,-7.26 42.89,4.96 15.16,-10.44 41.46,19.84 104.45,-35.62 312.86,-126.11 363.82,-189.5l-82.12 7.08c25,-105.28 59.77,-134.21 42.59,-154.26l-269.29 140.85c-11.52,-30.6 -4.04,-13.66 -7.06,-38.32z"/>
   <path class="fil4" d="M479.21 1827.58c10,8.76 45.42,-5.42 9.25,96.64 -103.74,292.73 -112.68,308.53 -144.01,658.15l114.04 -53.93c35.91,-564.26 149,-563.01 178.15,-742.05 -40.8,-22.7 -49.3,-37.82 -109.64,-58.29 -13.62,68.15 0.37,10.17 -39.4,81.07 -1.05,1.88 -3.55,11.12 -4.29,9.13 -0.74,-2 -3,6.07 -4.1,9.27z"/>
   <path class="fil4" d="M4682.49 4215.56c-52.6,-7.22 -19.15,17.76 -41.87,-16.33 85.54,-309.49 121.15,-636.45 150.83,-950.45 5.57,-58.95 6.68,-119.76 9.32,-180.06 3.66,-83.65 -5.94,-126.13 27.26,-158.45 -38.61,-21.09 48.77,-23.77 -52.55,-16.38 -30.07,41.41 -27.19,122.99 -29.95,174.74l-47.66 530.94c-18.21,205.69 -99.68,435.47 -122.67,637.15 80.22,-10.55 58.04,6.88 107.29,-21.17z"/>
   <path class="fil6" d="M3809.01 2072.46l-11.29 -77.52c-48.47,0.86 -96.21,2.62 -129.24,12.9 12.69,39.37 30.37,74.48 43.4,114.45 12.15,37.27 19.83,76.15 28.93,128.16 19.58,111.96 20.37,195.61 10.27,308.83 36.64,-72.57 24.67,-139.58 24.67,-224.96l13.87 64.65c17.83,-12.12 -3.1,-5.45 28.66,-10.92 117.22,-20.19 67.13,21.09 88.4,-30.07l8.11 26.29c21.74,-20.42 10.62,2.53 29.54,-42.6 5.57,-13.27 10.33,-37.2 13.3,-52.01 9.64,-48.05 13.37,-71.39 9.45,-122l-6.37 -205.03 -74.87 6.24c4.07,82.88 10.02,225.41 -31.49,305.32 -5.11,-94.36 -35.2,-125.4 -45.34,-201.75z"/>
   <path class="fil9" d="M1753.04 728.98c106.61,-21.47 230.5,16.71 293.65,58.42l-33.51 6.46c149.76,59.02 588.24,75.31 713.14,0.91 -71.34,-43.22 -335.62,21.59 -408.81,-29.53 -259.82,-0.73 -300.87,-169.52 -701.03,-140.24 18.95,25.75 31.8,28.83 60.95,43.18 5.8,2.86 35.17,16.74 35.77,17.15 47.32,32.77 16.23,-0.67 39.85,43.64z"/>
   <path class="fil4" d="M153.01 3038.78l-11.17 -5.65c-8.91,116.64 -1.84,291.83 10.59,392.78 14.68,119.22 43.73,233.7 41.39,358.24l-95.28 0.14c12.33,66.94 35.21,140.99 63.33,200.77 70.91,150.75 48.93,142.07 125.57,156.04 -16.41,-70.48 -30.76,-122.47 -44.5,-205.56 -30.86,-186.77 0.89,-155.28 5.38,-187.39 0.74,-5.31 3.2,-6.54 5.47,-9.35 -30.51,-205.22 -40.15,-342.5 -56.39,-542.07l-1.44 -48.96 2.24 -147.71c-3.2,2.99 -15.77,12.5 -18.47,14.74 -2.15,1.78 -6.07,4.88 -8.12,6.61 -25.59,21.54 2.64,-6.45 -18.6,17.38z"/>
   <path class="fil4" d="M4879.49 2595.52c-66.22,-328.17 -31.04,-313.69 -146.64,-655.4l-52.86 -174.45c1.41,-35.9 -16.4,2.69 7.94,-21.89 -9.97,-18.66 23.41,-53 -94.67,12.58 0.75,74.65 93.59,268.23 113.48,355.23 22.52,98.46 30.99,346.06 55.6,420.88l117.15 63.05z"/>
   <path class="fil9" d="M2885.18 1806c78.56,-17.35 97.82,14.63 60.79,74.32l15.29 5.45 14.57 -14.7c1.7,-1.8 6.6,-6.96 8.32,-8.78 1.83,-1.95 6.28,-5.97 8.78,-9.48 26.45,25.39 40.99,16.22 114.74,17.15 -1.03,2.88 -4.81,3.6 -5.34,7.49l-11.39 17.1c-3.01,10.66 -6.45,-6.21 6.04,15.28 0.56,0.98 3.21,4.24 3.83,5.29 0.64,1.1 2.85,4.77 3.48,5.9 0.61,1.1 2.19,4.99 2.76,6.05 25.71,47.68 -48.8,-9.06 18.82,16.75 25.12,23.71 8.26,10.93 57.75,15.11 46.57,3.95 39.74,-5.38 79.68,10 25.38,-33.24 61.4,-181.85 52.21,-225.61 9.02,-59.67 5.48,-28.54 23.46,-41.57 -65.7,-29.97 -173.34,-25.49 -245.39,2.22 -45.29,17.42 -63.48,33.84 -108.74,50.22 -43.38,15.69 -65.3,24.53 -99.68,51.81z"/>
   <path class="fil4" d="M355.88 3238.49c3.2,112.7 56.02,372.66 36.18,454.62 2.45,3.48 6.16,4.15 7.14,10.6l16.92 44.07c4.14,17.68 7.76,48.29 11.6,69.44l84.78 426.93c36.32,20.63 3.96,9.96 64.48,18.68 -15.85,-112.57 -46.42,-219.47 -74.03,-327.63 -29.29,-114.77 -34.26,-201.5 -51.35,-327.15 -24.98,-183.68 -45.11,-634.98 -56.2,-697.86 -52.56,0.84 -23.09,-8.06 -49.18,16.64 31.22,66.98 7.6,222.39 9.66,311.67z"/>
   <path class="fil7" d="M4201.63 2099.91c-0.59,52.19 -2.51,46.22 47.65,74.99 34.2,-128.44 -18.37,6.35 40.02,-133.83l9.64 -39.64c-14.65,22.96 -0.34,53.67 8.06,70.87 12.17,24.94 9.87,20.82 22.33,36.18l6.75 -79.09c-2.55,-94.9 -48.01,-136.25 -56.18,-216.9 45.2,42.04 29.31,24.36 66.93,81.21 15.82,23.91 42.35,70.32 67.98,90.98 34.74,-73.15 -32.15,-203.18 10.08,-226.33 -38.49,-80.42 -139.48,-194.75 -205.54,-220.74l-17.93 6.42c72.08,56.65 163.8,156.83 178.91,276.35 -50.07,-37.94 -203.13,-158.01 -275.65,-169.14 35.14,101.17 89.62,135.96 114.73,314.91 21.73,154.93 -0.2,124.09 -17.77,133.77z"/>
   <polygon class="fil2" points="1094.6,7257.48 1108.3,7307.83 1199.08,7327.78 1195.8,6642.49 1093.72,6605.09 "/>
   <path class="fil4" d="M959.62 1930.27c37.5,67.39 -78.2,367.6 -8.16,455.97l10.52 -117.27c8.67,-122.22 31.37,-131.25 77.93,-221.35 17.57,10.45 4.22,-9.79 11.36,21.86 40.85,-54.02 69.53,-188.07 110.95,-257.29 92.37,-154.37 124.73,-149.25 163.66,-208.07 -105.66,20.69 -94.47,-7.81 -221.93,108.83 -42.1,38.52 -120.88,137.09 -144.34,217.31z"/>
   <polygon class="fil2" points="3902.78,7333.7 4001.53,7304.11 4007.48,6603.17 3909.34,6640.42 "/>
   <path class="fil8" d="M274.6 3884.08l63.38 292.96 174.53 67.11 -84.78 -426.93c-56.65,-21.05 -5.28,-2.39 -138.3,-0.97l-14.83 67.83z"/>
   <path class="fil4" d="M1201.37 1958.33c36.62,-22.45 51.81,-53.55 87.74,-86.55 36.27,-33.32 51.67,-54.26 93,-90.73 44.83,-39.56 183.69,-117.23 260.86,-80.75 27.04,-34.04 99.27,-176.36 112.87,-219.85 -89.85,15.39 -291.46,112.25 -352.32,164.4 -42.53,36.44 -187.84,215.65 -202.14,313.48z"/>
   <path class="fil8" d="M3030.97 2288.53c-16.63,32.28 0.47,8.63 -25,37 -8.51,9.49 -17.88,15.59 -29.12,24.77 -21.35,17.46 -27.21,23.6 -50.67,43.79 -14.67,27.46 -4.16,10.37 -18.47,31.13 -40.8,59.15 -102,102.71 -180.64,104.57 -33.66,20.19 -62.76,60.78 -80.99,89.57 142.02,-8.27 441.49,-99.51 485.31,-182.4 -36.72,-36.27 -19.64,15.8 -29.96,-56.71 30.25,-44.91 5.35,-2.65 34.43,-27.97l1.65 -16.07c-4.35,-85.38 2.3,9.21 -34.29,-62.76 -21.23,-41.75 38.07,-22.87 -16.76,-26.88l-55.47 41.96z"/>
   <path class="fil4" d="M4017.13 1366.48c74.68,3.45 128.21,36.4 175.1,3.33 24.61,-17.36 79.1,-79.23 96.56,-115.69 45.79,-95.6 47.8,-275.18 -26.29,-345.79 -42.58,111.17 -8.62,140.33 -91.08,255.29 -19.37,27 -127.97,114.6 -154.29,202.86z"/>
   <path class="fil7" d="M1106.58 784.05c-42.96,19.23 182.87,99.41 421.68,65.49 77.66,-11.03 146.14,-26.53 226.54,-37.98 94.79,-13.5 167.88,-9.58 258.38,-17.7l33.51 -6.46c-63.14,-41.7 -187.04,-79.89 -293.65,-58.42 -76.9,-12.08 -232.81,39.49 -315.45,58.15 -127.98,28.89 -211.06,14.28 -331.01,-3.08z"/>
   <path class="fil7" d="M3315.53 1743.31c108.79,75.32 -26.94,408.88 -90.4,511.83 -20.04,32.52 -26,29.03 -41.26,58.17 2.68,-29.44 30.37,-41.57 51.88,-60.17 30.75,-26.59 13.18,-23.74 50.75,-36.93 81.6,-28.65 46.35,3.41 57.25,13.17 62.89,-48.44 140.24,-260.75 139.04,-357.75 -10.49,-90.77 -70.14,-135.91 -143.8,-169.9 -17.98,13.03 -14.44,-18.1 -23.46,41.57z"/>
   <path class="fil9" d="M98.54 3784.28l95.28 -0.14c2.33,-124.54 -26.71,-239.02 -41.39,-358.24 -12.43,-100.95 -19.49,-276.14 -10.59,-392.78l11.17 5.65c-37.82,14.63 -33.07,9.3 -47.57,66.8 -88.03,349.06 -7.47,542.35 -6.9,678.71z"/>
   <path class="fil9" d="M3464.36 969.81c22.9,-47.73 -10.41,-124.09 -42.63,-162.11 -20.63,-24.35 -96.25,-76.89 -128.48,-96.62 -77.23,-47.26 -222.93,-112.23 -333.19,-119.07 -9.71,16.11 -2.74,19.24 -13.44,32.01l48.13 32.09c43.6,49.13 -14.3,-3.53 18.18,39.96 0.34,0.22 232.33,63.14 351.56,180.25 16.87,16.57 28.97,29.28 45.83,46.4 12.96,13.16 7.51,9.05 20.15,20.5 2.36,2.14 5.23,4.76 7.62,6.8l26.28 19.78z"/>
   <path class="fil9" d="M5055 3775.39c14.92,-98.32 36.23,-179.36 41.68,-285.92 5.71,-111.61 -14.28,-206.85 -12.63,-309.37 -16.03,16.02 -27.9,9.88 -28.22,78.4l-30.38 -24.31c-1.3,-0.6 -5.34,-2.56 -8.2,-2.53l-54.45 557.62 92.19 -13.89z"/>
   <path class="fil6" d="M961.99 2268.96l-10.52 117.27 -19.6 123.12c4.65,75.64 29.06,79.67 33.09,133.93 2.21,29.81 -8.88,23.44 13.03,64.69 35.58,67.02 17.38,-24.2 31.52,62.03 2.18,-3.15 4.37,-7.48 5.61,-10.03l23.59 -62.68c33.43,-114.73 50.45,-102.58 24.77,-190.49 -38.12,-130.52 -24.85,-176.05 -35.75,-304.58l-11.63 -41.29 -54.11 108.04z"/>
   <path class="fil13" d="M4879.49 2595.52c19.81,4.47 22.57,9.37 53.87,19.42 -24.3,-192.44 -26.62,-297.42 -77.39,-493.34 -54.81,-211.55 -140.19,-301.56 -168.05,-377.82 -24.34,24.58 -6.54,-14.01 -7.94,21.89l52.86 174.45c115.6,341.72 80.43,327.23 146.64,655.4z"/>
   <path class="fil4" d="M4962.3 2872.97c37.83,-146.27 -51.32,-184.67 -146.77,-238.09 -116.81,-65.37 -186.48,-85.41 -234.48,39.87 78.79,27.41 130.03,38.93 203.5,82.07l177.75 116.14z"/>
   <path class="fil3" d="M3263.32 1968.93c-19.85,63.85 -47.01,103.55 -81.5,151.73 -17.76,24.81 -28.89,39.9 -46.69,57.93 -42.26,42.78 -26.99,10.69 -48.68,67.99 54.83,4.01 -4.47,-14.87 16.76,26.88 36.59,71.97 29.94,-22.62 34.29,62.76 19.31,-8.88 24.25,-10.01 46.36,-22.9 15.26,-29.15 21.22,-25.66 41.26,-58.17 63.46,-102.95 199.19,-436.51 90.4,-511.83 9.2,43.76 -26.83,192.37 -52.21,225.61z"/>
   <path class="fil6" d="M806.83 1754.26c60.17,54.03 8.29,120.9 28.21,166.84 35.14,-23.53 79.67,-100.18 130.43,-162.17 51.98,-63.46 95.58,-96.45 140.9,-149.19 -159.79,-64.58 -249.96,-27.69 -299.54,144.52z"/>
   <path class="fil3" d="M853.63 2336.05c-2.7,132.75 -0.55,231.88 35.62,358.1 38.13,133.07 64.43,162.74 117.1,263.55l3.15 -187.7c-14.15,-86.22 4.06,4.99 -31.52,-62.03 -21.9,-41.25 -10.81,-34.88 -13.03,-64.69 -4.02,-54.26 -28.43,-58.29 -33.09,-133.93l-15.11 -158.09c-2.13,-2.57 -5.77,-6.19 -6.79,-7.34 -0.92,-1.05 -5.09,-5.74 -5.99,-6.77 -1.31,-1.51 -6.77,-7.38 -9.46,-13.69l-40.89 12.6z"/>
   <path class="fil13" d="M344.45 2582.37c31.33,-349.62 40.27,-365.43 144.01,-658.15 36.17,-102.06 0.74,-87.89 -9.25,-96.64 -11.84,51.11 -51.68,111.24 -74.47,173.23 -68.51,186.36 -125.43,410.13 -124.14,608.59 57.56,-21.4 29.4,-22.31 63.86,-27.02z"/>
   <path class="fil4" d="M4398.72 2968.31c45.21,-33.44 43.21,-66.09 126.15,-68.07 80.4,-1.92 103.34,24.42 158.54,41.17l12.44 47.14 11.01 -154.02c-41.4,-29.9 -163.92,-74.82 -207.58,-78.68 -122.97,-10.89 -117.82,115.23 -100.56,212.46z"/>
   <path class="fil14" d="M2296.33 4324.49c-5.81,48.79 -3.51,36.78 30.5,60.38 64.08,44.47 162.04,72.13 239.45,72.93 86.94,0.9 267.73,-32.95 285.25,-127.12 -57.97,-46.04 -138.25,47.09 -259.35,55 -104.02,6.79 -236.82,-82.6 -295.85,-61.18z"/>
   <path class="fil10" d="M1053.35 6477.88c-3.15,-36.32 -2.74,-34.78 -14.93,-57.58 -165.24,-65.43 -507.89,-231.2 -514.52,-401.52 -4.65,7.21 -12.78,-1.07 -20.32,50.45 -15.88,108.56 107.62,200.76 195.25,245.65 118.52,60.7 222.44,116.63 354.52,162.99z"/>
   <path class="fil6" d="M1374.94 1492.77c-16.03,-33.86 -65,-44.89 -117.24,-54.42 -56.1,-10.24 -115.01,-1.1 -175.11,-12.36 -96.06,-18 -174.15,-56.91 -226.59,-59.72 -95.45,-5.12 -80.09,23.8 -81.12,25.86 183.15,102.15 365.31,133.62 600.06,100.64z"/>
   <path class="fil10" d="M4094.24 6405.58c-18.85,14.16 -19.54,30.61 -20.25,31.61 69.78,-2.15 20.45,-2.09 39.51,11.99 97.54,-30.42 235.1,-102.58 316.06,-150.73 37.09,-22.06 258.33,-185.01 143.54,-266.29 7.15,135.6 -339.68,311.58 -478.86,373.42z"/>
   <path class="fil4" d="M1014.63 4186.02l5.82 -48.66c0.6,-4.42 3.71,-42.56 3.92,-43.49 9.69,-44.2 -7.99,-12.21 16.19,-37.25 -33.74,-63.34 -104.05,-410.06 -124.98,-519.35 -13.27,-69.25 -9.49,-125.23 -52.17,-172.66 -4.37,107.41 75.06,588.98 114.73,734.53l36.49 86.89z"/>
   <path class="fil6" d="M3391.06 6987.97l39.12 -45.39c242.03,-323.27 274.54,-305.06 683.32,-493.4 -19.06,-14.09 30.27,-14.15 -39.51,-11.99 0.71,-1 1.4,-17.45 20.25,-31.61 -130.79,43.6 -334.5,149.74 -422.83,226.14 -79.78,69.01 -265.54,210.24 -280.36,356.25z"/>
   <path class="fil6" d="M1053.35 6477.88c137.76,53.23 273.74,116.37 377.56,195.93 59.09,45.28 105.07,87.66 150.4,139.58 36.86,42.21 88.72,130.98 123.37,157.39 -5.78,-97 -177.85,-286.16 -265.08,-344.83 -116.35,-78.27 -258.13,-158.6 -401.18,-205.65 12.19,22.8 11.78,21.25 14.93,57.58z"/>
   <path class="fil2" d="M1767.47 7125.23l61.73 360.39c8.58,0.89 55,7.22 59.86,6.86 35.43,-2.62 21.43,15.71 30.39,-18.8 -4.27,-70.53 -54.82,-319.44 -81.69,-372.12l-70.3 23.67z"/>
   <path class="fil3" d="M835.04 1921.1c-19.91,-45.94 31.96,-112.81 -28.21,-166.84 -97.49,104.95 -113.17,402.51 -81.62,553.33 21.27,-55.28 26.48,-143.42 45.21,-204.71 20.14,-65.92 58.84,-127.46 64.62,-181.79z"/>
   <path class="fil5" d="M1059.92 3232.18c21.31,23.99 25.12,37.18 29.54,86.25 2.32,25.7 2.23,59.52 3.01,86.11 11.44,-32.92 30.75,11.02 49.24,-84.95 23.49,-121.89 94.36,-270.33 13.91,-365.89 -32.66,-38.8 -26.92,-15.79 -22.9,-74.47 -34.5,72.17 -19.3,191.79 -22.74,281.56 -39.9,32.42 12.72,-4.15 -31.49,7.7 -1.42,0.38 -7.37,5.25 -8.44,2.6 -1.12,-2.78 -6.19,1.25 -8.95,2.83l-1.18 58.24z"/>
   <path class="fil4" d="M381.06 2654.14c-3.03,3.16 -28.3,41.38 -41.03,57.62 -26.37,33.66 -37.33,50.77 -48.62,105.25 110.18,-37.61 189.92,-114.32 330.16,-139.55 -18.8,-47.87 -50.96,-89.38 -107.35,-89.09 -26.29,0.14 -55.66,13.67 -75.7,23.76 -45.55,22.91 -27.15,4.01 -57.45,42.01z"/>
   <path class="fil8" d="M198.19 3000.05l-2.24 147.71 142.28 -9.77 8.96 73.55 8.68 26.95c-2.06,-89.27 21.56,-244.68 -9.66,-311.67l-148.03 73.22z"/>
   <path class="fil4" d="M4164.34 3987.69c-31.02,-73.42 -5.25,-68.68 6.09,-86.61 28.51,18.29 28.25,-6.33 24.16,88.24 41.56,-73.18 92.44,-574.06 90.67,-695.68 -27.48,96.29 -52.52,240.29 -78.73,350.31 -15.52,65.14 -103.18,311.71 -42.18,343.73z"/>
   <path class="fil10" d="M3346.98 7148.74c-47.24,51.41 -67.45,253.76 -72.83,336.26l70.63 -10.18c4.98,-97.64 28.43,-186.13 55.17,-268.78 13.67,-42.24 25.51,-78.48 42.06,-117.52 18.25,-43.04 37.94,-61.02 49.79,-112.5 -47.29,51.33 -76.4,122.28 -143.04,174.11l-1.78 -1.38z"/>
   <path class="fil2" d="M3183.55 7480.91c21.39,15.51 3.8,6.12 23.13,9.12 19.89,3.09 -42.23,1.22 19.3,0.98 10.08,-0.04 35.59,-4.75 48.17,-6.01 5.38,-82.49 25.59,-284.85 72.83,-336.26l-6.34 -27.37 -74.52 -22.17 -82.58 381.69z"/>
   <path class="fil7" d="M2717.68 1928.97c35.81,30.49 39.4,38.73 87.65,48.97 49.09,10.42 68.37,5.5 83.33,13.97 24.97,-22.37 18.05,-12.08 36.43,-49.26 19,-38.43 13.62,-28.79 20.88,-62.33 37.03,-59.69 17.77,-91.67 -60.79,-74.32 -35.69,14.99 -65.79,37.41 -92.58,56.61 -4.15,2.97 -37.59,27.33 -37.89,27.58l-37.03 38.78z"/>
   <path class="fil4" d="M4294.02 1426.56c151.73,150.84 54.73,-11.71 244.7,272.16l86.79 -46.94c-67.53,-87.22 -191.24,-209.88 -297.24,-260.02l-34.25 34.8z"/>
   <path class="fil5" d="M1127.86 2838.75c40.44,46.27 86.84,146.29 180.36,177.56 28.87,-21.13 47.56,-31.21 72.54,-48.8 -43.15,-51.4 -100.81,-63.54 -222.45,-217.82 -21.19,28.81 -21.68,48.86 -30.45,89.07z"/>
   <path class="fil6" d="M4414.81 1984.67c2.96,46.18 28.94,86.06 46.02,136.44 14.58,42.98 23.33,104.91 38.43,142.28 41.63,-124.98 -15.99,-407.28 -74.38,-505.05 -42.22,23.14 24.66,153.18 -10.08,226.33z"/>
   <path class="fil15" d="M851.27 6011.31c25.36,51.91 36.95,45.08 79.3,85.68 45.45,43.57 239.63,176.61 297.45,194.79 -23.61,-45.15 -40.75,-50.76 -97.11,-93.34 -181.25,-136.96 -167.37,-172.66 -250.12,-276.56 -23.34,-29.31 -4.83,-10.72 -31.76,-27.76 4.78,71.95 9.24,16.4 16.09,69.4 8.57,66.36 10.62,35.68 -13.86,47.79z"/>
   <path class="fil10" d="M1784.14 7480.69l45.06 4.93 -61.73 -360.39c-15.99,20.63 -11.56,10.76 -30.42,23.68 -18.12,-14.81 -26.55,-20.95 -40.83,-34.03 -13.37,13.5 -9.86,16.41 -17.96,28.75 60.57,99.97 64.61,266.79 105.87,337.06z"/>
   <path class="fil3" d="M3751.09 2559.29l-3.15 86.22c39.24,-35.74 164.84,-167.88 166.85,-261.23l-8.11 -26.29c-21.27,51.16 28.81,9.88 -88.4,30.07 -31.76,5.47 -10.83,-1.2 -28.66,10.92l-13.87 -64.65c0,85.37 11.97,152.39 -24.67,224.96z"/>
   <path class="fil7" d="M3653.94 1990.87l14.55 16.98c33.03,-10.29 80.76,-12.04 129.24,-12.9 -16.41,-85.21 -78.6,-183.85 -138.26,-198.24 -30.62,102.16 -16.06,98.66 -5.53,194.16z"/>
   <path class="fil4" d="M600.24 1656.73l82.67 68.33c34.55,-68.54 85.09,-136.28 127.92,-189.83l-85.58 -27.37c-33.54,47.89 -84.2,96.5 -125.01,148.87z"/>
   <path class="fil6" d="M2813.41 2376.47c38.36,39.16 57.22,29.29 112.76,17.63 23.46,-20.19 29.32,-26.33 50.67,-43.79 11.24,-9.19 20.61,-15.29 29.12,-24.77 25.48,-28.37 8.37,-4.72 25,-37 -60.88,-32.88 -103.36,8.42 -180.13,-13.24l-37.43 101.18z"/>
   <path class="fil8" d="M2149.35 2586.28c-26.3,-30.29 1.43,-14.89 -41.46,-19.84 -3.01,-0.35 -34.35,6.75 -42.01,7.26 -25.5,-38.62 -23.62,-40.69 -106.08,-54.89 -29.15,24.02 -84.56,91.39 -103.85,116.11 117.65,-0.19 188.8,-23.66 293.39,-48.64z"/>
   <path class="fil7" d="M867.36 2205.59c3.35,-2.83 16.98,-13.29 19.24,-14.68 63.62,-39.33 -45.46,16.49 21.78,-6.49l8.55 19.63c14.05,63.95 -1.57,-44.11 3.3,22.97l-3.48 124.24 15.11 158.09 19.6 -123.12c-70.04,-88.36 45.65,-388.58 8.16,-455.97 -28.77,82.76 -75.55,165.91 -92.26,275.32z"/>
   <path class="fil5" d="M2652.33 4039.22c3.42,-52.48 -48.05,-66.18 -100.13,-59.6 -44.04,5.57 -70.79,28.84 -61.61,75.02 13.78,69.33 156.42,66.22 161.74,-15.42z"/>
   <path class="fil9" d="M2990.07 493.92c23.64,24.75 -32.77,8.77 36.02,24.76l53.43 -47.13 -27.92 -61.15c-1.28,-2.32 -3.83,-6.28 -5.82,-9.38 -81.47,-27.61 -123.67,-49.35 -221.71,-59.58 16.08,19.86 3.01,7.72 23.32,25.28 7.72,6.67 15.95,12.23 24.32,17.96 15.58,10.66 41.55,26.67 54.87,36.16 22.12,15.75 28.89,19.57 47.76,33.74 71.73,53.85 41.47,21 15.74,39.34z"/>
   <path class="fil5" d="M3274.8 5723c42.57,-31.36 17.65,-9.7 34.5,-43.24l-181.24 -99.48 -55.55 33.48c-1.93,1.24 -5.96,3.68 -8.58,5.99 58.84,31.88 114.81,72.91 172.61,116.94l38.26 -13.68z"/>
   <path class="fil6" d="M3183.86 2313.32c-22.11,12.88 -27.05,14.02 -46.36,22.9l-1.65 16.07c28.28,17.9 26.34,22.39 52.07,-1.51 90.85,0 -3.59,-11.54 31.28,31.2 44.3,-27.89 97.79,-105.16 124.56,-152.58 -10.9,-9.76 24.35,-41.83 -57.25,-13.17 -37.57,13.19 -20,10.34 -50.75,36.93 -21.51,18.6 -49.2,30.72 -51.88,60.17z"/>
   <path class="fil1" d="M1653.63 2870.89c63.05,-29.45 86.05,-19.74 158.96,-19.37l-247.16 -71.29 -14.21 -112.15c-13.2,70.62 -9.9,140.11 7.92,211.73l94.48 -8.91z"/>
   <path class="fil3" d="M2727.06 2529.8c78.64,-1.86 139.84,-45.43 180.64,-104.57 14.32,-20.76 3.81,-3.67 18.47,-31.13 -55.55,11.66 -74.4,21.53 -112.76,-17.63 -33.8,59.56 -62.15,97.86 -86.35,153.33z"/>
   <path class="fil2" d="M1820.07 3448.33c36.99,29.83 26.67,30.44 89.89,25.11 42.02,-44.58 62,-90.58 -0.49,-116.85 -70.86,-29.78 -101.05,30.72 -89.4,91.74z"/>
   <path class="fil11" d="M4117.82 4195.27c50.33,-59.62 95.64,-146.82 13.15,-190.02 -32.36,25.85 -66.56,124.73 -57.1,174.46l43.95 15.56z"/>
   <path class="fil2" d="M3361.17 3445.72c74.43,62.72 146.19,24.82 114.65,-77.36 -77.26,-28.11 -135.74,-25.79 -114.65,77.36z"/>
   <path class="fil11" d="M4297.16 4345.62c5.65,-31.89 22.66,-59.34 -11.74,-59.34 -9.62,77.78 -60.17,138.22 -154.55,129.83 -82.7,-7.34 -111.63,-68.37 -151.42,-116.55 2.95,177.49 298.89,193.43 317.72,46.06z"/>
   <path class="fil9" d="M291.4 2817c11.29,-54.48 22.25,-71.59 48.62,-105.25 12.73,-16.24 38,-54.46 41.03,-57.62 -39.61,11.39 -87.86,30.61 -115.43,61.81 -31.17,35.28 -22.23,75.62 -19.31,135.02 32.13,-4.14 29.2,-2.97 45.09,-33.96z"/>
   <path class="fil16" d="M256.29 3764.85l18.31 119.23 14.83 -67.83c133.02,-1.42 81.65,-20.08 138.3,0.97 -3.84,-21.15 -7.46,-51.76 -11.6,-69.44l-16.92 -44.07c-0.98,-6.45 -4.69,-7.12 -7.14,-10.6 -11.96,37.87 -20.12,67.05 -36.11,94.18 -65.33,-5.51 -36.95,-15.11 -99.66,-22.44z"/>
   <path class="fil15" d="M789.37 4284.56c15.54,22.78 -1.47,9.81 20.61,26.7 8.74,6.69 24.15,13.21 36.94,16.53 34.33,8.9 40.55,0.5 69.3,15.2l63.21 -13.67 -18.08 -57.73c-60.8,-8.53 -99.98,16.19 -171.97,12.97z"/>
   <path class="fil15" d="M4367.07 4274.7l-2.8 50.61c30.51,-6.63 52.44,-12.08 81.07,-22.51 2.62,-0.96 35.62,-15.79 35.95,-16.02 28.14,-19.27 1.36,6.39 18.43,-21.84l-3.52 -31.32 -102.17 4.38c-2.09,2.61 -5.17,6.25 -6.34,7.78l-20.63 28.91z"/>
   <path class="fil6" d="M867.36 2205.59l-13.74 130.46 40.89 -12.6c2.7,6.31 8.15,12.19 9.46,13.69 0.9,1.04 5.07,5.72 5.99,6.77 1.02,1.16 4.66,4.78 6.79,7.34l3.48 -124.24c-4.87,-67.08 10.75,40.98 -3.3,-22.97l-8.55 -19.63c-67.24,22.97 41.84,-32.84 -21.78,6.49 -2.26,1.39 -15.9,11.85 -19.24,14.68z"/>
   <path class="fil4" d="M4264.63 4203.29c-11.91,-24.41 7.59,-12.65 -29.81,-39.28 22.23,-36.75 -11.02,-8.65 40.78,-16.73 -32.41,-27 41.46,-26.75 -39.4,-22.2l-55.98 155.76 73.01 10.67c1.46,-80.07 -7.86,-58.09 11.4,-88.22z"/>
   <path class="fil17" d="M4264.63 4203.29l20.79 83c34.41,0 17.39,27.45 11.74,59.34 11.96,-11.7 23.69,-9.94 28.24,-55.52 9.22,-92.4 -37.48,-121.53 -49.81,-142.82 -51.8,8.09 -18.55,-20.02 -40.78,16.73 37.41,26.63 17.9,14.87 29.81,39.28z"/>
   <path class="fil3" d="M700.11 4300.92c99.77,46.45 87.31,45.23 216.11,42.07 -28.75,-14.7 -34.97,-6.3 -69.3,-15.2 -12.79,-3.31 -28.2,-9.83 -36.94,-16.53 -22.08,-16.89 -5.06,-3.92 -20.61,-26.7 -22.13,-6.03 0.27,6.5 -31.39,-14.77 -6.08,-4.08 -24.55,-20.67 -28.6,-21.88 -29.83,-8.86 -27.84,23.41 -29.27,53.01z"/>
   <path class="fil16" d="M4110.99 4310.98c-41.59,-20.51 -36.01,-28.72 -77.32,-47.16 11.27,98.46 82.7,116.96 170.17,99.42 -45.87,-62.61 -23.76,-18.19 -92.84,-52.26z"/>
   <path class="fil16" d="M195.95 3147.76l1.44 48.96c88.93,8.56 74.57,-44.8 135.97,3.44l13.84 11.39 -8.96 -73.55 -142.28 9.77z"/>
   <path class="fil9" d="M961.99 2268.96l54.11 -108.04 11.63 41.29 23.56 -132.74c-7.14,-31.66 6.21,-11.41 -11.36,-21.86 -46.56,90.1 -69.26,99.13 -77.93,221.35z"/>
   <path class="fil3" d="M1251.97 2664.4c-2.2,-48.41 6.41,-52.68 5.39,-80.16 -0.54,-14.58 0.46,-13.2 -5.1,-30.08 -15.1,-45.84 -7.47,-20.67 -21.73,-38.14 -13.03,6.73 -8.21,0.24 -23.1,4.34 -20.2,5.57 16.09,-18.94 -20.13,10.39 3.33,42.4 6.41,39.03 24.91,76.21 21.12,42.44 5.65,26.52 39.77,57.45z"/>
   <path class="fil3" d="M3131.37 2436.96l87.82 -54.99c-34.87,-42.73 59.57,-31.2 -31.28,-31.2 -25.73,23.9 -23.79,19.4 -52.07,1.51 -29.08,25.33 -4.18,-16.94 -34.43,27.97 10.32,72.51 -6.76,20.43 29.96,56.71z"/>
   <path class="fil9" d="M2468.95 2122.48c57.74,-11.57 108.55,-57.05 138.83,-94.44l-26.57 -28.63c-24.27,24.42 -20.64,25.76 -55.06,56.52 -28.09,25.12 -39.35,36.45 -57.21,66.55z"/>
   <path class="fil16" d="M4816.36 3222.37c9.08,-14.51 5.68,-5.9 17.89,-30.94 5.49,-11.25 6.17,-15.67 10.91,-26.14l118.13 27.45 -2.79 -21.62c-61.94,-13.16 -74.92,-35.46 -138.5,-43.25l-5.64 94.49z"/>
   <path class="fil10" d="M1014.63 4186.02c2.22,3.83 17.2,32.48 25.61,39.29 20.22,16.38 -0.34,4.72 26.89,11.45l21.1 -4.09c7.61,-42.18 11.45,-26.24 -9.86,-58.19 -48.71,-15.19 -20.89,-9.23 -57.91,-37.12l-5.82 48.66z"/>
   <path class="fil9" d="M4164.34 3987.69c52.06,36.15 25.22,4.97 30.25,1.63 4.09,-94.57 4.34,-69.95 -24.16,-88.24 -11.34,17.93 -37.11,13.19 -6.09,86.61z"/>
   <path class="fil2" d="M1020.45 4137.36c37.03,27.89 9.21,21.93 57.91,37.12l-37.81 -117.86c-24.18,25.05 -6.5,-6.95 -16.19,37.25 -0.21,0.93 -3.31,39.08 -3.92,43.49z"/>
  </g>
 </g>
</svg>
