<?xml version="1.0" encoding="UTF-8"?>
<!DOCTYPE svg PUBLIC "-//W3C//DTD SVG 1.1//EN" "http://www.w3.org/Graphics/SVG/1.1/DTD/svg11.dtd">
<!-- Creator: CorelDRAW 2021 (64 Bit) -->
<svg xmlns="http://www.w3.org/2000/svg" xml:space="preserve" width="142.49mm" height="167.184mm" version="1.1" style="shape-rendering:geometricPrecision; text-rendering:geometricPrecision; image-rendering:optimizeQuality; fill-rule:evenodd; clip-rule:evenodd"
viewBox="0 0 3573.94 4193.31"
 xmlns:xlink="http://www.w3.org/1999/xlink"
 xmlns:xodm="http://www.corel.com/coreldraw/odm/2003">
 <defs>
  <style type="text/css">
   <![CDATA[
    .fil1 {fill:#1A1424}
    .fil11 {fill:#714B50}
    .fil9 {fill:#A5463C}
    .fil2 {fill:#CC7563}
    .fil7 {fill:#E89578}
    .fil10 {fill:#F8155D}
    .fil5 {fill:#FC639B}
    .fil8 {fill:#FD8BAD}
    .fil3 {fill:#FDFEFD}
    .fil6 {fill:#FEB3BC}
    .fil4 {fill:#FEBC92}
    .fil0 {fill:#FFDEC5}
   ]]>
  </style>
 </defs>
 <g id="Camada_x0020_1">
  <metadata id="CorelCorpID_0Corel-Layer"/>
  <g id="_2269674930512">
   <path class="fil0" d="M1634.36 2265.25c30.34,-17.75 94.54,27.78 149.57,31.47 85.69,5.75 98.16,-33.08 156.07,-39.79 3.68,110.58 -307,93.29 -305.64,8.32zm792.14 -247.58l15.17 32.3c4.81,13.42 9.41,30.22 9.52,47.71 0.41,62.5 -77.79,130.43 -137.89,107.5 -35.68,-13.61 -137.55,-115.47 -32.94,-151.92 53.61,-18.68 56.4,9.43 93.09,-10.62 31.03,-16.96 5.75,-20.02 53.04,-24.97zm-657.08 58.52c46.93,-12.14 54.61,3.67 56.44,46.26 -26.49,8.01 -44.02,14.76 -69.3,-7.55 0.42,-20.85 3.96,-25.92 12.85,-38.72zm-493.78 -39.95c21.57,14.01 31.12,29.04 23.4,59.55 -8.01,31.66 3.66,4.2 -15.34,24.99l-9.95 8.78c-38.43,30.3 -85.88,20.94 -111.13,-15.45 -25.09,-36.16 -34.39,-80.68 11.85,-106.56 21.68,-12.14 87.53,19.82 101.17,28.69zm205.24 -1000.38c27.94,18.93 -36.31,20.77 35.34,14.84 21.13,-25.48 85.15,-42.72 130.39,-46.56 -98.02,38.98 -182.89,113.23 -247.11,189.8l-156.52 224.98c-18.7,32.58 -12.91,11.88 -10.19,23.92 30.11,-33.58 -5.68,-35.53 -7.15,-37.17l-29.69 65.61c71.46,-21.4 331.3,-70.43 311.2,50.02 -25.79,11.67 -59.73,6.82 -88.16,5.14 -134.79,-7.94 -212.45,16.71 -255.83,13.37 -19.08,37.82 -102.84,146.7 -109.47,175.43 101.94,29.41 107.06,-83.11 284.02,-66.51 96.87,9.09 180.7,86.79 187.01,183.85 16.67,256.2 -396.73,238.29 -291.89,-71.76 -101.4,63.54 -114.55,89.31 -203.6,-7.59l-60.51 31.51c5.74,31.73 17.55,54.68 23.39,84.28 41.16,208.81 66.7,350.82 230.1,512.96 72.46,71.9 157.27,129.72 254.88,170.48 106.36,44.42 168.32,102.26 314.49,108.62 187.13,8.13 486.97,-193.6 573.26,-273.69 27.58,-25.6 70.91,-81.64 95.07,-117.37 77.1,-114.02 145.15,-368.38 153.49,-490.3 -72.88,-42.35 -64.1,-16.66 -122.17,18.06 -70.44,42.11 -101.2,7.43 -143.61,-19.69 97.05,252.6 -286.86,332.43 -297.7,79.13 -6.17,-144.21 160.55,-279.57 362.49,-168.61 27.4,15.06 29.44,24.02 60.44,37.97l42.56 -20.44 -105.56 -154.26c-67.83,-13.12 -99.27,-21.85 -167.34,-25 -41.7,-1.94 -155.45,8.88 -177.08,-2.81 -24.99,-70.36 67.18,-80.38 123.99,-78.97l177.22 14.78 -33.31 -96.64c-16.75,25.59 -12.87,-24.4 -8.97,38.17 0.06,0.91 7.79,25.83 8.8,31.89 -5.49,-26.9 -125.77,-222.28 -177.17,-266.51 -19.04,-16.39 -15.52,-11.12 -32.39,-30.01 -54.54,-61.05 -122.2,-78.15 -170.99,-103.77 -28.92,-15.19 -24.21,-27.65 -71.52,-23.59 207.53,-5.78 212.75,63.81 284.03,120.98 18.78,15.06 11.04,21.46 43.78,16.39 -214.25,-264.82 -378.85,-122.29 -423.95,-129.78 -108.93,-18.1 -49.87,-80.3 -304.06,18.86z"/>
   <path class="fil1" d="M1526.86 4166.44c-9.33,-89.45 -60.25,-328.98 -87.97,-404.74 256.63,33.11 441.24,37.37 698.6,0.9l-91.62 402.21c-128,20.6 -392.43,24.8 -519.01,1.63zm1050.36 -108.18l-21.16 2.9 -39.85 -402.06 68.4 -31.87 37.27 413.18 -44.66 17.84zm-824.3 -790.18c-75,-47.46 -17.3,-146.38 67,-111.66 53,21.83 45.59,141.21 -67,111.66zm261.07 -113.53c19.77,110.71 -77.36,135.75 -112.45,78.8 -38.41,-62.35 27.91,-131.17 112.45,-78.8zm-729.62 54.36l71.23 -25.84c46.34,4.38 2.72,-6.16 26.26,20.55 46.36,52.6 71.32,32.16 134.42,28.18 31.06,45.03 52.37,72.69 123.96,69.18 108.59,-5.32 111.93,11.18 157.95,6.77 29.56,-2.83 59.93,-19.82 72.36,-19.86 19.94,-0.06 142.7,61.19 182.43,-62.14 38.15,9.16 50.24,10.15 87.97,12.84l19.22 -10.98c1.82,-1.13 4.17,-2.36 5.97,-3.56 29.45,-19.52 23.13,-24.3 40.51,-42.22l91.08 22.07c-7.99,42.54 -17.11,102.55 -40.58,130.63 0.89,46.81 -87.48,330.83 -107.45,385.99 -131.87,35.04 -604,53.73 -723.06,-4.91 -15.71,-29.68 -144.52,-488.16 -142.27,-506.69zm301.72 -71.02c76.44,-32.96 136.06,77.04 61.05,115.97 -72.81,37.79 -136.04,-83.64 -61.05,-115.97zm508.02 -69.62c80.56,-29.55 121.56,97.43 38.55,122.98 -86.55,26.64 -125.66,-91.04 -38.55,-122.98zm-662.44 2.68c32.1,-18.88 75.19,-2.44 88.2,22.48 42.83,81.99 -79.36,143.59 -119.41,65.62 -21.61,-42.08 0.3,-69.92 31.2,-88.1zm112.44 -204l12.21 -201.09c36.76,11.84 81.19,65.45 199.75,75.46 100.5,8.49 151.47,-19.5 229.59,-49.4l39.32 -24.15c2.61,136.4 15.15,242.5 41.35,372.11 -34.48,13.31 -45.84,28.3 -59.52,65.27 -85.46,-9.58 -92.23,-1.11 -146.39,42.4 -11.48,-7.03 -82.13,-74.11 -158.14,-8.99 -40.8,-50.64 -71.74,-34.22 -138.71,-44.46 -23.25,-36.32 -24.35,-41.34 -48.9,-68.22l29.45 -158.92zm774.94 -35.71l-244.78 -53.06c-11.25,-48.2 -8.86,-82.3 -8.86,-141.5l287.73 -168.03 66.52 -35.33c-67,237.65 -38.32,256.15 -19.2,431.84l-81.4 -33.92zm-1112.78 -390.41l318.86 195.85c-0.98,43.86 -16.74,106.49 -17.72,150.34 -113.43,0 -195.06,42.71 -253.96,44.22l-73.18 27.19c62.3,-226.24 -16.96,-345.69 -22.99,-456.24 4.19,4.22 41.82,33.62 48.99,38.64zm-194.48 -271.24c-42.44,4.21 -78.78,-0.32 -110.51,-24.79 -72.67,-56.05 -63.05,-68.55 -33.97,-182.66 7.33,-28.77 18.31,-73.49 37.8,-95.42 23.78,11.55 20.96,-10.08 37.88,68.74 6.09,28.36 11.39,49.47 19.52,77.7 15.01,52.1 38.34,109.94 49.27,156.43zm1745.24 123.5c-13.79,78.98 -104.67,118.88 -180.43,71.42 -24.18,-15.45 -30.04,-13.17 -37.26,-50.18 -4.87,-24.97 6.39,-45.53 14.73,-62.55 28.46,0.77 56.41,-9.16 66.02,13.43l21.04 57.82c36.54,-9.46 32.91,1.55 45.64,-38.83 8.44,-26.76 5.55,-41.08 19.68,-61.61l-2.88 -55.34c-27.95,-27.61 -16.22,-9.81 -23.5,-42.06 -52.1,21.55 -17.42,42.72 -104.5,54.19l63.85 -213.83c10.09,-35.89 9.15,-41.97 39.45,-51.24 17.55,-186.4 187.33,-285.32 236.52,-126.78 47.96,154.59 -18.97,261.2 -143.28,325.71 -4.78,2.48 -11.53,9.16 -12.83,6.9 -1.12,-1.93 -4.48,2.33 -6.66,3.6 16.53,57.24 38.63,108.45 4.4,169.34zm-505.62 -496.43c-105.92,6.1 -14.16,-129.3 21.38,-35.5 -9.02,33.67 -0.46,15.32 -21.38,35.5zm-868 -62.04c42.14,-3.94 49.07,1.16 54.99,44.23 -18.31,19.1 -16.06,17.03 -46.74,29.91 -1.47,-1.86 -3.69,-4.15 -4.64,-5.38 -25.69,-33.07 -22.64,-42.4 -3.62,-68.76zm-220.25 -194.8c8.26,-48.9 17.74,-30.62 32.79,-68.53l29.69 -65.61c17.67,-34.49 32.11,-73.01 46.96,-109.26 67.21,-164.03 197.51,-245.12 208.28,-260.54 254.19,-99.16 195.12,-36.97 304.06,-18.86 45.09,7.49 209.7,-135.04 423.95,129.78 16.71,7.23 4.21,-1.58 18.33,18.99 44.03,64.14 92.93,183.4 106.1,197.47l33.31 96.64c23.02,22.51 36.21,60.13 43.21,92l105.56 154.26 -42.56 20.44c-30.99,-13.95 -33.04,-22.91 -60.44,-37.97 -201.94,-110.96 -368.67,24.4 -362.49,168.61 10.84,253.3 394.75,173.47 297.7,-79.13 42.41,27.13 73.18,61.81 143.61,19.69 58.07,-34.72 49.3,-60.41 122.17,-18.06 -8.34,121.92 -76.39,376.27 -153.49,490.3 -24.16,35.73 -67.49,91.77 -95.07,117.37 -86.29,80.09 -386.13,281.82 -573.26,273.69 -146.17,-6.35 -208.13,-64.2 -314.49,-108.62 -97.61,-40.76 -182.42,-98.59 -254.88,-170.48 -163.4,-162.13 -188.94,-304.15 -230.1,-512.96 -5.83,-29.6 -17.65,-52.55 -23.39,-84.28l60.51 -31.51c89.05,96.9 102.2,71.12 203.6,7.59 -104.84,310.05 308.56,327.96 291.89,71.76 -6.31,-97.06 -90.14,-174.77 -187.01,-183.85 -176.96,-16.6 -182.08,95.92 -284.02,66.51 6.64,-28.73 90.39,-137.62 109.47,-175.43zm196.46 -505.6c-21.97,39.68 -44.49,75.5 -66.06,115.15 -21.58,39.67 -31.72,75.4 -56.94,120.17 -41.8,74.23 -62.5,165.48 -117.4,231.24 -57,142.55 -217.12,242.21 -235.37,281.06 -41.22,1.8 -14.07,4.4 -22.15,-14.41l-8.74 -32.48 -3.08 63.67c-35.2,87.68 -60.8,237.65 -60.05,334.21 1.1,142.26 41.55,200.65 87.13,295.38 -67.15,-21.2 -130.63,-96.96 -155.54,-162.91 -60.18,-48.59 -78.62,-283.53 -69.66,-375.17 14.16,-144.89 52.58,-234.14 87.09,-358.94 -1.5,-20.77 5.05,-17.77 -10.88,-17.77 -8.81,38.05 -15.07,59.54 -29.19,94.8 -27.87,69.57 -85.91,220.11 -85.22,285.61 -5.86,88.79 -7.13,147.37 11.81,234.78 6.64,30.65 18.98,69.26 29.99,93.9 15.65,35 27.91,43.95 35.34,81.84 15.47,11.3 41.62,51.59 55.15,66.88 22.37,25.29 44.71,31.28 57.71,56.7l102.54 49.25c55,17.8 60.05,12.68 113.69,12.24 -1.86,-1.48 -4.68,-2.94 -6.09,-3.72 -1.4,-0.77 -4.4,-2.63 -6.12,-3.54 -100.62,-53.32 -126.33,-101.45 -151.12,-276.75 96.6,55.94 89.85,56.02 180.82,39.8 26.89,177.39 129.47,278.59 90.24,559.26 -10.86,77.72 -24.1,127.3 -84.68,140.73 -29.87,66.78 -204.12,193.04 -275.5,229.18 -32.04,54.26 -183.52,78.1 -299.21,538.35 -4.09,16.28 -8.19,36.81 -12.01,50.45 -9.7,34.66 7.95,37.22 -20.44,33.95 12.29,14.31 66.59,45.22 87.53,51.15 -53.58,-64.01 87.45,-353.08 195.9,-409.7 34.38,34.28 60.03,54.77 110.61,86.78 19.98,12.64 34.08,23.74 57.91,39.39 18.96,12.45 39,24.05 55.06,35.98l-3.34 56.55c-14.12,47.4 -20.4,138.11 -25.99,190.87l-14.36 142.65c-8.15,29.33 13.58,27.31 -20.45,26.8l78.76 25.26c-19.97,-51.38 28.96,-335.11 37.54,-415.42 24.08,7.94 33.09,17.83 60.18,27.03l-32.59 399.68c-26.7,5.9 -1.84,5.05 -37.59,-5.08 10.87,11.77 -0.06,4.1 15.35,13.4 14.27,8.61 6.69,4.4 25.03,10.91 22.56,8 33.95,11.77 58.34,13.68l8.04 -344.86 8.38 -36.1c19.58,19.41 136.23,93.3 210.6,188.37 21.57,27.58 38.97,52.71 68.01,69.4l-16.89 -69.55c-253.02,-339.02 -532.94,-368.33 -610.47,-512.07 -57.03,-105.72 94.68,-144.3 186.27,-226.67l112.04 -107.11c20.32,-39.05 52.28,-64.86 86.29,-93.31l49.79 -38.2c105.07,-67.8 182.01,-80.17 310.85,-104.59l-28.6 182.72 -40.03 11.85c-24.83,13.83 -42.17,23.61 -56.33,42.52l-24.22 47.32c-16.01,28.78 -83.97,15.4 -137.23,47.69l6.48 40.56c13.18,138.98 89.52,348.53 128.98,480.26 51.41,171.63 78.93,316.98 115.05,497.91l-65.34 -8.6 -7.12 -3.02 -93.26 -10.84c41.05,24.13 262.51,40.76 329.98,50.17l254.74 2.4c59.31,0.3 307.25,-24.58 345.28,-41.86l-25.53 -1.21 -81.34 12.76 53.62 -297c11.95,-23.63 33.42,-118.91 43.23,-151.31 14.91,-49.23 32.05,-98.09 47.54,-146.88 28.03,-88.25 73.69,-219.77 87.19,-312.02l17.79 -116.34c-26.23,-9.12 -52.66,-16.53 -81.72,-24.1 -44.78,-11.66 -45.21,-1.72 -64.38,-33.41 -33.75,-55.78 -34.6,-67.57 -108.75,-87.4l-23.86 -178.66c61.87,5.14 198.89,35.12 235.33,68.86 77.88,33.49 135.62,82.11 180.42,127.47 25.81,26.13 41.5,53.13 69.83,81.04 31.7,31.22 36.93,42.44 75.45,74.61 92.43,80.92 283.3,122.31 136.8,259.31 -31.85,29.79 -31.23,32.92 -73.25,60.24 -85.34,55.49 -214.44,126.68 -291.05,186.6 -103.27,80.78 -81.34,59.32 -154.8,145.82 -9.7,11.42 -7.18,8.06 -12.31,11.71 -21.83,27.63 -15.81,34.1 -44.08,48.25 -2.86,47.21 -20.32,16.18 -7.85,71.76l11.97 13.41c8.83,-20.69 30.1,-53.02 41.19,-67.75 14.78,-19.65 34.32,-37.08 50.06,-56.04 23.08,-27.8 26.77,-29.53 54.99,-51.57 11.22,-8.77 48.05,-39.77 54.34,-47.36 12.2,-6.92 20.22,-13.22 30.12,-19.08 23.54,-13.94 9.44,-11.74 29.93,-9.79 -0.52,89.5 39.93,309.83 14.1,373.68 23.01,-0.49 33.33,-2.93 46.93,-6.96 14.06,-4.16 8.5,-1.92 19.32,-7.23 17.61,-8.64 12.29,-5.71 21.13,-14.58 35.02,0.75 90.75,-24.08 117.05,-37.7 -25.05,-8.36 -7.43,6.13 -16.44,-21.65 -0.03,-0.1 -3.1,-24.48 -3.27,-26.18l-14.38 -168.78c-4.62,-38.88 -8.04,-74.52 -11.77,-113.65 -8.43,-88.61 -26.69,-81.86 5.02,-99.65 33.16,-24.07 70.37,-45.81 103.49,-69.1 58.03,-40.8 60.59,-52.43 96.78,-79.8 118.95,42.71 240.27,336.14 215.16,397.66 34.2,-9.25 76.04,-35.71 94.84,-60.16 -17.49,10.15 -4.78,3.4 -26.57,10.54 -29.76,-61.07 -45.91,-192.83 -123.08,-358.41 -32.18,-69.06 -92.48,-157.47 -151.06,-203.07l-58.81 -54.14c-35.76,-14.28 -113.43,-70.77 -144.82,-96.05 -53.36,-42.98 -84.27,-71.03 -121.37,-115.72 -90.24,-44.89 -100.78,-185.27 -98.51,-290.36 2.34,-108.16 21.68,-226.82 71.56,-318.05 58.36,49.89 47.13,85.73 165.23,87.54l70.09 -29.6c109.43,-132.77 52.83,-197.33 89.37,-243.76 21.65,-27.51 53.74,-31.56 82.62,-76.96 12.28,-19.31 47.44,-83.45 63.24,-97.72l1.92 -108.52c7.82,-68.66 -45.07,-186.66 -103.25,-226.51 -107.65,-8.78 -74.91,-27.78 -162.38,30.57l-15.23 23.45 -15.05 43.19c-43.62,-11.36 -137.09,-97.12 -157.32,-122.3l-106 -169.12c-10.48,-25.53 -18.79,-33.9 -30.38,-57.29 -11.09,-22.38 -13.87,-39.27 -26.1,-58.83 -31.77,-86.63 -129.53,-283.4 -178.69,-337.85 -47.91,-66.96 -91.49,-129.26 -186.45,-159.64 -99.57,-31.85 -163.93,40.13 -211.83,107.77l-91.92 -95.88c-86.08,-51.78 -179.76,-3.62 -244.29,58.9 -47.12,45.65 -82.77,102.36 -95,112.79z"/>
   <path class="fil2" d="M1215.12 434.62l0 9.05c158.9,5.08 270.5,2.75 417.29,79.16 56.2,29.25 48.3,31.3 67.36,95.22 -60.17,-36.98 -45.13,-60.98 -185.67,-102.38 -99.34,-29.26 -320.72,-56.29 -398.28,-3.58 -15.19,10.33 -17.68,21.91 -33.44,37.78l-128.6 100.82c-44.88,26.59 -57.58,87.19 -57.2,93.46 1.09,17.99 43.38,71.5 99.44,86.97 5.23,1.44 25.77,6.23 27.64,6.92 23.17,8.62 11.1,0.87 24.34,13.37 28.24,-19.26 53.1,-59.8 82.83,-85.56 16.09,-13.95 28.85,-26.76 47.35,-40.71 17.49,-13.2 35.29,-21.76 54.06,-37.9 61.27,-59.6 302.86,-91.25 397.57,-51.75 -107.27,17.92 -203.11,15.59 -299.79,81.44l-68.71 68.19c101.47,-42.63 198.49,-61.24 320.41,-25.42 105.29,30.94 80.54,40.31 113.26,71.12 38.79,36.51 52.14,18.09 95.88,101.21 32.36,-36.51 78.79,-141.43 203.08,-177.98 150.04,-44.12 261.7,21.54 271.93,23.57 78.48,15.57 22.91,17.45 42.16,-15.74 -24.88,-8.33 -27.05,-21.97 -52.61,-40.19 -21.28,-15.16 -36.06,-21.52 -58.54,-35.33 -51.65,-8.65 -73.75,-21.14 -131.46,-26.85 -47.85,-4.74 -102.08,-10.35 -139.63,-17.94 73.97,-30.02 199.38,-36.74 276.62,-4.45 56.91,9.47 150.04,52.56 188.34,83.67 64.79,52.61 85.58,58.47 134.78,130.83l7.7 11.78c8.75,-43.59 -15.91,-1.72 86.76,-51.24 40.55,-19.55 46.95,-29.3 67.62,-76.85 -65.75,-131.6 -65.58,-57.82 -154.55,-148.53 -14.01,-14.28 -20.87,-17.75 -37.57,-33.31 -59.26,-55.23 -70.39,-62.41 -163.99,-69.88 -135.38,-10.8 -340.76,22.58 -447.44,115 -18.78,16.27 1.96,5.56 -22.29,21.02 -6.28,-87.92 103.09,-116.28 190.79,-143.96 127.12,-40.13 174.2,-28.76 305.14,-29.71 -11.63,-12.44 0.61,-4.2 -20.69,-17.07 -97.12,-58.67 -309.31,-84.86 -418.69,-61.52 -129.94,27.72 -91.8,72.13 -186.93,29.49 -108.5,-48.63 -272.46,-42.58 -384.59,-7.61 -88.54,27.61 -85.42,44.37 -131.67,45.4z"/>
   <path class="fil0" d="M1733.26 3321.01c159.93,-56.4 244.52,145.85 104.34,202.91 -155.51,63.3 -247.97,-152.26 -104.34,-202.91zm269.34 111.6c20.08,-53.88 95.92,-18.72 140.38,-76.75 -2,106.97 -123.4,85.81 -140.38,76.75zm-430.65 5.24c-68.35,12.06 -119.03,-22.78 -157.48,-49.45l-0.4 -30.03c119.54,62.42 97.78,18.95 142.58,42.89 22.49,12.02 6.5,-8.01 16.58,18.01 13.47,34.79 0.9,7.93 -1.28,18.57zm-287.59 -228.94c-2.26,18.54 126.56,477.01 142.27,506.69 119.06,58.64 591.19,39.95 723.06,4.91 19.97,-55.16 108.33,-339.19 107.45,-385.99 -10.82,-11.1 -1.92,-20.55 -23.4,41.81 -9.31,-41.09 6.82,-31 -18.52,-58.08 -46.42,-49.61 -120.45,18.15 -169.6,-41.54l12.5 -27.79c2.8,-0.47 106.63,-2.46 82.81,-10.34 -37.73,-2.69 -49.82,-3.68 -87.97,-12.84 -39.73,123.33 -162.49,62.09 -182.43,62.14 -12.44,0.04 -42.8,17.03 -72.36,19.86 -46.02,4.41 -49.36,-12.09 -157.95,-6.77 -71.59,3.51 -92.9,-24.15 -123.96,-69.18 -63.1,3.98 -88.06,24.42 -134.42,-28.18 -23.53,-26.71 20.09,-16.17 -26.26,-20.55l8.19 11.77c69.5,85.99 106.18,38.16 157.34,56.54 -2.64,55.09 -22.57,31.99 -78.98,49.03 -20.23,6.11 -49.91,25.29 -81.97,22.68 -49.41,-4.02 -9.85,2.46 -12.24,-5.49 -1.07,24.51 -2.88,23.76 -15.53,39.81l-44.48 -142.25c-0.46,-3.49 -2.04,-4.39 -3.57,-6.25z"/>
   <path class="fil3" d="M1526.86 4166.44c126.59,23.17 391.02,18.97 519.01,-1.63l91.62 -402.21c-257.36,36.47 -441.97,32.21 -698.6,-0.9 27.71,75.76 78.63,315.29 87.97,404.74z"/>
   <path class="fil4" d="M1232.23 687.25l3.76 12.31c0.36,26.27 -5.21,8.61 -8.42,45.22 -9.27,105.6 17.77,22.28 -42.59,93.1 -11.4,13.37 0.76,-1.46 -10.41,15.89 -1.42,2.21 -5.01,9.19 -6.53,11.34l-33.96 37.3c-24.29,36.17 -32.97,69.2 -63.64,112.55 -25.81,36.49 -39.62,71.67 -63.99,110.61l18.17 6.59c21.11,-25.12 49.72,-89.17 92.65,-115.31 54.08,-32.93 14.26,4.85 168.71,-3.69 1.45,1.34 3.22,1.98 3.69,4.63l24.8 42.96c22.03,-23.06 8.35,-28.87 38.56,-28.21 1.31,0.03 4.74,0.41 6.6,1.71 12.23,-10.42 47.88,-67.13 95,-112.79 64.53,-62.52 158.21,-110.68 244.29,-58.9l91.92 95.88c47.89,-67.64 112.26,-139.62 211.83,-107.77 94.96,30.38 138.54,92.68 186.45,159.64 50.3,-19.21 6.32,0.45 48.33,29.33 32.15,-15.71 26.43,-30.59 59.22,-34.23 26.46,-2.94 48.31,13.52 78.2,11.07 70.01,-5.74 57.64,-43.75 148.33,33.51l-44.58 -81.63c-38.6,-52.52 -110.98,-177.82 -170.6,-206.46 -19.25,33.19 36.32,31.3 -42.16,15.74 -10.22,-2.03 -121.89,-67.69 -271.93,-23.57 -124.3,36.55 -170.72,141.47 -203.08,177.98 -43.74,-83.12 -57.1,-64.7 -95.88,-101.21 -32.72,-30.8 -7.97,-40.18 -113.26,-71.12 -121.92,-35.82 -218.93,-17.21 -320.41,25.42l68.71 -68.19c96.69,-65.85 192.52,-63.53 299.79,-81.44 -94.71,-39.5 -336.3,-7.85 -397.57,51.75z"/>
   <path class="fil1" d="M2357.7 293.13zm39.49 -45.46l-39.49 45.46zm39.49 -45.46c-33.95,4.42 -34.42,2.22 -57.2,18.78l-9.59 17.39c24.18,6.66 8.02,-0.26 27.3,9.29l8.86 17.69c6.67,-10.98 0.96,-12.05 8.86,-2.01 61.81,-26.73 132.3,-31.08 181.37,24.12 5.63,6.34 18.59,24.83 18.74,24.98 28.17,28.66 149.94,21.74 161.8,184.05 105.4,-5.69 190.15,81.73 173.92,193.35 33.65,29.21 60.33,52.78 64.72,115.66 4.5,64.54 -6.66,101.65 -51.4,126.03 -62.36,-14.91 -97.62,-94.39 -93.29,-167.64 -8.92,-8.97 -1.49,-2.13 -11.59,-12.63l-13.22 -13.31c-116.8,-109.83 -89.43,-137.96 -139.52,-170.97 -38.37,-25.3 -76.65,-39.94 -109.47,-67.62 -30.18,-25.45 -51.88,-63.96 -84.57,-95.67 -24.83,-1.7 -41.81,-12.24 -61.1,-24.12l-54.11 -38.77 0 59.67c-130.94,0.95 -178.02,-10.42 -305.14,29.71 -87.7,27.69 -197.07,56.05 -190.79,143.96 24.25,-15.47 3.51,-4.75 22.29,-21.02 106.68,-92.42 312.06,-125.8 447.44,-115 93.6,7.47 104.73,14.64 163.99,69.88 16.69,15.56 23.55,19.03 37.57,33.31 88.97,90.72 88.8,16.94 154.55,148.53 -20.67,47.56 -27.07,57.3 -67.62,76.85 -102.68,49.51 -78.01,7.65 -86.76,51.24l25.32 45 95.74 -54.49c42.1,-23.72 35.96,-45.98 66.39,-84.22l59.2 75.71c48.88,81.05 -92.5,264.07 -95.16,275.43l24.28 59.19c13.9,-81.7 81.23,-80.95 108.03,-220.08l22.89 22.98c34.56,11.78 21.42,22.66 84.85,18.74 39.01,-2.41 19.31,1.86 42,-11.77 3.67,-2.21 29.98,-22.03 37.52,-27.4 18.1,-19.88 21.14,-39.6 23.99,-69.02 59.98,1.54 76.01,-3.62 124.72,-27.19 60.75,-29.4 44.06,-38.45 81.58,-72.07 0,-67.65 4.67,-45.44 17.72,-90.8 -60.97,67.51 -91.21,130.13 -221.43,140.78 -23.85,-44.73 -0.48,-71.39 -52.43,-117.21 29.43,-19.96 306.3,-40.96 282.09,-371.96 -2.44,-45.76 -23.96,-84.86 -54.1,-114.97 14.89,97.65 39.4,185.35 -16.28,272.58 -23.09,80.44 -120.96,156.16 -230.13,158.65 -23.38,-48.81 -13.35,-56.34 -51.35,-96.91 -108.69,-116.05 -85.73,-26.26 -158,-143.13 -21.55,-34.85 -45.24,-46.07 -60.14,-78.7 -12.19,-7.84 -5.62,4.45 -19.56,-15.21 19.14,-114.6 102.23,-168.07 218.16,-193.63 89.27,-36.52 198.89,-3.3 265.76,37.49 -16.87,-30.77 -21.57,-29.31 -49.32,-51.15 -28.94,-22.78 -25.35,-35.22 -56.97,-35.94 -347.88,-43.66 -377.75,201.9 -407.43,231.49 -53.91,-16.69 -50.21,-38.84 -114.72,-64.32 2.53,-206.28 166.82,-216.92 231.73,-251.16l-114.21 0c-42.59,27.57 -89.58,45.07 -113.28,83.91 -25.36,41.55 -47.17,88.71 -50.84,146.32l-82.62 7.31z"/>
   <path class="fil1" d="M868.23 368.89c-26.98,33.57 -38.62,42.47 -58.92,85.5 -40.6,86.06 -127.01,29.04 -180.18,217.6 -37.61,-1.44 -73.79,-7.7 -100.4,-25.26 -77.03,-35.31 -132.03,-104.79 -160.97,-206.2 -14.92,-52.3 -16.34,-109.15 0.48,-161.4 20.37,-63.3 36.58,-73.48 71.16,-106.38 89.98,-57.86 286.72,-55.57 357.12,15.51 53.89,12.46 109.29,87.37 106.75,158.39l-35.04 22.24zm-361.68 -266.7c-23.35,12.99 -20.94,12.25 -38.47,29.12 -4.94,4.75 -13.35,13.56 -16.71,18.32 -10.09,14.3 -6.78,6.82 -11.97,23.13 -31.01,1.94 -23.31,-0.33 -46.52,24.57 -12.21,13.1 -20.42,24.48 -30.13,40.65 -14.9,24.82 -36.63,79 -40.04,108.21 5.85,138.99 2,159.89 75.09,258.74 41.18,55.7 109.22,100.4 212.39,116.64 -8.23,16.76 -18.25,27.67 -29.04,52.84 -9.66,22.53 -9.57,45.65 -21.46,65.56 -120.13,12.41 -177.62,-80.14 -230.29,-135.03 1.62,14.82 21.12,90.82 35.43,107.31 33.94,26.19 19.46,32.69 76.92,58.69 52.15,23.6 64.26,22.7 122.86,18.72 3.22,38.21 14.71,70.95 37.01,93.28 43.42,3.25 14.31,3.72 46.17,10.67 17.92,3.91 0.3,3.42 19.22,2.81 18.54,-0.59 5.33,2.51 17.97,-4.64l43 -18.43 8.86 -12.34 22.1 -3.02c26.82,98.23 41.39,143.98 119.65,204.46l17.33 -54.04c-47.17,-26.79 -75.79,-90.42 -92.34,-157.27 -17.67,-71.37 15.82,-124.42 45.69,-169.95 91.71,97.02 79.78,70.85 173.22,116.61l25.51 -46.37c-13.24,-12.5 -1.17,-4.76 -24.34,-13.37 -1.86,-0.69 -22.4,-5.48 -27.64,-6.92 -56.06,-15.47 -98.35,-68.98 -99.44,-86.97 -0.38,-6.27 12.32,-66.87 57.2,-93.46l128.6 -100.82c15.76,-15.87 18.25,-27.45 33.44,-37.78 77.57,-52.71 298.94,-25.68 398.28,3.58 140.54,41.4 125.51,65.4 185.67,102.38 -19.06,-63.91 -11.16,-65.97 -67.36,-95.22 -146.79,-76.4 -258.39,-74.08 -417.29,-79.16 -26.67,-8.3 -26.88,-1.07 0,-9.05 10.29,-7.14 27.24,-11.03 38.27,-32.54 5.27,-10.28 3.2,5.21 6.02,-20.52l-31.03 8.84 -25.85 -17.22c-12.83,35.26 5.5,13.57 -24.9,32.25 -20.7,24.23 -35.69,27.63 -66.17,40.07 -73.99,30.2 0.36,49.11 -160.77,140.69 -99.28,56.43 -32.76,48.24 -143.02,166.97 -28.53,30.73 -16.06,24.18 -53.24,40.84 -0.74,73.82 -28.11,161.12 -88.44,179.55 -24.94,-13.47 -50.58,-43.22 -56.8,-87.87 -4.26,-30.55 -0.13,-87.35 27.43,-103.58 17.93,-38.94 3.71,-10.24 39.13,-37.95 -8.91,-79.38 16.07,-147.73 86.54,-187.56 39.71,-22.45 37.97,-5.91 67.21,-13.05 31.42,-116.96 49.36,-130.44 153.63,-172.99 38.6,-15.75 34.15,-58.28 93.89,-73.89 54.14,-14.15 90.97,2.93 129.26,17.54 3.31,-29.41 0.41,-22.94 26.57,-29.91l-17.71 -25.45 -118.8 -15.22 -4.79 -33.06c-19.16,-127.55 -77.55,-152.8 -160.67,-200.43 -47.51,0 -134.6,-18.97 -185.17,-4.98 56.41,0.17 81.32,-4.6 129.68,16.18 102,43.82 170.15,99.87 172.7,236.42 -23.7,22.67 -23.75,14.3 -49.95,39.57 -32.57,31.41 -8.19,17.64 -69.38,28.54 -5.74,-25.51 -40.58,-96 -54.89,-116.36 -100.33,-142.77 -258.79,-115.91 -367.3,-107.31z"/>
   <path class="fil0" d="M2196.86 686.36c22.48,13.81 37.26,20.17 58.54,35.33 25.56,18.21 27.73,31.86 52.61,40.19 59.63,28.64 132,153.93 170.6,206.46l44.58 81.63c-90.69,-77.26 -78.31,-39.25 -148.33,-33.51 -29.89,2.45 -51.74,-14.02 -78.2,-11.07 -32.79,3.65 -27.07,18.52 -59.22,34.23 -42,-28.88 1.97,-48.54 -48.33,-29.33 49.16,54.45 146.93,251.22 178.69,337.85 18.75,-16.1 17.84,23.7 15.39,-26.71 2.09,30.35 8.27,33.04 32.79,13.95 54.49,-42.44 -26.63,-10.5 53.99,-36.45 21.24,-6.83 10.88,-3.05 30.88,-13.59 81.09,-42.72 45.67,-12.17 69.4,-62.55 3.34,7.18 8.97,21.11 16.37,34.58 18.56,33.77 4.07,28.15 15.93,16.51 -2.46,-46.33 -43.54,-124.2 -59.72,-177.67 30.3,31.19 129.88,216.85 142.46,279.21 38.78,36 73.5,89.19 99.98,136.86 7.89,14.19 1.6,3.93 9.1,13.39 5.97,7.53 19.75,8.94 25.39,85.11 8.34,-13.93 11.39,2.1 9.19,-26.53 -3.65,-61.12 -33.18,-151.57 -51,-209.32 -14.12,-45.75 -65.39,-157.92 -68.98,-194.9l-24.28 -59.19c-12.3,-15.3 -43.11,-81.85 -61.18,-111.79 -14.24,-23.6 -18.57,-35.46 -32.02,-56.24 -11.86,-18.32 -22.75,-26.67 -32.97,-44.41l-25.32 -45 -7.7 -11.78c-49.2,-72.36 -69.99,-78.21 -134.78,-130.83 -38.3,-31.11 -131.43,-74.2 -188.34,-83.67l-20.84 6.93c37.82,8.97 21.4,-1 36.79,20.51 -9.13,21.04 -4.61,11.78 -21.48,21.81z"/>
   <path class="fil0" d="M2676.28 2441.55c3.77,124.34 -48.3,221.33 -24.47,370.05 16.08,77.66 79.97,187.44 130.82,241.54 38.6,41.06 37.8,55.09 74.55,84.34 27.31,21.74 31.98,18.55 34.17,38.26 -3.28,-38 -47.98,-36.26 -87.61,-118.53l52.63 10.54 8.84 -33.17c0.61,-1.39 2.41,-4.51 2.96,-5.66 0.58,-1.21 1.87,-4.13 3.26,-5.9 121.32,56.07 127.34,30.21 248,48.88 0.8,-1.58 1.06,-6.47 1.11,-5.18l1.24 -8.76c-0.07,-20.57 -15.51,-5.22 -2.35,-7.17 10.61,19.43 19.78,25.69 36.82,35.34l49.98 30.1 -122.66 -116.43c-10.22,-8.34 -4.38,-4.29 -13.85,-12.35l-34.41 -27.31c-23.39,-18.86 -44.13,-30.45 -57.32,-61.12l52.32 29.45c56.32,42.88 145.93,92.25 189.38,138.41 27.97,29.71 28.38,20.76 49.31,40.08 21.26,19.63 48.58,63.5 71.71,89.56l7.05 -39.89 41.92 22.14c1.18,1.14 3.2,3.5 4.27,4.59 1.52,1.54 6.42,7.71 8.96,9.21l0 -16.43c-0.38,-15.23 1.87,-7.94 -9.63,-25.58 -8.45,-12.96 -14.36,-18.89 -25.84,-25.98l-12.32 -7.73 -74.26 -75.12c-81.68,-56.31 -34.96,-50.22 -175.65,-126.23 -40.94,-22.11 -68.87,-41.07 -102.08,-61.28l-64.38 -63.59c-94.29,-84.13 -210.89,-283.02 -192.36,-378.69l-70.09 29.6z"/>
   <path class="fil5" d="M2630.58 2886.19c3.35,50.69 74.07,152.62 102.6,197.34 43.07,67.51 75.32,75.67 71.01,90.66l58.81 54.14c58.57,45.59 118.87,134.01 151.06,203.07 77.16,165.58 93.32,297.34 123.08,358.41 21.79,-7.14 9.08,-0.39 26.57,-10.54 43.53,-15.83 185.81,-134.61 192.23,-205.15 19.59,-79.65 46.53,-130.57 15.44,-224.83 -29.44,-89.28 -14.75,-61.62 -3.89,-70.64 -9.94,-25.34 -23.44,-49.11 -21.61,-57.62l-5.17 -24.48c-23.13,-26.06 -50.44,-69.93 -71.71,-89.56 -20.93,-19.32 -21.34,-10.36 -49.31,-40.08 -43.45,-46.16 -133.06,-95.53 -189.38,-138.41l-52.32 -29.45c13.19,30.68 33.93,42.26 57.32,61.12l34.41 27.31c9.46,8.05 3.63,4 13.85,12.35l122.66 116.43c32.61,78 90.01,131.42 74.85,245.72 -9.16,69.07 -63.79,170.07 -97.29,204.3 -4.57,-251.15 -176.37,-309.81 -292.43,-390.51 -2.18,-19.71 -6.86,-16.53 -34.17,-38.26 -36.75,-29.25 -35.95,-43.28 -74.55,-84.34 -50.85,-54.1 -114.73,-163.88 -130.82,-241.54 -12.78,25.18 8.88,33.66 -21.22,74.58z"/>
   <path class="fil0" d="M659.23 2770.08c-4.89,43.39 14.18,18.35 -53.14,54.38l-61.77 44.59c-57.15,37.3 -53.58,44.09 -123.87,73.65 -24.59,13.5 -35.68,25.17 -59.94,42.87l-53.02 36.11c-39.53,29.29 -5.23,23.21 -43.49,53.39 -22.81,18 -34.67,22.86 -49.73,38.84 -8.05,5.57 -11.75,5.13 -19.48,16.54 -22.97,33.9 -8.51,5.78 -7.14,27.99 -20.93,47.18 -7.96,9.5 5.46,24.75 6.45,-9.48 -10.81,-16.82 22.53,-1.1 23.21,10.94 14.7,8.41 24.24,24.53l112.34 -131.51c61.18,-48.84 45.33,-48.63 145.55,-111.7l37.53 -24.57c48.76,-42.04 40.71,-16.89 64.51,-43.87 -104.45,126.07 -57.18,53.45 -113.63,110.42 -4.58,4.62 0.83,0.99 -13.23,12.96 -55.77,47.51 -18.89,11.86 -62.11,66.94l11.33 1.55c17.75,-4.52 14.63,0.1 22.38,-20.84 42.69,-5.42 67.61,3.26 104,1.24 149.5,-8.32 221.41,-61.26 241.49,-67.04 2.34,-0.67 14.38,-2.39 16.32,-2.16 1,0.12 3.55,0.85 4.45,1.1l11.3 7.76c25.07,-31.2 18.08,-41.94 47.7,-70.11 23.75,-93 48.74,-103.88 49.03,-220.29 0.31,-123.25 -1.32,-92.56 -17.5,-192.76 -6.36,-39.41 -9.27,-20.77 4.76,-46.57l-102.54 -49.25c-2.33,9.92 1.34,57.89 -9.28,98.32 -12.68,48.31 -53.83,137.82 -81.13,175.59l-53.93 68.24z"/>
   <path class="fil5" d="M869.82 2936.79c-29.62,28.17 -22.63,38.91 -47.7,70.11l-141.09 166.62c-1.44,1.2 -3.56,2.74 -5.05,3.9l-212.34 176.65c-50.58,69.61 -63.24,149.59 -89.94,222.65 -49.76,-56.4 -92.05,-175.59 -82.84,-263.79 4.28,-40.97 62.22,-170.56 92.45,-206.76l27.53 -20.86c43.21,-55.08 6.33,-19.43 62.11,-66.94 14.06,-11.98 8.65,-8.34 13.23,-12.96 56.45,-56.97 9.19,15.65 113.63,-110.42 -23.8,26.97 -15.75,1.83 -64.51,43.87l-37.53 24.57c-100.22,63.07 -84.36,62.86 -145.55,111.7l-112.34 131.51c-11.4,35.53 -23.08,35.67 -30.13,76.09 4.68,35.14 -15.76,79.1 -17.48,123.32 -2.14,55.04 5.66,84.97 11.07,132.7 12.19,105.72 156.23,208.39 232.36,258.38 28.39,3.28 10.74,0.71 20.44,-33.95 3.82,-13.64 7.92,-34.17 12.01,-50.45 115.69,-460.24 267.17,-484.08 299.21,-538.35l22.19 -34.06c97.23,-84.81 117.55,-228.33 167.47,-294.71 -42.63,17.08 -5.69,-2.12 -29.72,24.61 -1.25,1.38 -2.69,3.57 -3.93,4.96l-31.25 32.91c-8.7,11.87 -3.16,6.53 -9.71,16.6 -6.86,10.54 -1.33,26.85 -12.57,12.1z"/>
   <path class="fil6" d="M973.99 3254.06l-83.74 48.53c-61.17,37.59 -108.61,47.89 -50.33,98.2l76.5 65.16c47.49,36.58 78.03,44.36 125.46,78.2l160.16 113.67c31.03,23.32 49.01,27.1 73.91,58.98 28.04,35.89 77.76,125.82 85.75,177.51l16.89 69.55c-3.59,66.75 7.75,124.89 16.62,190.74l65.34 8.6c-36.12,-180.93 -63.64,-326.28 -115.05,-497.91 -39.46,-131.73 -115.8,-341.27 -128.98,-480.26 -31.58,31.54 -11.28,44.97 -10.21,85.88l-3.41 -12.62c-19.32,-46.21 -9.34,-31.12 -47.96,-36.49 -28.46,81.92 -12.25,134.8 -0.58,231.73l-180.38 -199.46z"/>
   <path class="fil0" d="M2887.57 2648.35c60.48,43.94 -7.57,39.57 69.86,79.96 76.14,39.72 29.23,23 117.52,30.28 159.91,13.2 168.17,81.83 212.16,85.46l-17.51 -72.12c-9.11,-55.44 -56.07,-150.42 -95.13,-199.35 -1.15,-1.44 -2.71,-3.55 -3.85,-5.02l-26.87 -35.59c-1.11,-1.46 -2.7,-3.52 -3.8,-4.98l-50.89 -72.72c-43.1,-68.11 -161.37,-223.08 -178,-297.89 -17.65,32.64 -19.72,89.48 -24.34,134.29 -16.75,162.44 -133.24,75.24 0.85,357.68z"/>
   <path class="fil6" d="M2349.56 3255.78c-13.5,92.25 -59.16,223.78 -87.19,312.02 -15.5,48.79 -32.63,97.65 -47.54,146.88 -9.81,32.4 -31.28,127.68 -43.23,151.31 7.9,12.03 15.74,3.86 8.38,53.91 11.23,-9.23 31.4,-25.36 31.01,-40.11 28.27,-14.15 22.25,-20.62 44.08,-48.25 -31.68,9.3 -33.32,27.57 -35.66,23.31 -0.89,-1.62 -3.09,3.62 -4.88,5.17 15.82,-88.81 108.05,-145.18 141.65,-189.75 20.79,-27.58 -5.76,-6.38 31.26,-31.3 27.07,-18.22 9.29,-2.9 34.95,-26.48l194.94 -123.58c39.34,-20.99 8.3,-1.63 39.88,-30.93 56.37,-52.29 34.46,13.55 93.86,-96.13l-11.95 -8.11c-1.69,-1.03 -4.12,-2.64 -6.01,-3.71l-68.43 -29.69c-27.2,-12.38 -53.01,-27.22 -75.57,-37.63l-25.42 19.12c-27.42,24.16 -131.52,129.63 -139.42,151.98 7.44,-51.76 61.98,-79.83 68.4,-189.23l-20.65 -9.25c-58.65,-27.65 -23.56,-51.78 -61.18,-73.52 -31.87,13.55 -8.68,-14.29 -24.3,32.6l-28.88 115.06c6.25,-40.6 8.94,14.29 7.25,-29.31 -1.15,-29.68 -8.89,-25.85 -10.18,-35.17 -0.79,-5.7 -2.82,-6.57 -5.16,-9.2z"/>
   <path class="fil7" d="M3190.27 2459.81zm-208.67 -466.32l208.67 466.32zm-208.67 -466.32c-15.8,14.27 -50.96,78.41 -63.24,97.72 -28.88,45.41 -60.98,49.46 -82.62,76.96 -36.54,46.44 20.06,111 -89.37,243.76 -18.53,95.67 98.08,294.56 192.36,378.69l64.38 63.59 1.7 -12.33c-62.44,-50.3 -149.93,-127.03 -148.84,-221.14 25.46,28.06 18.28,31.9 31.61,27.6 -134.09,-282.44 -17.6,-195.24 -0.85,-357.68 4.62,-44.81 6.69,-101.66 24.34,-134.29 16.64,74.81 134.9,229.79 178,297.89l50.89 72.72c1.1,1.46 2.69,3.52 3.8,4.98l26.87 35.59c1.14,1.47 2.69,3.58 3.85,5.02 39.06,48.94 86.01,143.91 95.13,199.35l8.39 -21.67c0.45,-2.56 1.07,-5.11 1.38,-8.01 3.57,-33.28 -10.16,-61.54 -18.48,-89.31 49.4,102.72 92.08,196.32 102.37,319.47 4.5,53.85 -10.08,94.06 -8.17,144.44l12.32 7.73c2.74,-131.3 37.66,-188.74 -34.05,-365.47 -23.04,-56.78 -36.17,-102.57 -67.11,-154.08 -17.04,-28.36 -69.9,-119.17 -75.98,-145.23 14.88,9.01 3.29,1.79 26.53,8.84 -13.13,-40.99 -50.11,-82.35 -70.36,-113.08 -114.9,-174.41 -58.47,-185.14 -150.98,-381.05 -14.38,17.25 0.25,22.88 -13.86,18.98z"/>
   <path class="fil0" d="M1047.99 851.41l-25.51 46.37c-6.99,18.48 -19.5,30.32 -33.5,52.89 -12.57,20.25 -20.39,34.28 -29.25,50.76 -19.68,36.59 -37.29,84.38 -63.82,106.96l-17.33 54.04c-6.74,27.87 -23.62,50.81 -34.84,84.99 -10.88,33.15 -21.37,60.47 -32.91,91.4 -23.79,63.82 -45.72,148.15 -71.99,192.36 -34.51,124.81 -72.93,214.05 -87.09,358.94 -8.96,91.64 9.48,326.57 69.66,375.17 0.26,-1.03 -29.58,-75.07 -34.39,-92.68 -11.82,-43.26 -17.23,-79.84 -21.93,-127.92 -16.52,-168.64 16,-123.38 72.12,-237.51 47.36,-96.32 63.28,-126.61 80.35,-231.36 8.14,-49.97 55.03,-189.71 90.11,-219.55 1.1,-28.87 80.79,-189.6 98.78,-230.73 24.37,-38.94 38.18,-74.12 63.99,-110.61 30.67,-43.34 39.35,-76.37 63.64,-112.55l33.96 -37.3c1.52,-2.15 5.11,-9.12 6.53,-11.34 11.17,-17.36 -0.99,-2.52 10.41,-15.89 60.36,-70.82 33.32,12.49 42.59,-93.1 3.21,-36.61 8.78,-18.94 8.42,-45.22l-3.76 -12.31c-18.77,16.14 -36.57,24.71 -54.06,37.9 -18.49,13.95 -31.25,26.76 -47.35,40.71 -29.73,25.76 -54.59,66.3 -82.83,85.56z"/>
   <path class="fil8" d="M2653.43 3590.66c-31.71,17.79 -13.45,11.04 -5.02,99.65 3.72,39.13 7.15,74.77 11.77,113.65l14.38 168.78c0.17,1.7 3.24,26.08 3.27,26.18 9.01,27.78 -8.62,13.29 16.44,21.65 18.41,-5.26 143.55,-56.88 152.37,-75.02 24.43,-25.41 22.31,-21.4 60.71,-38.84l-44.91 3.6c39.91,-22.25 70.72,-96.9 97.64,-150.64 42.77,-85.4 -26.96,-222.15 -101.11,-228.45 -47.79,-4.07 -85.07,39.12 -154.98,77.87 -24.55,13.6 -50.34,29.45 -36.33,67.75l-14.22 -86.18z"/>
   <path class="fil2" d="M906.11 2477.18c-14.02,25.8 -11.12,7.17 -4.76,46.57 16.19,100.19 17.81,69.5 17.5,192.76 -0.29,116.41 -25.28,127.29 -49.03,220.29 11.24,14.75 5.71,-1.56 12.57,-12.1 6.55,-10.08 1.01,-4.74 9.71,-16.6l31.25 -32.91c1.24,-1.39 2.69,-3.58 3.93,-4.96 24.04,-26.72 -12.91,-7.52 29.72,-24.61l89.49 -203.24c18.18,130.93 30.93,169.37 -3.64,302.82 60.58,-13.43 73.81,-63.02 84.68,-140.73 39.23,-280.68 -63.35,-381.88 -90.24,-559.26 -90.97,16.23 -84.22,16.15 -180.82,-39.8 24.79,175.3 50.5,223.43 151.12,276.75 1.72,0.91 4.72,2.77 6.12,3.54 1.41,0.78 4.23,2.23 6.09,3.72 -53.64,0.45 -58.69,5.57 -113.69,-12.24z"/>
   <path class="fil7" d="M1544.11 2866.95c11.34,22.27 12.72,44.89 7.63,67.38 336.78,106.64 297.75,5.09 478.17,-33.25l-12.88 -220.09 -31.37 10.93c-78.12,29.91 -129.09,57.89 -229.59,49.4 -118.56,-10.02 -162.99,-63.62 -199.75,-75.46l-12.21 201.09z"/>
   <path class="fil8" d="M601.65 3883.64c4.56,8.51 -5.13,4.26 18.29,19.19l258.61 114.74c34.04,0.52 12.31,2.53 20.45,-26.8l14.36 -142.65c5.59,-52.76 11.87,-143.47 25.99,-190.87l-28.8 -14.64c-10.33,-4.61 -20.78,-8.34 -26.7,-11.15 -21.52,-10.17 -37.17,-21.78 -56.4,-33.18 -112.14,-66.47 -78.22,-65.64 -156.24,-63.63 -18.42,52.82 -54.05,113.18 -56.1,181.18 -1.67,55.46 25.1,147.25 51.7,177.48 -5.19,-1.77 -40.73,-15.06 -43.04,-15.51 -21.89,-4.23 -18.02,-24.86 -22.12,5.82z"/>
   <path class="fil6" d="M410.83 3085.3l-27.53 20.86c-30.23,36.2 -88.17,165.79 -92.45,206.76 -9.21,88.2 33.08,207.39 82.84,263.79 26.7,-73.06 39.36,-153.04 89.94,-222.65l212.34 -176.65c1.49,-1.15 3.61,-2.7 5.05,-3.9l141.09 -166.62 -11.3 -7.76c-0.89,-0.26 -3.45,-0.98 -4.45,-1.1 -1.94,-0.23 -13.98,1.49 -16.32,2.16 -20.08,5.79 -91.99,58.73 -241.49,67.04 -36.39,2.02 -61.31,-6.65 -104,-1.24 -7.75,20.94 -4.63,16.32 -22.38,20.84l-11.33 -1.55z"/>
   <path class="fil6" d="M2806.1 301.97c17.65,-7.69 19.58,10.96 56.66,-7.41 18.61,-9.22 44.71,-29.24 65.69,-36.16 54.99,-18.13 102.45,10.48 121.74,52.41l-21.74 23.24c-9.73,7.01 -17.4,10.2 -29.44,14.01 -59.7,18.92 -163.03,2.64 -192.91,-46.1zm-115.61 50.59c14.96,-13.62 22.4,-12.31 38.44,10.39 69.73,98.67 38.32,87.01 104.12,118.94 66.41,32.22 77.86,124.9 231.57,48.09 48.01,-23.99 68.79,-69.67 88.54,-124.77l-75.57 -132.38c-30.64,-60.04 -85.85,-74.93 -144.17,-80.86 -9.5,-23.64 20.45,25.46 2.28,-8.85 -5.07,-9.58 -22.42,-8.65 -46.75,-4.95 -30.66,4.66 -57.36,12.44 -87.17,17.63 38.32,-26.46 63.84,-20.41 87.31,-52.09 -115.92,25.56 -199.02,79.03 -218.16,193.63 13.94,19.67 7.37,7.38 19.56,15.21z"/>
   <path class="fil0" d="M307.27 2757.79l-13.36 74.44c10.22,-5.05 23.94,-9.81 38.39,-16.09 35.18,-15.28 5.02,-2.54 34.86,-18.4 77.16,-41 181.14,-16.05 255.59,-65.83 62,-52.71 46.9,-50.91 90.14,-135.4 -30.53,-33.78 -12.11,-43.76 -36.53,-67.07 -35.19,-33.59 42.18,27.95 -23.41,-13.84 -19.87,-12.66 -15.41,-13.24 -34.08,-42.69 -17.23,-27.19 -24.92,-46.12 -26.65,-84.13 -2.02,-44.41 13.74,-91.11 -15.42,-114.65 -15.74,48.97 -45.02,83.9 -67.19,127.02 -12.69,24.68 -16.72,32.18 -34.78,53.25 -56.51,65.94 -44.02,73.8 -73.62,112.35 -44.32,57.71 -71.16,119.16 -93.95,191.03z"/>
   <path class="fil6" d="M2891.34 3175.75c116.06,80.71 287.86,139.36 292.43,390.51 33.5,-34.23 88.13,-135.23 97.29,-204.3 15.16,-114.31 -42.24,-167.73 -74.85,-245.72l-49.98 -30.1c-17.04,-9.66 -26.21,-15.91 -36.82,-35.34 -13.15,1.95 2.28,-13.41 2.35,7.17l-1.24 8.76c-0.05,-1.28 -0.31,3.61 -1.11,5.18 -120.66,-18.67 -126.68,7.18 -248,-48.88 -1.38,1.77 -2.68,4.69 -3.26,5.9 -0.55,1.15 -2.35,4.28 -2.96,5.66l-8.84 33.17 -52.63 -10.54c39.63,82.26 84.33,80.53 87.61,118.53z"/>
   <path class="fil6" d="M566.94 252.14c115.13,16.79 49.17,-13.71 112.78,-1.16 34.07,6.72 68.07,29.02 75.03,59.84 -19.83,27.32 -1.48,9.01 -35.59,26.47 -1.93,0.99 -4.3,1.99 -6.24,2.96 -47.59,23.74 -108.21,32.26 -162.1,12.93 -29.78,-10.68 -24.32,-8.85 -33.66,-42.2l-21.32 32.53c-13.98,-9.62 -26.56,-18.27 -41.79,-28.23l-10.96 112.75c3.5,33.8 4.37,47.93 24.4,72.13 54.32,65.6 145.29,82.94 196.93,39.23l169.77 -166.64c5.5,-6.44 6.07,-7.48 12.42,-14.15 8.98,-9.44 4.29,-5.8 14.22,-13.64 8.09,10.83 8.08,2.18 7.39,23.95l35.04 -22.24c2.54,-71.02 -52.86,-145.93 -106.75,-158.39 -23.94,31.79 16.25,6.66 51.65,65.38 -17.11,-34.66 -69.26,-52.41 -108.94,-61.16 -81.64,-18 -115.04,-37.27 -156.04,0.3l-44.27 36.28 28.02 23.08z"/>
   <path class="fil6" d="M2367.81 1348.14c12.24,19.56 15.01,36.45 26.1,58.83 11.59,23.39 19.9,31.76 30.38,57.29l106 169.12c20.23,25.18 113.7,110.93 157.32,122.3l15.05 -43.19c-1.21,-46.51 -55.23,-389.1 -100.09,-438.6 -11.86,11.64 2.62,17.26 -15.93,-16.51 -7.4,-13.47 -13.03,-27.41 -16.37,-34.58 -23.74,50.37 11.69,19.82 -69.4,62.55 -20,10.53 -9.65,6.75 -30.88,13.59 -80.62,25.95 0.49,-5.99 -53.99,36.45 -24.52,19.09 -30.7,16.4 -32.79,-13.95 2.45,50.4 3.36,10.61 -15.39,26.71z"/>
   <path class="fil2" d="M2538 2962.42c-16.89,-88.57 -49.85,-232.12 -2.79,-307.8 26.75,72.39 53.02,166.47 95.37,231.56 30.1,-40.92 8.44,-49.4 21.22,-74.58 -23.83,-148.72 28.24,-245.71 24.47,-370.05 -118.1,-1.82 -106.86,-37.65 -165.23,-87.54 -49.88,91.23 -69.22,209.89 -71.56,318.05 -2.27,105.09 8.26,245.47 98.51,290.36z"/>
   <path class="fil4" d="M1985.65 2691.92l31.37 -10.93 12.88 220.09c-180.42,38.34 -141.39,139.89 -478.17,33.25 5.08,-22.49 3.71,-45.11 -7.63,-67.38l-29.45 158.92c24.55,26.88 25.65,31.9 48.9,68.22 66.97,10.23 97.91,-6.18 138.71,44.46 76.02,-65.12 146.67,1.97 158.14,8.99 54.16,-43.5 60.93,-51.97 146.39,-42.4 13.68,-36.97 25.05,-51.95 59.52,-65.27 -26.19,-129.61 -38.73,-235.71 -41.35,-372.11l-39.32 24.15z"/>
   <path class="fil8" d="M721.42 2265.3c24.91,65.94 88.38,141.71 155.54,162.91 -45.58,-94.74 -86.03,-153.13 -87.13,-295.38 -0.75,-96.56 24.85,-246.53 60.05,-334.21 0.14,-133.02 1.08,-47.9 -12.56,-128.77 -12.62,-74.83 30.78,-159.82 45.23,-215.57 8.98,-34.65 14.27,-55.19 25.12,-97.99 -35.08,29.84 -81.97,169.58 -90.11,219.55 -17.07,104.75 -32.99,135.04 -80.35,231.36 -56.12,114.13 -88.63,68.87 -72.12,237.51 4.71,48.07 10.11,84.65 21.93,127.92 4.81,17.62 34.65,91.65 34.39,92.68z"/>
   <path class="fil6" d="M983.88 1231.87c-30.58,93.61 -51.08,158.45 -75.07,249.91 -11.94,45.52 -17.97,93.42 -21.22,145.06 -4.01,63.68 -11.8,83.85 -25.88,140.58 8.08,18.82 -19.07,16.22 22.15,14.41 18.25,-38.85 178.37,-138.52 235.37,-281.06 -20.65,-71.39 42.68,-10.44 34.44,-191.65l-89.88 -13.91c-1.14,-1.71 -1.7,-4.79 -2.15,-5.77l-6.83 -13.96c-16.99,-22 -10.21,3.84 -32.36,-30.33 -35.51,-54.79 -3.23,1.33 -38.58,-13.28z"/>
   <path class="fil0" d="M19.36 2955.06l0 79c-26.8,-61.63 32.91,-160.19 50.36,-213.59 11.45,21.6 15.84,9.04 32.14,41.39 0.82,1.62 2.38,4.87 3.04,6.23 0.68,1.38 1.63,4.51 3.07,6.38 1.25,-1.66 2.79,-6.57 3.21,-5.32l8.77 -17.12c4.92,-11.49 4.74,-13.69 9.51,-25.77 7.7,-19.5 14.63,-32.96 22.64,-48.2 56.88,-108.11 170.93,-224.35 174.49,-256.31 18.64,-26.54 22.37,-45.65 40.24,-67.73 24.76,-30.61 25.74,-28.36 44.4,-62.65 23.81,-43.77 59.74,-96.71 64.65,-143.26 -14.31,-8.42 8.41,-6.79 -9.53,5.09 -28.08,18.6 15.71,-0.52 -20.46,14.04 11.46,-24.56 57.76,-117.66 51.79,-134.7 -9.89,11.45 -4.23,3.1 -14.69,20.8l-40.15 74.88c-33.7,55.69 -137.02,235.38 -184.31,267 -19.31,-82.75 -67.18,-86.27 -3.5,-268.81 15.51,-44.45 32.56,-76.38 54.87,-113.24 16.3,-26.93 56.2,-85.81 63.78,-111.55 -22.4,2.27 -17.94,-1.42 -41.14,37.58 -11.13,18.72 -18.13,28.07 -31.11,41.6 -5.28,-57.97 101.3,-136.12 63.39,-160.27l-159.43 274.01c-42.85,95.28 -57.42,233.79 3,333.06 10.68,17.55 4.34,8.76 14.71,20.68 -22.14,33.01 -40,52.97 -64.61,85.83 -13.48,17.99 -21.12,30.2 -32.91,46.73 -39.74,55.72 -133.43,203.94 -106.23,274.25z"/>
   <path class="fil8" d="M1049.54 3048.46c34.73,-1.65 16.18,5.86 32.68,-13.86 -25.6,8.6 -28.79,28.63 -23.54,56.07l3.36 10.08c3.66,24.22 -42.01,94.27 -66.29,122.55 -1.17,1.36 -3.11,3.16 -4.25,4.52l-17.52 26.25 180.38 199.46c-11.67,-96.93 -27.88,-149.81 0.58,-231.73 38.62,5.37 28.64,-9.72 47.96,36.49l3.41 12.62c-1.06,-40.9 -21.37,-54.34 10.21,-85.88l-6.48 -40.56c-61.93,-26.01 23.61,-153.6 35.79,-167.77 64.57,-75.08 116.5,-42.12 116.74,-121.86l110.01 -23.28c1.38,69.09 -10.62,131.35 -34.29,160.96 -16.73,20.93 -3.47,-16.69 -10.48,14.43l40.03 -11.85 28.6 -182.72c-128.84,24.42 -205.78,36.78 -310.85,104.59l-49.79 38.2c-34.01,28.45 -65.97,54.26 -86.29,93.31z"/>
   <path class="fil8" d="M2367.35 3139.45l-17.79 116.34c2.34,2.63 4.37,3.5 5.16,9.2 1.29,9.32 9.03,5.49 10.18,35.17 1.69,43.6 -1,-11.29 -7.25,29.31l28.88 -115.06c15.62,-46.89 -7.56,-19.05 24.3,-32.6 37.62,21.73 2.52,45.87 61.18,73.52l20.65 9.25c-6.42,109.4 -60.95,137.47 -68.4,189.23 7.91,-22.35 112,-127.82 139.42,-151.98l25.42 -19.12c-10.51,-17.06 -1.93,-10.37 -19.24,-23.45 54.75,10.15 35.72,43.02 97.86,13.92 -7.15,-26.66 -70.06,-109.01 -89.78,-141.3 8.84,13.37 29.79,41.3 47.12,43.87 30.59,4.54 5.33,13.02 24.61,-7.9 -38.53,-32.17 -43.76,-43.39 -75.45,-74.61 -28.34,-27.91 -44.03,-54.91 -69.83,-81.04 -44.8,-45.36 -102.54,-93.97 -180.42,-127.47 5.76,30.04 1.14,18.44 18.68,33.72 10.97,9.55 9.86,5.22 18.68,4.68l-8.96 43.95 -68.59 3.33 60.01 86.92c13.61,19.12 48.79,61.79 23.56,82.12z"/>
   <path class="fil0" d="M1024.62 1132.15c-12.81,50.22 -27.31,59.02 -40.75,99.73 35.35,14.61 3.07,-41.51 38.58,13.28 22.15,34.17 15.36,8.33 32.36,30.33l6.83 13.96c0.45,0.98 1.01,4.07 2.15,5.77l89.88 13.91c8.24,181.21 -55.09,120.26 -34.44,191.65 54.9,-65.76 75.6,-157.01 117.4,-231.24 25.21,-44.77 35.35,-80.5 56.94,-120.17 21.57,-39.65 44.09,-75.47 66.06,-115.15 -1.86,-1.3 -5.29,-1.69 -6.6,-1.71 -30.21,-0.66 -16.52,5.15 -38.56,28.21l-24.8 -42.96c-0.47,-2.65 -2.24,-3.29 -3.69,-4.63 -154.45,8.54 -114.63,-29.23 -168.71,3.69 -42.94,26.14 -71.54,90.19 -92.65,115.31z"/>
   <path class="fil6" d="M2375.41 308.8l-8.86 2.01c-7.5,20.7 -30.79,30.69 -22.89,57.68 10.25,35.01 4.36,10.44 14.03,17.77l54.11 38.77c19.29,11.88 36.27,22.42 61.1,24.12 -5.29,-9.23 14.08,12.77 -63.11,-30.97 -13.9,-7.87 -40.67,-19.16 -48.83,-40.66l-3.22 -31.29c2.97,-0.89 7.57,-4.23 9.27,-0.91l23.68 3.08c33.55,14.37 -7.48,10.5 28.8,20.69 46.46,13.05 -33.47,-16.38 17.14,2.56 44.77,16.75 19.53,62.1 76.88,15.53 25.95,-21.08 20.61,-21.53 56.72,-32.11 -14.5,76.46 -87.29,52.1 45.96,157.01 54.75,43.11 98.1,61.42 139.44,119.74 46.66,65.82 17.57,0.99 58.09,46.06 30.29,33.69 -17.2,6.72 37.39,59.24 33.24,31.97 69.3,143.55 82.26,192.71 -30.91,0 -32.31,-6.47 -44.28,7.94 -25.11,-19.18 -26.08,-28.9 -40.18,-66.52 -10.04,-26.79 -12.65,-44.32 -21.74,-71.13 15.85,8.96 4.73,-3.63 4.09,9.24 -4.33,73.25 30.93,152.74 93.29,167.64 44.74,-24.38 55.91,-61.49 51.4,-126.03 -4.39,-62.89 -31.07,-86.46 -64.72,-115.66 16.23,-111.62 -68.52,-199.05 -173.92,-193.35 -11.87,-162.31 -133.63,-155.39 -161.8,-184.05 -0.15,-0.15 -13.11,-18.64 -18.74,-24.98 -49.07,-55.2 -119.56,-50.85 -181.37,-24.12z"/>
   <path class="fil0" d="M2678.88 1914.32l-1.67 8.22c24.59,-20.52 31.52,-48.29 56.53,-77.01 3.81,-4.38 30.28,-30.42 36.51,-34.98 65.01,-47.66 99.36,11.9 99.57,107.9 -0.01,0 -143.78,-27.09 -165.33,47.24 18.78,30.2 25.61,28.41 43.34,53.12l-16.7 25.91c-25.47,20.34 -8.94,9.88 -43.37,14.31 -7.07,-14.05 -15.86,-28.75 -24.34,-47.33l-16.6 -36.13c-0.81,-1.34 -2.97,-3.95 -3.65,-5.01 -0.69,-1.07 -2.43,-3.38 -3.74,-5.01l-63.85 213.83c87.08,-11.47 52.4,-32.65 104.5,-54.19 15.37,-12.41 4.37,-11.41 23.43,-2.28 2.97,6.57 5.61,3.04 5.65,19.2 0.05,15.59 -2.07,14.92 -5.59,25.15l2.88 55.34c2.89,53.14 1.92,12.18 11.31,30.36l11.94 -135.06c6.81,20.49 19.15,46.95 22.34,76.72 5.1,47.68 -10.42,53.24 4.99,98.49 34.22,-60.89 12.12,-112.1 -4.4,-169.34 2.18,-1.27 5.54,-5.54 6.66,-3.6 1.3,2.25 8.06,-4.42 12.83,-6.9 124.3,-64.51 191.24,-171.12 143.28,-325.71 -49.18,-158.53 -218.97,-59.62 -236.52,126.78z"/>
   <path class="fil5" d="M1049.54 3048.46l-112.04 107.11c-91.58,82.36 -243.29,120.95 -186.27,226.67 77.53,143.74 357.45,173.05 610.47,512.07 -7.98,-51.69 -57.7,-141.62 -85.75,-177.51 -24.9,-31.87 -42.88,-35.66 -73.91,-58.98l-160.16 -113.67c-47.44,-33.84 -77.97,-41.62 -125.46,-78.2l-76.5 -65.16c-58.28,-50.31 -10.84,-60.62 50.33,-98.2l83.74 -48.53 17.52 -26.25c1.14,-1.36 3.08,-3.15 4.25,-4.52 24.28,-28.28 69.94,-98.33 66.29,-122.55l-3.36 -10.08c-5.25,-27.43 -2.06,-47.47 23.54,-56.07 -16.5,19.72 2.04,12.2 -32.68,13.86z"/>
   <path class="fil0" d="M3146.32 1884.98c12.43,57.74 117.18,200.32 153.33,271.07 91.42,178.94 53.2,211.78 23.48,339.14 -11.11,-7.71 -16.35,-10.41 -26.57,-15.93 -25.97,26.08 -3,-18.37 -5.19,16.25 -2.12,33.48 16.84,-5.8 -4.5,40.32l-8.94 -31.24c-22.51,0.21 -16.8,-5.52 -16.85,17.13 -7.4,33.21 -12.63,8.54 14.59,37.88l54.99 69.55c100.08,127.78 90.44,148.7 125.32,195.21 19.35,-11.24 19.26,19.11 13.74,-23.79l18.41 19.35 8.11 -35.13c6.25,-14.44 8.58,26.69 6.47,-15.45 6.34,-56 -132.05,-198.25 -138.44,-218 -8.2,-25.4 36.65,-87.93 45.26,-129.11 11.83,-56.62 9.26,-107.43 -5.27,-158.4 -33.83,-118.66 -164.42,-301.02 -248.81,-458.75l-9.47 -15.81c-16.08,15.99 -12.6,-7.98 -4.56,27.8 4.7,20.94 37.09,56.89 30.57,75.98 -30.05,13.74 28.07,8.56 -10.26,-5.87 -25.05,-9.43 8.27,-16.08 -15.41,-2.21z"/>
   <path class="fil0" d="M506.55 102.19c108.51,-8.59 266.97,-35.46 367.3,107.31 14.3,20.35 49.15,90.84 54.89,116.36 61.19,-10.9 36.82,2.86 69.38,-28.54 26.2,-25.27 26.25,-16.9 49.95,-39.57 -2.55,-136.55 -70.71,-192.6 -172.7,-236.42 -48.36,-20.78 -73.27,-16.01 -129.68,-16.18 -63.11,13.78 -84.62,12.16 -135.98,37.24 -39.57,19.32 -74.64,33.53 -103.17,59.8z"/>
   <path class="fil0" d="M2758.14 10.13c-64.91,34.24 -229.19,44.88 -231.73,251.16 64.51,25.47 60.81,47.62 114.72,64.32 29.68,-29.6 59.55,-275.16 407.43,-231.49 -12.94,-23.54 -0.74,-9.59 -22.61,-26.2 -21.54,-16.37 -12.29,-7.44 -35.45,-17.54 -53.49,-23.35 -178.54,-69.57 -232.37,-40.24z"/>
   <path class="fil2" d="M355.98 2504.03zm119.92 -255.96l-119.92 255.96zm119.92 -255.96c-4.91,46.56 -40.85,99.5 -64.65,143.26 -18.66,34.29 -19.64,32.04 -44.4,62.65 -17.87,22.08 -21.59,41.19 -40.24,67.73 12.99,-7.43 17.16,-9.21 29.37,-17.69l-27.23 61.25c-63.36,117.09 -147.73,331.66 -125.32,461.33 10.99,63.58 -7.06,21.89 18.56,43.41 -0.95,-94.88 -0.84,-148.81 17.85,-234.41 11.88,-54.4 55.29,-150.43 78.37,-186.56 -4.96,25.14 -19.2,85.91 -10.95,108.73 22.79,-71.87 49.63,-133.32 93.95,-191.03 29.6,-38.54 17.11,-46.41 73.62,-112.35 18.06,-21.07 22.09,-28.57 34.78,-53.25 22.17,-43.11 51.46,-78.04 67.19,-127.02 7.39,-25.03 64.86,-133.5 14.01,-210.77l-14.51 -15.45c-0.57,-1 -1.98,-3.31 -2.39,-4.37 -0.42,-1.07 -1.16,-3.74 -1.4,-4.86 -1.24,-5.74 2.95,-22.71 3.53,-25.95 -9.44,36.45 -60.6,201.93 -100.16,235.34z"/>
   <path class="fil8" d="M2415.68 3742.24c2.15,1.81 5.85,2.86 7.7,3.44 43.16,13.53 26.91,4.89 31.62,-3.57l-6.07 59.2c-0.71,0.54 -2.83,2.12 -3.62,2.77 -0.26,0.21 -15.54,14.61 -17.18,16.25 -99.25,99.34 -193.72,169.34 -220.96,328.57 50.23,-15.32 71.08,-13.2 115.1,-26.44 37.5,14.46 59.28,1.5 89.69,-7.74 24.44,-7.43 56.26,-11.83 77.87,-27.68 25.82,-63.84 -14.63,-284.18 -14.1,-373.68 -20.49,-1.95 -6.39,-4.14 -29.93,9.79 -9.9,5.86 -17.92,12.16 -30.12,19.08z"/>
   <path class="fil8" d="M1083.56 4087.04c31.2,23.96 178.97,52.8 211.27,53.7l93.26 10.84c-6.37,-14.85 -9.71,-24.25 -17.13,-36.06 -14.56,-23.19 -5.47,-0.86 -17.62,-24.38 -17.86,-34.57 -20.07,-103.33 -95.01,-162.21 -87.62,-68.85 -23.47,-5.12 -88.25,-88.82 -21.79,-28.15 -67.96,-58.65 -73.62,-89.26 -0.94,-5.07 -2.78,-6.09 -4.86,-8.66l-8.04 344.86z"/>
   <path class="fil8" d="M636.61 782.1c-27.56,16.23 -31.69,73.03 -27.43,103.58 6.22,44.64 31.85,74.39 56.8,87.87 60.33,-18.43 87.7,-105.73 88.44,-179.55 37.18,-16.66 24.71,-10.11 53.24,-40.84 110.26,-118.73 43.74,-110.54 143.02,-166.97 161.13,-91.58 86.78,-110.49 160.77,-140.69 30.48,-12.44 45.47,-15.84 66.17,-40.07l19.75 -50.36c-31.61,8.25 -37.94,14.7 -56.33,33.64 -52.84,54.43 -51.17,7.62 -129.58,-24.8 4.68,48.07 3.26,43.64 35.43,61.86 -48.75,83.35 -83,71.14 -154.53,137.72 -31.52,29.34 -23.33,22 -52.36,32.34 -2.34,0.83 -4.9,1.12 -7.23,2.05 -30.1,12 -4.23,-17.15 -49.39,52.49 -89.63,138.2 -42.22,83.62 -113.17,112.87 -21.74,8.96 -6.6,3.28 -20.16,10.65l-13.43 8.19z"/>
   <path class="fil6" d="M636.61 782.1l13.43 -8.19c13.56,-7.37 -1.58,-1.69 20.16,-10.65 70.95,-29.25 23.54,25.33 113.17,-112.87 45.17,-69.65 19.3,-40.49 49.39,-52.49 2.34,-0.93 4.9,-1.22 7.23,-2.05 29.03,-10.34 20.84,-2.99 52.36,-32.34 71.53,-66.59 105.78,-54.38 154.53,-137.72 -32.17,-18.23 -30.75,-13.79 -35.43,-61.86 78.42,32.42 76.74,79.23 129.58,24.8 18.39,-18.94 24.72,-25.39 56.33,-33.64l-19.75 50.36c30.4,-18.68 12.08,3.01 24.9,-32.25l25.85 17.22c-6.68,-30.81 20.27,-17.47 -17.44,-70.05 -1.08,-1.5 -3.48,-3.87 -4.67,-6.16 -38.3,-14.62 -75.12,-31.7 -129.26,-17.54 -59.74,15.62 -55.29,58.14 -93.89,73.89 -104.26,42.55 -122.21,56.03 -153.63,172.99 -29.24,7.14 -27.5,-9.4 -67.21,13.05 -70.47,39.83 -95.44,108.18 -86.54,187.56 -35.42,27.71 -21.2,-1 -39.13,37.95z"/>
   <path class="fil5" d="M2589.11 3282.71c22.56,10.41 48.37,25.26 75.57,37.63l68.43 29.69c1.89,1.08 4.32,2.69 6.01,3.71l11.95 8.11c-59.4,109.68 -37.49,43.84 -93.86,96.13 -31.58,29.3 -0.54,9.94 -39.88,30.93l-194.94 123.58c-25.66,23.58 -7.89,8.26 -34.95,26.48 -37.02,24.92 -10.47,3.72 -31.26,31.3 -33.6,44.56 -125.83,100.94 -141.65,189.75 1.79,-1.56 3.99,-6.79 4.88,-5.17 2.34,4.25 3.98,-14.01 35.66,-23.31 5.13,-3.65 2.61,-0.29 12.31,-11.71 73.46,-86.5 51.53,-65.03 154.8,-145.82 76.61,-59.92 205.7,-131.11 291.05,-186.6 42.02,-27.32 41.4,-30.45 73.25,-60.24 146.49,-137.01 -44.38,-178.39 -136.8,-259.31 -19.28,20.92 5.98,12.45 -24.61,7.9 -17.33,-2.58 -38.28,-30.51 -47.12,-43.87 19.72,32.29 82.63,114.64 89.78,141.3 -62.14,29.1 -43.11,-3.77 -97.86,-13.92 17.31,13.07 8.74,6.38 19.24,23.45z"/>
   <path class="fil2" d="M736.84 961c-5.86,14.28 7.61,14.62 -8.86,12.34l-43 18.43c29.5,-6.72 22.46,-0.37 43,-8.84 0,56.08 -11.78,76.36 -19.33,131.04 -5.13,37.18 -15.01,92.34 -16.45,134.04 -1.94,56.27 5.36,90.1 9.97,140.97 4.52,49.99 15.99,82.64 25.81,124.44 15.92,0 9.38,-2.99 10.88,17.77 26.26,-44.2 48.19,-128.54 71.99,-192.36 11.54,-30.94 22.02,-58.25 32.91,-91.4 11.22,-34.18 28.1,-57.12 34.84,-84.99 -78.26,-60.48 -92.82,-106.23 -119.65,-204.46l-22.1 3.02z"/>
   <path class="fil2" d="M2708.99 1180.03c3.59,36.97 54.86,149.15 68.98,194.9 17.83,57.75 47.35,148.2 51,209.32 9.95,10.31 13.06,31.54 33.59,53.06 -1.25,-78.23 -36.34,-82.32 -16.43,-157.23 13.4,-50.39 17.59,-105.35 23.99,-162.39 9.98,-88.85 -15.92,-271.48 -30.22,-334.77l-22.89 -22.98c-26.8,139.13 -94.13,138.38 -108.03,220.08z"/>
   <path class="fil5" d="M2367.35 3139.45c25.23,-20.33 -9.96,-63.01 -23.56,-82.12l-60.01 -86.92 68.59 -3.33 8.96 -43.95c-8.82,0.54 -7.71,4.87 -18.68,-4.68 -17.54,-15.27 -12.92,-3.68 -18.68,-33.72 -36.44,-33.74 -173.46,-63.72 -235.33,-68.86l23.86 178.66c74.16,19.84 75,31.62 108.75,87.4 19.18,31.69 19.61,21.75 64.38,33.41 29.06,7.57 55.49,14.98 81.72,24.1z"/>
   <path class="fil4" d="M497.69 2132.5c5.97,17.04 -40.33,110.14 -51.79,134.7 36.17,-14.56 -7.62,4.56 20.46,-14.04 17.94,-11.89 -4.78,-13.51 9.53,-5.09 39.56,-33.41 90.72,-198.89 100.16,-235.34 -0.58,3.25 -4.77,20.21 -3.53,25.95 0.24,1.12 0.98,3.79 1.4,4.86 0.41,1.06 1.82,3.37 2.39,4.37l14.51 15.45c50.85,77.28 -6.62,185.74 -14.01,210.77 29.16,23.54 13.4,70.24 15.42,114.65 1.73,38.01 9.41,56.94 26.65,84.13 18.67,29.46 14.21,30.03 34.08,42.69 65.58,41.8 -11.78,-19.75 23.41,13.84 24.41,23.31 5.99,33.28 36.53,67.07 43.28,-58 25.44,-170.48 -5.56,-237.31 -0.82,-1.76 -1.96,-4.05 -2.88,-5.75l-29.45 -49.54c6.57,11.15 6.91,4.99 15.69,0.43 -7.43,-37.89 -19.69,-46.84 -35.34,-81.84 -11.01,-24.64 -23.35,-63.25 -29.99,-93.9 -18.94,-87.41 -17.67,-146 -11.81,-234.78l-62.73 114.97c-20.29,40.39 -41.68,74.81 -53.15,123.71z"/>
   <path class="fil5" d="M2653.43 3590.66l14.22 86.18c-14.01,-38.3 11.79,-54.14 36.33,-67.75 69.9,-38.75 107.18,-81.94 154.98,-77.87 74.15,6.31 143.88,143.06 101.11,228.45 -26.92,53.74 -57.73,128.38 -97.64,150.64l44.91 -3.6c-38.4,17.43 -36.27,13.43 -60.71,38.84 48.99,-3.05 80.26,-27.73 119.25,-47.16 44.04,-21.96 64.44,-31.37 102.97,-58.96 25.1,-61.53 -96.22,-354.95 -215.16,-397.66 -36.18,27.37 -38.74,39 -96.78,79.8 -33.12,23.29 -70.33,45.03 -103.49,69.1z"/>
   <path class="fil5" d="M523.22 3848.26c23.13,18.49 43.72,29.41 78.42,35.37 4.11,-30.68 0.24,-10.05 22.12,-5.82 2.31,0.45 37.85,13.74 43.04,15.51 -26.59,-30.23 -53.37,-122.02 -51.7,-177.48 2.05,-68.01 37.69,-128.37 56.1,-181.18 78.02,-2.01 44.1,-2.84 156.24,63.63 19.23,11.4 34.89,23.01 56.4,33.18 5.93,2.8 16.37,6.54 26.7,11.15l28.8 14.64 3.34 -56.55c-16.06,-11.93 -36.1,-23.53 -55.06,-35.98 -23.83,-15.65 -37.93,-26.74 -57.91,-39.39 -50.58,-32.01 -76.23,-52.49 -110.61,-86.78 -108.45,56.63 -249.48,345.69 -195.9,409.7z"/>
   <path class="fil8" d="M439.4 172.76c-34.58,32.9 -50.78,43.08 -71.16,106.38 -16.81,52.25 -15.4,109.1 -0.48,161.4 28.94,101.41 83.94,170.89 160.97,206.2 -18.6,-35.89 -18.86,-29.91 -52.04,-50.56 -55.73,-34.69 -93.93,-141.9 -94.19,-205.68l15.22 37.48c1.12,1.47 2.95,3.44 4.11,4.9l23.4 28.92 17.85 -33.77 10.96 -112.75c15.22,9.95 27.81,18.61 41.79,28.23l21.32 -32.53c2.47,-40.69 19.81,-47.67 49.78,-58.83l-28.02 -23.08 44.27 -36.28c41,-37.57 74.4,-18.3 156.04,-0.3 39.68,8.75 91.83,26.5 108.94,61.16 -35.4,-58.72 -75.6,-33.59 -51.65,-65.38 -70.41,-71.07 -267.14,-73.36 -357.12,-15.51z"/>
   <path class="fil5" d="M329.41 704.93c52.66,54.89 110.16,147.44 230.29,135.03 11.89,-19.91 11.8,-43.03 21.46,-65.56 10.79,-25.16 20.81,-36.08 29.04,-52.84 -103.17,-16.24 -171.21,-60.94 -212.39,-116.64 -73.09,-98.86 -69.24,-119.75 -75.09,-258.74 -41.17,48.08 -41.47,280.73 6.7,358.74z"/>
   <path class="fil8" d="M2472.91 449.16c32.69,31.71 54.39,70.22 84.57,95.67 32.82,27.67 71.09,42.32 109.47,67.62 50.09,33.02 22.71,61.14 139.52,170.97l13.22 13.31c10.1,10.5 2.67,3.66 11.59,12.63 0.63,-12.87 11.76,-0.27 -4.09,-9.24 9.09,26.82 11.69,44.35 21.74,71.13 14.1,37.61 15.07,47.33 40.18,66.52 11.98,-14.42 13.38,-7.94 44.28,-7.94 -12.97,-49.15 -49.03,-160.74 -82.26,-192.71 -54.6,-52.51 -7.1,-25.55 -37.39,-59.24 -40.52,-45.06 -11.43,19.77 -58.09,-46.06 -41.34,-58.32 -84.68,-76.63 -139.44,-119.74 -133.25,-104.91 -60.46,-80.55 -45.96,-157.01 -36.1,10.58 -30.76,11.04 -56.72,32.11 -57.35,46.57 -32.11,1.23 -76.88,-15.53 -50.61,-18.94 29.32,10.48 -17.14,-2.56 -36.28,-10.19 4.75,-6.32 -28.8,-20.69l-23.68 -3.08c-1.7,-3.32 -6.29,0.03 -9.27,0.91l3.22 31.29c8.16,21.5 34.94,32.79 48.83,40.66 77.2,43.74 57.83,21.74 63.11,30.97z"/>
   <path class="fil6" d="M622.76 2731.92c-74.45,49.78 -178.43,24.83 -255.59,65.83 -29.84,15.85 0.32,3.12 -34.86,18.4 -14.45,6.28 -28.17,11.04 -38.39,16.09 -16.31,40.56 -13.02,95.12 -9.37,141.08 24.06,-9.85 6.42,2.23 18.68,-18.46 1.07,-1.81 7.96,-22.96 9.08,-25.6 64.38,0.38 26.9,18.98 77.9,12.36 37.09,-4.82 11.98,-9.08 30.24,1.09 70.29,-29.56 66.72,-36.35 123.87,-73.65l61.77 -44.59c67.33,-36.03 48.25,-10.99 53.14,-54.38 0.62,-45.09 16.39,-24.72 49.31,-88.59 -57.92,35.86 -57.49,46.73 -85.78,50.42z"/>
   <path class="fil5" d="M3252.27 703.42c39.6,-58.49 43.15,-199.43 33.4,-266.77l-25.18 -81.62c24.22,330.99 -252.66,352 -282.09,371.96 51.95,45.82 28.59,72.48 52.43,117.21 130.22,-10.65 160.45,-73.27 221.43,-140.78z"/>
   <path class="fil6" d="M3004.8 2841.89c41.33,23.16 141.69,72.7 170.06,99.28 48.47,-2.88 -35.56,-18.18 30.85,-3.99 32.11,6.86 36.57,-1.57 79.62,0.16 0.5,0.02 2.65,0.49 3.85,0.03l-2.06 -93.31c-44,-3.63 -52.25,-72.26 -212.16,-85.46 -88.29,-7.29 -41.38,9.44 -117.52,-30.28 -77.43,-40.39 -9.39,-36.02 -69.86,-79.96 -13.33,4.3 -6.15,0.46 -31.61,-27.6 -1.09,94.11 86.4,170.83 148.84,221.14z"/>
   <path class="fil5" d="M1210.05 3144.47c53.26,-32.29 121.22,-18.91 137.23,-47.69l24.22 -47.32c14.16,-18.9 31.5,-28.69 56.33,-42.52 7.01,-31.13 -6.25,6.49 10.48,-14.43 23.67,-29.61 35.67,-91.87 34.29,-160.96l-110.01 23.28c-0.24,79.75 -52.17,46.79 -116.74,121.86 -12.18,14.16 -97.72,141.76 -35.79,167.77z"/>
   <path class="fil0" d="M957.01 2845.61c-49.92,66.38 -70.24,209.9 -167.47,294.71l-22.19 34.06c71.39,-36.14 245.63,-162.4 275.5,-229.18 34.57,-133.45 21.82,-171.9 3.64,-302.82l-89.49 203.24z"/>
   <path class="fil5" d="M3153.16 405.21c-19.75,55.1 -40.53,100.78 -88.54,124.77 -153.71,76.81 -165.16,-15.87 -231.57,-48.09 -65.8,-31.93 -34.38,-20.26 -104.12,-118.94 -16.04,-22.69 -23.48,-24.01 -38.44,-10.39 14.91,32.63 38.59,43.85 60.14,78.7 72.28,116.87 49.31,27.08 158,143.13 37.99,40.57 27.96,48.1 51.35,96.91 109.17,-2.49 207.04,-78.21 230.13,-158.65 -7.65,-39.01 6.57,-50.51 10.54,-88.26 4.53,-43.14 4.55,-63.32 1.44,-106.98 -16.83,48.89 -0.78,21.85 -12.63,29.36 -18.51,11.72 -4.29,-6.56 -17.06,-0.57 -4.72,46.74 -6.01,40.69 -19.26,59.02z"/>
   <path class="fil8" d="M2889.09 143.71c-23.47,31.68 -48.99,25.63 -87.31,52.09 29.81,-5.19 56.51,-12.97 87.17,-17.63 24.33,-3.7 41.68,-4.63 46.75,4.95 18.17,34.31 -11.79,-14.79 -2.28,8.85 58.32,5.93 113.54,20.83 144.17,80.86l75.57 132.38c13.25,-18.33 14.54,-12.29 19.26,-59.02 12.76,-5.99 -1.45,12.29 17.06,0.57 11.85,-7.5 -4.19,19.53 12.63,-29.36 3.11,43.66 3.1,63.85 -1.44,106.98 -3.97,37.76 -18.19,49.26 -10.54,88.26 55.67,-87.24 31.17,-174.93 16.28,-272.58 -5.56,-31.05 4.18,-6.38 -18.98,-32.63 -18.3,-20.74 -12.04,-17.08 -32.57,-26.24 -66.87,-40.79 -176.49,-74.01 -265.76,-37.49z"/>
   <path class="fil2" d="M2558.53 908.4c10.23,17.73 21.11,26.09 32.97,44.41 13.46,20.79 17.78,32.64 32.02,56.24 18.06,29.94 48.88,96.49 61.18,111.79 2.66,-11.36 144.04,-194.38 95.16,-275.43l-59.2 -75.71c-30.43,38.24 -24.29,60.5 -66.39,84.22l-95.74 54.49z"/>
   <path class="fil4" d="M364.84 1920.5c37.91,24.15 -68.67,102.3 -63.39,160.27 12.98,-13.54 19.98,-22.88 31.11,-41.6 23.2,-39.01 18.74,-35.31 41.14,-37.58 119.67,-155.96 265.71,-607.11 265.71,-886 -26.11,19.1 -17.78,15.38 -34.89,97.82 -57.71,278.08 -99.05,439.14 -239.68,707.1z"/>
   <path class="fil7" d="M895.92 1108.39c26.53,-22.59 44.13,-70.37 63.82,-106.96 8.86,-16.47 16.68,-30.51 29.25,-50.76 14,-22.56 26.51,-34.4 33.5,-52.89 -93.44,-45.77 -81.51,-19.6 -173.22,-116.61 -29.87,45.53 -63.37,98.58 -45.69,169.95 16.55,66.85 45.17,130.48 92.34,157.27z"/>
   <path class="fil0" d="M2538 2962.42c37.1,44.69 68.01,72.74 121.37,115.72 31.38,25.28 109.06,81.77 144.82,96.05 4.31,-15 -27.94,-23.15 -71.01,-90.66 -28.53,-44.72 -99.24,-146.65 -102.6,-197.34 -42.35,-65.09 -68.62,-159.18 -95.37,-231.56 -47.06,75.68 -14.1,219.23 2.79,307.8z"/>
   <path class="fil5" d="M443.09 428.02l-17.85 33.77 -23.4 -28.92c-1.17,-1.46 -2.99,-3.42 -4.11,-4.9l-15.22 -37.48c0.26,63.78 38.46,170.99 94.19,205.68 33.17,20.65 33.43,14.66 52.04,50.56 26.6,17.57 62.79,23.83 100.4,25.26 53.17,-188.56 139.59,-131.54 180.18,-217.6 20.29,-43.03 31.94,-51.93 58.92,-85.5 0.69,-21.76 0.7,-13.12 -7.39,-23.95 -9.93,7.85 -5.23,4.2 -14.22,13.64 -6.35,6.67 -6.92,7.72 -12.42,14.15l-169.77 166.64c-51.63,43.71 -142.6,26.38 -196.93,-39.23 -20.03,-24.2 -20.9,-38.33 -24.4,-72.13z"/>
   <path class="fil7" d="M3146.32 1884.98c23.68,-13.87 -9.64,-7.22 15.41,2.21 38.33,14.43 -19.79,19.62 10.26,5.87 6.52,-19.09 -25.86,-55.04 -30.57,-75.98 -8.03,-35.78 -11.52,-11.81 4.56,-27.8 -6.41,-29.8 -17.74,-45.89 -30.45,-77.3l-84.76 -251.42c-11.17,-42.26 -64.88,-328.71 -88.5,-362.65 0,199.68 54.69,443.5 124,619.05 16.44,41.63 48.35,145.41 80.05,168.03z"/>
   <path class="fil8" d="M3269.61 2771.94l17.51 72.12 2.06 93.31c-1.2,0.45 -3.35,-0.01 -3.85,-0.03 -43.05,-1.73 -47.51,6.7 -79.62,-0.16 -66.41,-14.19 17.62,1.11 -30.85,3.99 -28.37,-26.58 -128.73,-76.12 -170.06,-99.28l-1.7 12.33c33.21,20.21 61.14,39.17 102.08,61.28 140.69,76.01 93.97,69.92 175.65,126.23l74.26 75.12c-1.91,-50.38 12.67,-90.59 8.17,-144.44 -10.3,-123.15 -52.97,-216.75 -102.37,-319.47 8.32,27.77 22.05,56.03 18.48,89.31 -0.31,2.91 -0.93,5.45 -1.38,8.01l-8.39 21.67z"/>
   <path class="fil6" d="M152.31 3184.99c3.51,34.97 -11.91,30.55 -25.43,59.46 -13.77,29.46 -11.46,40.99 -36.62,73.15 -13.9,4.44 -1.17,-8.85 -14.04,12.98 -28.77,48.81 -48.42,132.35 10.19,185.59l21.56 16.37c11.07,18.68 2.64,0.05 20.6,11.19 -0.59,-116.12 35.72,-177.75 81.17,-261 7.05,-40.42 18.73,-40.56 30.13,-76.09 -9.54,-16.12 -1.03,-13.59 -24.24,-24.53 -33.34,-15.72 -16.08,-8.38 -22.53,1.1 -13.42,-15.25 -26.39,22.44 -5.46,-24.75 -30.93,12.86 -12.36,-4.96 -35.34,26.53z"/>
   <path class="fil3" d="M957.31 4042.82c8.99,7.56 -11.54,11.78 27.53,6.22 35.75,10.13 10.89,10.98 37.59,5.08l32.59 -399.68c-27.09,-9.21 -36.1,-19.09 -60.18,-27.03 -8.57,80.31 -57.5,364.03 -37.54,415.42z"/>
   <path class="fil4" d="M2981.6 1993.5c14.11,3.9 -0.52,-1.72 13.86,-18.98 92.51,195.91 36.08,206.64 150.98,381.05 20.25,30.73 57.23,72.09 70.36,113.08 0.48,19.37 -12.93,-3.12 7.61,26.85 19.28,28.14 7.97,14.54 36.68,26.21 0.05,-22.65 -5.66,-16.92 16.85,-17.13l8.94 31.24c21.34,-46.12 2.38,-6.84 4.5,-40.32 2.19,-34.61 -20.78,9.83 5.19,-16.25 -43.22,-72.75 -127.26,-168.5 -177.14,-275.91l-132.13 -312.36c-0.77,-1.42 -2.23,-4.21 -3.76,-6.01l-1.92 108.52z"/>
   <path class="fil5" d="M2426.5 2017.68c-47.3,4.95 -22.01,8.01 -53.04,24.97 -36.68,20.05 -39.48,-8.06 -93.09,10.62 -104.62,36.45 -2.75,138.31 32.94,151.92 60.11,22.93 138.31,-45 137.89,-107.5 -0.12,-17.49 -4.72,-34.28 -9.52,-47.71l-15.17 -32.3z"/>
   <path class="fil0" d="M1011.79 2169.6c-10.93,-46.48 -34.26,-104.32 -49.27,-156.43 -8.13,-28.23 -13.43,-49.34 -19.52,-77.7 -16.92,-78.82 -14.1,-57.19 -37.88,-68.74 -19.49,21.93 -30.47,66.65 -37.8,95.42 -29.08,114.1 -38.7,126.61 33.97,182.66 31.73,24.48 68.06,29 110.51,24.79z"/>
   <polygon class="fil3" points="2577.22,4058.27 2621.88,4040.42 2584.61,3627.24 2516.21,3659.11 2556.06,4061.17 "/>
   <path class="fil5" d="M2415.68 3742.24c-6.28,7.6 -43.11,38.6 -54.34,47.36 -28.22,22.04 -31.91,23.78 -54.99,51.57 -15.74,18.96 -35.28,36.39 -50.06,56.04 -11.08,14.73 -32.36,47.07 -41.19,67.75l-11.97 -13.41c2.69,63.86 -18.61,143.42 -3.83,198.68l25.53 1.21c16.83,-1.85 36.82,-1.18 51.39,-3.78 4.42,-0.79 18.46,-4.46 21.59,-5.96 27.94,-13.37 5.17,5.13 24.45,-19.24 -44.02,13.24 -64.87,11.12 -115.1,26.44 27.24,-159.23 121.71,-229.23 220.96,-328.57 1.64,-1.64 16.92,-16.04 17.18,-16.25 0.79,-0.65 2.9,-2.23 3.62,-2.77l6.07 -59.2c-4.71,8.46 11.54,17.1 -31.62,3.57 -1.85,-0.58 -5.55,-1.63 -7.7,-3.44z"/>
   <path class="fil5" d="M1091.6 3742.18c2.08,2.58 3.92,3.59 4.86,8.66 5.66,30.61 51.83,61.11 73.62,89.26 64.78,83.7 0.63,19.97 88.25,88.82 74.94,58.88 77.16,127.64 95.01,162.21 12.15,23.52 3.07,1.19 17.62,24.38 7.41,11.81 10.75,21.21 17.13,36.06l7.12 3.02c-8.87,-65.86 -20.21,-124 -16.62,-190.74 -29.04,-16.7 -46.44,-41.83 -68.01,-69.4 -74.37,-95.07 -191.02,-168.96 -210.6,-188.37l-8.38 36.1z"/>
   <path class="fil8" d="M221.99 3070.02l-7.73 43.9c15.07,-15.99 26.92,-20.85 49.73,-38.84 38.26,-30.18 3.97,-24.1 43.49,-53.39l53.02 -36.11c24.26,-17.7 35.36,-29.37 59.94,-42.87 -18.26,-10.17 6.84,-5.91 -30.24,-1.09 -51.01,6.62 -13.52,-11.98 -77.9,-12.36 -1.12,2.64 -8.01,23.79 -9.08,25.6 -12.26,20.68 5.38,8.61 -18.68,18.46 -3.65,-45.96 -6.95,-100.52 9.37,-141.08l13.36 -74.44c-8.25,-22.82 5.99,-83.59 10.95,-108.73 -23.08,36.13 -66.49,132.16 -78.37,186.56 -18.69,85.59 -18.8,139.53 -17.85,234.41z"/>
   <path class="fil2" d="M2353.14 2468.66c31.6,14.87 -13.16,-5.1 -41.2,157.74 -14.48,84.13 1.88,130.71 19.19,204.85l-12.08 0 81.4 33.92c-19.12,-175.69 -47.8,-194.19 19.2,-431.84l-66.52 35.33z"/>
   <path class="fil2" d="M1253.45 2831.25c-24.58,-31.81 80.22,-129.22 -47.18,-390.41 -7.17,-5.02 -44.8,-34.42 -48.99,-38.64 6.03,110.55 85.29,230 22.99,456.24l73.18 -27.19z"/>
   <path class="fil9" d="M2409.84 1551.89c-7.01,-31.87 -20.2,-69.49 -43.21,-92l-177.22 -14.78c-56.82,-1.42 -148.98,8.61 -123.99,78.97 21.64,11.7 135.39,0.88 177.08,2.81 68.08,3.16 99.51,11.89 167.34,25z"/>
   <path class="fil4" d="M1480.88 1035.87c-10.77,15.43 -141.07,96.52 -208.28,260.54 -14.85,36.25 -29.29,74.77 -46.96,109.26 1.47,1.63 37.25,3.58 7.15,37.17 -2.72,-12.04 -8.51,8.66 10.19,-23.92l156.52 -224.98c64.23,-76.57 149.09,-150.82 247.11,-189.8 -45.24,3.84 -109.26,21.08 -130.39,46.56 -71.65,5.93 -7.4,4.1 -35.34,-14.84z"/>
   <path class="fil9" d="M1195.95 1471.29c-15.05,37.92 -24.53,19.63 -32.79,68.53 43.38,3.34 121.04,-21.32 255.83,-13.37 28.43,1.68 62.37,6.53 88.16,-5.14 20.11,-120.44 -239.74,-71.41 -311.2,-50.02z"/>
   <path class="fil5" d="M2602.58 1273.88c44.86,49.51 98.88,392.09 100.09,438.6l15.23 -23.45c9.54,-14.57 25.61,-14.03 23.6,-60 -1,-22.78 -9.63,-71.41 -13.48,-95.33 -9.45,-58.74 -25.85,-108.69 -42.7,-158.28 -12.57,-62.36 -112.15,-248.02 -142.46,-279.21 16.17,53.47 57.26,131.34 59.72,177.67z"/>
   <path class="fil6" d="M19.36 2955.06c-11.36,4.75 -17.39,-14.11 -19.29,52.72 -1.07,37.38 10.61,121.46 37.05,141.88 13.69,-18.65 -2.99,-16.16 19.61,-51.48 63.77,2.13 23.4,-1.08 44.46,14.11 7.03,5.07 2.03,29.82 6.83,10.8 11.89,-35.42 3.27,-19.52 -5.76,-55.7 -3.64,-14.59 -10.45,-51.76 -11.13,-60.73 -3.36,-44.46 15.87,-86.47 16.85,-132.2 -1.44,-1.87 -2.39,-5 -3.07,-6.38 -0.67,-1.35 -2.23,-4.61 -3.04,-6.23 -16.3,-32.34 -20.7,-19.79 -32.14,-41.39 -17.45,53.4 -77.15,151.96 -50.36,213.59l0 -79z"/>
   <path class="fil5" d="M907.67 1356.28c-10.86,42.8 -16.14,63.33 -25.12,97.99 -14.45,55.75 -57.84,140.74 -45.23,215.57 13.64,80.87 12.7,-4.25 12.56,128.77l3.08 -63.67 8.74 32.48c14.08,-56.73 21.87,-76.9 25.88,-140.58 3.25,-51.65 9.28,-99.55 21.22,-145.06 23.99,-91.46 44.49,-156.3 75.07,-249.91 13.44,-40.71 27.93,-49.51 40.75,-99.73l-18.17 -6.59c-17.99,41.12 -97.68,201.85 -98.78,230.73z"/>
   <path class="fil8" d="M1697.74 3432.61c13.51,92.24 184.07,91.18 178.29,-17.07 -5.2,-97.33 -194.88,-96.13 -178.29,17.07z"/>
   <path class="fil7" d="M712.9 2596.52c-43.25,84.48 -28.14,82.69 -90.14,135.4 28.29,-3.69 27.86,-14.56 85.78,-50.42 -32.91,63.86 -48.68,43.5 -49.31,88.59l53.93 -68.24c27.3,-37.77 68.44,-127.29 81.13,-175.59 10.61,-40.43 6.95,-88.39 9.28,-98.32 -13,-25.41 -35.34,-31.41 -57.71,-56.7 -13.53,-15.29 -39.67,-55.58 -55.15,-66.88 -8.78,4.56 -9.12,10.72 -15.69,-0.43l29.45 49.54c0.92,1.7 2.06,4 2.88,5.75 31,66.83 48.83,179.31 5.56,237.31z"/>
   <path class="fil8" d="M3367.48 3278.64c25.4,45.14 66.7,127.88 68.72,189.35 3.89,42.67 2.91,54.06 10.93,88.44 89.34,-23.82 88.3,-119.6 65.7,-189.33 -3.6,-11.12 -8.54,-28.96 -10.44,-33.24 -20.28,-45.61 -4.67,-18.85 -28.65,-33.89l-2.78 17.69c-17.11,14.46 -2.21,13.29 -32.76,13.57 -43.31,0.39 -6.06,2.24 -20.15,-7.55l-72.19 -102.66c-1.83,8.51 11.67,32.29 21.61,57.62z"/>
   <path class="fil1" d="M1697.74 3432.61c-16.58,-113.2 173.1,-114.4 178.29,-17.07 5.78,108.26 -164.78,109.31 -178.29,17.07zm35.53 -111.6c-143.63,50.65 -51.17,266.21 104.34,202.91 140.18,-57.06 55.59,-259.31 -104.34,-202.91z"/>
   <path class="fil4" d="M2140.94 3238.58c23.82,7.88 -80.01,9.87 -82.81,10.34l-12.5 27.79c49.15,59.7 123.18,-8.07 169.6,41.54 25.34,27.08 9.21,16.99 18.52,58.08 21.47,-62.36 12.57,-52.91 23.4,-41.81 23.47,-28.08 32.59,-88.09 40.58,-130.63l-91.08 -22.07c-17.38,17.92 -11.06,22.7 -40.51,42.22 -1.81,1.2 -4.15,2.43 -5.97,3.56l-19.22 10.98z"/>
   <path class="fil0" d="M517.16 310.97c9.34,33.35 3.88,31.52 33.66,42.2 53.88,19.33 114.51,10.81 162.1,-12.93 1.94,-0.97 4.31,-1.98 6.24,-2.96 34.12,-17.45 15.76,0.86 35.59,-26.47 -6.96,-30.81 -40.96,-53.11 -75.03,-59.84 -63.61,-12.55 2.35,17.95 -112.78,1.16 -29.97,11.16 -47.31,18.14 -49.78,58.83z"/>
   <path class="fil4" d="M2333.32 1363.25c-13.17,-14.07 -62.07,-133.33 -106.1,-197.47 -14.12,-20.57 -1.62,-11.76 -18.33,-18.99 -32.74,5.07 -25,-1.33 -43.78,-16.39 -71.28,-57.17 -76.5,-126.77 -284.03,-120.98 47.31,-4.06 42.6,8.4 71.52,23.59 48.79,25.63 116.45,42.72 170.99,103.77 16.87,18.89 13.34,13.62 32.39,30.01 51.4,44.23 171.68,239.62 177.17,266.51 -1.01,-6.05 -8.74,-30.97 -8.8,-31.89 -3.89,-62.57 -7.78,-12.58 8.97,-38.17z"/>
   <path class="fil8" d="M3491.42 2975.88c-0.63,24.44 -12.36,96.91 -19.28,119.12 -3.23,10.37 -13.53,36.56 -20.92,49.36 -17.93,31.07 -13.03,26.13 -48.34,31.8l0 16.43c31.28,10.36 26.99,9.44 43,44.23l27.81 45.42c14.38,-43.17 18.23,-37.74 42.64,-72.37 19.2,-27.23 34.17,-40.27 37.07,-82.2l-10.78 -129.57c-34.42,-13.82 4.15,0.38 -27.51,-17.5l-7.49 52.73 -16.22 -57.43z"/>
   <path class="fil6" d="M3455.99 2824.36c2.68,29.11 11.15,41.84 17.99,68.45 5,19.45 3.81,17.19 6.98,37.09 5.43,34.1 -4.51,17.12 10.46,45.97l16.22 57.43 7.49 -52.73c31.66,17.88 -6.91,3.68 27.51,17.5l10.78 129.57 15.99 -32.51c11.67,-61.29 4.48,-274.82 -66.69,-325.81 2.1,42.15 -0.23,1.01 -6.47,15.45l-8.11 35.13 -18.41 -19.35c5.52,42.9 5.61,12.55 -13.74,23.79z"/>
   <path class="fil4" d="M1284.37 3208.92c1.52,1.85 3.11,2.76 3.57,6.25l44.48 142.25c12.64,-16.05 14.46,-15.3 15.53,-39.81 2.38,7.96 -37.17,1.47 12.24,5.49 32.06,2.61 61.74,-16.57 81.97,-22.68 56.4,-17.03 76.34,6.06 78.98,-49.03 -51.16,-18.39 -87.84,29.44 -157.34,-56.54l-8.19 -11.77 -71.23 25.84z"/>
   <path class="fil4" d="M2706.45 2222.59c-14.14,20.52 -11.25,34.85 -19.68,61.61 -12.73,40.38 -9.1,29.37 -45.64,38.83l-21.04 -57.82 -46.35 56.29c0.25,0.31 9.03,10.29 9.58,11.07 6.82,9.7 8.03,12.6 11.62,24.78l-18.33 7.17c75.76,47.46 166.64,7.56 180.43,-71.42 -15.41,-45.24 0.11,-50.81 -4.99,-98.49 -3.19,-29.77 -15.52,-56.22 -22.34,-76.72l-11.94 135.06c-9.39,-18.17 -8.42,22.78 -11.31,-30.36z"/>
   <path class="fil6" d="M1091.54 210.56c1.41,-2.4 4.07,-8.03 4.38,-7.12 0.33,0.96 2.98,-5.46 3.3,-8.2 2.43,-21.03 2.72,-6.83 -0.04,-34.72 25.64,19.33 19.89,24.07 42.55,24.83 25.44,0.85 -27.18,-5.63 19.73,-0.73l24.05 12.84c9.56,11.65 11.86,17.86 15.92,32.8l-2.46 -25.56c13.88,-52.55 -54.33,-117.15 -88.63,-142.99 -39.62,-29.84 -83.78,-46.27 -133.41,-53.76l-46.05 2.18c83.11,47.63 141.51,72.88 160.67,200.43z"/>
   <path class="fil6" d="M2717.9 1689.04c87.47,-58.35 54.73,-39.35 162.38,-30.57 -15.11,-45.75 -7.03,-17.74 -17.71,-21.15 -20.53,-21.52 -23.64,-42.75 -33.59,-53.06 2.2,28.63 -0.85,12.6 -9.19,26.53 -5.63,-76.17 -19.41,-77.58 -25.39,-85.11 -7.51,-9.46 -1.22,0.8 -9.1,-13.39 -26.48,-47.67 -61.2,-100.86 -99.98,-136.86 16.85,49.59 33.25,99.53 42.7,158.28 3.85,23.92 12.48,72.55 13.48,95.33 2.01,45.98 -14.06,45.44 -23.6,60z"/>
   <path class="fil7" d="M2677.21 1922.54l-0.82 26.74c15.77,5.44 16.9,7.1 28.1,16.42 21.55,-74.33 165.32,-47.24 165.33,-47.24 -0.21,-96 -34.56,-155.56 -99.57,-107.9 -6.23,4.56 -32.7,30.61 -36.51,34.98 -25,28.71 -31.94,56.48 -56.53,77.01z"/>
   <path class="fil8" d="M1174.47 2007.56c-46.24,25.88 -36.94,70.4 -11.85,106.56 25.25,36.39 72.7,45.75 111.13,15.45l9.95 -8.78c19,-20.79 7.32,6.66 15.34,-24.99 7.72,-30.51 -1.83,-45.54 -23.4,-59.55 -13.64,-8.87 -79.49,-40.82 -101.17,-28.69z"/>
   <path class="fil0" d="M2806.1 301.97c29.88,48.74 133.22,65.02 192.91,46.1 12.03,-3.81 19.7,-7 29.44,-14.01l21.74 -23.24c-19.29,-41.93 -66.75,-70.55 -121.74,-52.41 -20.99,6.92 -47.09,26.94 -65.69,36.16 -37.08,18.37 -39.01,-0.28 -56.66,7.41z"/>
   <path class="fil5" d="M601.63 982.93c-22.3,-22.33 -33.79,-55.07 -37.01,-93.28 -58.6,3.98 -70.71,4.88 -122.86,-18.72 -57.46,-26 -42.97,-32.5 -76.92,-58.69 5.76,77.89 82.46,151.66 160.01,170.55 25.11,6.12 57.88,14.14 76.78,0.14z"/>
   <path class="fil6" d="M2396.79 116.25c33.18,14.7 50.3,-13.71 70.98,24.49 13.39,24.73 2.03,62.18 1.73,85.42 -55.19,19.35 -71.08,-7.9 -72.31,21.51l82.62 -7.31c3.66,-57.61 25.48,-104.77 50.84,-146.32 23.7,-38.84 70.69,-56.35 113.28,-83.91 -66.39,0 -103.78,6.1 -145.95,25.09 -23.64,10.65 -34.29,17.89 -55.6,32.81 -30.67,21.47 -21.97,21.35 -45.58,48.22z"/>
   <path class="fil0" d="M2199.31 4150.23c-14.79,-55.26 6.52,-134.82 3.83,-198.68 -12.47,-55.59 4.99,-24.55 7.85,-71.76 0.39,14.75 -19.77,30.88 -31.01,40.11 7.35,-50.05 -0.49,-41.88 -8.38,-53.91l-53.62 297 81.34 -12.76z"/>
   <path class="fil5" d="M3004.27 962.5l0 20.43c13.11,-0.29 72.08,-7.78 85.96,-11.45 24.12,-6.37 43.91,-25.27 63.43,-42.79 35.93,-32.26 77.12,-82.7 80.89,-134.47 -37.52,33.62 -20.83,42.68 -81.58,72.07 -48.71,23.57 -64.74,28.73 -124.72,27.19 -2.85,29.41 -5.89,49.14 -23.99,69.02z"/>
   <path class="fil3" d="M1431.67 3070.95c-30.9,18.18 -52.81,46.01 -31.2,88.1 40.05,77.97 162.23,16.37 119.41,-65.62 -13.01,-24.91 -56.1,-41.36 -88.2,-22.48z"/>
   <path class="fil3" d="M2094.1 3068.27c-87.1,31.94 -48,149.62 38.55,122.98 83,-25.55 42.01,-152.53 -38.55,-122.98z"/>
   <path class="fil8" d="M2339.99 266.44c22.79,-16.56 23.25,-14.36 57.2,-18.78 1.23,-29.41 17.12,-2.16 72.31,-21.51 0.31,-23.24 11.66,-60.69 -1.73,-85.42 -20.68,-38.2 -37.8,-9.78 -70.98,-24.49 -32.4,34.94 -56.81,82.06 -56.81,150.19z"/>
   <path class="fil3" d="M1752.92 3268.09c112.59,29.55 120,-89.83 67,-111.66 -84.3,-34.72 -142,64.2 -67,111.66z"/>
   <path class="fil3" d="M1586.09 3137.89c-74.99,32.34 -11.76,153.77 61.05,115.97 75.01,-38.93 15.38,-148.93 -61.05,-115.97z"/>
   <path class="fil8" d="M37.12 3149.66c26.74,80.27 49.63,79.61 62,132.61l-7.07 12.41c-0.44,2.67 -1.05,7.65 -1.45,10.4 -0.48,3.29 -0.09,8.35 -0.34,12.52 25.15,-32.16 22.84,-43.7 36.62,-73.15 13.51,-28.91 28.94,-24.49 25.43,-59.46 -2.76,-18.71 -3.49,-15.94 -12.74,-30.2 -11.43,-17.63 -2.64,-6.23 -12.6,-16.47 -17.22,-17.7 10.9,3.49 -18.94,-15.24 -4.8,19.02 0.2,-5.73 -6.83,-10.8 -21.06,-15.18 19.31,-11.98 -44.46,-14.11 -22.61,35.32 -5.92,32.83 -19.61,51.48z"/>
   <path class="fil3" d="M2013.99 3154.56c-84.54,-52.37 -150.86,16.45 -112.45,78.8 35.09,56.95 132.22,31.92 112.45,-78.8z"/>
   <path class="fil10" d="M1783.93 2296.72c-55.04,-3.69 -119.23,-49.22 -149.57,-31.47 -1.36,84.97 309.33,102.26 305.64,-8.32 -57.91,6.71 -70.38,45.54 -156.07,39.79z"/>
   <path class="fil6" d="M3340.69 3196.53l5.17 24.48 72.19 102.66c14.09,9.78 -23.16,7.94 20.15,7.55 30.55,-0.28 15.66,0.9 32.76,-13.57l2.78 -17.69c18.31,-38.21 5.83,-17.24 -0.05,-17.73l-27.81 -45.42c-16.01,-34.79 -11.72,-33.87 -43,-44.23 -2.54,-1.49 -7.44,-7.67 -8.96,-9.21 -1.08,-1.09 -3.1,-3.45 -4.27,-4.59l-41.92 -22.14 -7.05 39.89z"/>
   <path class="fil4" d="M2196.86 686.36c16.87,-10.03 12.35,-0.77 21.48,-21.81 -15.38,-21.52 1.03,-11.54 -36.79,-20.51l20.84 -6.93c-77.24,-32.29 -202.66,-25.57 -276.62,4.45 37.55,7.59 91.79,13.21 139.63,17.94 57.71,5.71 79.81,18.2 131.46,26.85z"/>
   <path class="fil5" d="M2639.43 1965.56c1.3,1.63 3.05,3.94 3.74,5.01 0.68,1.06 2.84,3.66 3.65,5.01l16.6 36.13c8.47,18.57 17.26,33.28 24.34,47.33 34.44,-4.43 17.91,6.02 43.37,-14.31l16.7 -25.91c-17.73,-24.7 -24.56,-22.91 -43.34,-53.12 -11.2,-9.32 -12.33,-10.98 -28.1,-16.42l0.82 -26.74 1.67 -8.22c-30.3,9.27 -29.37,15.35 -39.45,51.24z"/>
   <path class="fil8" d="M1091.54 210.56l4.79 33.06 118.8 15.22c8.37,-12.08 13.42,16.15 4.78,-22.7 -12.11,-54.48 1.31,-12.26 -20.95,-31.45l2.46 25.56c-4.05,-14.94 -6.36,-21.15 -15.92,-32.8l-24.05 -12.84c-46.91,-4.9 5.71,1.58 -19.73,0.73 -22.66,-0.75 -16.91,-5.5 -42.55,-24.83 2.76,27.9 2.47,13.69 0.04,34.72 -0.32,2.74 -2.96,9.16 -3.3,8.2 -0.31,-0.91 -2.97,4.72 -4.38,7.12z"/>
   <path class="fil1" d="M107.98 3532.53c10.25,23.81 -7.01,6.15 26.57,23.89l26.46 -114.42c4.51,-20.43 8.97,-20.58 8.97,-44.77l8.86 0c0,37.8 6.81,30.87 8.83,70.78 2.07,40.8 0.02,41.84 15.67,70.72 -5.4,-47.73 -13.21,-77.66 -11.07,-132.7 1.72,-44.22 22.16,-88.17 17.48,-123.32 -45.45,83.25 -81.76,144.88 -81.17,261 -17.96,-11.14 -9.53,7.49 -20.6,-11.19z"/>
   <path class="fil5" d="M1414.47 3388.41c38.46,26.67 89.13,61.5 157.48,49.45 2.17,-10.64 14.75,16.22 1.28,-18.57 -10.08,-26.03 5.91,-6 -16.58,-18.01 -44.8,-23.93 -23.04,19.54 -142.58,-42.89l0.4 30.03z"/>
   <path class="fil1" d="M3355.93 3574.11c11.36,-10.45 11.45,-2.85 22.13,-33.76 18.16,-52.53 15.93,-85.17 15.93,-143.11l17.71 0c7.39,31.67 7.9,47.05 24.5,70.75 -2.02,-61.47 -43.33,-144.22 -68.72,-189.35 -10.86,9.03 -25.55,-18.64 3.89,70.64 31.09,94.26 4.15,145.18 -15.44,224.83z"/>
   <path class="fil7" d="M2576.6 2364.51l18.33 -7.17c-3.59,-12.18 -4.8,-15.07 -11.62,-24.78 -0.55,-0.78 -9.33,-10.76 -9.58,-11.07l46.35 -56.29c-9.61,-22.59 -37.56,-12.66 -66.02,-13.43 -8.34,17.02 -19.6,37.58 -14.73,62.55 7.22,37.01 13.08,34.73 37.26,50.18z"/>
   <path class="fil5" d="M2002.6 3432.61c16.98,9.05 138.38,30.22 140.38,-76.75 -44.46,58.03 -120.29,22.87 -140.38,76.75z"/>
   <path class="fil3" d="M1391.67 1808.76c30.68,-12.88 28.43,-10.8 46.74,-29.91 -5.92,-43.07 -12.86,-48.17 -54.99,-44.23 -19.02,26.36 -22.07,35.69 3.62,68.76 0.95,1.23 3.17,3.52 4.64,5.38z"/>
   <path class="fil3" d="M2251.41 1796.66c20.93,-20.18 12.36,-1.82 21.38,-35.5 -35.55,-93.8 -127.31,41.6 -21.38,35.5z"/>
   <path class="fil7" d="M1756.57 2114.91c25.27,22.31 42.81,15.56 69.3,7.55 -1.83,-42.59 -9.51,-58.4 -56.44,-46.26 -8.9,12.79 -12.43,17.87 -12.85,38.72z"/>
   <path class="fil11" d="M2703.58 2167.26c3.52,-10.23 5.63,-9.56 5.59,-25.15 -0.05,-16.16 -2.68,-12.63 -5.65,-19.2 -19.06,-9.13 -8.06,-10.13 -23.43,2.28 7.28,32.25 -4.46,14.45 23.5,42.06z"/>
   <polygon class="fil2" points="3447.13,3556.42 3438.28,3556.42 3445.66,3566.74 "/>
  </g>
 </g>
</svg>
