<?xml version="1.0" encoding="UTF-8"?>
<!DOCTYPE svg PUBLIC "-//W3C//DTD SVG 1.1//EN" "http://www.w3.org/Graphics/SVG/1.1/DTD/svg11.dtd">
<!-- Creator: CorelDRAW 2021 (64 Bit) -->
<svg xmlns="http://www.w3.org/2000/svg" xml:space="preserve" width="140.802mm" height="194.033mm" version="1.1" style="shape-rendering:geometricPrecision; text-rendering:geometricPrecision; image-rendering:optimizeQuality; fill-rule:evenodd; clip-rule:evenodd"
viewBox="0 0 988.82 1362.65"
 xmlns:xlink="http://www.w3.org/1999/xlink"
 xmlns:xodm="http://www.corel.com/coreldraw/odm/2003">
 <defs>
  <style type="text/css">
   <![CDATA[
    .fil0 {fill:#161219}
    .fil10 {fill:#372D32}
    .fil8 {fill:#75111E}
    .fil9 {fill:#834D33}
    .fil11 {fill:#B77849}
    .fil12 {fill:#B7AEAE}
    .fil5 {fill:#C32A32}
    .fil4 {fill:#CDCDD1}
    .fil7 {fill:#DA9B5D}
    .fil3 {fill:#F1363D}
    .fil6 {fill:#F9AD82}
    .fil2 {fill:#FEFEFD}
    .fil1 {fill:#FFDDB2}
   ]]>
  </style>
 </defs>
 <g id="Camada_x0020_1">
  <metadata id="CorelCorpID_0Corel-Layer"/>
  <g id="_2233864906864">
   <path class="fil0" d="M774.09 1314.14c-2.66,4.49 1.5,1.84 -7.7,3.72l-5.6 3.14 -2.36 -146.7c9.38,-4.18 18.12,-9.59 28.27,-13.14l-3.17 151.88 -9.43 1.11zm183.34 -79.82l-27.67 17.29c-13.82,7.8 -42.39,23.68 -54.94,26.05 -7.92,7.47 -63.39,28.03 -76.44,29.91l0.33 -135.76c2.9,-2.12 28.41,-18.3 33.39,-20.8 0.39,-0.39 1.02,-1.57 1.19,-1.17 0.18,0.4 0.96,-0.95 1.21,-1.16 33.66,-29.36 71.97,-44.49 102.32,0.93 12.61,6.3 18.49,26.23 23.11,39.17 8.07,22.59 14.46,40.09 -2.51,45.54zm-925.32 -46.45c3.74,-12.94 15.35,-34.12 24.7,-43.4 34.87,-34.63 37.42,-28.35 79.47,-7.14 1.48,4.17 6.74,6.07 10.95,8.69l42.82 24.1 2.52 139.8c-26.27,-10.45 -54.49,-19.57 -78.86,-31.4 -18.6,-9.03 -63.61,-29.46 -73.67,-40.11 -8.01,-2.27 -6.07,-1.86 -12.86,-6.6 -4.36,-2.61 -8.72,3.3 -2.25,-24.87l4.18 -13.37c2.51,-5.77 1.76,-3.7 3.01,-5.68zm185.53 130.35l-3.73 -4.02c-8.72,1.56 -6.39,-5.4 -7.74,-30.87l-2.79 -121.13c9.91,4.75 20.17,9.36 28.63,15.41l-2.21 144.85 -12.16 -4.23zm461.85 -412.3c53.02,11.83 103.63,46.4 124.81,79.8 6.42,4.04 10.06,13.92 12.96,20.87 3.53,8.46 6.15,20.07 8.71,28.66 7.68,-4.18 13.68,-7.35 24.07,-3.93 22.34,3.88 42.76,20.1 40.35,46.35 -4,14.11 -45.8,41.39 -59.48,48.03 -48.86,23.73 -60.08,20.17 -106.37,54.51 -7.5,5.56 -9.97,6.44 -15.8,11.49l-52.48 56.45c-3.16,5.61 -5.51,11.98 -9.37,16.96l-8.25 35c5.61,-5.71 17.74,-34.44 32.22,-49.69 24.3,-25.6 -0.46,-4.67 33.91,-33.27 3.99,-3.32 3.44,-3.77 7.39,-7.17 6.56,-5.64 26.14,-21.71 32.9,-21.9 -1.05,9.77 3.39,96.14 0.87,137.29 -34.07,7.19 -81.95,22.86 -116.03,24.69l-18.74 3.29 13.56 -64.88c-0.22,-9.46 3.58,-24.24 7.3,-32.3 8.76,-20.99 14.83,-41.63 23.6,-63.18 8.46,-20.8 17.37,-42.19 25.43,-63.76 18.02,-48.26 35.89,-78.12 35.68,-136.76 -4.52,5.43 -3.73,0.19 -4.68,20.85 -0.37,8.02 -1.63,12.71 -3.26,20.04 4.01,-8.63 -18.56,-23.24 -25.95,-28.86l-73.82 -52.66c-11.77,-8.58 -8.23,-44.68 -1.85,-55.96 14.34,-2.82 24.27,-0.16 38.61,1.69 10.26,1.32 26.15,2.29 33.72,8.35zm-404.65 87.32c-1.79,35.99 -0.51,43.5 10.61,76.55 8.06,23.96 16.77,45.02 25.75,68.35 11.22,29.14 46.19,111.75 48.27,139.3 8.18,26.39 12.84,46.8 17.89,76.32l-16.03 -3.78 -87.36 -16.17c-36.07,-8.08 -32.65,1.77 -28.5,-137 -0.93,-16.67 -0.13,-4.94 2.35,-8.51l31.1 24.06c42.07,35.4 64.46,81.85 74.79,92.21l-2.49 -6.21 -9.09 -34.71c-6.15,-6.51 -7.18,-13.74 -13.38,-21.84 -3.39,-4.43 -4.74,-4.86 -7.97,-9.18 -4.74,-6.33 -1.05,-3.26 -7.83,-9.57l-36.17 -33.1c-54.31,-45.7 -142.04,-61.43 -174.69,-103.11 -17.26,-22.03 10.3,-49.27 37.77,-55.33 16.82,-3.71 18.24,0.77 25.08,8.29 0.3,-10.33 1.54,-17.83 6.13,-25.06 3.24,-27.77 38.27,-58.61 54.8,-70.57 16.51,-11.94 60.46,-39.18 87.45,-38.76 5.57,-5.48 16.61,-4.95 26.53,-7.46l47.23 -4.15c2.19,14.1 3.7,33.95 0.08,47.32 -5.03,18.58 -24.26,24.52 -40.44,34.87l-22.94 16.55c-25.16,20.4 -17.71,11.79 -43.37,38.09 -4.16,-22.43 -0.62,-30.63 -5.56,-37.43zm136.15 -91.09c26.63,7.43 43.56,19.75 77.22,21.44 34.39,1.73 54.83,-9.12 82.82,-18.02l12.19 -5.39c-5.26,13.1 -2.96,60.61 3.32,74.16 3.9,8.44 10.88,15.73 18.27,21.44 8.3,6.41 19.59,10.91 25.04,17.47 -8.41,16.3 -32.93,37.96 -52.35,46.94 -23.96,11.08 -52.33,15.93 -81.83,16.37 -42.48,0.64 -80.7,-9.79 -111.84,-35.66 -11.82,-9.82 -13.74,-15.59 -24.3,-26.62l11.03 -9.61c13.5,-7.64 24.57,-13.98 32.66,-29.36 7.43,-14.11 6.71,-56.59 4.68,-73.54l3.08 0.38zm-216.78 -275.06l3.28 3.1c1.14,1.33 2.12,2.65 3.12,4.06 21.43,30.08 19.42,31.24 31.99,74.74l12.87 39.32c-35.37,-1.23 -63,-26.45 -78.24,-56.01 -17.1,-33.16 -15.62,-85.19 18.86,-95.55l8.13 30.33zm137.12 21.98l19.8 2.93c0.46,0.19 1.31,0.5 1.95,0.8l4.72 -5.62c4.17,-4.15 13.45,1.62 17.89,1.52 13.3,-0.3 13.75,-10.29 26.1,2.85 -14.99,32.95 -58.25,36.57 -70.46,-2.48zm471.59 84.79l-7.84 1.25c4.38,11.94 13.24,24.55 5.56,40.53 -4.41,9.18 -16.05,17.94 -29.93,16.39l-11.24 -1.69 -3.39 -7.48c-5.34,1.62 -5.34,-15.38 -5.41,-20.13 12.64,0.55 13.81,0.01 14.11,11.26 3.8,2.55 4,3.98 7.41,5.14 7.14,2.43 8.29,0.21 11.53,-1.24 2.46,-9.81 -1.92,-31.61 -5.04,-41.67l1.09 -0.03 -6.51 1.11c-0.95,3.72 -0.24,3.2 -1.84,6.39 -1.58,3.15 -1.61,2.64 -3.18,4.55l-22.58 -0.43 5.69 -14.18c8.31,-22.67 21.29,-53.01 26.02,-77.1l6.47 -21.53c7.9,-17.53 13.34,-44.46 36.44,-46.56 53.02,-4.84 59.95,104.35 -17.36,145.44zm-78.84 -53.35c-24.74,36.31 -56.08,58.34 -105.61,48.86 -39.19,-7.5 -73.15,-40.3 -74.5,-85.2 -1.01,-33.83 17.72,-62.7 45.8,-74.27 7.4,-3.05 21.54,-6.92 30.88,-8.79 49.49,-9.9 97.91,9.45 113.01,42.98 10.82,24 -1.3,54.59 -9.58,76.41zm-453.62 28.52c14.4,12.94 33.43,27.4 63.3,32.37 14.22,2.37 27.81,2.4 42.45,-1.14 13.82,-3.34 24.75,-11.54 36.24,-14.1 3.57,-5.33 11.57,-9.24 17.16,-14.37 4.86,-8.23 11.74,-16.21 17.21,-27.21 4.91,-9.86 6.78,-24.02 11.88,-33.01 -1.02,-11.32 0.47,-11.99 7.65,-16.99 25.78,-17.94 59.34,-0.92 62.71,3.32 2.92,3.67 2.55,75.71 74.36,99.18 52.95,17.31 91.88,1.01 122.65,-37.67 30.95,-60.81 16.02,-42.63 23.27,-69.76 3.28,-12.27 0.33,-5.52 7.18,-7.5 7.84,-1.91 1.81,-1.28 4.2,2.17 -3.97,36.96 -15.79,78.48 -28.9,107.33 -11.41,25.11 -20.72,45.02 -39.21,64.74 -17.39,18.54 -30.22,31.76 -54.34,47.26 -41.39,26.61 -95.95,61.23 -146.92,59.68 -54.88,-1.67 -145.18,-59.63 -181.34,-93.47 -39.72,-37.17 -65.87,-108.61 -76.1,-166.53 -5.66,-32.06 -4.79,-23.38 6.47,-24.39 -1.32,39.21 11.86,67.82 30.09,90.11zm118.57 -82.58c-6.73,0.44 -9.55,-0.79 -14.08,-2.9 -6.79,-29.36 29.63,-17.16 14.08,2.9zm-189.17 -17.06c9.1,3.44 8.63,1.69 8.94,12.93 -8.57,-4.93 -5.88,-4.29 -8.94,-12.93zm70.5 20.35c7.67,5.35 6.34,4.9 18.64,4.73 9.34,-10.65 16.07,-27.68 34.62,-26.17 -13.46,21.06 -2.27,76.24 40.75,78.05 38.17,1.6 54.97,-32.65 49.39,-64.28 -0.1,-0.58 -1.25,-5.46 -1.27,-5.8 -0.57,-9.42 -0.3,-3.39 1.27,-6.52l-8.45 -13.98c-37.16,-32.64 -114.39,-17.87 -135.86,15.09l-15.78 1.05c0.78,-36.98 70,-62.44 121.72,-50.7 85,19.29 83.07,100.24 49.63,136.12 -69.22,74.26 -179.37,19.57 -172.91,-80.76 12.09,5.16 15.44,0.16 18.24,13.16zm-106.31 -84.27c15.66,5.41 14.27,24.06 26.03,35.3 -8.09,4.38 -4.28,-2.62 -4.14,8.74 -6,-5.96 -5.39,-4.22 -16.97,-0.63 2.5,-11.1 -3.88,-5.22 -4.93,-43.41zm68.69 46.77c-3.71,-7.56 -1.67,-23.97 -0.97,-27.18l5.29 -40.48c7.6,6.07 0.13,11.57 29.71,38.7l5.36 6.5c-9.9,0.51 -18.6,18.16 -26.8,24.69l-12.59 -2.23zm629.67 -285.05zm-64.43 -96.62l64.43 96.62zm-64.43 -96.62l-2.06 2.89 2.06 -2.89zm-190.82 -128.82l5.33 1.36 -5.33 -1.36zm-168.52 -9.91zm0 0zm0 0c-7.72,3.57 -20.94,-2.48 -34.6,-2.57 -82.48,-0.57 -44.15,1.72 -111.62,17.44l0 4.95c15.49,0.35 32.44,2.67 46.45,8.07l13.03 6.8c-33.63,0 -63.81,5.69 -96.72,0.07 -45.63,-7.79 -57.16,-31.96 -64.36,-37.23 -16.77,34.94 7.8,82.17 36.51,109.67 5.79,5.55 9.1,6.32 13.06,11.72 -11.8,5.66 -54.66,7.35 -74.37,7.45 -51.55,0.27 -47.7,-12.9 -64.41,-17.36 0.55,24.8 16.37,51.05 32.79,66.32l19.25 15.44c-6.19,0.51 -7.27,0.88 -12.74,2.13 -15.07,3.44 -20.1,11.68 -30.03,22 -15.52,16.11 -14.83,25.85 -24.14,45.24 10.84,-2.89 23.9,-21.61 61.96,-24.77 -1.48,5.54 -14.2,18.93 -23.8,33.19 -8.09,12.01 -13.62,24.8 -18.09,38.89 -2.65,8.35 -8.25,38.72 -7.13,48.59 2.57,22.71 8.96,42.81 9.38,47.79l17.42 -31.97c4.91,-11.54 -0.36,-5.67 9.83,-10.14 -20.78,29.29 3.24,128.92 19.84,163.51 -11.17,16.67 -19.15,21.72 -17.41,57.02 2.7,54.76 56.73,113.92 116.54,113.92 6.57,28.2 38.41,57.75 60.15,76.12 13.78,11.64 47.6,29.61 51.37,32.88 -58.3,0 -101.27,14.92 -148.59,44.69 -26.44,16.64 -48.15,41.18 -62.12,69.2 -15.76,31.61 1.43,8.69 -40.41,26.49 -21.98,9.35 -40.12,32.98 -41.42,55.45 -0.9,15.52 4.87,17.09 7.55,27.13 -14.91,1.24 -35.61,19.04 -44.26,30.07 -18.65,23.78 -37.52,56.62 -37.52,88.84l61.25 38.19c13.39,5.67 40,23.24 67.24,34.03 36.42,14.43 85.96,33.75 125.75,42.76 40.1,9.07 106.86,24.11 147.23,23.69 2.75,-4.66 2.02,3.75 -1.57,-3.08l-32.22 -119.23c-6.63,-20.6 -14.49,-39.44 -20.97,-58.41 -6.18,-18.1 -17.66,-41.32 -21.93,-59.59 -3.9,-12.53 -8.7,-26.08 -12.91,-39.15l-9.12 -36.73c4.74,-7.85 31.77,-22.22 42.93,-24.73l6.13 16.25c10.83,3.74 36.23,59.94 153.76,57.54 54.3,-1.11 126.52,-30.7 140.04,-73.23l6.76 3.44c8.57,3.72 4.48,0.75 8.35,6.39 8.55,0.76 5.44,0.26 14.12,5.42 5.14,3.06 9.04,5.59 14.16,9.25 -4.75,30.41 -63.45,165.45 -81.09,230.08 -3.52,12.91 -15.65,78.61 -18.38,83.4l-0.14 4.94c16.46,0 43.48,-5.11 58.89,-8.47 34.82,-7.58 70.68,-11.99 109.17,-24.64 50.83,-16.71 99.29,-32.53 147.17,-56.03 8.06,-3.96 12.59,-7.4 20.57,-11.62 27.52,-14.59 55.77,-36.29 63.64,-40.45 0,-46.57 -32.46,-95.29 -72.29,-116.01 -5.42,-2.82 -4.79,-2.24 -9.49,-5.38 10.32,-21.5 1.8,-46.65 -10.58,-61.27 -12.35,-14.59 -36.37,-27.92 -56.33,-27.92 -8.57,-36.79 -47.76,-72.67 -78.8,-92.16 -33.7,-21.16 -80.07,-39.14 -134.32,-39.14 5.36,-7.31 37.6,-21.23 60.12,-43.95 14.2,-14.33 41.86,-40.45 46.44,-60.1 6.67,7.67 9.75,15.02 17.93,21.71 16.98,13.89 43.45,7.12 56.54,-11.68 7.31,-10.5 7.31,-16.83 7.31,-34.81 58.64,-31.02 90.49,-136.47 34.7,-165.98 6.52,-13.57 19.83,-54.88 19.83,-74.32l4.96 0c2.13,9.13 5.17,17.53 7.43,27.25 6.6,-4.84 4.19,-4.44 12.07,-25.09 21.55,-56.43 19.6,-132.55 -15.19,-179.89 -6.19,-8.43 -11.09,-14.55 -16.71,-22.94 12.31,3.29 28.01,17 34.66,27.29 2.72,4.22 6.1,9.67 7.47,14.83l4.96 0c0,-18.53 4.13,-17.62 -0.96,-36.22 -5.36,-19.59 -20.82,-37.64 -38.15,-48.56 -9.4,-5.92 -18.44,-11.84 -32.76,-11.84 2.55,-9.56 10.15,-16.53 13.46,-28.66 3.01,-11.04 3.01,-30.73 0,-41.77 -2.99,-10.97 -9.31,-21.01 -16.15,-28.44 -0.35,-0.38 -0.87,-0.88 -1.22,-1.26 -8.45,-9.02 -11.41,-15.31 -23.34,-16.31 10.85,21.19 2.2,52.51 -9.18,70.1 -3.17,4.89 -1,1.67 -3.21,4.22 0,-52.28 -4.58,-72.71 -35.05,-111.13 -17.16,-21.64 -34.38,-37.6 -59.89,-49.14 -6.1,-2.76 -21.97,-7.61 -28.98,-8.19 5.71,15.76 16.83,-2.28 47.09,65.16l12.31 20.35c12.33,41.29 4.35,64.15 10.64,72.69 -0.77,-33.72 3.73,-47.21 -6.64,-80.19 -8.45,-26.87 -24.9,-47.07 -28.14,-54.53 17.43,5.34 24.15,14.99 33.93,26.36 40.13,46.65 46.18,74.81 35.38,133.66l-2.01 8.56c4.26,0.18 -2.45,2.29 8.6,-5.79 -0.28,10.36 -3.86,5.53 7.77,2.02 -5,20.45 -3.45,10.41 -5.03,10.29 2.7,-7.86 8.34,-8.87 12.74,-10.29 2.23,-1.19 -0.13,0.48 2.77,-2.18 2.06,-1.89 1.05,-1.23 3.59,-3.76 13.07,-24.85 21.93,-36.77 18.48,-70.91 6.62,8.49 14.55,16.44 13.42,32.67 3.11,3.62 0.94,-1.14 2.78,5.03l0.45 16.59c-0.79,6.98 -2.79,12.73 -3.89,19.55 -9.83,14.71 -7.31,20.35 -25.46,27.46l-10.89 7.54c2.54,2.06 -1.04,3.37 11.63,-0.8 -3.42,3.78 -1.7,3.92 -10.83,6.33l4.9 1.21c10.94,0.02 31.37,-15.39 65.33,10.35 8.18,6.2 31.13,33.38 30.88,51.69 -8.9,-14.77 -23.35,-27.62 -42.26,-35.59 -11.29,-4.76 -47.21,-19.56 -57.43,-19.45 -10.25,-2.63 -8.04,-6.13 -9.86,1.27 15.2,5.49 37.45,19.71 44.96,27.98 4.45,4.89 6.24,9.01 10.88,14.15 11.76,13.04 32.82,47.51 34.75,63.7l7.39 26.33c1.75,22.52 5.97,63.45 -5,81.53 -2.64,-14.12 -7.98,-28.65 -13.07,-42.13 -5.18,-13.71 -12.04,-25.11 -16.54,-36.24l-7.28 -7.38c3.05,19.45 5.76,28.88 4.75,50.57 -0.86,18.41 -7.63,32.24 -8.76,45.54 5.58,-0.46 -1.67,0.38 4.19,-5.65 5.25,-5.39 -3.62,0.44 5.6,-4.54 -1.68,41.46 -8.97,40.92 -21.35,75.16 -4.44,12.28 -1.59,7.06 -5.66,9.36 -3.94,2.22 -13.95,2.56 -18.81,3.25 8.67,-24.17 10.51,-4.56 7.65,-11.76 -4.17,1.22 -1.64,0.28 -6.34,3.77 -5.2,3.87 -2.67,3.21 -8.51,5.85l-1.8 6.55c-0.03,0.19 0.02,0.86 -0.04,1.05l-15.76 14.73c-10.88,-18.38 -4.25,-51.68 -17.56,-101.34 -3.34,-12.48 -8.01,-20.67 -10.16,-29.88 -5.41,-4.21 -3.69,6.83 -4.88,-7.25 -4.45,-2.17 0.61,3.06 -2.35,-2.21 14.74,-15.49 -0.26,-14.65 -0.26,-14.65 -5.05,13.58 -20,37.58 -28.93,44.4 6.1,-37.75 3.69,-65.74 -6.56,-103.06l-10.4 -27.83 -3.17 6.73c-0.11,0.66 -0.15,1.39 -0.15,2.04 -0.06,11.75 19.96,15.75 15.04,116.23 -0.86,-14.03 3.44,-31 1.03,-51.45 -1,-8.47 -2.43,-16.62 -4.46,-24.81 -4.88,-19.7 -7.52,-17.18 -13.18,-16.33l2.36 7.48c18.23,32.38 6.13,79.13 1.64,113.66l10.59 -3.54c2.02,-3.78 -1.35,-0.3 3,-3.84 0.86,-0.7 3.27,-2.15 4.43,-2.83 4.93,-2.9 5.12,-3.06 10.36,-4.9 9.64,-8.27 10.98,-13.35 19.23,-19.69 10.73,33.47 13.88,80.8 11.83,120.41l-19.91 0.4c-20.12,-39.79 -70.4,-52.77 -113.76,-47.51 -51.44,6.24 -78.97,25.31 -93.41,67.29 -42.75,-16.22 -39.15,-11.68 -82.31,-2.05 -13.95,-51.94 -69.36,-68.89 -118.46,-65.68 -27,1.76 -31.36,6.11 -52.79,11.05 3.49,-16.91 26.91,-73.92 37.47,-77.02 7.25,-11.86 14.42,-17.97 29.79,-24.58 9.07,-3.9 30.73,-10.89 39.74,-12.5 -2.85,10.06 -3.16,11.07 -10.03,15.63 -4.93,5.72 -11.77,11.56 -19.16,17.37 -6.3,4.96 -16.15,9.68 -22.8,16.48 12.33,9.01 43.9,4.73 61.39,2.35 19.84,-2.7 45.04,-12.89 57.12,-13.82l31.41 -18.34 40.5 -39.07c-11.72,31.97 -22.15,44.18 -40.93,64.9 -3.96,4.37 -0.61,-1.13 -2.78,4.12 30.2,1.02 46.94,1.1 73.53,-10.09 16.3,-6.86 43.4,-20.37 50.64,-31.62 -7.63,-0.85 -24.81,12.34 -40.82,20.8 -23.51,12.43 -41.06,11.63 -45.37,15.8 13.05,-0.79 37.71,-12.01 50.58,-18.76 2.58,-1.36 5.72,-2.75 7.43,-5.39 4.19,-6.45 6.86,6.13 2.14,-8.84 -25.81,19.86 -43.56,21.2 -76.9,30.91 3.2,-8.38 15.86,-20.42 21.72,-30.85 3.69,-6.58 11.32,-27.34 12.56,-36.45l6.08 -29.71c0.34,-5.26 0.85,-6.51 -0.13,-11.07 -1.85,-8.54 0.61,-5.88 -2.13,-0.28l-7.76 31.25 -0.29 -11.8c-1.9,2.72 -2.04,0.7 -5.63,2.78 -3.44,6.35 -17.37,19.15 -23.57,24.88 -35.44,34.62 -89.04,53.54 -140.17,59.67l8.97 -8.06c28.81,-21.42 31.54,-43.24 46.71,-47.72l2.81 -7.19 -19.45 4.56c-16.59,4.26 -45.69,11.82 -63,12.06 -17.79,0.24 -49.12,-4.47 -60.95,-14.37 8.22,-8.06 27.92,-28.97 33.47,-41.96 -3.82,-3.57 -0.9,-4.22 -9.21,5.31l-27.21 29.86c5.37,-6.05 10.2,-7.96 15.49,-14.4 15.71,-19.11 7.47,-16.89 5.99,-17.41 -7.63,8.47 -12.46,16 -20.31,22.96 -7.86,6.96 -14.68,12.82 -23.27,20.44 16.36,0.15 21.59,6.31 28.59,14.97 12.45,4.05 24.4,11.12 39.8,10.38 -8.56,12.38 -2.23,-5.45 -21.55,22.37 -11.82,17.03 -22.63,44.2 -26.74,47.46l-2.35 29.99c-13.22,-13.58 -37.26,-72.3 -37.25,-98.73l-5.33 1.67c-7.6,26.31 -19.67,93.76 -16.98,119.09l1.62 18.91c-18.73,-5.48 -15.97,-5.05 -24.82,-20.08 -6.17,-10.47 -10.13,-15.74 -11.42,-29.43 -10.3,-25.83 -7.71,-43.8 -7.26,-66.02 0.26,-12.87 1.72,-3.18 -2.29,-7.98 -1.43,9.95 -8.81,21.2 -11.93,38.3l-3.63 13.88c-0.15,0.36 -0.5,1.09 -0.84,1.59 -16.62,-25.66 -7.52,-67.36 -4.88,-92.99l-4.68 -0.75c0.06,-30.96 0.54,-17.84 10.48,-38.59 4.84,-10.11 1.1,-9.17 8.6,-16.2 11.75,-11 9.33,-1.19 10.51,-13.56 -7.73,5.89 -11.52,8.25 -20,16.24 -36.84,34.71 -29.89,41.48 -43.43,61.33 -4.04,-57.02 39.2,-129.1 88.04,-152.86l-5.26 -7.35c-10.4,3.21 -23.52,13.72 -33.79,14.16 -7.8,0.34 -12.01,-1.54 -20.96,0.47 -8.75,1.96 -9.31,4.44 -19.16,4.72 -6.09,8.29 -2.13,4.08 -13.39,8.17 2.61,-4.35 1.78,-4.22 5.87,-8.04 4.96,-4.63 3.22,-2.29 6.71,-4.41 4.8,-7.77 17.58,-16.73 26.36,-21.49 14.08,-7.63 27.53,-0.58 41.47,-2.02l13.35 0.84c-1.35,-1.17 -2.39,-4.31 -3.71,-5.52 -19.97,-6.38 -44.89,-19.1 -54.44,-34.09 -7.78,-0.67 -11.42,-9.09 -17.32,-17.39 -4.82,-6.79 -9.74,-12.55 -12.02,-21.49l27.85 11.96c23.72,1.13 37.48,1.64 61.31,-0.78 22.11,-1.09 46.68,-11.41 61.96,-11.08 5.76,-3.39 6.09,-2.25 14.48,-2.67l1.1 1.35c0.07,0.09 0.57,0.7 0.63,0.78l1.46 1.76c10.23,-3.86 26.61,-13.62 38.68,-16.37 -4.66,-2.72 -10.46,1.26 -17.95,3.53 -48.48,14.7 -91.87,-29.6 -103.63,-75.95l-4.62 -21.23 9.53 9.43c5.39,5.18 4.14,3.77 9.92,7.19 8.89,5.25 13.03,7.42 24.26,10.62 21.15,6.02 40.22,7.62 62.91,6.81 73.71,-2.61 47.93,-15.36 123.09,-0.73l-3.5 -2.89c-14.86,-9.48 -82.27,-23.54 -94.64,-31.29l9.73 -2.78c42.07,-16.27 103.49,3.72 145.22,9.37 -1.22,-0.72 -1.91,-2.52 -2.8,-3.73 -20.79,-13.57 -18.39,-7.84 -32.85,-28.3 -7.23,-10.23 -15.3,-26.73 -17.07,-41.5 58.46,75.94 179.35,46.02 230.36,105.79l-3.01 -9.98c-0.16,-0.94 -0.68,-1.12 -0.97,-1.7l-36.95 -36.73c-11.69,-9.21 -27.11,-19.91 -43.33,-26.63 28.96,5.73 50.08,12.08 73.76,25.96 40,23.44 26.64,20.11 53.5,44.38 3.52,-11.08 -16.83,-28.87 -25.61,-35.4 -1.38,-1.02 -7.03,-4.22 -7.96,-4.76 -4.27,-2.46 -8.56,-4.24 -11.95,-7.72 8.32,5.99 16.98,10.72 25.92,17.01 9.04,6.35 18.41,9.72 24.58,17.54 14.84,1.71 3.34,1.41 7.93,-3.7 -12.85,-9.94 -22.32,-15.06 -35.26,-23.79 -12.12,-8.18 -23.74,-13.03 -37.92,-19.07 -24.11,-10.29 -62.16,-21.74 -94.93,-14.11 6.34,5.51 24.4,10.37 33,14.08 8.84,3.82 24.45,13.87 28.96,20.6l-53.49 -13.42c-18.4,-3.7 -39.77,-5.97 -55.28,-11.63 -67.58,-24.66 -65.82,-53.03 -79.58,-56.7 0,38.76 5.17,44.16 19.83,71.84z"/>
   <path class="fil1" d="M442.66 774.4c0.58,-0.28 1.43,-0.51 1.84,-0.56 0.41,-0.05 1.35,-0.37 1.86,-0.41 12.96,-0.78 31.92,16.29 81.2,4.11 9.29,-2.3 15.84,-7.77 23.44,-4.27 0.07,19.51 -76.4,27.43 -102.77,9.76 -12.68,-8.5 -5.62,-8.19 -5.57,-8.63zm40.61 -53.5c-2.42,-12.92 -8.46,-28.19 10.49,-29.4 3.13,4.34 6.16,13.1 6.28,20.01 0.22,12.26 -7.32,8.79 -16.78,9.39zm273.25 -98.77c-2.36,10.99 -4.33,17.33 -5.51,26.59l-11.69 44.19c-11.64,31.31 -55.1,56.72 -87.19,57.71 9.18,-7.59 12.38,-4.83 26.66,-10.02 29.32,-10.64 30.56,-19.44 41.96,-30.33 4.89,-4.67 11.48,-7.5 5.31,-10.88 -30.76,38.68 -69.7,54.98 -122.65,37.67 -71.8,-23.47 -71.43,-95.51 -74.36,-99.18 -3.37,-4.23 -36.94,-21.25 -62.71,-3.32 -7.18,5 -8.67,5.67 -7.65,16.99 0.98,10.32 0.06,3.28 1.74,6.72 3.07,-15.65 3.87,-16.72 15.14,-21.61 -6.68,8.96 -10,29.23 -16.88,42.59 -3.02,5.86 -7.42,13.86 -11.28,20.49 -5.38,9.24 -8.26,9.39 -13.33,16.67l-4.48 -4.64c-5.58,5.13 -13.59,9.04 -17.16,14.37 8.57,0.04 8.82,-1.38 15.13,-6.57 -4.48,6.94 1.33,0.87 -6.04,6.56 -1.19,0.92 -3.64,2.06 -4.89,2.74 -34.18,18.52 -53.81,26.96 -95.13,17.35 -22.43,-5.22 -33.24,-10.54 -46.6,-22.83 -13.71,-12.62 -18.92,-23.13 -24.63,-39.64 -5.69,2.89 14.73,30.55 20.18,25.27 -18.23,-22.29 -31.41,-50.9 -30.09,-90.11 -11.26,1.01 -12.13,-7.67 -6.47,24.39 10.23,57.92 36.38,129.36 76.1,166.53 36.16,33.84 126.46,91.79 181.34,93.47 50.97,1.55 105.53,-33.07 146.92,-59.68 24.13,-15.51 36.96,-28.73 54.34,-47.26 18.49,-19.71 27.8,-39.62 39.21,-64.74 13.11,-28.85 24.93,-70.38 28.9,-107.33 -2.39,-3.45 3.63,-4.08 -4.2,-2.17z"/>
   <path class="fil2" d="M302.76 1041.35l9.12 36.73c4.21,13.07 9.01,26.62 12.91,39.15 4.37,-6.21 1.07,3.6 1.43,-4.87 0.27,-6.42 -2.66,-8.12 -3.9,-17.22l32.79 65.93c11.76,20.3 22.37,41.42 33.67,63.06 21.36,40.92 43.75,87.11 61.45,130.18l-26.14 0.84c26.98,0.09 55.67,4.45 83.95,3.29 27.34,-1.12 53.98,-3.29 81.47,-3.29 2.74,-4.79 14.86,-70.48 18.38,-83.4 17.63,-64.62 76.34,-199.66 81.09,-230.08 -5.12,-3.66 -9.01,-6.19 -14.16,-9.25 -8.68,-5.16 -5.57,-4.66 -14.12,-5.42 0.55,0.71 17.82,10.53 23.89,15.98 -0.98,14.7 -21.62,64.01 -26.31,76.01 -32.23,82.57 -56.65,136.84 -72.21,232.59l-42.56 3.51 57.12 -127.98c12.44,-26.5 52.76,-106.69 57.4,-130.98 -33.07,14.2 -48.19,25.98 -89.71,34.59 -76.32,15.84 -141.83,8.7 -211.59,-20.45 -41.35,-17.28 -39.55,-23.89 -49.7,-57.58l-4.29 -11.34z"/>
   <path class="fil1" d="M716.72 543.06c-7.72,2.02 -51.31,-1.73 -62.39,-2.78 -19.75,-1.86 -56.56,6.04 -68.76,1.09 -4.3,-34.11 82.84,-26.09 109.1,-20 13.88,3.22 25.5,6.94 22.05,21.68zm-424.04 -0.5c0.35,-31.71 68.61,-27.9 91.6,-22.89 13.34,2.91 19.82,6.8 23.99,17.93 -10.81,11.58 -16.59,4.1 -53.86,2.55 -20.74,-0.86 -42.97,3.97 -61.73,2.41zm191.42 -46.94c2.17,-5.25 -1.18,0.25 2.78,-4.12 18.78,-20.72 29.2,-32.92 40.93,-64.9l-40.5 39.07c2.63,1.87 15.91,-12.49 26.54,-17.43 -4.81,10.32 -18.31,26.2 -27.15,31.02 -27.83,15.18 -78.19,35.13 -110.01,31.64l-19.76 -2.91c-7.06,-3.21 -0.71,1.69 -6.58,-4.44 29.2,1.55 70.3,-4.12 98.18,-15.96 9.61,-4.08 7.33,-2.47 7.35,-3.59 -12.08,0.93 -37.28,11.12 -57.12,13.82 -17.48,2.38 -49.05,6.65 -61.39,-2.35 6.65,-6.8 16.5,-11.52 22.8,-16.48 7.39,-5.81 14.23,-11.65 19.16,-17.37 -13.4,6.55 -20.36,4.45 -32.33,14.19 -13.32,10.84 -18.13,9.74 -25.16,22.13 -1.41,-1.49 -13.57,2.95 -1.92,-14.7l-0.08 -0.17c-10.56,3.1 -33.98,60.11 -37.47,77.02 21.43,-4.93 25.79,-9.28 52.79,-11.05 49.1,-3.21 104.51,13.75 118.46,65.68 43.16,-9.62 39.56,-14.16 82.31,2.05 14.43,-41.98 41.97,-61.05 93.41,-67.29 43.36,-5.26 93.64,7.72 113.76,47.51l19.91 -0.4c2.05,-39.61 -1.1,-86.94 -11.83,-120.41 -8.25,6.34 -9.59,11.42 -19.23,19.69 0.72,0.43 -4.17,3.63 4.57,0.23 5.6,-2.18 9.58,-9.55 12.1,-11.25l4.04 25.57c-10.24,-18.15 -10.38,-2.34 -39.79,4.89l1.29 -7.88 -10.59 3.54c4.49,-34.53 16.59,-81.28 -1.64,-113.66 -0.96,8.25 4.22,28.17 4.86,40.81 0.5,9.81 -3.3,35.11 -1.38,38.33l-6.99 -32.29c-3.82,-8.38 -1.93,-3.55 -4.83,-7.55 -10.41,-14.34 -7.49,-17.59 -21.48,-27.87 1.05,-3.01 2.43,-10.8 1.94,-13.64 -6.4,5.3 -12.85,19.82 -15.93,24.88 -20.3,33.38 -18.17,18.14 -28.52,31.07 -3.08,3.85 -2.53,4.05 -3.82,6.17 -3.73,6.11 -19.39,17.5 -25.84,21.18 -16.96,9.68 -35.21,20.64 -53.08,23.78 -11.13,1.96 -44.63,5.18 -55.01,1.86 -13.22,-4.24 -2.09,2.44 -7.77,-8.45z"/>
   <path class="fil1" d="M334.55 84.15c11.26,3.96 3.96,-1.75 28.63,5.79 21.04,6.43 40.89,4.21 54.74,14.85 12.15,9.33 13.6,2.73 24.13,11.65 -0.55,0.47 -1.42,0.86 -1.84,1.15 -0.41,0.28 -1.29,0.79 -1.77,1.14 -5.49,3.99 -0.37,-0.1 -3.09,2.29l-3.29 3.89c-0.15,-0.38 -0.62,0.93 -0.85,1.44 -17.71,-4.34 -5.16,-0.51 -8.24,-5.22 -75.16,-14.63 -49.37,-1.88 -123.09,0.73 -22.69,0.8 -41.76,-0.8 -62.91,-6.81 -11.23,-3.2 -15.37,-5.37 -24.26,-10.62 -5.78,-3.41 -4.53,-2 -9.92,-7.19l-9.53 -9.43 4.62 21.23c8.71,6.63 8.3,12.53 17.4,20.18 5.96,5 14.72,10.74 20.58,14.05 71.34,40.24 128.77,-3.54 179.18,1.48 -7.45,7.62 -19.84,8.44 -35.87,11.78 -14.43,3.01 -23.74,8.26 -34.69,10.45 -0.48,0.95 -0.15,7.38 -25.03,14.47 -12.07,2.75 -28.45,12.51 -38.68,16.37 -30.01,26.47 -99.28,26.26 -135.14,15.1 -10.43,2.33 -2.54,-3.86 -8.05,4.16 17.13,10.99 -14.64,10.43 42.42,22 10.49,2.13 19.42,3.24 30.59,3.19 9.65,-0.05 23.07,-2.71 30.62,3.63l-43.08 6.58 35.5 -0.04 41.5 -11.28c11.09,-3.21 9.53,-6.87 22.74,-10.52 -1.5,2.51 -22.85,27.13 -31.15,30.68l-7.11 10.4c-11.73,12.03 -17.81,20.93 -23.97,38.44l4.96 1.17 15.86 -0.8c31.19,-8.68 92.03,-37.12 117,-61.18 15.73,-15.17 31.03,-31.03 49.38,-42.03 7.8,-4.67 6.19,-1.43 14.15,-7.76 22.58,-15.51 56.79,-28.23 90.36,-29.27l29.19 -1.34 -9.28 -7.48c-3.9,-2.44 -4.88,-2.61 -9.21,-5.51 -3.15,-2.1 -4.85,-3.27 -8.69,-6.09l-7.38 -6.69c-8.03,-0.74 -16.34,-4.92 -25.58,-5.13 -11.37,-0.26 -18.68,3.1 -28.15,-1.95 23.98,-9.11 81.73,-14.62 102.33,0.86 -9.73,-6.83 -24.67,-18.84 -37.95,-21.71 -5.91,-0.54 -49.66,-15.4 -51.16,-20.07 -0.34,-1.05 -1.15,-1.09 -1.7,-1.66 -41.73,-5.65 -103.15,-25.64 -145.22,-9.37z"/>
   <path class="fil1" d="M370.9 391.43c-12.07,23.99 -10.82,21.39 -27.51,40.81l-2.52 2.96c-0.3,0.35 -0.88,1.08 -1.35,1.58l-19.68 -1.38c10.23,-13.17 14.81,-8.99 32.79,-30.61l-0.9 -5.88c15.21,-16.52 30.33,-27.04 48.58,-48.54l-25.94 36.03c-3.22,6.16 -0.21,2.86 -3.45,5.04zm68.27 -162.53c-2.06,6.22 5.36,0.22 -6.37,8.24 -4.22,2.89 -5.14,2.67 -10.34,3.6l-33.73 31.43c-12.03,13.48 -9.29,6.61 -15.78,16.27 -4.12,6.13 -7.04,12.25 -10.89,18.88 -5.71,9.86 -38.79,71.65 -47.51,76.83 -5.55,12.99 -25.25,33.9 -33.47,41.96 11.83,9.9 43.15,14.61 60.95,14.37 17.31,-0.24 46.42,-7.8 63,-12.06l-23.17 2.08c4.4,-6.06 5.24,-6.27 14.48,-10.23 19.37,-8.29 24.68,-17.19 33.17,-16.46 2.73,-3.6 0.68,-1.49 4.23,-4.61l27.84 -29.51c4.47,-4.92 5.8,-8.65 11.23,-6.07 9.61,-9.22 10.43,-13.99 17.79,-21.89 29.42,-31.61 58.42,-66.38 104.25,-74.92 20.84,-3.88 49.18,1.21 57.98,14.99 2.62,4.62 5.11,8.22 8.03,12.48l-0.56 -7.63c7.09,-3.49 -8.53,2.63 2.99,-0.77 3.12,-0.92 -0.97,1.57 2.58,-0.98 -4.38,-9.45 -9.19,-13.74 -13.45,-20.58 -6.87,-11.03 -6.81,-9.2 -20.05,-14.48 -41.37,-16.49 -68.13,-23.75 -114.59,-11.68 -25.12,6.53 -20.55,7.47 -37.08,14.71 -3.12,1.37 -2.61,1.18 -5.57,2.01 -6.81,1.89 0.55,0.33 -6.74,1.11l-62.94 65.38c-0.54,0.63 -13.9,12.81 -20.98,23.38 -13.78,20.56 -7.57,5.89 -16.97,18.94 5.83,-9.26 5.06,-3.67 12.52,-13.51l17.88 -24.75c2.54,-3.71 2.45,-3.92 4.71,-7.57 3.79,-6.11 6.48,-11.96 10.89,-16.06l12.79 -14.52c5.76,-6.2 34.14,-33.71 41.51,-32.9 24.14,-19.03 50.26,-33.98 92.15,-37.31 63.12,-5.02 86.64,31.8 96.05,29.85 -5.58,-11.97 -25.56,-29.2 -39.52,-37.82 -13.22,-8.16 -44.66,-16.84 -61.36,-17.02 -39.07,-0.44 -83.65,15.79 -115.96,36.83z"/>
   <path class="fil3" d="M685.36 911.57c28.81,1.62 35.38,23.08 45.72,44.96 8.59,18.18 12.63,48.93 -9.86,63.64 0.1,-17.96 -3.68,-44.88 -10.88,-56.47l6.4 28.74c0.21,58.65 -17.67,88.5 -35.68,136.76 -8.05,21.57 -16.97,42.97 -25.43,63.76 -8.77,21.55 -14.84,42.2 -23.6,63.18 11.36,-2.44 4.51,-12.58 16.06,-19.37 9.76,-5.74 -3.87,5.22 2.92,-1.27 5.2,-6.25 -0.46,-9.78 21.8,-32.63 42.66,-43.81 19.01,-22.85 61.68,-50.06 27.8,-17.72 56.43,-25.13 74.81,-36.75 6.14,-3.88 9.52,-7.33 15.9,-11.26 21.12,-13.02 39.09,-21.7 38.59,-44.38 -0.49,-22.29 -18.37,-15.5 -32.93,-22.42 4.39,-2.49 17.09,-4.86 19.21,-6.71 -10.39,-3.42 -16.38,-0.25 -24.07,3.93 -3.95,6.21 -7.62,9.36 -11.97,13.82 -15.64,16.01 -12.45,18.99 -20.69,28.95l-18.96 15.76c-14.58,13.67 -29.37,27.55 -47.94,36.83 5.02,-10.69 16.66,-22.47 25.13,-29.86 5.86,-5.12 4.59,-6.33 11.45,-15.78l11.82 -15.53c15.73,-22.83 25.08,-50.6 23.38,-83.44 5.13,3.46 -8.2,-0.93 6.12,-0.28 -21.19,-33.41 -71.79,-67.98 -124.81,-79.8 2.81,6.49 -9.33,1.74 5.87,5.65z"/>
   <path class="fil3" d="M171.07 1014.78c3.47,7.57 3.09,-3.17 6.91,-11.92 3.7,-8.48 5.05,-8.71 9.8,-13.86 0.07,20.42 0.67,31.23 6.54,48.31 9.67,28.13 22.66,39.58 33.74,55.28 6.46,9.15 4.03,4.76 10.12,9.7l22.6 29.47c-9.06,-1.28 -47.07,-33.11 -52.89,-39l-21 -21.23c-8.35,-7.97 -33.87,-34 -49.37,-27.3 -12.9,11.06 -12.54,30.29 1.59,40.52l16.08 13.57c9.68,8.73 79.48,45.04 93.69,52.32l35.2 24.64c5.52,5.09 8.15,10.76 13.79,15.85 13.17,11.89 28.96,23.47 42.24,44.3 6.67,10.45 12.57,29.42 18.23,41.03l1.14 0.97c-2.09,-27.55 -37.05,-110.16 -48.27,-139.3 -8.98,-23.32 -17.69,-44.39 -25.75,-68.35 -11.12,-33.06 -12.4,-40.57 -10.61,-76.55l5.4 -21.88c-11.64,16.95 -9.7,63.59 -23.13,49.97 -11.32,-11.49 -3.7,-55.82 4.63,-73.15 11.07,-23.04 15.96,-27.65 36.93,-38.04 7.41,-3.67 11.44,-6.09 14.64,-4.68 -26.99,-0.42 -70.94,26.81 -87.45,38.76 -16.54,11.96 -51.57,42.8 -54.8,70.57z"/>
   <path class="fil1" d="M571.04 905.57c0.79,0.25 3.54,1.22 3.97,1.41 5.76,2.49 4.24,55.2 4.49,64.67 -8.55,-4.75 -8.43,0.41 -19.59,6.78 -6.7,3.83 -13.27,6.19 -20.81,9.13 -16.49,6.42 -31.82,9.69 -50.35,8 -26.42,-2.42 -63.99,-24.31 -77.34,-36.81l-0.42 -56.6 -3.08 -0.38c2.03,16.95 2.74,59.43 -4.68,73.54 -8.09,15.38 -19.16,21.72 -32.66,29.36l-11.03 9.61c10.56,11.03 12.49,16.8 24.3,26.62 31.14,25.87 69.36,36.3 111.84,35.66 29.49,-0.44 57.87,-5.3 81.83,-16.37 19.42,-8.98 43.94,-30.63 52.35,-46.94 -5.45,-6.56 -16.74,-11.05 -25.04,-17.47 -7.39,-5.71 -14.36,-13 -18.27,-21.44 -6.27,-13.55 -8.58,-61.06 -3.32,-74.16l-12.19 5.39z"/>
   <path class="fil3" d="M40.04 1238.4c10.06,10.65 55.06,31.08 73.67,40.11 24.37,11.83 52.59,20.95 78.86,31.4l-2.52 -139.8 -42.82 -24.1c-4.21,-2.62 -9.47,-4.52 -10.95,-8.69 0.64,9.06 31.71,23.83 39.39,27.08 13.38,5.68 11.01,2.26 10.85,12.35 -5.09,4.17 -0.02,3.66 -9.28,1.93 -0.94,-0.17 -5.01,-2.22 -6.89,-3.11 -44.49,-21.17 -78.57,-53.62 -99.56,-32.28 -21.81,22.18 21.87,85.68 27.26,111.45 0.65,3.12 1.51,8.05 -1.4,12.27 -14.99,-6.5 -40.25,-30.78 -56.61,-28.62z"/>
   <path class="fil3" d="M832.11 1151.02c-4.98,2.5 -30.49,18.68 -33.39,20.8l-0.33 135.76c13.05,-1.88 68.53,-22.45 76.44,-29.91l-6.31 -5.47c20.1,-8.74 25.4,-29.27 35.65,-55.59 5.28,-13.56 22,-59.08 17.73,-70.15 -2.61,-6.77 -17.51,-13.85 -27.88,-11.43 -34.53,8.05 -70.37,47.58 -91.1,42.6 -0.61,-0.15 -1.57,-0.46 -2.26,-0.87 6.28,-11.22 12.92,-7.27 31.44,-25.74z"/>
   <path class="fil2" d="M351.81 1032.86l-29.54 24.98c55.55,79.99 198,79.71 278.86,48.34 27.57,-10.7 65.91,-28.08 67.87,-54 -22.23,-14.64 -24,-7.95 -28.43,-23.68l11.79 -7.89 -6.76 -3.44c-13.51,42.52 -85.73,72.12 -140.04,73.23 -117.53,2.4 -142.93,-53.8 -153.76,-57.54z"/>
   <path class="fil1" d="M413.77 609.77c11.54,10.76 11.62,68.01 -38.05,81.9 -2.82,0.79 -9.59,0.19 -16.37,0.04 0.42,1.06 5.41,7.36 1.88,12.03l-0.61 16.02c-3.39,-0.33 -5.25,-1.23 -8.87,-0.1 -8.86,2.77 -3.26,-0.67 -9.12,5.55l26.95 0.62c-11.98,-11.57 -20.83,9.83 -61.87,-13.38 -0.32,-0.18 -0.96,-0.6 -1.26,-0.74l-2.02 -12.28c1.25,-5.29 0.18,-4.5 4.11,-9.47 6.09,-7.72 9.91,-6.74 20.68,-7.14 -2.2,-4.63 3.7,-3.21 -4.58,-4.01 -0.12,-0.29 0.16,-1.16 0.17,-0.93 0.01,0.24 0.16,-0.85 0.17,-0.97 0.04,-0.32 0.33,-1.74 0.34,-2.22 0.04,-8.03 -3.64,-8.42 -7.72,-19.04 -3.47,-9.04 -1.63,-25.74 -5.58,-34.1 -17,-2.71 -4.33,23.35 -39.74,15.38 -3.17,-5.37 -1.14,0.17 -1.9,-7.17 -2.8,-13 -6.15,-8 -18.24,-13.16 -6.46,100.33 103.68,155.02 172.91,80.76 33.44,-35.88 35.36,-116.82 -49.63,-136.12 -51.73,-11.74 -120.94,13.72 -121.72,50.7l15.78 -1.05c21.47,-32.96 98.69,-47.72 135.86,-15.09l8.45 13.98z"/>
   <path class="fil4" d="M302.76 1041.35l4.29 11.34c10.14,33.69 8.35,40.3 49.7,57.58 69.76,29.15 135.27,36.29 211.59,20.45 41.53,-8.62 56.64,-20.4 89.71,-34.59 -4.64,24.29 -44.96,104.48 -57.4,130.98l-57.12 127.98 42.56 -3.51c15.56,-95.75 39.99,-150.01 72.21,-232.59 4.68,-12 25.32,-61.31 26.31,-76.01 -6.06,-5.45 -23.34,-15.27 -23.89,-15.98 -3.87,-5.64 0.22,-2.67 -8.35,-6.39l-11.79 7.89c4.43,15.73 6.21,9.04 28.43,23.68 -1.96,25.92 -40.3,43.3 -67.87,54 -80.86,31.37 -223.31,31.66 -278.86,-48.34l29.54 -24.98 -6.13 -16.25c-11.16,2.51 -38.19,16.89 -42.93,24.73z"/>
   <path class="fil1" d="M724.09 680.51c-3.37,-3.81 -1.7,0.35 -1.47,-5.54l6.38 -20.33c2.56,-10.44 4.32,-20.55 4.48,-33.37 -17.26,10.12 -11.84,20.94 -37.62,15.59 -6.89,-13.16 1.24,-13.71 -15.95,-21.15 0.45,20.26 -1.65,38.24 -12.13,54.14l-11.62 11.47c12.06,0.32 16.58,1.49 22.97,9.81 9.54,12.41 0.51,10.58 4.88,22.36 -6.26,1.36 -6.79,4.06 -14.29,6.85 -2.98,1.11 -19.25,4.57 -19.64,4.63 -25.49,4.32 -32.32,-7.53 -37.97,-1.58 7.6,-0 8.96,1.21 17.34,2.09 -3.83,-19.82 -12.14,-16.12 5.43,-31.57l4.49 -4.05c-27.18,1.3 -43.37,-2.93 -53.47,-19.75 -8.8,-14.65 -13.87,-39.82 -3.53,-57.43 -5.81,-3.15 -5.5,5.95 -4.33,-5.71 10.71,-8.71 9.06,-14.52 26.74,-22.21 35.02,-15.23 71.84,-7.82 103.22,10.66 11.17,6.58 6.03,3.38 13.17,13.62l9.52 0.58c-0.72,-9.45 -1.08,-3.42 2.99,-5.51 -15.11,-33.54 -63.52,-52.88 -113.01,-42.98 -9.34,1.87 -23.48,5.74 -30.88,8.79 -28.08,11.57 -46.81,40.44 -45.8,74.27 1.35,44.9 35.31,77.7 74.5,85.2 49.53,9.48 80.87,-12.55 105.61,-48.86z"/>
   <path class="fil5" d="M638.64 1300.1l-1.32 1.82 -0.2 7.71c-2.55,11.28 -7.65,29.76 -7.23,40.42 34.07,-1.83 81.95,-17.5 116.03,-24.69 2.52,-41.15 -1.92,-127.52 -0.87,-137.29 -6.76,0.19 -26.34,16.25 -32.9,21.9 -3.95,3.4 -3.4,3.85 -7.39,7.17 -34.37,28.6 -9.61,7.67 -33.91,33.27 -14.48,15.25 -26.61,43.98 -32.22,49.69z"/>
   <path class="fil6" d="M571.04 905.57c-27.99,8.9 -48.44,19.75 -82.82,18.02 -33.66,-1.69 -50.6,-14.01 -77.22,-21.44l0.42 56.6c13.36,12.5 50.92,34.4 77.34,36.81 18.52,1.69 33.86,-1.58 50.35,-8 7.54,-2.94 14.12,-5.3 20.81,-9.13 11.16,-6.38 11.03,-11.54 19.59,-6.78 -0.26,-9.47 1.26,-62.19 -4.49,-64.67 -0.43,-0.19 -3.19,-1.16 -3.97,-1.41z"/>
   <path class="fil7" d="M653.43 114.1c0.29,0.58 0.81,0.76 0.97,1.7l3.01 9.98 7 14.91c5.9,13.84 9.39,22.91 3.13,39.44 -8.21,-9.71 -13.34,-21.07 -22.55,-27.4 0.48,13.96 3.04,8.55 6.19,19.78l-0.34 11.8c-2.24,8.57 -3.34,5.78 5.65,22.06 1.49,2.69 3.34,5.43 3.77,8.36 0.88,6.06 2.91,2.63 -1.48,5.96 -0.23,0.16 -0.74,-0.12 -0.82,-0.13 -0.08,-0.01 -0.73,-0.11 -0.82,-0.12 -8.62,-1.02 1.27,-6.19 -4.08,0.06 10.03,27.85 9.98,4.63 16.17,35.58 -9.86,-5.08 -1.34,-1.91 -7.16,-6.12 -3.99,-2.88 4.02,-0.93 -6.06,-3.05 -9.41,1.95 -32.93,-34.87 -96.05,-29.85 -41.89,3.33 -68,18.27 -92.15,37.31l0.58 1.62c7.29,-0.78 -0.07,0.78 6.74,-1.11 2.96,-0.82 2.45,-0.64 5.57,-2.01 16.53,-7.24 11.96,-8.19 37.08,-14.71 46.46,-12.07 73.22,-4.81 114.59,11.68 13.24,5.28 13.18,3.45 20.05,14.48 4.27,6.85 9.08,11.13 13.45,20.58 -3.54,2.55 0.55,0.06 -2.58,0.98 -11.51,3.4 4.1,-2.72 -2.99,0.77l0.56 7.63c1.89,6.71 4.17,10.82 5.8,17.72 1.77,7.49 1.09,13 3.07,19.13 16.99,7.46 24.88,13.13 34.58,25.63 5.48,-4.29 6.46,-5.39 14.67,-4.96 2.15,-3.85 10.26,-4.33 12.1,-4.97 -9.47,-6.09 -2.08,2.01 -11.53,-8.32 -5.12,-5.6 -10.9,-17.07 -21.21,-23.68 -7.07,-4.54 -1.16,-1.01 -6.98,-3.09 -0.69,-0.25 -3.05,-0.92 -3.55,-1.08 -0.35,-0.11 -1.4,0.11 -1.65,-0.55 -0.24,-0.64 -1.1,-0.29 -1.59,-0.56l-3.95 0 -3.99 7.51c-4.73,-5.91 -3.68,-20.32 -3.95,-27.23 -0.51,-13.19 -2.72,-14.28 -4.35,-25.52 1.06,4.03 5.28,14.98 7.08,24.63 5.42,-4.9 2.57,-0.09 6.57,-9.17l6.13 -25.39c9.39,-48.79 -3.88,-72.37 -14.09,-105.4 11.76,14.9 18.53,29.8 24.44,49.62 6.07,20.34 7.44,43.73 1.57,64.76 13.34,-4.35 21.8,-28.17 24.59,-42.01 2.57,-12.75 3.23,-31.04 -0.85,-43.11 -0.1,-0.3 -2.09,-4.72 -2.45,-5.37 -2.06,-3.65 -1.46,-2.5 -3.73,-4.87l-0.91 7.79 -54.53 -59.88c-5.46,-4.08 -2.22,-3.59 -8.73,-1.8z"/>
   <path class="fil1" d="M563.1 359.05l-6.1 22.73c-0.75,5.4 -2.38,9.96 -3.54,14.06 -2.73,9.66 -5.63,20.57 -7.56,29.19l-6.28 -3.91c-1.24,9.12 -8.87,29.88 -12.56,36.45 -5.85,10.43 -18.52,22.47 -21.72,30.85 33.34,-9.71 51.09,-11.06 76.9,-30.91 6.71,-7.89 8.48,-1.82 13.16,-12.64 -1.01,-7.06 3.08,-7.09 8.56,-12.04 7.43,-6.71 5.35,-8.66 16.5,-12.52 15.77,-17.81 41,-56.05 37.52,-92.79 -7.21,-6.6 -5.33,-8.31 -17.24,-14.32l1.23 5.53c0,0.15 0.06,0.81 -0.1,1.17 -11.25,-4.74 -26.83,-2.05 -35.32,3.97 -10.2,7.23 -33.82,65.11 -47.48,84.07l-3.97 5.48c4.36,-18.65 10.58,-47.99 10.64,-68.45l-2.64 14.05z"/>
   <path class="fil5" d="M171.07 1014.78c-4.59,7.22 -5.83,14.72 -6.13,25.06 -6.84,-7.52 -8.25,-12 -25.08,-8.29 -27.47,6.05 -55.03,33.3 -37.77,55.33 32.65,41.68 120.38,57.41 174.69,103.11l36.17 33.1c6.78,6.31 3.09,3.23 7.83,9.57 3.23,4.32 4.58,4.75 7.97,9.18 6.2,8.1 7.24,15.33 13.38,21.84 3.4,2.66 2.75,2.54 6.03,5.79 1.39,1.38 2.38,2.66 3.99,3.8 4.2,2.97 0.1,0.4 6.19,3.21 -5.65,-11.61 -11.56,-30.58 -18.23,-41.03 -13.28,-20.83 -29.07,-32.4 -42.24,-44.3 -5.64,-5.1 -8.27,-10.76 -13.79,-15.85l-35.2 -24.64c-14.21,-7.28 -84.01,-43.58 -93.69,-52.32l-16.08 -13.57c-14.12,-10.24 -14.49,-29.46 -1.59,-40.52 15.5,-6.7 41.02,19.33 49.37,27.3l21 21.23c5.82,5.89 43.83,37.72 52.89,39l-22.6 -29.47c-6.09,-4.94 -3.66,-0.55 -10.12,-9.7 -11.08,-15.7 -24.07,-27.15 -33.74,-55.28 -5.87,-17.08 -6.48,-27.9 -6.54,-48.31 -4.75,5.15 -6.1,5.39 -9.8,13.86 -3.82,8.75 -3.44,19.49 -6.91,11.92z"/>
   <path class="fil1" d="M476.97 89.79c4.02,-5.35 -5.32,-3.82 8.32,-3.11 10.32,0.54 9,8.34 19.62,12.59 11.5,4.6 23.37,6.33 29.9,12.74 18.32,4.93 42.98,17.54 57.67,26.38 21.92,13.19 17.53,12.74 34.96,29.79l9.98 11.15c6.03,-2.03 -6.08,-14.68 -9.39,-16.93l6.06 -1.35c-2.53,-9.34 -13.9,-21.93 -19.49,-34.67 9.69,4.01 13.11,5.17 19.27,10.53 15.79,13.75 10.37,10.47 11.11,15.83 9.21,6.33 14.34,17.7 22.55,27.4 6.26,-16.52 2.77,-25.59 -3.13,-39.44l-7 -14.91c-51.02,-59.76 -171.91,-29.84 -230.36,-105.79 1.77,14.77 9.84,31.26 17.07,41.5 14.46,20.46 12.06,14.73 32.85,28.3z"/>
   <path class="fil8" d="M716.73 992.45l-6.4 -28.74c-6.61,-5.09 -12.86,-18.44 -17.91,-23.25l-4.22 -3.25c-0.39,-0.34 -0.98,-0.77 -1.36,-1.12l-12.47 -13.13c-0.33,-0.29 -1.03,-0.82 -1.51,-1.27 16.15,-1.22 4.65,1.8 17.93,4.86 -1.93,-2.35 -2.13,-2.45 -4.59,-4.81 -0.37,-0.35 -0.96,-0.88 -1.34,-1.24l0.5 -8.93c-15.2,-3.91 -3.05,0.83 -5.87,-5.65 -7.57,-6.06 -23.46,-7.03 -33.72,-8.35 -14.34,-1.85 -24.26,-4.51 -38.61,-1.69 -6.39,11.28 -9.92,47.38 1.85,55.96l73.82 52.66c7.4,5.62 29.96,20.23 25.95,28.86 1.63,-7.33 2.89,-12.03 3.26,-20.04 0.95,-20.66 0.17,-15.43 4.68,-20.85z"/>
   <path class="fil9" d="M716.77 153.87l0.82 14.13c2.27,2.37 1.67,1.22 3.73,4.87 0.37,0.65 2.35,5.07 2.45,5.37 4.08,12.07 3.42,30.36 0.85,43.11 -2.79,13.84 -11.25,37.65 -24.59,42.01l-5.85 9.92c-8.57,16.83 -22.54,20.66 -13.57,36.26l3.95 0c6.17,-10.53 19.39,-14.01 35.58,-10.6 2.72,0.57 14.13,5.89 16.89,7.26 9.71,4.83 6.43,3.44 10.89,14.4 14.06,21.53 19.97,58.3 14.19,88.72 0.58,0.69 1.21,0.9 1.45,2.28 0.23,1.26 2.14,3.68 2.45,4.38 1.33,3.05 0.89,3.93 2.24,7.45 8.77,-3.96 2.46,-12.55 4.78,-19.09l2.58 -2.38c0.17,-0.13 0.94,-0.36 1.37,-0.63 -2.18,-7.22 -6.28,-37.55 -4.26,-42.75 4.48,23.19 3.17,16.74 7.53,12.72l-5.79 -27.68c-5.05,-4.47 -4.31,-3.16 -5.83,-10.83 -1.98,-1.8 -2.11,-1.28 -4.2,-4.48 -1.56,-2.38 -1.18,-2.45 -2.51,-4.92 -3.1,-5.78 -2.68,-5.34 -6.43,-9.47 -4.73,-2.78 -1.75,-0.37 -4.97,-6.32 -1.75,-3.24 -3.39,-5.69 -5.01,-10.12 4.49,2.93 5.64,4.33 11.22,6.59l1.54 -0.69c-5.4,-8.29 -8.48,-7.44 -17.98,-13.27 -14.8,-9.1 -4.23,2.42 -4.26,-12.17 -0,-0.16 -0.17,-0.83 -0.04,-1.2 15.69,0.03 24.86,3.88 36.62,10.98 9.49,4.13 16.34,9.11 24.86,13.02 0.63,-10.84 -7.21,-10.19 -13.37,-16.95 -3.31,-3.62 -2.18,-1.93 -4.79,-7.35l13.66 0.22 -4.89 -2.72c-12.71,-3.61 11.52,1.17 -6.88,-1.41 13.05,-4.23 2.37,0.4 7.77,-5.34 -11.79,1.04 -13.46,3.33 -17.8,-4.62 -6.94,-6.77 0.02,-0.4 2.34,-14.82l-5.05 -4.33c-6.04,3.5 -1.26,3.64 -8.98,1.12 -9.83,-8.25 9.18,-29.85 1.02,-43.23 -1.9,8.68 -15.46,37.72 -24.52,44.66 -1.74,-5.56 0.56,-10.11 2.13,-15.98 1.91,-7.12 2.65,-11.67 5.38,-18.28l0.58 -11.38c-6.3,-8.54 1.69,-31.41 -10.64,-72.69l-14.8 -1.21c0.73,6.77 2.82,10.91 2.87,15.22 0.18,14.16 1.41,9.27 -4.78,12.24z"/>
   <path class="fil4" d="M324.79 1117.23c4.27,18.28 15.74,41.49 21.93,59.59 6.48,18.97 14.34,37.82 20.97,58.41l32.22 119.23c3.59,6.83 4.31,-1.59 1.57,3.08l3.52 1.47c0.47,0.11 1.34,0.44 1.94,0.55 22.46,4.09 109.91,2.88 135.81,3.02 19.35,0.1 27.86,-2.49 46.62,-2.49l0.14 -4.94c-27.49,0 -54.14,2.17 -81.47,3.29 -28.28,1.16 -56.97,-3.21 -83.95,-3.29l26.14 -0.84c-17.7,-43.07 -40.09,-89.26 -61.45,-130.18 -11.3,-21.65 -21.92,-42.76 -33.67,-63.06l-32.79 -65.93c1.25,9.1 4.18,10.81 3.9,17.22 -0.36,8.47 2.94,-1.33 -1.43,4.87z"/>
   <path class="fil8" d="M339.85 897.99c-0.53,0.5 -1.15,1.19 -1.51,1.57 -0.35,0.37 -1.04,1.11 -1.46,1.55l-6.42 6.56c-21.62,19.63 -10.31,11.52 -23.36,26.11 -24.07,26.91 -16.59,25.26 -26.86,37.58l-5.4 21.88c4.94,6.8 1.4,15 5.56,37.43 25.66,-26.3 18.21,-17.68 43.37,-38.09l22.94 -16.55c16.18,-10.35 35.41,-16.29 40.44,-34.87 3.62,-13.37 2.11,-33.22 -0.08,-47.32l-47.23 4.15z"/>
   <path class="fil0" d="M660.41 643.05c1.55,-4.37 1.58,-5.37 2.85,-9.21 0.2,-0.61 0.44,-1.39 0.63,-1.94l2.45 -5.61c0.62,14.96 -2.85,23.66 -8.83,33.71 -13.74,23.11 -34.46,25.38 -54.06,7.42l-2.71 -2.4c-8.18,-7.51 -8.74,-11.77 -8.7,-26.19 7.12,-0.1 16.83,-1.59 19.84,-1.14l8.26 2.79c23.54,4.54 5.55,-9.03 40.27,2.56zm-29.97 -28.66c2.56,-4.72 2.9,-4.2 6.47,-7.68 34.88,-2.81 2.8,41.23 -6.47,7.68zm-48.07 -1.73l4.15 -2.95c-26.28,71.73 57.38,102.3 80.77,52.38 12.29,-26.23 4.89,-30.45 5.55,-54.25 31.61,13.17 16.97,9.38 28.5,26.37 11.46,0.89 19.61,-6.59 26.09,-13.63 3.99,-4.34 5.01,0.69 3.25,-10.98l-9.52 -0.58c-7.13,-10.24 -1.99,-7.04 -13.17,-13.62 -31.38,-18.48 -68.2,-25.89 -103.22,-10.66 -17.68,7.69 -16.04,13.5 -26.74,22.21 -1.17,11.65 -1.48,2.55 4.33,5.71z"/>
   <path class="fil1" d="M298.76 332.91c-13.98,4.96 -17.67,14.99 -27.07,22.87 -8.31,6.97 -5.08,5.38 -10.82,13.91 -4.05,6.03 -5.34,9.29 -11.74,13.53 -0.23,10.07 -0.34,5.39 -4.47,14.92 -1.61,3.73 -3.22,8.55 -4.45,12.86 -3.14,10.99 -4.03,21.76 -3.77,33.2l0.08 13.16c-0.02,26.43 24.03,85.15 37.25,98.73l2.35 -29.99 0.37 -6.22 -5.25 15.36c-0.47,-29.57 -4.92,-67.76 13.37,-89.36 -6.99,-8.66 -12.23,-14.83 -28.59,-14.97 8.59,-7.62 15.41,-13.48 23.27,-20.44 7.85,-6.96 12.68,-14.49 20.31,-22.96 4.67,-14.5 17.08,-34.65 22.71,-51.04l0.65 -9.46c-3.38,-3.1 6.08,-2.74 -8.11,-2.38 -5.89,5.82 -8.43,6.43 -16.12,8.28z"/>
   <path class="fil7" d="M485.19 364.3c-3.09,8.87 -0.22,2.57 -5.04,9.01 -7.67,10.26 -19.19,20.97 -31.34,26.7 -15.95,7.52 -9.33,6.77 -19.28,3.81 -8.5,-0.73 -13.81,8.18 -33.17,16.46 -9.23,3.95 -10.08,4.17 -14.48,10.23l23.17 -2.08 19.45 -4.56 -2.81 7.19c2.76,1.09 5.63,-0.86 26.27,-15.03l26.9 -20.51c22.4,-17.1 31.9,-27.84 50.24,-43.29 -5.16,-4.23 2.03,-2.15 -5.43,-1.33 -2.67,0.3 -2,1.06 -5.4,2.4l11.14 -8.71c0.33,-0.4 0.71,-1.03 1.03,-1.44l12.24 -12.57c0.38,-0.34 0.85,-0.89 1.24,-1.21 7.58,-6.33 26.25,-13.62 36.96,-15.55l-6.18 7.7c-4.09,8.36 3,-10 -0.82,3.89 -3.06,11.16 -6.42,6.92 -12.26,17.14l-5.52 -0.78c-2.97,1.44 -0.34,1.88 -6.19,5.07 -6.39,28.67 -29.2,64.4 -45.82,76.28 3.49,4.68 -0.38,1.39 6.09,4.04 6.2,-5.73 20.13,-18.52 23.57,-24.88l13.68 -22.23c2.74,-5.59 0.27,-8.26 2.13,0.28 0.99,4.55 0.47,5.81 0.13,11.07 6.29,-5.81 3.28,0.12 4.66,-19.59 0.62,-8.93 4.06,-6.26 0.63,-14.17l-0.27 15.96 12.38 -14.56 2.64 -14.05c-0.06,20.46 -6.28,49.8 -10.64,68.45l3.97 -5.48c13.66,-18.96 37.28,-76.85 47.48,-84.07 8.49,-6.02 24.07,-8.71 35.32,-3.97 0.16,-0.36 0.11,-1.03 0.1,-1.17l-1.23 -5.53c-2.24,-6.83 2.85,-5.42 -20.08,-11.92 -33.65,-9.54 -77.61,11.43 -103.46,29.96 -19.51,13.99 -6.39,7.77 -17.62,19.54 -9.35,9.8 -13,2.72 -14.39,13.5z"/>
   <path class="fil3" d="M361.34 1349.97l-1.1 -7.42c-0.54,0.58 -1.5,0.95 -2.08,1.17 -4.92,1.9 -5.16,2.89 -12.82,1.22 -4.49,-0.98 -10.01,-3.18 -14.03,-4.69 -13.3,-35.29 -12.07,-52.93 -33.7,-82.09 -9.09,-12.25 -28.09,-25.52 -44.14,-42.1 -9.35,-9.66 -3.61,-4.4 -7.98,-19.27 -4.15,138.77 -7.56,128.92 28.5,137l87.36 16.17z"/>
   <path class="fil1" d="M525.09 352.23c-18.35,15.45 -27.84,26.19 -50.24,43.29l-26.9 20.51c-20.64,14.17 -23.51,16.12 -26.27,15.03 -15.16,4.47 -17.9,26.3 -46.71,47.72l-8.97 8.06c51.13,-6.13 104.73,-25.04 140.17,-59.67 -6.47,-2.65 -2.6,0.64 -6.09,-4.04 16.62,-11.89 39.43,-47.61 45.82,-76.28l-5.73 -2.11c-3.08,1.12 -2.21,0.48 -5.37,1.85 -3.42,1.49 -5.87,3.54 -9.72,5.64z"/>
   <path class="fil5" d="M632.02 1256.17c-3.72,8.06 -7.52,22.84 -7.3,32.3 7.17,-5.66 6.48,-5.82 11.79,-13.07 2.17,-2.95 2.95,-4.28 5.65,-7.11 7.78,-8.16 2,-3.04 4.72,-3.18 3.86,-4.98 6.21,-11.35 9.37,-16.96l52.48 -56.45c5.83,-5.05 8.31,-5.93 15.8,-11.49 46.29,-34.34 57.51,-30.77 106.37,-54.51 13.68,-6.65 55.48,-33.92 59.48,-48.03 2.41,-26.25 -18.02,-42.47 -40.35,-46.35 -2.12,1.85 -14.81,4.21 -19.21,6.71 14.57,6.92 32.44,0.13 32.93,22.42 0.5,22.68 -17.47,31.36 -38.59,44.38 -6.38,3.93 -9.75,7.38 -15.9,11.26 -18.38,11.62 -47,19.03 -74.81,36.75 -42.67,27.2 -19.02,6.25 -61.68,50.06 -22.26,22.86 -16.6,26.38 -21.8,32.63 -6.79,6.49 6.85,-4.47 -2.92,1.27 -11.55,6.79 -4.7,16.93 -16.06,19.37z"/>
   <path class="fil9" d="M570.59 136.96c7.78,2.63 16.25,9.05 20.05,16.04l4.09 10.58c0.21,0.57 0.51,1.18 0.71,1.77 2.17,6.49 1.96,3.83 2.13,13.28l-17.08 -4.02 -53.15 -4.33c-33.57,1.04 -67.79,13.76 -90.36,29.27 18.27,3.78 45.97,-10.17 64.34,-7.13l-33.1 14.86c-7.84,4 -26.12,14.22 -29.06,21.62 32.32,-21.05 76.89,-37.28 115.96,-36.83 16.7,0.19 48.13,8.86 61.36,17.02 13.96,8.62 33.95,25.85 39.52,37.82 10.08,2.12 2.08,0.17 6.06,3.05 5.82,4.21 -2.7,1.04 7.16,6.12 -6.2,-30.95 -6.14,-7.74 -16.17,-35.58 5.35,-6.25 -4.54,-1.08 4.08,-0.06 0.1,0.01 0.74,0.11 0.82,0.12 0.08,0.01 0.59,0.29 0.82,0.13 -6.34,-13.91 -14.36,-29.68 -21.36,-41.37l-9.98 -11.15c-17.44,-17.04 -13.04,-16.6 -34.96,-29.79 -14.69,-8.84 -39.35,-21.45 -57.67,-26.38l-2.18 3.25c13.29,2.88 28.23,14.88 37.95,21.71z"/>
   <path class="fil5" d="M832.11 1151.02c-18.52,18.47 -25.16,14.52 -31.44,25.74 0.69,0.41 1.66,0.73 2.26,0.87 20.73,4.98 56.56,-34.55 91.1,-42.6 10.37,-2.42 25.26,4.67 27.88,11.43 4.27,11.07 -12.44,56.59 -17.73,70.15 -10.25,26.32 -15.55,46.84 -35.65,55.59l6.31 5.47c12.55,-2.37 41.12,-18.25 54.94,-26.05l27.67 -17.29c-3.8,-40.06 -26.81,-71.59 -31.02,-89.18 10.32,8.76 5.85,7.39 10.42,4.47 -30.35,-45.42 -68.66,-30.29 -102.32,-0.93 -0.25,0.22 -1.03,1.56 -1.21,1.16 -0.18,-0.4 -0.8,0.78 -1.19,1.17z"/>
   <path class="fil5" d="M32.11 1187.87c2.8,5.21 -2.57,4.48 2.12,4.18l5.75 -10.3c-0.52,8.52 -7.89,42.39 -12.8,50.05 6.79,4.74 4.85,4.33 12.86,6.6 16.36,-2.16 41.62,22.11 56.61,28.62 2.91,-4.22 2.05,-9.15 1.4,-12.27 -5.39,-25.77 -49.06,-89.27 -27.26,-111.45 20.98,-21.34 55.07,11.11 99.56,32.28 1.88,0.89 5.94,2.94 6.89,3.11 9.26,1.72 4.19,2.24 9.28,-1.93 0.16,-10.09 2.54,-6.67 -10.85,-12.35 -7.68,-3.26 -38.75,-18.02 -39.39,-27.08 -42.05,-21.21 -44.6,-27.49 -79.47,7.14 -9.34,9.28 -20.96,30.46 -24.7,43.4z"/>
   <path class="fil1" d="M783.85 634.99c0.39,0.63 1.45,0.63 1.73,1.41 2.21,6.37 27.22,-22.3 29.97,-24.44 10.44,-8.09 25.36,-5.55 31.22,20.92l-0.53 6.31c-10.57,6.32 -7.81,1.04 -18.92,12.02 -13.72,13.55 -8.31,12.76 -13.69,5.36l-1.32 11.74c-0.21,0.57 -0.83,1.32 -1.03,1.76 -0.2,0.44 -0.79,1.09 -1.19,1.64 -5.67,22.65 -14.67,21.87 -37.31,27.36l0.54 21.56 17.11 0.48 4.51 7.93c3.58,4.14 2.51,3.19 7.99,4.83 77.31,-41.09 70.39,-150.28 17.36,-145.44 -23.11,2.11 -28.54,29.03 -36.44,46.56z"/>
   <path class="fil1" d="M774.51 343.62l5.79 27.68c3.4,3.39 0.99,-0.24 4.68,6.19 0.98,1.7 2.82,6.17 3.85,8.43 2.4,5.26 4.86,9.43 6.55,14.23l5.24 6.24c0.52,0.78 2.89,5.21 3.53,6.44 8.14,15.62 12.68,33.12 13.8,50.96 -14.22,-7.37 -3.04,-4.11 -20.64,-27.22 -7.63,-10.02 -14.8,-19.58 -17.16,-35.24 -0.72,2.74 -0.15,3.68 -2.16,6.66 -5.15,7.67 0.21,1.16 -2.26,1.87l-1.16 -1.11c1.59,20.92 13.3,39.25 18.15,56.08 9.22,7.49 5.02,10.45 15.19,15.86 17.28,-12.5 15.22,-30.61 18.69,-57.34 4.73,-36.44 -1.81,-58.83 0.8,-70.95 0.1,-0.44 0.34,-1.3 0.62,-1.91 5.39,18.76 9.06,27.79 18.54,40.22 -7.65,-18 -22.15,-38.15 -25.58,-58.28l-23.46 -31.7c-8.52,-3.91 -15.37,-8.89 -24.86,-13.02 -3.03,7.13 -1.48,-3.78 -0.1,3.97 0.03,0.19 1.12,4.4 1.39,5.21 4.08,12.04 12.24,16.19 15.07,34.98 4.26,28.34 -6.76,24.77 8.41,56.4 -9.55,-7.88 -20.29,-35.7 -23.6,-49.69l0.68 5.03z"/>
   <path class="fil6" d="M213.7 285.53l-15.42 4.38c-48.84,23.76 -92.08,95.84 -88.04,152.86 13.54,-19.86 6.59,-26.62 43.43,-61.33 8.48,-7.99 12.26,-10.35 20,-16.24l34.63 -38.12c10.45,-11.16 5.62,-2.55 16.66,-20.56 5.26,-8.58 7.66,-15.25 12.69,-22.49l-23.94 1.5z"/>
   <path class="fil7" d="M792.72 464.84c-0.55,0.05 0.39,1.93 -3.62,-5.59 -13.69,-1.72 -3.63,-1.36 -6.37,3.11 8.61,16.33 21.08,25.29 27.87,37.91 -7.97,-0.9 -20.3,-8.34 -26.2,-13.45 -5.56,-4.81 0.98,-2 -8,-7.34 0.81,8.01 8.82,22.4 12.08,25.63 3.91,3.88 16.93,10.92 23.58,12.87 6.31,-8.71 14.77,-13.46 25.33,-15.64 -1.61,4.56 -4.19,9.85 -6.99,13.16 -2.66,3.15 -1.89,2.26 -5.39,4.57l-9.88 5.13 7.42 0.15c16.4,-6.4 9.1,-13.58 23.9,-23.86 1.12,-13.3 7.89,-27.13 8.76,-45.54 1.02,-21.69 -1.69,-31.13 -4.75,-50.57l7.28 7.38c6.71,3.08 2.3,-1.07 5.23,3.55 -5.49,-15.89 -11.35,-42 -21.01,-53.84 -8.05,-9.86 -4.16,-9.17 -8.39,-15.62 -6.05,-10.8 -1.82,-6.57 -11.23,-14.02l-1.34 -0.39c3.43,20.13 17.94,40.28 25.58,58.28 -9.49,-12.43 -13.16,-21.46 -18.54,-40.22 -0.28,0.61 -0.52,1.46 -0.62,1.91 -2.61,12.13 3.92,34.51 -0.8,70.95 -3.47,26.73 -1.41,44.84 -18.69,57.34 -10.17,-5.4 -5.97,-8.36 -15.19,-15.86z"/>
   <path class="fil6" d="M797.52 300.73l23.46 31.7 1.34 0.39 0.5 -7.94c14.61,0.31 9.72,-2.99 15.88,5.98 2.29,3.33 4.66,10.47 6.37,15.96l-11.52 0.01c4.23,6.44 0.34,5.76 8.39,15.62 9.67,11.84 15.52,37.95 21.01,53.84 -2.94,-4.61 1.48,-0.46 -5.23,-3.55 4.49,11.13 11.36,22.52 16.54,36.24 5.1,13.48 10.43,28.01 13.07,42.13 10.98,-18.08 6.75,-59.01 5,-81.53 -6.42,10.48 -2.75,21.9 -2.84,33.88 -0.07,8.68 -4.01,23.91 -2.85,27.56 1.42,-15.97 -2.3,-38.18 -6.06,-50.55 -5.41,-17.84 -16.94,-31.99 -13.19,-37.81 4.12,10.24 12.22,31.11 18.62,38.49 -1.82,-15.33 -1.02,-24.32 -5.95,-37.15l4.88 -0.74c-1.93,-16.18 -22.99,-50.65 -34.75,-63.7 -4.63,-5.14 -6.43,-9.26 -10.88,-14.15 -7.52,-8.27 -29.76,-22.49 -44.96,-27.98l-1.33 -0.76 -13.66 -0.22c2.61,5.41 1.48,3.72 4.79,7.35 6.16,6.75 14,6.11 13.37,16.95z"/>
   <path class="fil9" d="M472.82 363.62c7.87,-0.42 5.33,-0.49 12.36,0.68 1.39,-10.78 5.04,-3.7 14.39,-13.5 11.23,-11.77 -1.9,-5.55 17.62,-19.54 25.85,-18.53 69.81,-39.5 103.46,-29.96 22.93,6.5 17.84,5.09 20.08,11.92 11.91,6 10.03,7.72 17.24,14.32 12.41,0.26 3.36,0.34 7.27,-3 -0.59,-10.87 -1.35,-13.44 -6.07,-22.55 -5.15,-9.94 -7.88,-9.54 -6.33,-20.18 -8.8,-13.78 -37.14,-18.88 -57.98,-14.99 -45.84,8.54 -74.84,43.31 -104.25,74.92 -7.36,7.9 -8.18,12.67 -17.79,21.89z"/>
   <path class="fil1" d="M718.99 351.8c-8.21,-0.43 -9.19,0.67 -14.67,4.96l0.17 0.67 10.4 27.83c10.25,37.33 12.66,65.31 6.56,103.06 8.93,-6.82 23.88,-30.82 28.93,-44.4 7.19,-11.86 10.59,-18.72 11.75,-34.61 5.78,-30.42 -0.13,-67.19 -14.19,-88.72l-4.06 2.69c-0.34,0.23 -1.06,0.69 -1.39,0.91 -1.34,0.88 -2.56,2.51 -2.85,1.88 -0.2,-0.45 -0.98,0.62 -1.46,0.95 0.26,6.29 4.92,28.53 6.72,32.75 0.11,8 -8.56,-0.65 -8.88,26.75 -5.8,-17.82 -12.61,-19.81 -17.04,-34.72z"/>
   <path class="fil6" d="M608.27 453.91c-7.24,11.25 -34.34,24.76 -50.64,31.62 -26.59,11.19 -43.33,11.11 -73.53,10.09 5.69,10.89 -5.45,4.21 7.77,8.45 10.38,3.33 43.87,0.1 55.01,-1.86 17.87,-3.14 36.11,-14.11 53.08,-23.78 6.45,-3.68 22.11,-15.07 25.84,-21.18 1.29,-2.12 0.74,-2.32 3.82,-6.17 10.34,-12.92 8.21,2.31 28.52,-31.07 3.08,-5.07 9.53,-19.58 15.93,-24.88 0.48,2.84 -0.89,10.63 -1.94,13.64 13.99,10.28 11.07,13.53 21.48,27.87 2.9,3.99 1.01,-0.84 4.83,7.55l6.99 32.29c-1.92,-3.22 1.88,-28.52 1.38,-38.33 -0.64,-12.64 -5.82,-32.56 -4.86,-40.81l-2.36 -7.48c-8.27,-3.51 -19.08,-10.69 -33.14,-12.76l-4.42 9.45c-1.98,3.89 -3.82,7.34 -6.02,11.46 -3.74,6.98 -9.4,15.17 -13.66,21.13 -10.59,14.84 -7.82,8.64 -15.05,17.02 -8.81,10.2 -6.57,9.5 -19.02,17.75z"/>
   <path class="fil7" d="M436.99 199.55c-7.97,6.32 -6.35,3.08 -14.15,7.76 -18.35,11 -33.65,26.86 -49.38,42.03 -24.96,24.07 -85.81,52.5 -117,61.18 11.06,-0.76 24.81,-1.47 31.45,-3.9 24.33,0.28 73.83,-20.6 90.92,-34.75 9.84,-8.16 29.47,-29.02 43.64,-31.13 5.2,-0.93 6.11,-0.72 10.34,-3.6 11.73,-8.02 4.3,-2.02 6.37,-8.24 2.94,-7.4 21.21,-17.61 29.06,-21.62l33.1 -14.86c-18.38,-3.04 -46.07,10.91 -64.34,7.13z"/>
   <path class="fil5" d="M245.48 1196.81c4.38,14.88 -1.36,9.62 7.98,19.27 16.05,16.58 35.05,29.85 44.14,42.1 21.64,29.16 20.41,46.79 33.7,82.09 4.01,1.51 9.54,3.71 14.03,4.69 7.66,1.67 7.9,0.67 12.82,-1.22 0.58,-0.22 1.54,-0.59 2.08,-1.17l-6.6 -30.85 0.08 -7.13c-10.33,-10.36 -32.73,-56.81 -74.79,-92.21l-31.1 -24.06c-2.47,3.57 -3.27,-8.16 -2.35,8.51z"/>
   <path class="fil7" d="M319.44 181.43c24.88,-7.1 24.55,-13.52 25.03,-14.47 10.95,-2.19 20.26,-7.44 34.69,-10.45 16.03,-3.34 28.42,-4.16 35.87,-11.78 -50.41,-5.03 -107.84,38.76 -179.18,-1.48 -5.86,-3.31 -14.62,-9.05 -20.58,-14.05 -9.1,-7.65 -8.69,-13.55 -17.4,-20.18 11.76,46.35 55.15,90.65 103.63,75.95 7.48,-2.27 13.29,-6.25 17.95,-3.53z"/>
   <path class="fil10" d="M657.98 327.54c3.48,36.74 -21.76,74.98 -37.52,92.79 -3.76,7.8 0.57,1.12 -5.89,8.34 -2.47,2.77 -3.3,3.71 -5.77,6.4 -5.26,5.72 -6.52,6.75 -13.39,9.83 -4.68,10.82 -6.45,4.75 -13.16,12.64 4.71,14.96 2.04,2.39 -2.14,8.84 -1.71,2.63 -4.85,4.03 -7.43,5.39 -12.87,6.75 -37.52,17.98 -50.58,18.76 4.3,-4.17 21.86,-3.37 45.37,-15.8 16.01,-8.46 33.19,-21.66 40.82,-20.8 12.45,-8.25 10.22,-7.54 19.02,-17.75 7.23,-8.38 4.46,-2.18 15.05,-17.02 4.26,-5.96 9.92,-14.15 13.66,-21.13 2.21,-4.12 4.05,-7.57 6.02,-11.46l4.42 -9.45c14.06,2.07 24.87,9.24 33.14,12.76 5.66,-0.85 8.3,-3.37 13.18,16.33 2.03,8.19 3.46,16.34 4.46,24.81 2.41,20.45 -1.89,37.43 -1.03,51.45 4.93,-100.48 -15.09,-104.48 -15.04,-116.23 0,-0.65 0.05,-1.38 0.15,-2.04l3.17 -6.73 -0.17 -0.67c-9.7,-12.5 -17.59,-18.17 -34.58,-25.63 -1.97,-6.12 -1.29,-11.64 -3.07,-19.13 -1.63,-6.9 -3.91,-11.01 -5.8,-17.72 -2.92,-4.27 -5.42,-7.87 -8.03,-12.48 -1.55,10.64 1.18,10.24 6.33,20.18 4.72,9.11 5.48,11.69 6.07,22.55 -3.91,3.34 5.14,3.26 -7.27,3z"/>
   <path class="fil1" d="M232.6 709c-2.87,3.16 -0.77,0.51 -3.53,4.55 -0.23,0.34 -0.79,2.15 -0.96,1.75 -0.18,-0.41 -0.6,1.22 -0.89,1.83 -8.93,-14.96 -24.54,-11.62 -39.31,-27.97 -24.34,-26.94 -20.13,-62.58 -2.15,-72.2l6.95 8.75c0.22,-0.44 0.96,0.97 1.5,1.38l-8.13 -30.33c-34.47,10.36 -35.95,62.38 -18.86,95.55 15.24,29.56 42.87,54.78 78.24,56.01l-12.87 -39.32z"/>
   <path class="fil1" d="M653.43 114.1c6.52,-1.79 3.27,-2.28 8.73,1.8l54.53 59.88 0.91 -7.79 -0.82 -14.13c-4.17,-12.91 -11.69,-21.67 -16.36,-32.78 -26.86,-24.27 -13.51,-20.94 -53.5,-44.38 -23.68,-13.88 -44.8,-20.23 -73.76,-25.96 16.21,6.72 31.63,17.41 43.33,26.63l36.95 36.73z"/>
   <path class="fil5" d="M313.32 905.45c-3.2,-1.41 -7.23,1.01 -14.64,4.68 -20.97,10.39 -25.86,15.01 -36.93,38.04 -8.33,17.33 -15.95,61.66 -4.63,73.15 13.43,13.63 11.48,-33.02 23.13,-49.97 10.26,-12.32 2.78,-10.66 26.86,-37.58 13.05,-14.59 1.74,-6.49 23.36,-26.11l6.42 -6.56c0.42,-0.44 1.11,-1.18 1.46,-1.55 0.36,-0.38 0.98,-1.07 1.51,-1.57 -9.93,2.5 -20.96,1.98 -26.53,7.46z"/>
   <path class="fil7" d="M187.18 510.77c6.43,26.25 14.19,40.58 23.74,61.26 0.33,0.71 0.68,1.38 1,2.03l2.31 4.06c-2.69,-25.33 9.39,-92.78 16.98,-119.09l-0.96 -12.56c-8.41,-1.44 -4.03,1.28 -12.15,1.26 -11.6,-0.02 0.61,0.58 -10.37,-3.53 -0.36,0.61 -0.83,1.4 -1.1,1.83 -10.24,16.64 -20.91,46.6 -19.45,64.74z"/>
   <path class="fil1" d="M744.12 200.32l-0.58 11.38c5.15,-19.68 3.96,-43.57 3.97,-66.33 7.83,7.83 3,9.77 15.34,26.1 7.76,10.27 9.63,18.47 10.48,33.48 0.09,3.2 -0.03,6.76 0.53,9.99 0.17,0.97 1.21,5.09 1.54,5.84 1.94,4.5 0.9,1.99 3.27,4.83 10.79,-58.85 4.74,-87.01 -35.38,-133.66 -9.78,-11.37 -16.5,-21.02 -33.93,-26.36 3.24,7.47 19.69,27.66 28.14,54.53 10.37,32.97 5.87,46.47 6.64,80.19z"/>
   <path class="fil6" d="M232.6 709c-12.57,-43.51 -10.56,-44.66 -31.99,-74.74 -1,-1.41 -1.98,-2.73 -3.12,-4.06l-3.28 -3.1c-0.54,-0.41 -1.28,-1.81 -1.5,-1.38l-6.95 -8.75c-17.99,9.61 -22.19,45.25 2.15,72.2 14.77,16.35 30.38,13.01 39.31,27.97 0.3,-0.61 0.72,-2.24 0.89,-1.83 0.17,0.4 0.73,-1.41 0.96,-1.75 2.76,-4.04 0.66,-1.39 3.53,-4.55z"/>
   <path class="fil2" d="M213.92 1314.2l-3.99 -51.73 5.68 12.25c10.19,-15.93 3.18,-16.14 10.26,-24.97l1.07 63.26 -9.29 5.21 12.16 4.23 2.21 -144.85c-8.46,-6.05 -18.72,-10.66 -28.63,-15.41l2.79 121.13c1.35,25.47 -0.98,32.43 7.74,30.87z"/>
   <path class="fil9" d="M287.9 306.62c3.87,2.93 2.75,3.76 13.18,2.81 4.31,-0.39 8.55,-1.1 13.65,-1.3 4.95,8.07 -2.57,4.61 7.46,8.16 6.29,-3.19 14.5,-9.22 20.96,-10.43 -9.44,6.17 -12.43,21.3 -20.82,30.62 -5.64,16.39 -18.05,36.54 -22.71,51.04 1.48,0.53 9.71,-1.7 -5.99,17.41 -5.29,6.44 -10.12,8.35 -15.49,14.4l27.21 -29.86c8.31,-9.53 5.39,-8.88 9.21,-5.31 8.71,-5.18 41.8,-66.97 47.51,-76.83 3.84,-6.64 6.77,-12.75 10.89,-18.88 6.49,-9.66 3.75,-2.79 15.78,-16.27l33.73 -31.43c-14.17,2.1 -33.8,22.97 -43.64,31.13 -17.08,14.16 -66.59,35.04 -90.92,34.75z"/>
   <path class="fil5" d="M825.98 1035.25c-2.56,-8.59 -5.18,-20.2 -8.71,-28.66 -2.9,-6.95 -6.54,-16.82 -12.96,-20.87 -14.32,-0.65 -0.99,3.74 -6.12,0.28 1.7,32.84 -7.65,60.61 -23.38,83.44l-11.82 15.53c-6.87,9.44 -5.59,10.66 -11.45,15.78 -8.47,7.39 -20.11,19.17 -25.13,29.86 18.57,-9.28 33.36,-23.15 47.94,-36.83l18.96 -15.76c8.24,-9.96 5.05,-12.94 20.69,-28.95 4.35,-4.45 8.03,-7.6 11.97,-13.82z"/>
   <path class="fil2" d="M766.39 1317.86c-4.42,-9.95 -2.17,-31.35 -1.52,-44.48l6.86 -0.93c6.81,-2.45 -1.91,-3.88 3.77,-1.15 3.44,1.66 0.82,2.17 0.54,2.08 0.04,-14.37 -1.45,-30.35 4.82,-39.59 0.03,15.71 0.52,31.32 0.39,47.02 -0.05,6.44 0.32,16.5 -0.41,22.55 -1.17,9.66 -0.48,9.27 -6.73,10.78l9.43 -1.11 3.17 -151.88c-10.15,3.55 -18.89,8.96 -28.27,13.14l2.36 146.7 5.6 -3.14z"/>
   <path class="fil9" d="M716.72 543.06c3.46,-14.74 -8.17,-18.46 -22.05,-21.68 -26.26,-6.09 -113.4,-14.11 -109.1,20 12.2,4.94 49.01,-2.95 68.76,-1.09 11.08,1.04 54.67,4.8 62.39,2.78z"/>
   <path class="fil6" d="M189.83 362.03c-3.57,15.07 -14.74,36.61 -21.82,51.38 -7.7,16.05 -14.61,36.08 -18.25,54.83l-1.14 17.31c23.02,-2.57 7.24,-12.15 24.83,-35.13 3,-3.92 5.91,-6.16 5.7,-10.03 0.69,10.34 -1.18,0.18 6.12,4.85 0.75,-16.56 7.77,-16.46 10.63,-43.58 1.1,-10.49 1,-10.44 5.12,-15.65 2.74,-17.42 13.37,-39.18 21.65,-50.92l-1.76 -1.51c-10.26,4.43 -20.82,18.37 -31.07,28.46z"/>
   <path class="fil11" d="M185.26 445.23c-4.64,10.31 -12.02,15.22 -15.21,28.28 4.01,4.8 2.55,-4.89 2.29,7.98 -0.45,22.23 -3.04,40.2 7.26,66.02l-1.05 -29.72 2.96 -21.63c2.82,3.22 0.96,-2.01 3.88,6.65 0.87,2.58 1.36,5.86 1.78,7.94 -1.46,-18.14 9.21,-48.1 19.45,-64.74 0.26,-0.43 0.73,-1.22 1.1,-1.83 10.98,4.11 -1.23,3.51 10.37,3.53 8.12,0.01 3.74,-2.7 12.15,-1.26l0.96 12.56 5.33 -1.67 -0.08 -13.16c-8.07,-2.2 -2.8,1.1 -7.68,-3.26l1.83 -32.01 -5.67 -5.17 -5.51 9.81c1.96,10.7 5.75,4.44 2.99,16.45 -1.44,6.28 -4.89,10.79 -11.77,11.27l-1.04 -6.38c-3.4,-34.17 -11.69,26.02 -4.73,-45.96 -0.82,-0.08 -1.6,0.5 -1.79,0.35 -1.68,-1.29 0.52,5.19 -2.07,-3.29 -4.12,5.21 -4.01,5.15 -5.12,15.65 -2.86,27.12 -9.87,27.02 -10.63,43.58z"/>
   <path class="fil9" d="M757.88 468.04c2.15,9.21 6.82,17.4 10.16,29.88 13.31,49.66 6.68,82.96 17.56,101.34l15.76 -14.73c0.06,-0.19 0.01,-0.87 0.04,-1.05l1.8 -6.55c-20.95,-29.85 -7.46,-16.51 -14,-54.88 7.95,4.72 8.91,3.72 16.27,9.74 0.81,0.15 2.87,0.44 3.33,0.39l8.21 -2.66c4.11,-2.51 3.32,-2.51 5.52,-4.18l-7.42 -0.15c1.09,-10.24 1.67,-5.07 -3.06,-7.22 -6.65,-1.94 -19.66,-8.99 -23.58,-12.87 -3.26,-3.24 -11.27,-17.62 -12.08,-25.63 -3.76,-11.43 -0.9,-7.31 -8.98,-13.21 -2.9,-2.11 -6.42,-4.05 -10.05,-6.18l0.53 7.95z"/>
   <path class="fil9" d="M292.68 542.56c18.76,1.56 41,-3.27 61.73,-2.41 37.27,1.55 43.05,9.02 53.86,-2.55 -4.17,-11.12 -10.65,-15.02 -23.99,-17.93 -23,-5.01 -91.25,-8.81 -91.6,22.89z"/>
   <path class="fil5" d="M710.33 963.71c7.21,11.58 10.99,38.51 10.88,56.47 22.5,-14.72 18.45,-45.46 9.86,-63.64 -10.34,-21.89 -16.91,-43.34 -45.72,-44.96l-0.5 8.93c0.38,0.36 0.97,0.89 1.34,1.24 2.46,2.36 2.67,2.46 4.59,4.81 -13.29,-3.06 -1.78,-6.08 -17.93,-4.86 0.48,0.45 1.18,0.98 1.51,1.27l12.47 13.13c0.38,0.35 0.97,0.79 1.36,1.12l4.22 3.25c5.05,4.81 11.3,18.17 17.91,23.25z"/>
   <path class="fil11" d="M521.98 143.18c15.18,1.6 41.13,16.29 52.72,24.79 5.19,3.81 4.04,3.93 5.81,6.65l17.08 4.02c-0.17,-9.45 0.04,-6.79 -2.13,-13.28 -0.2,-0.59 -0.5,-1.19 -0.71,-1.77l-4.09 -10.58c-3.8,-6.99 -12.28,-13.42 -20.05,-16.04 -20.6,-15.48 -78.36,-9.97 -102.33,-0.86 9.47,5.05 16.78,1.69 28.15,1.95 9.23,0.21 17.54,4.39 25.58,5.13z"/>
   <path class="fil7" d="M783.85 634.99l-6.47 21.53c6.93,5.12 6.02,-8.17 5.38,9.88 -3.32,2.77 -9.81,25.67 -9.98,32.66 22.64,-5.49 31.64,-4.71 37.31,-27.36 -1.09,-18.02 -4.51,-26.14 -5.99,-38.75 8.51,-3.89 11.28,-9.95 23.73,-9.15 9.81,0.63 16,8.83 16.74,7.67 0.4,-0.62 1.45,0.95 2.19,1.4 -5.86,-26.47 -20.78,-29.01 -31.22,-20.92 -2.76,2.14 -27.76,30.8 -29.97,24.44 -0.27,-0.78 -1.33,-0.78 -1.73,-1.41z"/>
   <path class="fil10" d="M660.41 643.05c-34.71,-11.59 -16.73,1.98 -40.27,-2.56l-8.26 -2.79c-3.01,-0.45 -12.72,1.05 -19.84,1.14 -0.04,14.41 0.52,18.68 8.7,26.19l2.71 2.4c19.59,17.96 40.32,15.69 54.06,-7.42 5.97,-10.05 9.45,-18.75 8.83,-33.71l-2.45 5.61c-0.19,0.55 -0.43,1.33 -0.63,1.94 -1.27,3.84 -1.29,4.84 -2.85,9.21z"/>
   <path class="fil6" d="M684.58 309.54c0.49,0.27 1.34,-0.08 1.59,0.56 0.25,0.66 1.3,0.44 1.65,0.55 0.5,0.16 2.86,0.83 3.55,1.08 5.82,2.08 -0.09,-1.45 6.98,3.09 10.32,6.62 16.09,18.08 21.21,23.68 9.45,10.34 2.06,2.23 11.53,8.32 -1.83,0.63 -9.94,1.12 -12.1,4.97 4.43,14.91 11.24,16.9 17.04,34.72 0.31,-27.4 8.98,-18.75 8.88,-26.75 -1.8,-4.23 -6.46,-26.47 -6.72,-32.75 0.47,-0.33 1.25,-1.39 1.46,-0.95 0.29,0.63 1.51,-1 2.85,-1.88 0.32,-0.21 1.04,-0.68 1.39,-0.91l4.06 -2.69c-4.46,-10.96 -1.18,-9.57 -10.89,-14.4 -2.76,-1.37 -14.18,-6.69 -16.89,-7.26 -16.2,-3.4 -29.41,0.07 -35.58,10.6z"/>
   <path class="fil8" d="M244.95 272.02c-6.72,9.27 -3.43,15.42 -6.09,10.03 -0.21,-0.42 -0.79,1.33 -1.22,1.98 -5.03,7.24 -7.43,13.91 -12.69,22.49 -11.03,18.01 -6.21,9.4 -16.66,20.56l-34.63 38.12c-1.18,12.38 1.24,2.56 -10.51,13.56 -7.5,7.02 -3.75,6.08 -8.6,16.2 -9.94,20.75 -10.42,7.62 -10.48,38.59l4.68 0.75 6.23 -14.43c4.98,-11.19 19.75,-40.94 28.19,-50.75l6.64 -7.08c10.25,-10.09 20.81,-24.03 31.07,-28.46 1.52,-3.85 2.69,-8.55 5.55,-13.35 4.14,-6.94 0.16,-7.47 8.99,-6.06 6.04,0.06 5.15,1.91 5.15,-2.84l-4.96 -1.17c6.15,-17.51 12.23,-26.41 23.97,-38.44l7.11 -10.4c-6.41,3.33 -12.91,9.74 -21.75,10.71z"/>
   <path class="fil6" d="M639.37 689.85l-4.49 4.05c-17.56,15.45 -9.25,11.76 -5.43,31.57 -8.38,-0.88 -9.74,-2.09 -17.34,-2.09 5.65,-5.96 12.48,5.9 37.97,1.58 0.38,-0.07 16.66,-3.52 19.64,-4.63 7.49,-2.78 8.03,-5.49 14.29,-6.85 -4.37,-11.78 4.66,-9.95 -4.88,-22.36 -6.39,-8.32 -10.91,-9.49 -22.97,-9.81l-16.78 8.53z"/>
   <path class="fil7" d="M276.14 526.11c4.12,-3.26 14.92,-30.43 26.74,-47.46 19.32,-27.83 12.99,-10 21.55,-22.37 -15.41,0.74 -27.36,-6.33 -39.8,-10.38 -18.29,21.6 -13.84,59.79 -13.37,89.36l5.25 -15.36 -0.37 6.22z"/>
   <path class="fil6" d="M807.69 269.15c-2.87,3.58 -1.57,3.05 -3.48,7 10.22,-0.11 46.13,14.69 57.43,19.45 18.91,7.96 33.36,20.82 42.26,35.59 0.25,-18.3 -22.7,-45.48 -30.88,-51.69 -33.96,-25.75 -54.39,-10.34 -65.33,-10.35z"/>
   <path class="fil7" d="M195.76 269.46l5.02 -0.64c0.31,-5.58 15.39,-1.25 20.46,-0.39 8.77,1.5 14.95,2.96 23.72,3.6 8.84,-0.97 15.35,-7.38 21.75,-10.71 0.79,-10.62 -3.13,-3.56 5.2,-12.1 2.36,-2.42 3.13,-2.6 5.73,-4.05 -6.21,-1.03 0.05,0.85 -2.52,-4.01l-41.5 11.28c-2.61,1.75 0.6,0.74 -5.93,2.74 -12.61,3.86 -34.04,0.8 -46.25,-2.17l-40.12 -17.64c9.55,14.99 34.46,27.72 54.44,34.09z"/>
   <path class="fil10" d="M846.43 501.48c-14.8,10.28 -7.5,17.46 -23.9,23.86 -2.2,1.67 -1.41,1.67 -5.52,4.18l-8.21 2.66c-0.47,0.05 -2.52,-0.24 -3.33,-0.39 5.3,2.88 4.53,3.44 8.88,6.63 5.33,3.91 5.96,3.19 11.2,6.6l-7.5 22.28c2.86,7.2 1.02,-12.41 -7.65,11.76 4.86,-0.69 14.87,-1.03 18.81,-3.25 4.07,-2.3 1.22,2.92 5.66,-9.36 12.38,-34.24 19.67,-33.7 21.35,-75.16 -9.22,4.97 -0.35,-0.85 -5.6,4.54 -5.87,6.03 1.38,5.18 -4.19,5.65z"/>
   <path class="fil6" d="M361.23 703.75c-2.13,-5.35 0.26,-3.44 -6.13,-8.38 -3.6,-2.78 -3.94,-2.23 -8.13,-4.14 -7.22,-3.28 -11.5,-7.04 -17.74,-8.41 -10.77,0.4 -14.59,-0.58 -20.68,7.14 -3.93,4.97 -2.86,4.19 -4.11,9.47l2.02 12.28c0.29,0.14 0.94,0.56 1.26,0.74 41.04,23.21 49.89,1.82 61.87,13.38l-26.95 -0.62c5.85,-6.22 0.25,-2.78 9.12,-5.55 3.62,-1.13 5.48,-0.23 8.87,0.1l0.61 -16.02z"/>
   <path class="fil6" d="M758.31 303.37l7.09 10.27c6.97,6.26 6.29,5.53 7.48,15.85l-3.29 2.48c-0.08,-0.34 -0.6,0.55 -0.91,0.82 1.52,7.67 0.79,6.36 5.83,10.83l-0.68 -5.03c3.31,13.99 14.05,41.81 23.6,49.69 -15.17,-31.64 -4.15,-28.06 -8.41,-56.4 -2.83,-18.8 -10.99,-22.94 -15.07,-34.98 -0.27,-0.81 -1.36,-5.02 -1.39,-5.21 -1.38,-7.75 -2.94,3.16 0.1,-3.97 -11.76,-7.1 -20.93,-10.95 -36.62,-10.98 -0.14,0.38 0.03,1.04 0.04,1.2 0.03,14.59 -10.54,3.07 4.26,12.17 9.49,5.83 12.58,4.98 17.98,13.27z"/>
   <path class="fil11" d="M256.45 310.52l-15.86 0.8c0,4.75 0.89,2.9 -5.15,2.84 3.97,3.27 -7.6,6.32 19.81,5.02l1.79 3.52c0.21,0.43 0.61,1.29 0.82,1.71 0.27,0.55 0.11,7.53 1.56,3.18 0.11,-0.34 0.47,1.03 0.81,1.63l12.29 -2.27c-8.27,9.74 -8.28,3.33 -10.18,18.95 8.7,-3.07 12.3,-1.04 19.81,-6.9 2.83,-2.2 6.02,-5.4 8.57,-6.71 8.19,-4.21 5.04,-2.9 8.02,0.63 7.68,-1.85 10.22,-2.46 16.12,-8.28l7.32 -8.35c-10.03,-3.55 -2.51,-0.09 -7.46,-8.16 -5.1,0.2 -9.34,0.91 -13.65,1.3 -10.43,0.95 -9.31,0.13 -13.18,-2.81 -6.65,2.43 -20.39,3.14 -31.45,3.9z"/>
   <path class="fil2" d="M730.68 609.61c1.76,11.66 0.74,6.64 -3.25,10.98 -6.48,7.05 -14.63,14.52 -26.09,13.63 -11.52,-16.99 3.11,-13.2 -28.5,-26.37 -0.66,23.79 6.74,28.02 -5.55,54.25 -23.39,49.92 -107.05,19.36 -80.77,-52.38l-4.15 2.95c-10.34,17.61 -5.27,42.78 3.53,57.43 10.1,16.82 26.29,21.05 53.47,19.75l16.78 -8.53 11.62 -11.47c10.48,-15.89 12.57,-33.88 12.13,-54.14 17.2,7.44 9.06,7.99 15.95,21.15 25.78,5.34 20.36,-5.47 37.62,-15.59 -0.16,12.82 -1.92,22.94 -4.48,33.37l-6.38 20.33c-0.23,5.89 -1.9,1.73 1.47,5.54 8.28,-21.83 20.41,-52.42 9.58,-76.41 -4.07,2.08 -3.7,-3.95 -2.99,5.51z"/>
   <path class="fil6" d="M227.27 333.25c-4.15,22.93 -17.16,57.61 -7.84,80.32l5.51 -9.81 5.67 5.17c1.25,-9.11 4.98,-21.17 10.28,-27.43 3.25,-9.12 9.4,-16.38 11.59,-24.15 -4.29,-2.74 0.79,-4.14 -5.35,1.1 -1.76,1.51 -2.64,3.89 -3.66,4.8l2.92 -27.59c-7.3,2.48 -7.57,1.03 -13.33,7.27l0.07 -14.79 -5.85 5.1z"/>
   <path class="fil6" d="M141.32 235.36l40.12 17.64c12.2,2.97 33.64,6.03 46.25,2.17 6.53,-2 3.33,-1 5.93,-2.74l-35.5 0.04 43.08 -6.58c-7.54,-6.34 -20.97,-3.68 -30.62,-3.63 -11.17,0.05 -20.09,-1.06 -30.59,-3.19 -57.07,-11.57 -25.29,-11.01 -42.42,-22 5.51,-8.02 -2.38,-1.83 8.05,-4.16 -0.69,-0.39 -1.44,-1.01 -1.93,-1.37 -0.51,-0.37 -1.53,-0.37 -1.93,-1.49 -0.42,-1.15 -1.25,-1.12 -1.93,-1.6l-27.85 -11.96c2.28,8.94 7.2,14.7 12.02,21.49 5.9,8.3 9.54,16.71 17.32,17.39z"/>
   <path class="fil7" d="M743.55 211.7c-2.73,6.61 -3.47,11.16 -5.38,18.28 -1.57,5.87 -3.87,10.41 -2.13,15.98 9.06,-6.94 22.62,-35.98 24.52,-44.66l5.87 28.06c10.92,-10.65 2.06,-15.31 6.9,-24.41 -0.84,-15.02 -2.72,-23.22 -10.48,-33.48 -12.34,-16.33 -7.51,-18.27 -15.34,-26.1 -0.01,22.76 1.18,46.65 -3.97,66.33z"/>
   <path class="fil9" d="M179.6 547.51c1.29,13.69 5.25,18.96 11.42,29.43 8.85,15.02 6.09,14.6 24.82,20.08l-1.62 -18.91 -2.31 -4.06c-0.32,-0.65 -0.67,-1.32 -1,-2.03 -9.54,-20.67 -17.31,-35 -23.74,-61.26 -0.42,-2.08 -0.91,-5.36 -1.78,-7.94 -2.92,-8.67 -1.06,-3.44 -3.88,-6.65l-2.96 21.63 1.05 29.72z"/>
   <path class="fil8" d="M680.63 309.54c-8.98,-15.6 4.99,-19.43 13.57,-36.26l5.85 -9.92c5.87,-21.03 4.5,-44.41 -1.57,-64.76 -5.91,-19.83 -12.68,-34.73 -24.44,-49.62 10.21,33.02 23.47,56.61 14.09,105.4l-6.13 25.39c-4,9.08 -1.15,4.27 -6.57,9.17 -1.8,-9.65 -6.02,-20.6 -7.08,-24.63 1.62,11.24 3.83,12.33 4.35,25.52 0.27,6.91 -0.78,21.32 3.95,27.23l3.99 -7.51z"/>
   <path class="fil2" d="M270.38 629.75c0.76,7.34 -1.27,1.81 1.9,7.17 35.41,7.97 22.74,-18.08 39.74,-15.38 3.95,8.36 2.11,25.06 5.58,34.1 4.08,10.63 7.76,11.01 7.72,19.04 -0,0.48 -0.3,1.9 -0.34,2.22 -0.01,0.13 -0.16,1.21 -0.17,0.97 -0.01,-0.23 -0.29,0.64 -0.17,0.93 8.29,0.8 2.39,-0.62 4.58,4.01 6.23,1.38 10.52,5.14 17.74,8.41 4.19,1.9 4.53,1.36 8.13,4.14 6.4,4.94 4,3.03 6.13,8.38 3.53,-4.67 -1.46,-10.97 -1.88,-12.03 6.78,0.14 13.55,0.75 16.37,-0.04 49.67,-13.9 49.59,-71.15 38.05,-81.9 -1.57,3.13 -1.84,-2.9 -1.27,6.52 0.02,0.34 1.16,5.21 1.27,5.8 5.58,31.63 -11.22,65.88 -49.39,64.28 -43.02,-1.81 -54.21,-57 -40.75,-78.05 -18.55,-1.51 -25.27,15.52 -34.62,26.17 -12.3,0.17 -10.97,0.62 -18.64,-4.73z"/>
   <path class="fil10" d="M331.33 649.07c12.22,39.05 55.47,35.43 70.46,2.48 -12.35,-13.14 -12.8,-3.15 -26.1,-2.85 -4.44,0.1 -13.72,-5.66 -17.89,-1.52l-4.72 5.62c-0.63,-0.3 -1.49,-0.61 -1.95,-0.8l-19.8 -2.93z"/>
   <path class="fil6" d="M487.31 465.67l-31.41 18.34c-0.02,1.12 2.26,-0.5 -7.35,3.59 -27.88,11.84 -68.98,17.51 -98.18,15.96 5.87,6.13 -0.48,1.23 6.58,4.44l19.76 2.91c31.82,3.49 82.18,-16.46 110.01,-31.64 8.84,-4.82 22.35,-20.7 27.15,-31.02 -10.64,4.94 -23.92,19.3 -26.54,17.43z"/>
   <path class="fil9" d="M222.66 335.08c-8.28,11.74 -18.91,33.51 -21.65,50.92 2.59,8.48 0.39,2 2.07,3.29 0.2,0.15 0.97,-0.43 1.79,-0.35 -6.96,71.98 1.34,11.79 4.73,45.96l1.04 6.38c6.88,-0.48 10.33,-4.99 11.77,-11.27 2.76,-12.01 -1.03,-5.75 -2.99,-16.45 -9.32,-22.71 3.7,-57.4 7.84,-80.32 -0.2,-0.02 -3.73,1.34 -4.61,1.84z"/>
   <path class="fil10" d="M750.39 443.93c0,0 15.01,-0.84 0.26,14.65 2.95,5.27 -2.11,0.04 2.35,2.21 1.19,14.08 -0.53,3.04 4.88,7.25l-0.53 -7.95c3.63,2.13 7.15,4.07 10.05,6.18 8.08,5.89 5.22,1.77 8.98,13.21 8.98,5.34 2.44,2.52 8,7.34 5.9,5.11 18.24,12.55 26.2,13.45 -6.78,-12.62 -19.26,-21.57 -27.87,-37.91 -4.26,-2.31 -8.33,-9.77 -10.49,-15.76 -2.69,-7.46 -2.36,-14.29 -3.94,-23.17 -1.35,-3.52 -0.91,-4.4 -2.24,-7.45 -0.31,-0.71 -2.23,-3.12 -2.45,-4.38 -0.25,-1.38 -0.87,-1.59 -1.45,-2.28 -1.16,15.89 -4.55,22.75 -11.75,34.61z"/>
   <path class="fil6" d="M807.09 224.47c-2.54,2.53 -1.52,1.87 -3.59,3.76 -2.91,2.66 -0.54,0.99 -2.77,2.18 -4.56,15.79 -19.22,24.82 -29.51,32.15 4.34,7.96 6.01,5.66 17.8,4.62l12.96 -4.78 10.89 -7.54c-7.31,-5.26 0.71,2.47 -4.96,-7.12l5.78 -6.36c8.34,-9.4 14.11,-10.69 18.48,-24.25 0.46,0.64 1.07,1.4 1.4,1.91l4.75 8.36c1.11,-6.82 3.1,-12.57 3.89,-19.55l-0.45 -16.59c-1.84,-6.17 0.33,-1.41 -2.78,-5.03 -1.74,6.43 -6.64,24.21 -11.01,29.77 -9.3,11.81 -6.5,0.62 -20.49,18.36 9.66,-9.93 0.06,-9.33 -0.41,-9.9z"/>
   <path class="fil7" d="M148.77 434.29c-2.63,25.63 -11.74,67.33 4.88,92.99 0.34,-0.49 0.69,-1.23 0.84,-1.59l3.63 -13.88c3.12,-17.1 10.5,-28.35 11.93,-38.3 3.2,-13.06 10.58,-17.97 15.21,-28.28 -7.31,-4.66 -5.43,5.49 -6.12,-4.85 0.21,3.87 -2.7,6.11 -5.7,10.03 -17.59,22.98 -1.81,32.57 -24.83,35.13l1.14 -17.31c3.12,-4.12 2.61,-17.35 3.48,-23.95 1.14,-8.64 1.69,-5.84 3.93,-12.59 5.13,-15.45 4.54,-7.92 -2.17,-11.83l-6.23 14.43z"/>
   <path class="fil7" d="M118.29 297.64l0.81 4.27c9.85,-0.28 10.42,-2.76 19.16,-4.72 8.95,-2.01 13.16,-0.14 20.96,-0.47 10.27,-0.44 23.4,-10.95 33.79,-14.16 4.32,-4.36 -4.54,-0.63 4.93,-4.2 -2.34,-0.33 -4.63,-0.45 -6.93,-1.18 -4.81,-1.53 -2.29,-0.9 -4.91,-3.05 -13.94,1.45 -27.39,-5.61 -41.47,2.02 -8.78,4.76 -21.56,13.72 -26.36,21.49z"/>
   <path class="fil6" d="M422.96 121.11c3.08,4.71 -9.48,0.88 8.24,5.22 0.23,-0.51 0.7,-1.82 0.85,-1.44l3.29 -3.89c2.73,-2.39 -2.39,1.7 3.09,-2.29 0.48,-0.35 1.36,-0.86 1.77,-1.14 0.42,-0.29 1.29,-0.68 1.84,-1.15 -10.53,-8.92 -11.97,-2.32 -24.13,-11.65 -13.85,-10.64 -33.7,-8.42 -54.74,-14.85 -24.66,-7.54 -17.37,-1.83 -28.63,-5.79l-9.73 2.78c12.37,7.75 79.78,21.81 94.64,31.29l3.5 2.89z"/>
   <path class="fil1" d="M231.79 565.07c8.12,-7.59 4.82,-12.83 9.14,-24.22 0,9.36 0.24,37.44 -4.74,46.26 -0.29,0.52 -0.78,1.16 -1.07,1.62l-2.35 3.51 12.59 2.23c8.2,-6.53 16.9,-24.18 26.8,-24.69l-5.36 -6.5c-29.57,-27.14 -22.11,-32.64 -29.71,-38.7l-5.29 40.48z"/>
   <path class="fil3" d="M442.66 774.4c-0.05,0.44 -7.11,0.13 5.57,8.63 26.37,17.68 102.84,9.76 102.77,-9.76 -7.6,-3.5 -14.16,1.97 -23.44,4.27 -49.27,12.18 -68.23,-4.89 -81.2,-4.11 -0.51,0.03 -1.45,0.35 -1.86,0.41 -0.42,0.05 -1.26,0.28 -1.84,0.56z"/>
   <path class="fil6" d="M412.45 726.16c-11.48,2.56 -22.42,10.76 -36.24,14.1 -14.64,3.54 -28.23,3.51 -42.45,1.14 -29.87,-4.97 -48.9,-19.44 -63.3,-32.37 -5.45,5.28 -25.87,-22.38 -20.18,-25.27 5.71,16.52 10.92,27.03 24.63,39.64 13.35,12.29 24.17,17.61 46.6,22.83 41.32,9.61 60.95,1.17 95.13,-17.35 1.25,-0.68 3.7,-1.82 4.89,-2.74 7.37,-5.69 1.56,0.38 6.04,-6.56 -6.31,5.19 -6.56,6.61 -15.13,6.57z"/>
   <path class="fil8" d="M957.44 1234.32c16.97,-5.45 10.58,-22.95 2.51,-45.54 -4.63,-12.94 -10.51,-32.88 -23.11,-39.17 -4.57,2.92 -0.1,4.3 -10.42,-4.47 4.21,17.58 27.22,49.11 31.02,89.18z"/>
   <path class="fil11" d="M803.2 576.93c5.83,-2.64 3.3,-1.98 8.51,-5.85 4.69,-3.49 2.16,-2.55 6.34,-3.77l7.5 -22.28c-5.24,-3.41 -5.87,-2.69 -11.2,-6.6 -4.34,-3.18 -3.58,-3.74 -8.88,-6.63 -7.36,-6.02 -8.32,-5.02 -16.27,-9.74 6.54,38.37 -6.94,25.02 14,54.88z"/>
   <path class="fil6" d="M319.87 483.08l0.08 0.17c-11.65,17.64 0.51,13.2 1.92,14.7 7.03,-12.39 11.84,-11.29 25.16,-22.13 11.97,-9.74 18.93,-7.64 32.33,-14.19 6.88,-4.55 7.18,-5.57 10.03,-15.63 -9.01,1.61 -30.66,8.59 -39.74,12.5 -15.37,6.61 -22.54,12.72 -29.79,24.58z"/>
   <path class="fil6" d="M751.36 733.62c7.41,7.92 0.91,-4.77 2.45,4.53 2.2,13.27 -1.66,-2.87 -0.43,4.46l12.4 -0.18c1.87,-9.01 0.75,-4.9 8.15,-11.64 12.89,4.59 1.34,-2.61 5.84,5.4l-1.09 0.03 0.38 -9.27 8.53 -0.13 7.34 2.21 -4.51 -7.93 -17.11 -0.48 -0.54 -21.56c0.17,-7 6.66,-29.89 9.98,-32.66 0.63,-18.05 1.55,-4.76 -5.38,-9.88 -4.73,24.09 -17.7,54.44 -26.02,77.1z"/>
   <path class="fil6" d="M810.09 671.71c0.4,-0.54 0.99,-1.2 1.19,-1.64 0.2,-0.45 0.82,-1.19 1.03,-1.76l1.32 -11.74c5.39,7.4 -0.02,8.2 13.69,-5.36 11.11,-10.98 8.35,-5.7 18.92,-12.02l0.53 -6.31c-0.74,-0.45 -1.79,-2.02 -2.19,-1.4 -0.74,1.16 -6.93,-7.04 -16.74,-7.67 -12.46,-0.8 -15.22,5.26 -23.73,9.15 1.47,12.61 4.89,20.72 5.99,38.75z"/>
   <path class="fil7" d="M220.9 333.58l1.76 1.51c0.88,-0.49 4.41,-1.85 4.61,-1.84l5.85 -5.1 -0.07 14.79c5.77,-6.23 6.04,-4.79 13.33,-7.27l-2.92 27.59c1.02,-0.91 1.9,-3.29 3.66,-4.8 6.14,-5.25 1.06,-3.84 5.35,-1.1 1.94,-1.46 3.05,-1.65 6.19,-5.02 4.93,-5.28 2.56,-2.64 3.69,-6.43 1.9,-15.62 1.91,-9.21 10.18,-18.95l-12.29 2.27c-0.34,-0.6 -0.7,-1.97 -0.81,-1.63 -1.45,4.35 -1.29,-2.62 -1.56,-3.18 -0.21,-0.43 -0.6,-1.28 -0.82,-1.71l-1.79 -3.52c-27.41,1.3 -15.84,-1.74 -19.81,-5.02 -8.83,-1.4 -4.86,-0.88 -8.99,6.06 -2.86,4.8 -4.03,9.5 -5.55,13.35z"/>
   <path class="fil11" d="M768.29 423.43c1.58,8.88 1.25,15.71 3.94,23.17 2.16,6 6.24,13.46 10.49,15.76 2.74,-4.47 -7.31,-4.83 6.37,-3.11 4.02,7.52 3.08,5.64 3.62,5.59 -4.85,-16.83 -16.56,-35.16 -18.15,-56.08l1.16 1.11c2.47,-0.7 -2.89,5.8 2.26,-1.87 2,-2.99 1.43,-3.93 2.16,-6.66 7.04,2.61 10.92,5.69 15.24,-1.18 -1.69,-4.8 -4.16,-8.97 -6.55,-14.23 -1.03,-2.26 -2.87,-6.73 -3.85,-8.43 -3.69,-6.43 -1.28,-2.8 -4.68,-6.19 -4.36,4.02 -3.06,10.47 -7.53,-12.72 -2.02,5.2 2.08,35.53 4.26,42.75 -0.43,0.27 -1.2,0.5 -1.37,0.63l-2.58 2.38c-2.32,6.53 3.99,15.13 -4.78,19.09z"/>
   <path class="fil6" d="M637.43 179.31c7.01,11.7 15.02,27.46 21.36,41.37 4.39,-3.34 2.37,0.1 1.48,-5.96 -0.43,-2.94 -2.28,-5.67 -3.77,-8.36 -9,-16.27 -7.9,-13.48 -5.65,-22.06l0.34 -11.8c-3.16,-11.23 -5.72,-5.82 -6.19,-19.78 -0.74,-5.36 4.68,-2.08 -11.11,-15.83 -6.16,-5.36 -9.58,-6.52 -19.27,-10.53 5.58,12.74 16.95,25.33 19.49,34.67l-6.06 1.35c3.31,2.25 15.42,14.9 9.39,16.93z"/>
   <path class="fil7" d="M780.14 401.35c2.36,15.66 9.53,25.22 17.16,35.24 17.61,23.11 6.42,19.85 20.64,27.22 -1.12,-17.84 -5.66,-35.34 -13.8,-50.96 -0.64,-1.23 -3.01,-5.66 -3.53,-6.44l-5.24 -6.24c-4.32,6.87 -8.19,3.79 -15.24,1.18z"/>
   <path class="fil6" d="M726.07 699.4c6.17,3.38 -0.42,6.21 -5.31,10.88 -11.4,10.89 -12.64,19.69 -41.96,30.33 -14.28,5.19 -17.48,2.43 -26.66,10.02 32.09,-0.99 75.54,-26.4 87.19,-57.71l11.69 -44.19c1.18,-9.26 3.15,-15.6 5.51,-26.59 -6.85,1.98 -3.9,-4.76 -7.18,7.5 -7.25,27.14 7.68,8.95 -23.27,69.76z"/>
   <path class="fil1" d="M807.09 224.47c0.47,0.57 10.07,-0.03 0.41,9.9 13.99,-17.75 11.2,-6.55 20.49,-18.36 4.37,-5.55 9.27,-23.33 11.01,-29.77 1.12,-16.23 -6.8,-24.19 -13.42,-32.67 3.45,34.13 -5.41,46.06 -18.48,70.91z"/>
   <path class="fil11" d="M201.13 207.67c-23.83,2.41 -37.59,1.91 -61.31,0.78 0.69,0.48 1.51,0.46 1.93,1.6 0.41,1.12 1.43,1.11 1.93,1.49 0.49,0.36 1.25,0.98 1.93,1.37 35.86,11.16 105.13,11.37 135.14,-15.1l-1.46 -1.76c-0.07,-0.08 -0.56,-0.69 -0.63,-0.78l-1.1 -1.35c-8.39,0.42 -8.72,-0.72 -14.48,2.67l7.42 0.77c-0.2,0.01 -0.95,0 -1.18,0.05l-5.62 3.22c-33.49,19.75 -66.19,14.32 -100.81,12.41 6.19,-0.01 35.65,-0.38 38.22,-5.38z"/>
   <path class="fil4" d="M766.39 1317.86c9.21,-1.88 5.04,0.77 7.7,-3.72 6.25,-1.51 5.56,-1.11 6.73,-10.78 0.74,-6.05 0.36,-16.11 0.41,-22.55 0.13,-15.7 -0.35,-31.31 -0.39,-47.02 -6.27,9.24 -4.78,25.21 -4.82,39.59 0.28,0.09 2.9,-0.42 -0.54,-2.08 -5.68,-2.74 3.05,-1.3 -3.77,1.15l-6.86 0.93c-0.65,13.13 -2.9,34.53 1.52,44.48z"/>
   <path class="fil10" d="M700.41 121.09c4.67,11.11 12.19,19.87 16.36,32.78 6.18,-2.96 4.96,1.92 4.78,-12.24 -0.06,-4.3 -2.14,-8.45 -2.87,-15.22l14.8 1.21 -12.31 -20.35c-10.29,3.45 0.49,2.17 -7.85,-3.23 -4.59,5.11 6.91,5.42 -7.93,3.7 -6.17,-7.82 -15.54,-11.19 -24.58,-17.54 -8.94,-6.28 -17.6,-11.01 -25.92,-17.01 3.39,3.49 7.68,5.26 11.95,7.72 0.93,0.53 6.58,3.74 7.96,4.76 8.79,6.53 29.13,24.32 25.61,35.4z"/>
   <path class="fil11" d="M429.52 403.81c9.96,2.96 3.34,3.71 19.28,-3.81 12.16,-5.73 23.67,-16.44 31.34,-26.7 4.81,-6.44 1.94,-0.13 5.04,-9.01 -7.03,-1.17 -4.49,-1.1 -12.36,-0.68 -5.43,-2.58 -6.76,1.15 -11.23,6.07l-27.84 29.51c-3.55,3.12 -1.51,1.01 -4.23,4.61z"/>
   <path class="fil10" d="M262.36 345.9c-1.13,3.8 1.24,1.16 -3.69,6.43 -3.15,3.37 -4.26,3.55 -6.19,5.02 -2.18,7.77 -8.34,15.03 -11.59,24.15 3.93,3.23 -7.15,9.24 -9.57,37.16 10.93,-13.37 5.24,-25.06 17.4,-32.23l0.42 -3.22c6.4,-4.23 7.68,-7.5 11.74,-13.53 5.74,-8.53 2.5,-6.94 10.82,-13.91 9.4,-7.88 13.08,-17.92 27.07,-22.87 -2.98,-3.53 0.17,-4.84 -8.02,-0.63 -2.55,1.31 -5.75,4.51 -8.57,6.71 -7.51,5.86 -11.11,3.83 -19.81,6.9z"/>
   <path class="fil6" d="M525.09 352.23c3.84,-2.1 6.3,-4.15 9.72,-5.64 3.16,-1.38 2.29,-0.73 5.37,-1.85l5.73 2.11c5.85,-3.19 3.22,-3.62 6.19,-5.07l5.52 0.78c5.84,-10.22 9.2,-5.98 12.26,-17.14 3.81,-13.9 -3.27,4.47 0.82,-3.89l6.18 -7.7c-10.72,1.92 -29.38,9.22 -36.96,15.55 -0.39,0.32 -0.86,0.88 -1.24,1.21l-12.24 12.57c-0.32,0.41 -0.7,1.04 -1.03,1.44l-11.14 8.71c3.4,-1.34 2.73,-2.1 5.4,-2.4 7.45,-0.83 0.27,-2.91 5.43,1.33z"/>
   <path class="fil12" d="M778.68 736.22c3.12,10.07 7.5,31.86 5.04,41.67 -3.24,1.44 -4.39,3.67 -11.53,1.24 -3.41,-1.16 -3.61,-2.59 -7.41,-5.14l-3.96 3.88c0.16,-4.24 0.23,-4.29 -0.38,-7.39 -0.09,-0.47 -0.88,-0.74 -0.97,-1.75 -0.09,-1 -0.84,-1.01 -1.22,-1.54l-2.17 15.66 3.39 7.48 11.24 1.69c3.82,-2.15 13.39,-2.19 18.78,-10.18 1.63,-2.42 2.64,-4.83 3.05,-9.19 1.12,-11.67 -5.92,-28.34 -8.65,-36.88l4.02 -2.49 -0.33 -6.47 -8.53 0.13 -0.38 9.27z"/>
   <path class="fil4" d="M213.92 1314.2l3.73 4.02 9.29 -5.21 -1.07 -63.26c-7.08,8.82 -0.07,9.03 -10.26,24.97l-5.68 -12.25 3.99 51.73z"/>
   <path class="fil6" d="M468.4 255.98l-0.58 -1.62c-7.37,-0.81 -35.75,26.7 -41.51,32.9l-12.79 14.52c-4.41,4.1 -7.09,9.95 -10.89,16.06 -2.27,3.65 -2.18,3.87 -4.71,7.57l-17.88 24.75c-7.46,9.84 -6.7,4.25 -12.52,13.51 9.4,-13.04 3.18,1.63 16.97,-18.94 7.08,-10.57 20.44,-22.75 20.98,-23.38l62.94 -65.38z"/>
   <path class="fil12" d="M637.12 1309.63l0.2 -7.71c-5.46,2.22 -4.26,-2.46 -4.65,2.19 3.18,-9.23 5.7,-14.2 7.44,-27.33 -17.59,13.06 -15.62,29.77 -20.29,51.2 -6.19,28.42 -3.01,16.06 -0.27,19.87 10.78,-2.95 6.8,-5.18 10.04,-17.41 1.97,-7.42 4.68,-16.02 7.52,-20.82z"/>
   <path class="fil6" d="M458.7 651.57c-5.1,8.99 -6.97,23.15 -11.88,33.01 -5.47,11 -12.35,18.98 -17.21,27.21l4.48 4.64c5.07,-7.28 7.95,-7.43 13.33,-16.67 3.86,-6.63 8.26,-14.63 11.28,-20.49 6.88,-13.36 10.2,-33.63 16.88,-42.59 -11.27,4.89 -12.07,5.96 -15.14,21.61 -1.68,-3.44 -0.76,3.6 -1.74,-6.72z"/>
   <path class="fil6" d="M201.13 207.67c-2.57,5 -32.03,5.37 -38.22,5.38 34.62,1.92 67.32,7.35 100.81,-12.41l5.62 -3.22c0.23,-0.05 0.98,-0.04 1.18,-0.05l-7.42 -0.77c-15.28,-0.33 -39.84,9.99 -61.96,11.08z"/>
   <path class="fil7" d="M352.62 404.79c-17.97,21.62 -22.56,17.44 -32.79,30.61l19.68 1.38c0.48,-0.5 1.05,-1.22 1.35,-1.58l2.52 -2.96c16.68,-19.42 15.44,-16.83 27.51,-40.81 -10.52,0.78 -3.74,-0.34 -10.84,6.25 -3.13,2.9 -4.87,4.51 -7.44,7.11z"/>
   <path class="fil2" d="M770.72 792.03c13.88,1.55 25.52,-7.21 29.93,-16.39 7.68,-15.98 -1.18,-28.59 -5.56,-40.53 -5.85,-2.31 -0.63,-1.24 -7.16,-1.82l-4.02 2.49c2.73,8.55 9.77,25.21 8.65,36.88 -0.42,4.36 -1.42,6.77 -3.05,9.19 -5.39,7.99 -14.97,8.02 -18.78,10.18z"/>
   <path class="fil12" d="M351.23 1298.36l2.49 6.21 -0.08 7.13c7.81,6.35 5.9,13.85 9.21,27.06 3.51,14 -1.65,5.15 6.41,9.85 1.92,-3.22 2.44,-0.88 2.31,-8.1 -0.29,-17.51 -11.4,-56.82 -22.21,-65.4 2.6,14.97 8.54,16.4 1.87,23.25z"/>
   <path class="fil2" d="M351.23 1298.36c6.68,-6.85 0.74,-8.28 -1.87,-23.25 10.81,8.58 21.91,47.9 22.21,65.4 0.12,7.22 -0.4,4.88 -2.31,8.1 -8.06,-4.69 -2.9,4.16 -6.41,-9.85 -3.31,-13.21 -1.4,-20.71 -9.21,-27.06l6.6 30.85 1.1 7.42 16.03 3.78c-5.05,-29.51 -9.71,-49.93 -17.89,-76.32l-1.14 -0.97c-6.09,-2.81 -1.98,-0.24 -6.19,-3.21 -1.62,-1.14 -2.61,-2.42 -3.99,-3.8 -3.27,-3.25 -2.63,-3.13 -6.03,-5.79l9.09 34.71z"/>
   <path class="fil10" d="M168.99 588.89c11.58,-3.59 10.97,-5.34 16.97,0.63 -0.15,-11.35 -3.96,-4.35 4.14,-8.74 -11.76,-11.24 -10.37,-29.88 -26.03,-35.3 1.04,38.19 7.42,32.31 4.93,43.41z"/>
   <path class="fil11" d="M155 419.86c6.72,3.91 7.3,-3.62 2.17,11.83 -2.24,6.75 -2.78,3.95 -3.93,12.59 -0.87,6.6 -0.36,19.83 -3.48,23.95 3.63,-18.74 10.55,-38.78 18.25,-54.83 7.08,-14.77 18.26,-36.3 21.82,-51.38l-6.64 7.08c-8.45,9.81 -23.21,39.56 -28.19,50.75z"/>
   <path class="fil2" d="M624.72 1288.47l-13.56 64.88 18.74 -3.29c-0.43,-10.66 4.68,-29.14 7.23,-40.42 -2.85,4.79 -5.56,13.4 -7.52,20.82 -3.24,12.23 0.74,14.46 -10.04,17.41 -2.74,-3.82 -5.92,8.54 0.27,-19.87 4.67,-21.43 2.7,-38.14 20.29,-51.2 -1.74,13.13 -4.26,18.1 -7.44,27.33 0.38,-4.65 -0.82,0.03 4.65,-2.19l1.32 -1.82 8.25 -35c-2.72,0.14 3.06,-4.98 -4.72,3.18 -2.7,2.83 -3.48,4.16 -5.65,7.11 -5.32,7.25 -4.63,7.42 -11.79,13.07z"/>
   <path class="fil7" d="M527.35 170.28l53.15 4.33c-1.77,-2.72 -0.62,-2.84 -5.81,-6.65 -11.58,-8.5 -37.53,-23.19 -52.72,-24.79l7.38 6.69c3.84,2.82 5.54,3.99 8.69,6.09 4.34,2.9 5.32,3.07 9.21,5.51l9.28 7.48 -29.19 1.34z"/>
   <path class="fil10" d="M776.65 234.18c-3.7,4.34 -4.16,3.45 -8.13,9.23l5.05 4.33c-2.32,14.42 -9.29,8.05 -2.34,14.82 10.29,-7.33 24.95,-16.36 29.51,-32.15 -4.4,1.42 -10.03,2.43 -12.74,10.29 1.58,0.13 0.02,10.16 5.03,-10.29 -11.63,3.51 -8.06,8.33 -7.77,-2.02 -11.05,8.08 -4.34,5.97 -8.6,5.79z"/>
   <path class="fil11" d="M200.78 268.81c4.52,8.59 10.64,6.69 22.38,8.78l-9.46 7.94 23.94 -1.5c0.43,-0.65 1.01,-2.41 1.22,-1.98 2.65,5.39 -0.63,-0.76 6.09,-10.03 -8.77,-0.64 -14.95,-2.1 -23.72,-3.6 -5.07,-0.87 -20.14,-5.19 -20.46,0.39z"/>
   <path class="fil6" d="M483.27 720.91c9.46,-0.6 16.99,2.87 16.78,-9.39 -0.12,-6.91 -3.15,-15.67 -6.28,-20.01 -18.95,1.21 -12.92,16.48 -10.49,29.4z"/>
   <path class="fil6" d="M479.77 93.52c0.55,0.57 1.36,0.61 1.7,1.66 1.51,4.67 45.25,19.53 51.16,20.07l2.18 -3.25c-6.53,-6.4 -18.4,-8.13 -29.9,-12.74 -10.61,-4.25 -9.3,-12.05 -19.62,-12.59 -13.64,-0.71 -4.3,-2.24 -8.32,3.11 0.88,1.21 1.58,3.01 2.8,3.73z"/>
   <path class="fil7" d="M892.33 409.58l-7.39 -26.33 -4.88 0.74c4.93,12.82 4.12,21.82 5.95,37.15 -6.4,-7.37 -14.51,-28.25 -18.62,-38.49 -3.75,5.82 7.78,19.97 13.19,37.81 3.75,12.38 7.48,34.58 6.06,50.55 -1.16,-3.65 2.79,-18.89 2.85,-27.56 0.1,-11.98 -3.58,-23.4 2.84,-33.88z"/>
   <path class="fil6" d="M731.97 495.88c-5.24,1.84 -5.43,2 -10.36,4.9 -1.16,0.68 -3.57,2.13 -4.43,2.83 -4.34,3.54 -0.98,0.06 -3,3.84l-1.29 7.88c29.42,-7.23 29.55,-23.04 39.79,-4.89l-4.04 -25.57c-2.52,1.71 -6.5,9.08 -12.1,11.25 -8.75,3.4 -3.85,0.2 -4.57,-0.23z"/>
   <path class="fil6" d="M545.69 391.41l-6.08 29.71 6.28 3.91c1.93,-8.62 4.83,-19.53 7.56,-29.19 1.16,-4.1 2.8,-8.66 3.54,-14.06l6.1 -22.73 -12.38 14.56 0.27 -15.96c3.43,7.91 -0.01,5.24 -0.63,14.17 -1.37,19.71 1.63,13.78 -4.66,19.59z"/>
   <path class="fil7" d="M812.87 254.87c18.15,-7.11 15.63,-12.74 25.46,-27.46l-4.75 -8.36c-0.33,-0.51 -0.94,-1.27 -1.4,-1.91 -4.38,13.56 -10.15,14.85 -18.48,24.25l-5.78 6.36c5.67,9.59 -2.36,1.85 4.96,7.12z"/>
   <path class="fil0" d="M230.6 408.93l-1.83 32.01c4.88,4.36 -0.39,1.06 7.68,3.26 -0.27,-11.44 0.62,-22.21 3.77,-33.2 1.23,-4.3 2.84,-9.12 4.45,-12.86 4.12,-9.53 4.24,-4.86 4.47,-14.92l-0.42 3.22c-12.16,7.16 -6.47,18.86 -17.4,32.23 2.41,-27.92 13.5,-33.93 9.57,-37.16 -5.3,6.26 -9.03,18.32 -10.28,27.43z"/>
   <path class="fil11" d="M760.56 201.3c8.15,13.38 -10.85,34.98 -1.02,43.23 7.72,2.52 2.94,2.38 8.98,-1.12 3.97,-5.78 4.43,-4.89 8.13,-9.23l2.01 -8.56c-2.37,-2.84 -1.33,-0.33 -3.27,-4.83 -0.33,-0.76 -1.37,-4.87 -1.54,-5.84 -0.55,-3.23 -0.44,-6.79 -0.53,-9.99 -4.84,9.1 4.02,13.76 -6.9,24.41l-5.87 -28.06z"/>
   <path class="fil8" d="M32.11 1187.87c-1.25,1.98 -0.5,-0.09 -3.01,5.68l-4.18 13.37c-6.46,28.17 -2.11,22.26 2.25,24.87 4.91,-7.66 12.28,-41.53 12.8,-50.05l-5.75 10.3c-4.69,0.3 0.68,1.03 -2.12,-4.18z"/>
   <path class="fil2" d="M630.44 614.39c9.26,33.55 41.35,-10.49 6.47,-7.68 -3.57,3.48 -3.9,2.96 -6.47,7.68z"/>
   <path class="fil10" d="M186.12 274.13c2.62,2.16 0.1,1.53 4.91,3.05 2.3,0.73 4.58,0.85 6.93,1.18 -9.48,3.56 -0.61,-0.17 -4.93,4.2l5.26 7.35 15.42 -4.38 9.46 -7.94c-11.74,-2.09 -17.86,-0.19 -22.38,-8.78l-5.02 0.64c1.33,1.21 2.37,4.35 3.71,5.52l-13.35 -0.84z"/>
   <path class="fil2" d="M389.04 626.46c15.55,-20.06 -20.87,-32.26 -14.08,-2.9 4.53,2.11 7.35,3.34 14.08,2.9z"/>
   <path class="fil1" d="M822.32 332.82c9.41,7.45 5.18,3.22 11.23,14.02l11.52 -0.01c-1.7,-5.49 -4.08,-12.63 -6.37,-15.96 -6.16,-8.97 -1.27,-5.67 -15.88,-5.98l-0.5 7.94z"/>
   <path class="fil6" d="M352.62 404.79c2.57,-2.6 4.31,-4.21 7.44,-7.11 7.1,-6.59 0.33,-5.47 10.84,-6.25 3.24,-2.18 0.23,1.12 3.45,-5.04l25.94 -36.03c-18.25,21.5 -33.37,32.02 -48.58,48.54l0.9 5.88z"/>
   <path class="fil6" d="M231.79 565.07c-0.7,3.21 -2.74,19.62 0.97,27.18l2.35 -3.51c0.29,-0.46 0.78,-1.1 1.07,-1.62 4.99,-8.82 4.74,-36.9 4.74,-46.26 -4.31,11.39 -1.02,16.62 -9.14,24.22z"/>
   <path class="fil1" d="M751.36 733.62l-5.69 14.18 22.58 0.43c1.57,-1.91 1.6,-1.4 3.18,-4.55 1.6,-3.19 0.88,-2.67 1.84,-6.39l6.51 -1.11c-4.5,-8.01 7.05,-0.81 -5.84,-5.4 -7.41,6.74 -6.28,2.63 -8.15,11.64l-12.4 0.18c-1.24,-7.34 2.63,8.81 0.43,-4.46 -1.54,-9.3 4.96,3.4 -2.45,-4.53z"/>
   <path class="fil11" d="M812.04 517.98c4.74,2.14 4.16,-3.03 3.06,7.22l9.88 -5.13c3.49,-2.31 2.73,-1.42 5.39,-4.57 2.8,-3.32 5.39,-8.6 6.99,-13.16 -10.56,2.18 -19.01,6.93 -25.33,15.64z"/>
   <path class="fil11" d="M275.12 241.15c2.57,4.86 -3.69,2.98 2.52,4.01 -2.59,1.45 -3.37,1.63 -5.73,4.05 -8.33,8.54 -4.41,1.49 -5.2,12.1 8.3,-3.55 29.65,-28.16 31.15,-30.68 -13.21,3.65 -11.65,7.31 -22.74,10.52z"/>
   <path class="fil7" d="M322.19 316.29l-7.32 8.35c14.19,-0.37 4.73,-0.72 8.11,2.38l-0.65 9.46c8.38,-9.32 11.38,-24.45 20.82,-30.62 -6.46,1.21 -14.67,7.24 -20.96,10.43z"/>
   <path class="fil10" d="M789.02 267.18c-5.4,5.74 5.29,1.12 -7.77,5.34 18.4,2.58 -5.83,-2.2 6.88,1.41l4.89 2.72 1.33 0.76c1.82,-7.4 -0.39,-3.9 9.86,-1.27 1.91,-3.95 0.61,-3.42 3.48,-7l-4.9 -1.21c9.13,-2.41 7.4,-2.56 10.83,-6.33 -12.67,4.17 -9.09,2.85 -11.63,0.8l-12.96 4.78z"/>
   <path class="fil4" d="M756.09 782.87l2.17 -15.66c0.38,0.52 1.13,0.54 1.22,1.54 0.09,1.01 0.88,1.28 0.97,1.75 0.61,3.1 0.54,3.16 0.38,7.39l3.96 -3.88c-0.3,-11.25 -1.47,-10.71 -14.11,-11.26 0.07,4.74 0.07,21.75 5.41,20.13z"/>
   <path class="fil7" d="M768.68 332.79c0.31,-0.27 0.83,-1.16 0.91,-0.82l3.29 -2.48c-1.19,-10.32 -0.5,-9.59 -7.48,-15.85l-0.59 5.09c-4.23,-7.78 1.68,-4.72 -9.27,-4.81 3.75,4.13 3.32,3.69 6.43,9.47 1.33,2.47 0.95,2.54 2.51,4.92 2.1,3.2 2.22,2.68 4.2,4.48z"/>
   <path class="fil7" d="M595.4 444.88c6.87,-3.08 8.14,-4.11 13.39,-9.83 2.47,-2.69 3.3,-3.63 5.77,-6.4 6.46,-7.22 2.13,-0.54 5.89,-8.34 -11.15,3.87 -9.07,5.81 -16.5,12.52 -5.48,4.95 -9.56,4.98 -8.56,12.04z"/>
   <path class="fil11" d="M755.54 313.92c10.95,0.1 5.03,-2.97 9.27,4.81l0.59 -5.09 -7.09 -10.27 -1.54 0.69c-5.59,-2.26 -6.73,-3.65 -11.22,-6.59 1.63,4.43 3.26,6.88 5.01,10.12 3.22,5.95 0.24,3.54 4.97,6.32z"/>
   <path class="fil9" d="M529.75 402.29c3.59,-2.08 3.73,-0.05 5.63,-2.78l0.29 11.8 7.76 -31.25 -13.68 22.23z"/>
   <path class="fil9" d="M119.11 301.91l-0.81 -4.27c-3.49,2.12 -1.75,-0.22 -6.71,4.41 -4.09,3.82 -3.25,3.69 -5.87,8.04 11.26,-4.1 7.29,0.12 13.39,-8.17z"/>
   <path class="fil1" d="M199.87 609.4c3.06,8.65 0.37,8.01 8.94,12.93 -0.31,-11.25 0.16,-9.49 -8.94,-12.93z"/>
   <path class="fil9" d="M795.09 735.11l7.84 -1.25c-5.48,-1.65 -4.41,-0.7 -7.99,-4.83l-7.34 -2.21 0.33 6.47c6.53,0.58 1.31,-0.49 7.16,1.82z"/>
  </g>
 </g>
</svg>
